<?xml version="1.0" encoding="UTF-8"?> <svg xmlns="http://www.w3.org/2000/svg" id="uuid-04a0e98f-e432-4a9d-a4df-eb8621455fd1" viewBox="0 0 779.39 602.6"><defs><style>.uuid-816bd8a6-fe0f-4269-b716-c0ed8eb5707f{fill:#245e02;}.uuid-816bd8a6-fe0f-4269-b716-c0ed8eb5707f,.uuid-b6d86895-42c7-4311-a492-451adc69ac80{stroke-width:0px;}.uuid-b6d86895-42c7-4311-a492-451adc69ac80{fill:#ace2e2;}</style></defs><g id="uuid-16db6b4a-e2b9-43f8-929b-dd6fe7880e2b"><path class="uuid-b6d86895-42c7-4311-a492-451adc69ac80" d="m124.16,131.42c.42,1.2.64,2.44.64,3.72,0,.6-.1,1.52-.32,2.76-.21,1.24-.62,2.88-1.22,4.94-.86,2.65-1.33,5.21-1.41,7.7.18,2.73.6,5.56,1.28,8.46.59,2.74,1.03,5.47,1.29,8.21v2.57c0,2.65-.09,5.3-.26,7.95-.18,2.31-.26,4.62-.26,6.93v2.31l-.39.39v.13l-.12.13c-.09.09-.13.17-.13.25l-.13.13c-.18.26-.3.47-.38.64l-.26.26v.13l-.26.26c-.17.34-.34.64-.51.9,1.88,1.37,2.82,3.08,2.82,5.13,0,.34-.04.69-.12,1.03.42,3.76.64,7.87.64,12.31,0,3.42-.19,8.3-.58,14.62-.38,6.33-2.28,13.02-5.71,20.07-3.41,7.06-8.97,11.27-16.67,12.64-1.2.17-2.36.25-3.47.25-10.68,0-17.48-5.94-20.39-17.83-.43-2.22-.64-4.53-.64-6.93,0-1.54.09-3.08.26-4.62.17-1.62.25-3.2.25-4.75s-.09-3.03-.25-4.49c-.34-2.31-.85-4.66-1.54-7.05-.69-2.31-1.2-4.7-1.54-7.18-.08-1.45-.12-2.9-.12-4.36,0-5.05.55-10.22,1.67-15.52,1.11-5.56,1.74-11.03,1.92-16.42.09-13.59,1.45-27.06,4.1-40.4-2.23.34-4.49.77-6.8,1.28-2.91.77-5.85,1.33-8.85,1.67-.85.08-1.75.12-2.69.12-1.97,0-3.94-.26-5.9-.77-4.87-1.45-7.82-3.64-8.85-6.54-.86-2.39-1.29-5.17-1.29-8.34,0-.77.04-1.58.12-2.44v-2.69c0-4.02,1.22-8.04,3.66-12.06,2.44-4.02,5.49-7.86,9.18-11.54,3.67-3.67,7.5-7.1,11.47-10.26,3.98-3.16,7.63-5.94,10.97-8.34,5.9-4.44,11.58-6.67,17.05-6.67,1.03,0,3.34.28,6.93.83,3.59.56,7.09,5.32,10.52,14.3,1.45,4.44,2.3,8.94,2.56,13.47.18,2.74.26,5.51.26,8.33,0,1.79-.04,3.63-.13,5.52-.09,1.62-.13,3.25-.13,4.87,0,3.33.15,7.01.45,11.03.3,4.02,1.39,8.34,3.28,12.95Zm-38.73-10.9c3.25-1.97,6.67-4.02,10.26-6.16l2.05-1.28c-2.82-.51-5.09-.77-6.8-.77-1.54,0-2.82.32-3.85.96-1.03.64-1.58,3.06-1.66,7.25Zm15.64-16.42c-1.45-.77-3.29-1.41-5.52-1.92-.93-.25-1.84-.38-2.69-.38-1.11,0-2.14.21-3.08.64.77,2.31,1.54,4.66,2.31,7.05,2.22-1.28,4.44-1.92,6.66-1.92.25,0,1.05.02,2.37.06,1.32.04,3.35.45,6.1,1.22-.69-.77-1.33-1.35-1.93-1.73-.6-.38-1.15-.66-1.67-.83-.43-.26-.85-.53-1.28-.83-.43-.3-.86-.75-1.29-1.35Zm-6.93,20.13c-.08.43-.13.86-.13,1.28,0,1.28.47,1.92,1.41,1.92s2.26-.56,3.97-1.66v-.39c0-1.45-.64-2.18-1.92-2.18-.77,0-1.88.34-3.34,1.02Zm2.31,33.99c.95,3.85,1.92,5.77,2.95,5.77.18,0,.64-.28,1.41-.83.78-.56,1.16-2.54,1.16-5.96-.86.17-1.67.34-2.44.51l-3.08.51Zm5.64-52.2c.08.17.12.3.12.38,0,.43-.21.64-.63.64-.52,0-1.12-.09-1.81-.26.34-.17.73-.3,1.16-.39.34-.17.73-.3,1.15-.38Zm.77,118.12l.13-.64c0-.68-.34-1.03-1.02-1.03-.52,0-1.25.21-2.19.64v.51c0,.68.34,1.03,1.03,1.03.52,0,1.2-.17,2.05-.51Zm-1.67-83.75l-.13.26c-.17.34-.26.6-.26.77s.04.34.13.51c.08-.59.16-1.11.25-1.54Zm2.44-13.59c.34.09.64.13.9.13,1.29,0,1.92-.64,1.92-1.92,0-1.03-.43-2.48-1.27-4.36-.35-.08-.64-.13-.9-.13-1.28,0-1.92.64-1.92,1.92,0,1.03.43,2.48,1.28,4.36Zm-1.15,11.93c.17.09.38.3.64.64,1.71-.6,2.56-1.2,2.56-1.79,0-.43-.34-.86-1.03-1.28l-.89.89-1.29,1.54Zm.38,62.84v.51c0,.68.34,1.02,1.03,1.02.52,0,1.19-.17,2.05-.51l.12-.64c0-.68-.34-1.03-1.03-1.03-.5,0-1.23.21-2.18.64Zm0,26.93v.64c0,1.97.39,3.29,1.15,3.98.52.43,1.07.64,1.67.64.26,0,.73-.1,1.41-.32.68-.21,1.2-.71,1.54-1.48.17-.34.25-.64.25-.9,0-.51-.32-1.07-.96-1.67-.64-.6-2.33-.9-5.07-.9Zm2.06-58.74c-.18-.09-.34-.13-.51-.13-.69,0-1.03.34-1.03,1.03,0,.51.17,1.24.51,2.18h.65c.68,0,1.02-.34,1.02-1.03,0-.51-.22-1.2-.64-2.05Zm1.02,16.54l1.29-.51c1.62-.6,3.33-1.2,5.12-1.79-1.97-.6-3.51-.9-4.62-.9-1.45,0-2.18.51-2.18,1.54,0,.51.12,1.07.38,1.67Z"></path><path class="uuid-b6d86895-42c7-4311-a492-451adc69ac80" d="m307.04,128.47c0,3.25.04,6.59.13,10.01.08,3.25.12,6.54.12,9.88,0,8.89-.3,18.92-.89,30.07-.6,11.16-2.63,22.53-6.09,34.11-3.46,11.59-9.23,21.46-17.31,29.62-8.08,8.16-19.39,13.49-33.92,15.97-3.68.6-7.36.9-11.03.9-7.35,0-15.58-1.43-24.69-4.29-9.11-2.87-17.76-8.02-25.97-15.46-10.69-10.09-17.57-21.59-20.65-34.5-2.91-12.23-4.36-25.05-4.36-38.47v-2.18c0-1.28-.04-2.61-.13-3.98-.16-3.5-.25-7.05-.25-10.64,0-10.09.66-21.2,1.99-33.35,1.33-12.14,5.79-23.89,13.41-35.27,3.15-4.36,6.75-7.7,10.77-10,4.03-2.31,8.47-4.36,13.34-6.16l1.02-.51c1.71-.68,3.34-1.45,4.88-2.31,2.74-1.54,5.64-2.69,8.72-3.46,1.54-1.62,3.42-2.52,5.64-2.69l3.08,2.56h2.04c2.65-.17,5.3-.26,7.95-.26,5.39,0,11.56.37,18.53,1.09,6.97.73,14.48,3.32,22.51,7.76,10.42,5.98,18.04,14.45,22.83,25.39,1.45,4.45,2.18,9.02,2.18,13.72v2.7c0,3.33.32,6.67.96,10,.64,3.33,2.38,6.58,5.2,9.74Zm-108.5-17.05v-3.08c-.6,0-.98.26-1.16.77-.09.26-.12.52-.12.77s.07.58.19.96c.13.39.49.58,1.1.58Zm35.27,107.86c5.13-1.71,10.13-3.89,15.01-6.54,4.87-2.65,8.8-6.37,11.79-11.16,1.45-2.48,2.27-4.49,2.44-6.03v-.77c0-1.45-.17-2.95-.51-4.49-.26-1.11-.48-2.44-.64-3.98-.17-2.05-.26-4.02-.26-5.9,0-2.82.21-5.47.64-7.95.26-1.97.47-4.06.64-6.28v-1.03c0-2.31-.26-4.49-.77-6.54-.52-2.48-.77-5.17-.77-8.08.17-3.25.6-6.41,1.28-9.49.77-3.25,1.16-6.58,1.16-10,0-1.11-.05-2.26-.13-3.46-.94-7.35-3.5-13.81-7.7-19.37-4.19-5.56-9.79-9.06-16.8-10.52-1.02-.17-1.96-.3-2.82-.39-2.74-.59-5.04-.9-6.92-.9-.43,0-1.27.06-2.51.19-1.24.13-3.52,1.17-6.86,3.14-7.01,4.45-11.88,10.05-14.62,16.8-1.53,3.59-2.6,7.44-3.2,11.54-.6,4.1-1.07,8.25-1.41,12.44-.34,3.85-.77,7.52-1.28,11.03-.43,3.17-.64,6.33-.64,9.49,0,2.82.26,6.48.77,10.97.51,4.49,1.37,9.64,2.56,15.45,1.79,8.55,5.15,14.9,10.06,19.05,4.92,4.15,11.01,7.85,18.28,11.09,1.03.6,2.1,1.15,3.21,1.67Zm-24.5,14.49c1.54.6,2.74.9,3.6.9,1.11,0,1.66-.51,1.66-1.54,0-.51-.12-1.15-.38-1.92-1.02-.26-1.88-.39-2.56-.39-1.71,0-2.56.6-2.56,1.79,0,.34.09.73.25,1.15Zm29.12,9.75v-3.08c-.51,0-.85.26-1.02.77-.09.25-.13.51-.13.77s.07.58.19.96c.13.38.45.58.96.58Zm21.55-9.1v-3.08c-.6,0-.98.26-1.16.77-.08.25-.12.51-.12.77s.06.58.19.96c.12.38.49.58,1.09.58Zm9.74,5.64c.6-1.45.9-2.61.9-3.46,0-1.2-.64-1.79-1.93-1.79-.43,0-.98.09-1.66.26-.18,1.02-.26,1.88-.26,2.56,0,1.79.59,2.69,1.8,2.69.34,0,.72-.09,1.15-.26Zm2.57-8.72v-3.08c-.6,0-.99.25-1.16.77-.08.26-.13.51-.13.77s.06.58.19.96c.12.38.49.58,1.09.58Zm9.23-3.08v-3.08c-.6,0-.98.26-1.15.77-.09.26-.13.51-.13.77s.07.58.19.96c.13.38.49.58,1.09.58Zm4.11-68.61l.12-.64c0-.68-.34-1.03-1.03-1.03-.51,0-1.24.22-2.18.64v.51c0,.69.34,1.03,1.03,1.03.51,0,1.19-.17,2.05-.51Zm-2.31-57.45v6.16c.85,0,1.45-.51,1.79-1.54.17-.51.26-1.02.26-1.54s-.13-1.15-.38-1.92c-.26-.77-.82-1.15-1.67-1.15Zm10.52,95.29v-3.08c-.6,0-.98.26-1.15.77-.09.26-.13.51-.13.77s.07.58.19.96c.13.39.49.58,1.09.58Z"></path><path class="uuid-b6d86895-42c7-4311-a492-451adc69ac80" d="m474.92,128.47c0,3.25.04,6.59.12,10.01.08,3.25.13,6.54.13,9.88,0,8.89-.3,18.92-.89,30.07-.6,11.16-2.63,22.53-6.09,34.11-3.46,11.59-9.23,21.46-17.31,29.62-8.08,8.16-19.39,13.49-33.92,15.97-3.68.6-7.36.9-11.03.9-7.35,0-15.58-1.43-24.69-4.29-9.11-2.87-17.76-8.02-25.97-15.46-10.69-10.09-17.57-21.59-20.65-34.5-2.9-12.23-4.36-25.05-4.36-38.47v-2.18c0-1.28-.04-2.61-.13-3.98-.17-3.5-.25-7.05-.25-10.64,0-10.09.66-21.2,1.99-33.35,1.33-12.14,5.79-23.89,13.4-35.27,3.16-4.36,6.75-7.7,10.77-10,4.02-2.31,8.46-4.36,13.34-6.16l1.03-.51c1.71-.68,3.34-1.45,4.87-2.31,2.74-1.54,5.64-2.69,8.72-3.46,1.54-1.62,3.41-2.52,5.64-2.69l3.08,2.56h2.04c2.65-.17,5.3-.26,7.95-.26,5.38,0,11.56.37,18.53,1.09,6.97.73,14.47,3.32,22.51,7.76,10.42,5.98,18.04,14.45,22.83,25.39,1.45,4.45,2.18,9.02,2.18,13.72v2.7c0,3.33.32,6.67.96,10,.64,3.33,2.38,6.58,5.2,9.74Zm-108.5-17.05v-3.08c-.6,0-.98.26-1.16.77-.08.26-.12.52-.12.77s.07.58.19.96c.13.39.49.58,1.09.58Zm35.27,107.86c5.13-1.71,10.13-3.89,15.01-6.54,4.88-2.65,8.81-6.37,11.79-11.16,1.45-2.48,2.27-4.49,2.44-6.03v-.77c0-1.45-.17-2.95-.51-4.49-.26-1.11-.48-2.44-.64-3.98-.17-2.05-.26-4.02-.26-5.9,0-2.82.22-5.47.64-7.95.26-1.97.47-4.06.64-6.28v-1.03c0-2.31-.26-4.49-.77-6.54-.52-2.48-.77-5.17-.77-8.08.17-3.25.59-6.41,1.28-9.49.77-3.25,1.16-6.58,1.16-10,0-1.11-.05-2.26-.13-3.46-.94-7.35-3.51-13.81-7.7-19.37-4.19-5.56-9.79-9.06-16.8-10.52-1.02-.17-1.96-.3-2.82-.39-2.74-.59-5.04-.9-6.92-.9-.43,0-1.27.06-2.5.19-1.24.13-3.52,1.17-6.86,3.14-7.01,4.45-11.88,10.05-14.62,16.8-1.54,3.59-2.6,7.44-3.2,11.54-.59,4.1-1.07,8.25-1.41,12.44-.34,3.85-.77,7.52-1.28,11.03-.43,3.17-.64,6.33-.64,9.49,0,2.82.26,6.48.77,10.97.51,4.49,1.37,9.64,2.56,15.45,1.79,8.55,5.15,14.9,10.07,19.05,4.92,4.15,11.01,7.85,18.28,11.09,1.03.6,2.09,1.15,3.21,1.67Zm-24.5,14.49c1.54.6,2.74.9,3.6.9,1.11,0,1.66-.51,1.66-1.54,0-.51-.12-1.15-.38-1.92-1.03-.26-1.88-.39-2.56-.39-1.71,0-2.56.6-2.56,1.79,0,.34.08.73.25,1.15Zm29.11,9.75v-3.08c-.51,0-.85.26-1.03.77-.08.25-.12.51-.12.77s.07.58.19.96c.13.38.45.58.96.58Zm21.55-9.1v-3.08c-.6,0-.98.26-1.16.77-.08.25-.12.51-.12.77s.07.58.19.96c.12.38.49.58,1.09.58Zm9.74,5.64c.6-1.45.9-2.61.9-3.46,0-1.2-.64-1.79-1.93-1.79-.43,0-.98.09-1.66.26-.18,1.02-.26,1.88-.26,2.56,0,1.79.59,2.69,1.79,2.69.34,0,.73-.09,1.15-.26Zm2.57-8.72v-3.08c-.6,0-.99.25-1.16.77-.08.26-.13.51-.13.77s.07.58.19.96.49.58,1.09.58Zm9.23-3.08v-3.08c-.6,0-.98.26-1.15.77-.09.26-.13.51-.13.77s.07.58.19.96c.13.38.49.58,1.09.58Zm4.11-68.61l.12-.64c0-.68-.34-1.03-1.03-1.03-.51,0-1.24.22-2.18.64v.51c0,.69.34,1.03,1.03,1.03.51,0,1.19-.17,2.05-.51Zm-2.31-57.45v6.16c.85,0,1.45-.51,1.79-1.54.17-.51.26-1.02.26-1.54s-.13-1.15-.38-1.92c-.26-.77-.82-1.15-1.67-1.15Zm10.52,95.29v-3.08c-.6,0-.98.26-1.15.77-.09.26-.13.51-.13.77s.07.58.19.96c.13.39.49.58,1.09.58Z"></path><path class="uuid-b6d86895-42c7-4311-a492-451adc69ac80" d="m534.68,158.99c-1.97.34-3.85.51-5.64.51-5.56,0-10.65-1.77-15.27-5.32-4.62-3.55-8.29-8.79-11.03-15.71-2.74-6.92-4.36-14.15-4.87-21.67-.08-1.88-.13-3.72-.13-5.52,0-5.3.55-10.05,1.66-14.24,1.8-6.93,4.72-13.51,8.79-19.75,4.06-6.24,9-11.24,14.82-15.01,5.21-3.33,10.98-5,17.31-5,.85,0,1.71.04,2.56.13,4.45.51,8.42,2.12,11.93,4.81,3.51,2.7,6.79,5.71,9.87,9.04l2.96,2.95c4.52,4.45,7.48,9.23,8.85,14.36,1.03,3.85,1.54,8.08,1.54,12.7,0,1.46-.04,2.95-.12,4.49-.86,13.94-5.17,26.67-12.95,38.22-3.93,5.3-8.01,8.83-12.24,10.58-4.23,1.75-9.05,3.02-14.43,3.78-1.2.17-2.4.38-3.59.64Zm117.21-66.69c-4.87,11.2-10.58,21.93-17.12,32.19-6.54,10.26-13.4,20.39-20.58,30.39-6.59,9.23-12.93,18.58-19.05,28.02-6.11,9.45-11.52,19.22-16.22,29.3-2.14,4.87-4.96,10.56-8.46,17.06-3.51,6.5-7.57,12.42-12.19,17.76-4.62,5.34-9.66,8.66-15.13,9.94h-.52c-3.59.86-7.64,1.41-12.18,1.67h-1.41c-3.76,0-6.84-.94-9.24-2.82-2.73-3.08-4.14-7.14-4.23-12.18v-.9c0-4.79.6-8.8,1.8-12.05,1.02-2.31,2.43-4.49,4.23-6.54,1.54-1.8,2.86-3.72,3.97-5.77.94-2.39,1.71-4.79,2.3-7.18.52-2.31,1.24-4.57,2.19-6.8,3.51-7.27,7.99-14.11,13.46-20.52,1.97-2.56,3.85-5.04,5.64-7.44,14.37-20.26,28.17-40.87,41.42-61.82,6.07-9.32,12.31-18.55,18.72-27.7,1.03-1.37,2.01-2.78,2.96-4.23,1.19-1.79,2.44-3.76,3.71-5.9,2.05-3.42,4.32-6.75,6.8-10,2.48-3.24,5.3-5.73,8.46-7.44,2.73-1.28,5.98-1.93,9.74-1.93.52,0,2,.05,4.43.13,2.43.09,5.02,1.24,7.75,3.46,2.74,2.56,4.15,5.77,4.23,9.62v.77c0,3.59-.6,7.27-1.79,11.03-1.2,3.76-2.44,7.05-3.72,9.88Zm-126.06,36.29c-.09.51-.13.98-.13,1.41,0,1.2.47,1.79,1.41,1.79.86,0,2.19-.56,3.98-1.67v-.38c0-1.45-.64-2.18-1.93-2.18-.77,0-1.88.34-3.33,1.02Zm9.62-28.34c-2.48,1.03-3.72,2.87-3.72,5.52,0,.25.07,1.24.19,2.95.13,1.71.71,3.93,1.74,6.67.26-.6.55-1.2.89-1.8,1.37-2.14,2.31-4.31,2.83-6.54.17-.51.25-1.07.25-1.67,0-1.71-.73-3.42-2.18-5.13Zm.77,21.42c.68-.51,1.03-.94,1.03-1.28,0-.51-1.03-.9-3.08-1.15.34.43.68.81,1.03,1.15l1.03,1.28Zm9.75-39.76c-1.71.34-3.42.73-5.13,1.15.17.94.68,1.54,1.54,1.8.34.08.64.13.89.13.52,0,1.03-.13,1.55-.39.77-.43,1.15-1.2,1.15-2.31v-.38Zm3.33,9.74h-1.02c-1.46,0-2.19.51-2.19,1.54,0,.86.56,2.14,1.67,3.85h.12c1.63,0,2.44-.64,2.44-1.92,0-.85-.34-2.01-1.03-3.46Zm1.54,33.34v3.08c.59,0,.98-.26,1.15-.77.08-.26.12-.51.12-.77s-.06-.58-.19-.96c-.12-.39-.49-.58-1.08-.58Zm3.21,95.93c-.18,2.74-.26,4.7-.26,5.9,0,1.11.22,1.75.64,1.92.17.09.38.13.64.13.43,0,.99-.13,1.67-.39-.18-.51-.56-1.54-1.16-3.08-.43-1.2-.94-2.69-1.54-4.49Zm2.44-7.31h1.03c1.45,0,2.18-.47,2.18-1.41s-.6-2.26-1.79-3.98c-1.63,0-2.44.68-2.44,2.05,0,.85.34,1.97,1.03,3.33Zm11.29-6.16c.51-1.37.77-2.48.77-3.33,0-1.29-.6-1.93-1.79-1.93-.43,0-.99.09-1.67.26-.17,1.03-.25,1.88-.25,2.56,0,1.8.59,2.7,1.79,2.7.34,0,.73-.09,1.15-.26Zm3.59-31.04h6.16c0-.86-.52-1.45-1.54-1.79-.51-.17-1.03-.26-1.54-.26s-1.15.13-1.92.39c-.78.25-1.16.81-1.16,1.67Zm3.85,13.21c.77-.17,1.49-.34,2.18-.51.26-.08.52-.13.78-.13.08-.09.17-.13.25-.13h.13c.51-.17,1.07-.3,1.66-.38-.17-.94-.73-1.54-1.66-1.8-.34-.17-.68-.25-1.03-.25-.43,0-.86.17-1.29.51-.68.34-1.03,1.11-1.03,2.31v.38Zm22.96-43.09v-6.16c-.86,0-1.46.52-1.8,1.54-.08.51-.12,1.02-.12,1.54s.11,1.16.32,1.92c.22.77.75,1.15,1.61,1.15Zm68.48,21.42c5.65.52,9.58,3.25,11.8,8.21,2.22,4.7,3.34,10.3,3.34,16.8,0,.26-.03,2.16-.07,5.71-.04,3.55-.71,8.49-1.99,14.81-1.29,6.33-2.7,11.2-4.23,14.62-3.85,8.64-9.09,15.56-15.72,20.77-6.63,5.21-13.91,7.83-21.86,7.83h-.26c-7.87,0-15.69-3.38-23.47-10.13-5.9-5.64-9.71-12.48-11.41-20.52-1.03-4.53-1.54-9.06-1.54-13.59,0-3.76.52-8.7,1.54-14.81,1.03-6.11,3.25-12.59,6.67-19.43,2.14-4.1,5.17-8.44,9.11-13.02,3.93-4.57,8.12-7.67,12.56-9.3,1.2-.34,3.04-.53,5.52-.58,2.48-.04,4.94,0,7.38.13,2.43.13,4.29.28,5.58.45,3.85.51,6.69,1.45,8.53,2.82,1.84,1.37,3.74,3.33,5.7,5.9.86,1.02,1.8,2.14,2.82,3.33Zm-63.74-11.41c2.48-2.65,5-5.26,7.57-7.82-1.2.26-2.23.43-3.08.51-2.31.26-3.81.77-4.49,1.54-.34.43-.51,1.11-.51,2.05s.17,2.18.51,3.72Zm20.65-42.83v.51c0,.69.34,1.03,1.03,1.03.51,0,1.19-.17,2.05-.51l.12-.64c0-.68-.34-1.03-1.03-1.03-.51,0-1.24.21-2.18.64Zm12.57,98.88c-1.46.68-2.87,1.37-4.23,2.05l-4.37,2.05h5c1.54,0,2.86-.21,3.98-.64,1.11-.43,2.35-1.92,3.71-4.49,1.03-2.14,1.54-4.19,1.54-6.16,0-1.03-.28-2.52-.83-4.49-.56-1.97-2.25-4.02-5.07-6.16,0,2.4-.13,4.49-.38,6.29-.26,1.28-.38,2.61-.38,3.97,0,2.4.33,4.92,1.03,7.57Zm-8.47-10.78v3.08c.6,0,.99-.26,1.16-.77.08-.26.12-.52.12-.77s-.07-.58-.19-.96c-.12-.38-.49-.58-1.09-.58Zm25.01,27.7c.17-.85.25-1.67.25-2.44,0-1.54-.38-3.06-1.15-4.55-.77-1.49-2.56-2.24-5.38-2.24-.17.43-.26.85-.26,1.28,0,.94.49,1.99,1.48,3.14.98,1.15,2.15,2.29,3.52,3.4.68.51,1.2.98,1.54,1.41Z"></path><path class="uuid-816bd8a6-fe0f-4269-b716-c0ed8eb5707f" d="m6.35,382.43c-1.1.02-1.84-.14-2.21-.5-1.48-.52-2.6-1.41-3.35-2.68-.75-1.26-.97-2.63-.64-4.11,2.98-15.26,6.37-30.4,10.17-45.41,3.8-15.01,7.58-29.23,11.32-42.69,3.75-13.45,7.43-25.89,11.02-37.32,3.61-11.43,6.79-21.34,9.55-29.74,2.75-8.39,4.99-14.99,6.72-19.79,1.73-4.8,2.69-7.29,2.87-7.48.52-1.48,1.55-2.6,3.09-3.36,1.54-.76,3.14-.8,4.81-.1,1.48.52,2.6,1.55,3.36,3.09.77,1.54.8,3.14.11,4.81,0,.18-1.42,4.28-4.28,12.31-2.85,8.03-6.47,18.82-10.86,32.38-4.38,13.56-9.14,29.23-14.26,47.01-5.11,17.78-9.94,36.52-14.48,56.21.71-1.11,1.42-2.18,2.13-3.21.71-1.02,1.42-1.99,2.14-2.93,5.87-7.99,10.91-14.38,15.12-19.13,4.2-4.76,7.83-8.32,10.9-10.67,3.06-2.35,5.6-3.73,7.61-4.15,2-.41,3.84-.45,5.49-.12,1.84.51,3.7,1.71,5.57,3.59,1.87,1.89,3.04,5.2,3.51,9.96,1.02,13.72,4.04,21.99,9.04,24.81,3.72,2.12,9.8,2.09,18.27-.11,8.47-2.19,19.78-6.74,33.92-13.63,1.45-.76,2.96-.84,4.53-.23,1.57.61,2.74,1.64,3.5,3.09.76,1.45.89,2.96.37,4.53-.52,1.57-1.59,2.83-3.22,3.77-8.35,4.02-15.78,7.3-22.33,9.81-6.54,2.52-12.37,4.34-17.47,5.45-5.1,1.12-9.59,1.49-13.43,1.11-3.86-.37-7.27-1.45-10.24-3.22-2.78-1.59-5.12-3.69-6.99-6.31-1.89-2.61-3.42-5.47-4.58-8.56-1.17-3.09-2.01-6.32-2.54-9.7-.54-3.38-.92-6.62-1.17-9.73-.02-.91-.13-1.55-.31-1.92-.73.39-1.76,1.09-3.11,2.12-1.35,1.04-3.11,2.72-5.26,5.06-2.14,2.34-4.74,5.37-7.77,9.09-3.04,3.73-6.6,8.48-10.69,14.24-2.85,3.91-5.52,7.72-8,11.44-2.49,3.72-4.66,7.06-6.52,10.03-1.85,2.97-3.95,6.31-6.24,10.02-1.25,1.86-2.96,2.81-5.16,2.85Z"></path><path class="uuid-816bd8a6-fe0f-4269-b716-c0ed8eb5707f" d="m132.97,380.59c-2.38.05-4.36-.18-5.92-.7-1.56-.51-3-1.21-4.3-2.1-1.11-.71-2.14-1.69-3.09-2.96-.94-1.26-1.61-2.85-2.02-4.77-.4-1.91-.55-4.24-.42-7,.13-2.75.79-5.97,2-9.66.34-1.47.81-2.94,1.42-4.43.61-1.48,1.27-3.05,1.96-4.71l.52-1.11c2.28-4.99,5.05-10.09,8.33-15.29,3.27-5.2,6.7-9.94,10.28-14.23,3.56-4.29,7.06-7.84,10.49-10.67,3.42-2.82,6.51-4.25,9.25-4.31,2.37-.05,4.36.59,5.95,1.93,1.58,1.34,2.59,3.2,3,5.57.42,2.74-.24,6.23-1.98,10.48-1.74,4.25-4.26,8.66-7.55,13.21-3.3,4.56-7.37,8.81-12.23,12.76-4.86,3.95-10.12,6.9-15.75,8.85-.88,2.04-1.61,4.02-2.21,5.95-.61,1.94-.98,3.83-1.12,5.66-.49,2.76-.28,4.31.65,4.66.19.18,1.24.34,3.17.48,1.93.15,5.43-.75,10.53-2.69,5.08-1.94,12.06-5.48,20.93-10.61,8.87-5.14,20.43-12.8,34.69-22.99,1.44-.94,2.99-1.3,4.64-1.06,1.66.24,2.96,1.09,3.9,2.53.95,1.45,1.3,3,1.06,4.65-.24,1.65-1.08,2.95-2.53,3.9-10.46,7.55-19.63,13.79-27.49,18.71-7.86,4.93-14.74,8.88-20.63,11.84-5.9,2.97-10.94,5.04-15.11,6.22-4.2,1.19-7.66,1.81-10.41,1.87Zm20.4-61.97c-.89,1.3-1.91,2.7-3.07,4.19-1.17,1.49-2.37,2.98-3.61,4.47,2.86-2.99,5.1-5.88,6.68-8.66Z"></path><path class="uuid-816bd8a6-fe0f-4269-b716-c0ed8eb5707f" d="m273.81,361.96c-7.51.16-13.59-1.45-18.24-4.84-2.23-1.6-3.97-3.48-5.2-5.66-1.24-2.17-2.15-4.39-2.75-6.67-.59-2.28-.92-4.56-.97-6.85-.05-2.29,0-4.35.15-6.19-1.81.77-3.9,1.87-6.25,3.29-2.35,1.42-4.79,2.89-7.32,4.41-2.54,1.52-5.02,3.08-7.46,4.69-2.45,1.61-4.56,3.08-6.36,4.39-3.08,1.9-5.97,3.7-8.68,5.41-2.71,1.71-5.16,3.22-7.32,4.55-1.09.76-2.3,1.47-3.66,2.14-1.36.67-2.73,1.2-4.09,1.6-1.36.4-2.69.47-3.98.22-1.29-.25-2.49-.91-3.61-1.98-1.3-1.25-1.98-2.71-2.02-4.35-.03-1.65.35-3.3,1.14-4.97.79-1.67,1.85-3.43,3.19-5.29,1.33-1.86,2.81-3.72,4.42-5.59,13.55-17.32,26.36-26.38,38.43-27.19,3.85-.26,7.1.22,9.79,1.44,2.68,1.23,4.77,2.46,6.26,3.71,2.56-.24,4.77.17,6.62,1.24.74.35,1.63,1.25,2.66,2.69,1.03,1.45,1.4,3.64,1.1,6.57-1.44,9.92-.39,16.13,3.14,18.62,1.3.89,3.51,1.58,6.64,2.06,3.13.48,7.61.21,13.44-.83,5.84-1.04,13.4-3.21,22.67-6.52,9.28-3.31,20.8-8.31,34.57-15.02,1.45-.95,2.96-1.11,4.53-.51,1.57.61,2.73,1.73,3.51,3.36.94,1.45,1.11,2.96.51,4.52-.61,1.57-1.73,2.74-3.36,3.51-31.91,15.69-55.74,23.71-71.48,24.04Zm-41.16-36.5c-2.19.42-4.82,1.48-7.9,3.19-3.08,1.71-6.68,4.63-10.81,8.75,7.22-4.73,13.46-8.71,18.71-11.94Z"></path><path class="uuid-816bd8a6-fe0f-4269-b716-c0ed8eb5707f" d="m343.32,414.07c-2.75.06-5.42-.62-8.01-2.03-2.41-1.42-4.52-3.85-6.34-7.28-1.81-3.45-2.67-9.01-2.55-16.71.11-7.69,1.5-18.12,4.15-31.27,2.65-13.15,7.23-30.15,13.76-50.99.86-2.94,1.75-5.85,2.71-8.71.94-2.86,1.84-5.67,2.7-8.44-1.33-1.98-1.46-4.09-.41-6.31,1.76-3.33,3.44-6.57,5.02-9.72,1.58-3.15,3.08-6.2,4.47-9.16,2.25-6.46,4.42-12.46,6.5-18,2.08-5.54,3.9-10.34,5.46-14.4,1.56-4.06,3.3-8.49,5.22-13.3,1.39-2.96,2.64-5.23,3.7-6.81,1.07-1.57,2.61-2.48,4.62-2.7,2.57-.05,4.42.92,5.56,2.9.38.54.67,1.18.86,1.91.2.73.13,2.02-.2,3.85-.33,1.84-1.1,4.42-2.3,7.74-1.22,3.32-2.96,7.94-5.21,13.85-1.21,3.14-2.91,7.25-5.1,12.34-2.18,5.09-4.76,10.86-7.74,17.33-2.43,6.28-4.81,12.93-7.13,19.93-2.32,7.01-4.7,14.11-7.11,21.3-6.53,20.66-10.99,37.01-13.39,49.06-2.4,12.05-3.72,21.23-3.95,27.56-.23,6.32.13,10.44,1.08,12.34.96,1.9,1.62,2.94,1.99,3.12.18.17.83.3,1.93.37,1.1.07,2.78-.43,5.05-1.48,2.27-1.05,5.34-2.95,9.22-5.69,3.88-2.74,8.79-6.92,14.71-12.54,5.93-5.62,12.92-12.86,20.98-21.73,8.06-8.86,17.52-20.01,28.42-33.43,1.07-1.49,2.47-2.3,4.21-2.42,1.74-.13,3.25.34,4.57,1.41,1.3,1.07,2.06,2.43,2.28,4.08.22,1.64-.21,3.12-1.28,4.42-24.82,30.57-45.05,52.33-60.72,65.3-3.96,3.19-8.38,6.36-13.26,9.48-4.88,3.12-9.7,4.74-14.46,4.84Z"></path><path class="uuid-816bd8a6-fe0f-4269-b716-c0ed8eb5707f" d="m583.12,241.96c.58,1.27.74,2.69.5,4.25-.23,1.56-1.27,3.1-3.06,4.6-1.26.94-2.67,1.34-4.23,1.19-1.56-.15-2.91-.76-4.02-1.84-3.67.08-9.47.75-17.41,2.02-7.95,1.27-17.25,2.93-27.92,4.98-10.67,2.06-22.4,4.37-35.16,6.93-12.77,2.56-25.82,5.26-39.12,8.11-5.18,15.13-10.89,35.22-17.14,60.26-6.25,25.05-11.66,55.02-16.23,89.91-.48,3.49-2.45,5.27-5.94,5.35l-1.09.02c-1.66-.33-3-1.13-4.04-2.39-1.03-1.26-1.38-2.72-1.05-4.38,4.24-33.42,9.26-62.15,15.07-86.18,5.82-24.02,11.21-43.87,16.19-59.55-12.39,2.83-24.51,5.56-36.37,8.19-11.85,2.63-22.97,5.16-33.36,7.57l-1.38.03c-1.46.03-2.75-.4-3.87-1.29-1.12-.89-1.87-2.07-2.27-3.53-.4-1.64-.16-3.15.73-4.55.89-1.39,2.24-2.29,4.07-2.7,8.38-1.83,16.09-3.54,23.11-5.16,7.01-1.61,15.17-3.48,24.47-5.6,9.3-2.12,19.14-4.29,29.54-6.53,3.46-9.23,6.24-16.25,8.35-21.06,2.09-4.8,3.23-7.39,3.41-7.76.88-1.48,2.14-2.52,3.78-3.1,1.64-.58,3.2-.43,4.68.45,1.49.88,2.51,2.1,3.1,3.64.58,1.55.43,3.06-.46,4.54-.18.19-1.01,1.95-2.5,5.28-1.49,3.33-3.53,8.32-6.14,14.97,2.01-.41,4.11-.82,6.3-1.23,2.19-.41,4.28-.82,6.29-1.23,15.32-3.25,28.95-6.06,40.9-8.42,11.94-2.36,22.39-4.27,31.33-5.74,10.59-1.87,18.8-3.15,24.65-3.82,4.21-.45,7.68-.58,10.43-.36,2.75.22,4.7,1.6,5.86,4.14Z"></path><path class="uuid-816bd8a6-fe0f-4269-b716-c0ed8eb5707f" d="m487.78,372.28c-1.09.02-1.83-.14-2.21-.5-1.48-.52-2.6-1.41-3.35-2.68-.76-1.26-.97-2.63-.64-4.11,2.98-15.27,6.36-30.4,10.17-45.41,3.8-15.01,7.58-29.24,11.33-42.69,3.74-13.45,7.42-25.89,11.03-37.33,3.61-11.43,6.79-21.34,9.54-29.74,2.75-8.39,5-14.98,6.72-19.79,1.73-4.8,2.69-7.29,2.87-7.48.52-1.48,1.55-2.6,3.09-3.36,1.54-.76,3.15-.8,4.8-.1,1.48.52,2.6,1.55,3.36,3.09.76,1.54.79,3.14.1,4.81,0,.18-1.42,4.29-4.27,12.32-2.85,8.03-6.47,18.82-10.86,32.37-4.38,13.56-9.14,29.23-14.26,47.01-5.12,17.79-9.95,36.52-14.47,56.22.71-1.11,1.42-2.18,2.13-3.21.71-1.02,1.42-1.99,2.13-2.93,5.88-8,10.92-14.38,15.12-19.14,4.2-4.76,7.83-8.31,10.9-10.67,3.06-2.35,5.6-3.73,7.61-4.15,2-.41,3.84-.45,5.49-.11,1.84.51,3.7,1.71,5.57,3.59,1.87,1.89,3.03,5.2,3.51,9.96,1.03,13.72,4.04,21.99,9.03,24.81,3.72,2.12,9.81,2.08,18.28-.11,8.47-2.19,19.78-6.74,33.92-13.63,1.44-.76,2.96-.84,4.52-.23,1.57.61,2.74,1.64,3.5,3.08.75,1.45.89,2.96.37,4.53-.52,1.56-1.59,2.83-3.22,3.77-8.34,4.03-15.78,7.3-22.32,9.81-6.54,2.52-12.37,4.34-17.47,5.45-5.11,1.12-9.59,1.49-13.44,1.11-3.86-.37-7.27-1.45-10.23-3.22-2.78-1.59-5.12-3.7-7-6.31-1.89-2.61-3.41-5.47-4.57-8.56-1.17-3.09-2.02-6.32-2.55-9.7-.53-3.38-.92-6.62-1.16-9.73-.02-.91-.13-1.55-.31-1.92-.73.38-1.77,1.09-3.12,2.12-1.35,1.04-3.1,2.72-5.25,5.06-2.15,2.34-4.74,5.37-7.78,9.09-3.03,3.73-6.59,8.48-10.68,14.24-2.85,3.91-5.53,7.72-8,11.43-2.49,3.72-4.66,7.06-6.52,10.03-1.86,2.97-3.95,6.31-6.24,10.02-1.25,1.86-2.96,2.81-5.16,2.85Z"></path><path class="uuid-816bd8a6-fe0f-4269-b716-c0ed8eb5707f" d="m627.4,452.86c-2.38.05-4.59-.64-6.63-2.06-4.65-3.02-6.84-7.09-6.58-12.23-.04-1.83.42-4.04,1.37-6.62.95-2.59,2.85-5.69,5.71-9.33,2.85-3.63,6.93-7.93,12.23-12.9,5.3-4.97,12.27-10.75,20.93-17.34,1.91-4.8,3.91-10.02,5.99-15.65,2.07-5.63,4.32-11.86,6.75-18.69,3.28-9.41,6.34-18.54,9.17-27.39,2.84-8.85,5.45-16.97,7.87-24.35-10.71,13.24-19.79,23.59-27.23,31.07-7.45,7.49-13.69,12.98-18.74,16.47-5.06,3.5-9.14,5.41-12.25,5.75-3.11.34-5.78-.11-8-1.34-2.41-1.23-4.14-2.98-5.19-5.25-1.06-2.27-1.75-4.86-2.09-7.79-.34-2.92-.35-5.9-.05-8.93.31-3.03.7-5.92,1.19-8.68.99-5.33,2.08-10.07,3.27-14.22,1.2-4.15,1.88-6.4,2.06-6.77.51-1.48,1.54-2.6,3.08-3.36,1.54-.76,3.05-.89,4.53-.37,1.66.52,2.86,1.55,3.64,3.08.76,1.54.88,3.05.37,4.53-1.39,3.88-2.49,7.84-3.33,11.88-.83,4.05-1.48,7.77-1.96,11.17-.48,3.4-.7,6.33-.64,8.8.05,2.47.36,4.16.93,5.06.55-.01,2-.55,4.36-1.6,2.36-1.06,6.19-4.02,11.49-8.9,5.3-4.87,12.39-12.26,21.24-22.15,8.86-9.9,20.06-23.68,33.61-41.37.88-1.3,2.02-2.11,3.38-2.41,1.37-.3,2.7-.1,4,.6,1.48.7,2.51,1.69,3.08,2.96.58,1.27.61,2.64.08,4.12-2.55,9.4-4.97,17.92-7.29,25.57-2.31,7.65-5.01,16.32-8.1,26-3.1,9.68-6.46,19.6-10.09,29.75-1.21,3.51-2.38,6.78-3.5,9.83-1.13,3.05-2.2,6.05-3.24,9,3.06-2.26,6.35-4.53,9.88-6.8,3.52-2.27,7.18-4.73,10.98-7.37,9.39-6.25,18.66-12.16,27.79-17.76,9.13-5.59,17.27-10.53,24.42-14.8,7.14-4.27,12.93-7.69,17.37-10.26,4.44-2.57,6.74-3.85,6.93-3.86,1.44-.95,2.95-1.16,4.52-.64,1.56.52,2.82,1.5,3.77,2.94.94,1.45,1.16,3,.64,4.66-.51,1.66-1.49,2.97-2.93,3.91-.18,0-2.45,1.25-6.79,3.71-4.34,2.47-10.09,5.85-17.24,10.12s-15.19,9.16-24.14,14.66c-8.96,5.5-18.13,11.37-27.52,17.62-7.59,4.92-14.32,9.42-20.19,13.48-5.86,4.07-11.15,7.97-15.83,11.74-4.88,11.64-9.13,20.8-12.74,27.47-3.62,6.67-6.76,11.77-9.44,15.31-2.66,3.54-4.87,5.82-6.58,6.87-1.73,1.04-3.13,1.75-4.22,2.15-1.46.58-2.83.88-4.1.91Zm15.73-35.5c-3.59,3.37-6.51,6.32-8.74,8.84-2.24,2.52-3.94,4.62-5.09,6.29-1.16,1.67-1.91,3.07-2.25,4.17-.35,1.11-.51,1.93-.5,2.49-.36.37-.17.83.58,1.36.36-.19.95-.57,1.77-1.14.81-.57,1.84-1.65,3.09-3.23,1.24-1.59,2.8-3.86,4.66-6.83,1.86-2.97,4.01-6.95,6.47-11.95Z"></path><path class="uuid-816bd8a6-fe0f-4269-b716-c0ed8eb5707f" d="m542.73,486.99c-1.23,1.79-3.99,2.02-4.05,3.54-.09,2.58,2.56,3.27,4.5.93,1.28-1.5-.08-2.96.75-4.16.52-.74,2.42-.57,3.34-1.65,1.08-1.25,1.2-3.12,1.75-3.55,2.85-2.1,6.25,2.07,8.82-1.47.58-.82-1.08-.53-.93-1.49.15-.89,2.81-3,3.85-3.19,1.39-.27,3.52,2.62,4.26-.12.74-2.83,1.24-1.95,1.34-.25,2.95-3.19,5.85-6.42,8.66-9.77,5.61-6.64,10.8-13.5,15.69-20.49-.55-.86-.87-2.01-1.98-3.03-1.14-1.03-2.25-.78-2.67-1.66-.07-.15.89-2.79.65-3.3-.44-1.05-1.59-1.44-2.65-1.86-5.38,7.94-11.2,15.68-17.52,23.17-7.14,8.47-14.74,16.33-22.64,23.7.26,1.23-.22,3.22-1.19,4.65Z"></path><path class="uuid-816bd8a6-fe0f-4269-b716-c0ed8eb5707f" d="m621.74,382.01c-1.4-2.32-3.46-3.67-5.28-.5,1.18,1.45,3.84,1.57,2.09,4.09,2.1.05,2.31,1.83,2.75,3.34.37-.92.74-1.86,1.09-2.79-.11-.09-.21-.13-.33-.24-.88-.74.41-2.68-.32-3.9Z"></path><path class="uuid-816bd8a6-fe0f-4269-b716-c0ed8eb5707f" d="m180.3,501.29c-.91,0-1.43.22-1.68.56,1.89,1.55,3.79,3.07,5.72,4.57,2.02-1.5-2.31-5.17-4.04-5.13Z"></path><path class="uuid-816bd8a6-fe0f-4269-b716-c0ed8eb5707f" d="m601.68,428.45c.63-1.06,1.22-2.13,1.85-3.19-1.86-.7-4.17-1.08-4.67.09-.56,1.31.99,2.74,2.82,3.1Z"></path><path class="uuid-816bd8a6-fe0f-4269-b716-c0ed8eb5707f" d="m615.23,402.95c1.68-3.58,3.31-7.19,4.83-10.83-1.29-.93-2.23-.56-3.55-1.75.08-1.35.83-1.79-.08-2.83-3.14-3.61-3.74,2.37-6.1,4.55-.93.85-1.92.98-2.83.99-.68,1.54-1.37,3.07-2.07,4.6,1.32,1.19,3.19,2.27,4.06,3.19.77.82.86,3.04,1.63,3.34,1.21.5,2.62-.63,4.1-1.25Z"></path><path class="uuid-816bd8a6-fe0f-4269-b716-c0ed8eb5707f" d="m591.69,441.33c.61.1,1.09.27,1.53.44,1.02-1.49,1.95-3.03,2.94-4.53-.19.02-.37.04-.56.04-1.96.11-3.44-.95-4.38-.42-1.14.63-2.77,3.34-2.5,4.01.38,1.03,3.16.48,2.97.47Z"></path><path class="uuid-816bd8a6-fe0f-4269-b716-c0ed8eb5707f" d="m75.37,278.4c-.03,1.24-.03,2.48-.04,3.73.42-.54.74-1.18.84-2,.08-.44-.19-1.08-.8-1.73Z"></path><path class="uuid-816bd8a6-fe0f-4269-b716-c0ed8eb5707f" d="m86.06,222.63c1.07.55,1.51,1.6,1.8,1.58,1.87,0,5.15-3.67,6.25-6.31.43-1.05.05-2.5.67-3.31.05-.06.21-.09.39-.12,1.21-4.65,2.57-9.27,4.04-13.87-.29.11-.64.05-.93-.31-.41-.49.1-1.16.84-1.32.28-.07.49-.05.64,0,10.55-32.49,27.38-63.55,50.77-91.27,25.13-29.78,55.29-52.77,88.19-68.87-.9-.77-.5-1.88-1.93-1.66-1.4,1.1.06,3.01-1.56,3.2-1.35-1.54-2.04-2.66-1.55-4.2.56-1.59,2.68-1.83,3.32-3.06.94-1.85-.34-3.6-.85-5.37-1.09.52-2.19,1.04-3.28,1.56.38.13.83.33,1.4.71-.19-.12,2.46.98.31,2.52-1.51,1.09-3.12-1.35-2.97-2.62-33.37,16.72-63.98,40.28-89.57,70.62-30.62,36.3-50.5,78.08-60.04,121.44,1.47.12,3.17.18,4.06.64ZM204.43,51.82c5.16-7.94,8.77,4.72,0,0h0Zm-31.38,30.15c-1.04,1.97-4.96-1.61-6.31-2.53,2.1-1.56,7.29.75,6.31,2.53Zm-33.35,30.33c.86.38,1.27.87,1.48,1.4-1.33,1.57-3.45-.27-1.48-1.4Zm21.93-23.96c.06-2.14,3.18-3.83,4.59-3.63.64.09,2.23.11,2.12,1.8-.05,1.55-6.84,6.41-6.71,1.83Z"></path><path class="uuid-816bd8a6-fe0f-4269-b716-c0ed8eb5707f" d="m253.18,20.24c-1.83.74-3.64,1.53-5.45,2.29,1.95-.03,3.85-.55,5.45-2.29Z"></path><path class="uuid-816bd8a6-fe0f-4269-b716-c0ed8eb5707f" d="m274.41,15.59c.87-1.45-.1-1.98-.27-2.75-1.27.41-2.58.78-3.86,1.19,1.19.97,3.33,1.48,4.13,1.57Z"></path><path class="uuid-816bd8a6-fe0f-4269-b716-c0ed8eb5707f" d="m167.89,488.41c-1.54-1.54-5.01-7.42-7.46-2.91.05.06.12.1.16.15,1.2.56,2.12-.18,3.42.82-.05.89-.51,1.14-1.07,1.5,2.29,2.17,4.63,4.28,6.99,6.38,3.36-2.38-.44-4.41-2.03-5.94Z"></path><path class="uuid-816bd8a6-fe0f-4269-b716-c0ed8eb5707f" d="m339.37,3.12c-.52,0-1.83-1.02-2.61-2.3-9.53.73-19,1.91-28.42,3.6-.24.68-.4,1.34-.28,1.95.41,2.09,1.8.64,2.38,2.89-3.26-2.29-4.66.53-7.3.53-2.93.03-4.06-3.47-6.8-1,2.82.29,6.17,1.9,4.38,4.14-.87,1.09-1.43-.71-2.97-.47-1.99.36-2.89,2.02-4.18-.73-1.51,2.74-3.25,3.78-3.43,6.22-2.35-1.54-3.61,1.64-5.88.5.32-1.94,3.47-5.31,3.71-7.44.08-.57-.7-1.31-1.11-1.8-2.5.65-5.02,1.3-7.5,2.02.02.01.08.03.08.05,3.06,2.51-1.7,5.75-3.27,8.19.59.99,5.62-3,5.69-.17.12,3.09-3.69,1.42-4.83,2.56-.44.42-.62,1.17-.83,1.97,5.06-1.59,10.16-3.03,15.28-4.33.04-.06.06-.14.13-.17.33-.11.61-.11.85-.09,2.94-.74,5.9-1.42,8.86-2.06.65-.99,3.81-5.79,3.4-5.46,2.51-2,7.7.66,9.9,1.99-.67.21-1.28.69-1.87,1.26,6.19-1.06,12.41-1.88,18.65-2.51-.45-.3-.88-.68-1.31-1.18,1.46-1.92,4.28.09,6.67.45.58.1,1.36.08,2.15.08,2.17-.15,4.35-.29,6.53-.39-.61-.24-.74-1.4,1.42-1.73-.17,1.05-.54,1.52-.9,1.7,3.56-.17,7.14-.24,10.71-.26-.18-.83-.45-1.74-.3-2.48.13-.62,2.2-5.43,1.51-4.65,3.86-4.5,8.75,4.53,13.3,1.8,1.11,2.11-2.34,2.2-3.19,3.57-.05.08-.26.9-.48,1.9,59.02,1.9,117.85,22.88,166.49,63.91,14.85,12.53,27.99,26.32,39.46,41.06.43-.07.88.01,1.35.35-.16.29-.33.53-.5.8.59.76,1.16,1.53,1.74,2.31,1.63-.65,3.55-1.18,4.38-.96-.67.92-1.3,2.63-2.1,4,1.8,2.48,3.54,4.97,5.26,7.49,1.68-2.17,3.14-4.18,5.68-1.8,2.6,2.42-.47,3.46-1.39,5.17-.36.72.26,1.93-.31,2.54,2.26,3.51,4.41,7.07,6.49,10.65.16-.36.36-.71.64-1.02,1.03-1.16,3.74-.63,5.18-2.34,1.15-1.36-1.03-2.02,1.67-2.68-.04,1.44-1.13,1.92-.46,2.98,1.44,2.24,2.6.76,3.71-.56-1.89-3.34-3.91-6.63-5.95-9.9-.05.03-.12.09-.13.14-1.35,1.76-.67,3.18-1.39,5.18-4.3-1.73-1.54-5.01.55-6.9-15.08-23.84-34.02-45.83-56.74-65C483.3,17.85,411.59-3.7,341.53.52c-.83,1.21-.81,2.62-2.16,2.6Zm251.22,135.86c-.88-.74-1.1-1.64-.63-2.72.41.85,1.35,1.6.63,2.72ZM400,6.55c.06-.03,1.07-.2,1.19.3.47,2.02-4.02.36-1.19-.3Zm-52.93-2.33c3.22-2.15,2.03,3.5,0,0h0Z"></path><path class="uuid-816bd8a6-fe0f-4269-b716-c0ed8eb5707f" d="m91.92,228.54c-1.93.48-2.58,3.67-3.6,3.87-2.54.45-4.83-5.09-7.17-6.78-1.52,7.37-2.66,14.8-3.59,22.24,3.39-1.03,9.82,1.28,11.11-.38.46-.63-.92-2.43-.54-3.6.36-1.21.87-1.89,1.45-2.28.68-4.37,1.45-8.73,2.34-13.08Z"></path><path class="uuid-816bd8a6-fe0f-4269-b716-c0ed8eb5707f" d="m524.27,506.16c2.35-.09,1.63-3.02.33-3.51-3.46-1.35-1.73,3.55-.33,3.51Z"></path><path class="uuid-816bd8a6-fe0f-4269-b716-c0ed8eb5707f" d="m463.43,535.12c-.73.11-1.2,1.16-.49,1.54.98.53,2.2-1.79.49-1.54Z"></path><path class="uuid-816bd8a6-fe0f-4269-b716-c0ed8eb5707f" d="m477.76,538.96c1.67-5.02,5.76-4.52,6.52-8.95l-.99-.62c-1.93,2.46-4.92,2.41-6.08,4.55-3.47-2.61-5.26.14-6.48,2.94-1.44,3.25-4.98,6.38-5.74,8.79,4.28-1.74,8.51-3.58,12.73-5.53-.05-.44-.04-.85.06-1.18Z"></path><path class="uuid-816bd8a6-fe0f-4269-b716-c0ed8eb5707f" d="m597.1,421.47c.76-.54.32-2.07,1-3.08.97-1.53,5.39-3.66,1.87-6.73-.43,1.65-1.98,2.97-3.5,3.61-1.14,2.06-2.34,4.11-3.56,6.15,1.68.11,3.43.6,4.18.06Z"></path><path class="uuid-816bd8a6-fe0f-4269-b716-c0ed8eb5707f" d="m607.32,154.47l-.9,1.72c-1.63-.06-3.39.03-4.77-.64-1.06-.49-1.75-1.59-2.62-1.79-.18-.05-.44-.02-.72.03,14.81,31.26,23.52,65.01,25.73,99.32,1.01-1.34,2.89-2.71,3.96-2.54,3.85.56,1.88,6.54,6.58,6.97-4.76,3.15-1.84,5.61,1,4.94-1.14-38.61-10.13-76.76-26.55-111.94-.51,1.34-1.04,2.67-1.7,3.94Z"></path><path class="uuid-816bd8a6-fe0f-4269-b716-c0ed8eb5707f" d="m593.53,132.11c-.46-1.04-1.15-1.17-1.77-1.26,1.59,3.07,3.18,6.16,4.65,9.3,1.07-.91,1.75-1.96,1.21-3.48-.23-.67-2.88-1.13-4.19-2.59-.31-.34.3-1.53.1-1.98Z"></path><path class="uuid-816bd8a6-fe0f-4269-b716-c0ed8eb5707f" d="m601.08,138.44c.84-.44.96-2.62-1.07-1.64-1.52.74.17,2.16,1.07,1.64Z"></path><path class="uuid-816bd8a6-fe0f-4269-b716-c0ed8eb5707f" d="m600.39,143.94c-.19.09-1.06.78-1.52,1.66.4.93.84,1.84,1.23,2.78,2.27.06,4.16-6.38.29-4.44Z"></path><path class="uuid-816bd8a6-fe0f-4269-b716-c0ed8eb5707f" d="m615.77,194.94c-.1.1-.18.26-.29.39.67,2.88,1.3,5.77,1.87,8.67,1.73-2.43,1.69-7.9-1.59-9.06Z"></path><path class="uuid-816bd8a6-fe0f-4269-b716-c0ed8eb5707f" d="m617.68,174.51c-.95.42-2.2,1.8-.93,2.71,2.43,1.74,4.01-4.11.93-2.71Z"></path><path class="uuid-816bd8a6-fe0f-4269-b716-c0ed8eb5707f" d="m614.47,190.13c-.06.05-.09.12-.15.18.17.63.29,1.26.45,1.9,1.46.28,1.39-3.65-.3-2.08Z"></path><path class="uuid-816bd8a6-fe0f-4269-b716-c0ed8eb5707f" d="m624.64,369.88c0-1.19-.86-.93-1.34-.82-2.95.68,1.31,3.52,1.34.82Z"></path><path class="uuid-816bd8a6-fe0f-4269-b716-c0ed8eb5707f" d="m532.34,505.15c-1.15-.18-2.5-.23-2.69,2.05-.04.7.04,1.19.21,1.52,1.26-.96,2.54-1.86,3.79-2.85-.18-.34-.57-.62-1.31-.71Z"></path><path class="uuid-816bd8a6-fe0f-4269-b716-c0ed8eb5707f" d="m599.79,409.05c1.96.75,3.75.46,6.03.68,1.27-2.08-1.81-3.07-2.23-4.64-.3-1.17,1.99-2.75-.05-3.33-.45.89-.93,1.77-1.37,2.67.07.44.07.9-.42,1.37-.15.15-.3.21-.45.32-.5.99-1,1.95-1.52,2.94Z"></path><path class="uuid-816bd8a6-fe0f-4269-b716-c0ed8eb5707f" d="m608.37,170.07c-.37-1.03-1.52-.91-2.49-.43.19.4.39.78.57,1.17.75.21,1.44.17,1.92-.74Z"></path><path class="uuid-816bd8a6-fe0f-4269-b716-c0ed8eb5707f" d="m620.59,175.83c-1.69-1.52-4.59,3.38-4.38,3.3-1.22.46-3.61-1.09-5.39-1.04-.39.02-.8.09-1.19.18.71,1.72,1.46,3.41,2.15,5.13.2-.08.38-.15.5-.21,1.33-.74,9.79-6.03,8.31-7.36Z"></path><path class="uuid-816bd8a6-fe0f-4269-b716-c0ed8eb5707f" d="m176,492.54c1.45.56,3.61,3.37,5.73,4.49.5-.15,1.08.02,1.72.42.53-.04,1.05-.2,1.53-.69-1.59-1.41-6.54-5.6-8.98-4.23Z"></path><path class="uuid-816bd8a6-fe0f-4269-b716-c0ed8eb5707f" d="m601.88,146.95c6.86,3.23,4.52-5.48,0,0h0Z"></path><path class="uuid-816bd8a6-fe0f-4269-b716-c0ed8eb5707f" d="m609.09,168.19c2.1,1.07,4.25-.97,4.63-2.23.99-3.22-3.14-5.01-6.54-2.18-.12-2.03,3.22-3.17,1.18-4.88-2.99,3.89-4.98,1.72-7.78-.21,1.18,2.31,2.3,4.67,3.41,7.01,2.14-1.48,3.76,1.82,5.09,2.49Z"></path><path class="uuid-816bd8a6-fe0f-4269-b716-c0ed8eb5707f" d="m149.66,471.44c-1.45-2.55-.14-10.09,3.62-6.55,1.03.96-.92,5.63,2.82,5.94-4.28,6.2,2.79,3.63,5.38,4.76,1.22.51,3,3.06,5.24,5,1.13-.69,2.84-.71,4.08-.47-14.96-14.23-27.94-29.83-38.97-46.42-.42.12-1.04.05-1.92-.35.35-.51.68-.84.96-1.09-3.26-4.99-6.38-10.03-9.3-15.2-1.68.91-3.95,2.36-4.44,2.97-2.75,3.69,1,6.04-.07,8.31-.06.13-.56.46-1.24.81.99,1.64,1.93,3.28,2.95,4.88.71.04,1.36.36,1.75.91-.19.3-.46.55-.73.77,7.35,11.49,15.62,22.54,24.75,33.05,1.73.06,3.51.73,5.11,2.68Zm-18.59-22.02c5.8-4.59,6.45,6.52,0,0h0Zm6.56,1.33c.68-.4,1.36-.78,2.29.03-.46,1.14-1.36.64-2.29-.03Z"></path><path class="uuid-816bd8a6-fe0f-4269-b716-c0ed8eb5707f" d="m605.19,151.34c-1.15-.38-5.38,1.21-4.06,3.51,1.93,3.38,8.48-2,4.06-3.51Z"></path><path class="uuid-816bd8a6-fe0f-4269-b716-c0ed8eb5707f" d="m174.08,483.2c.02.08-.02.18-.02.27.74.52,1.38,1.08,1.99,1.46-.64-.58-1.32-1.14-1.96-1.73Z"></path><path class="uuid-816bd8a6-fe0f-4269-b716-c0ed8eb5707f" d="m113.59,418.29c1.02-.72,1.78-.31,2.06-1.06.54-1.57-2.09-6.19-3.6-6.92-1.8-.83-3.73,1.38-5.14.06-.95-.84-1.31-3.36,1.46-6.06-2.16-1.04-.99-4.56-2.33-5.18-2.69-1.22-3.41,2.72-3.8,4.57,2.66,5.65,5.5,11.22,8.55,16.73.17.05.38.1.48.09,2.13-.3.27-.82,2.32-2.24Z"></path><path class="uuid-816bd8a6-fe0f-4269-b716-c0ed8eb5707f" d="m98.35,386.9c-3.62-.88.55,3.49,1,.63.06-.65-.8-.57-1-.63Z"></path><path class="uuid-816bd8a6-fe0f-4269-b716-c0ed8eb5707f" d="m110.59,405.25c.53,1.37,1.63-.06,2.55,1.11.75,1-1.38,1.39.49,2.19.83.35,1.43-.56,3.09-.46-1.53-2.96-2.97-5.97-4.38-8.99-1.58.09-3.11.08-4.68-.33,4.94,1.13,2.29,4.82,2.93,6.48Z"></path><path class="uuid-816bd8a6-fe0f-4269-b716-c0ed8eb5707f" d="m245.42,32.33c-1.76.41-.66,2.79.57,3.04.36-.17.71-.34,1.07-.51.6-1.05-.75-2.75-1.64-2.53Z"></path><path class="uuid-816bd8a6-fe0f-4269-b716-c0ed8eb5707f" d="m459.81,541.67c-3.12-.49-4.66,4.78-7.76,3.52-4.89-1.97,1.81-4.91.99-6.79,0-.02-.03-.02-.04-.04-2.16.79-4.29,1.62-6.48,2.36-.01.43.03.77-.17.94-1.32,1.06-3.31.35-4.01,1.21-1.07,1.34-.27,4.61-1.26,5.72-.23.27-7.24,2.58-7.82,2.09-2.83-2.36,3.76-4.41,3.76-6.04,0-.35-.1-.63-.24-.85-9.62,2.88-19.38,5.2-29.23,7-1.34,3.94-3.41,8.08-6.16,12.25,20.07-3.06,39.86-8.19,58.97-15.53-.53-.92-1.43-1.81-1.35-3.08.08-1.37,2.81-1.27.8-2.76Z"></path><path class="uuid-816bd8a6-fe0f-4269-b716-c0ed8eb5707f" d="m337.52,565.57c1.91-3.56,4.32-7.18,7.22-10.75-47.28-2.37-94.27-16.97-135.82-44.4-1.22.74-4.03.72-2.89-1.65.03-.08.06-.09.09-.16-5.88-4-11.66-8.32-17.3-12.84-.54.4-1.26.84-1.6,1.89-.04.13-.01.3.08.5.12-.1.25-.22.46-.35.06-.04.53.41.65.42,2.41.24.25.81-.83.65.22.56.44,1.25.39,2.05-.12,1.63-1.4,1.2-.57,2.43.43.64,1.17.91,2.02,1.09-.02-.55.51-1.15,1.02-1.24.54.38.35,1-.03,1.43.94.16,1.9.34,2.61.86.62.41.81,2.21,1.86,3.02,1.48,1.07,3.03.53,3.75,1.41,1.73,2.09-.23,3.31.6,5.03.55,1.08,4.69,3.76,4.52,4.66-.05.22-.13.39-.24.53,12.04,7.91,24.53,14.8,37.35,20.65-.24-1.08.11-2.03,1.63-1.84.17,0,2.91,2.32,2.34,3.64,29.73,13.05,61.11,20.65,92.71,22.99Zm-120.33-49.38c-2.83,3.09-4.19-2.87,0,0h0Zm1.93,2.09c1.42.64,1.76,1.54,2.26,2.36-1.46,1.12-3.13-.71-2.26-2.36Zm17.14,17.23c-1.04-.37-3.45.19-4.06-.21-.59-.4-3.66-6.89-3.29-8.09,4.41,1.89,8.89,5.36,10.45,9.31-1.39,2.12-1.59-.51-3.09-1.01Zm80.33,19.46c3.92-5.78,6.41,4.93,0,0h0Zm-63.1-14.3c.37-1.88,1.15-1.9,3.47-1.08,6.13,2.14-4.14,4.33-3.47,1.08Z"></path><path class="uuid-816bd8a6-fe0f-4269-b716-c0ed8eb5707f" d="m462.84,516.57c-11.39,0-23.49-.78-36.27-2.35-54.9-6.75-103.77-25.89-104.26-26.08l3.14-7.95c1.9.75,190.02,73.68,241.73-20.17l7.48,4.12c-19.06,34.6-57.38,52.44-111.82,52.44Z"></path><path class="uuid-816bd8a6-fe0f-4269-b716-c0ed8eb5707f" d="m437.57,504.69h0c-10.74,0-23-6.01-32.79-16.08-10.68-10.99-16.41-24.77-14.93-35.97l.44-3.35,3.36-.34c11.19-1.15,24.89,5,35.54,15.94,10.67,10.99,16.39,24.77,14.92,35.97l-.44,3.35-3.36.34c-.89.09-1.8.14-2.73.14Zm-39.38-47.26c.43,7.94,5.15,17.45,12.71,25.22,7.51,7.73,16.86,12.74,24.85,13.41-.44-7.94-5.15-17.45-12.7-25.22-7.52-7.73-16.87-12.74-24.86-13.41Z"></path><path class="uuid-816bd8a6-fe0f-4269-b716-c0ed8eb5707f" d="m465.4,516.9c-14.59-2.62-20.94-9.12-27.67-16-1.08-1.12-2.2-2.26-3.38-3.41l5.98-6.11c1.23,1.2,2.38,2.39,3.52,3.55,6.24,6.38,11.16,11.42,23.06,13.56l-1.51,8.41Z"></path><path class="uuid-816bd8a6-fe0f-4269-b716-c0ed8eb5707f" d="m334.4,602.6c-2.54,0-5.02-.2-7.37-.59l-3.34-.56-.22-3.37c-1.19-18.28,9.65-40.1,28.3-56.96,15.93-14.41,35.43-23.01,52.15-23.01,2.54,0,5.02.2,7.37.59l3.33.56.22,3.37c1.21,18.27-9.63,40.11-28.3,56.97-15.95,14.4-35.45,23-52.15,23Zm-2.44-8.62c15,.93,33.63-6.97,48.87-20.72,15.28-13.81,24.99-31.67,25.54-46.54-15.02-.93-33.64,6.97-48.86,20.73-15.28,13.81-24.99,31.66-25.55,46.53Z"></path><path class="uuid-816bd8a6-fe0f-4269-b716-c0ed8eb5707f" d="m343.99,585.57l-6.48-5.57c5.71-6.65,57.12-65.19,103.21-71.69l1.19,8.46c-34.91,4.93-77.98,45.56-97.92,68.8Z"></path><path class="uuid-816bd8a6-fe0f-4269-b716-c0ed8eb5707f" d="m306.6,497.64c-3.21,0-6.39-.65-9.34-1.92l3.38-7.85c2.52,1.08,5.3,1.46,8.05,1.08,8.1-1.12,13.82-8.4,12.74-16.23-.57-4.12-2.97-7.78-6.56-10.04l4.54-7.25c5.75,3.6,9.58,9.47,10.49,16.12,1.72,12.5-7.27,24.1-20.04,25.86-1.09.15-2.18.22-3.26.22Z"></path><path class="uuid-816bd8a6-fe0f-4269-b716-c0ed8eb5707f" d="m262.09,512.44c-10.46,0-21.08-3.17-31.55-9.43-23.3-13.93-31.78-36.24-27.94-50.16,2.26-8.21,8.29-13.59,16.91-15.34-1.9-4.64-2.62-9.76-2.12-15.29,2.06-23.03,15.39-31.24,27.17-31.24,4.89,0,9.89,1.35,14.72,3.94.04-.08.07-.15.11-.22,3.88-8.05,11.52-12.68,20.96-12.68,15,0,29.53,11.25,36.99,28.66,13.77,32.11,3.2,62.58-10.03,78.91-4.36,5.36-20.47,22.86-45.21,22.86Zm-35.75-67.46c-8.49,0-13.75,3.57-15.5,9.92-3.05,11.03,5.13,29.33,24.09,40.66,9.13,5.45,18.27,8.28,27.16,8.28,20.96,0,34.82-15.05,38.57-19.67,11.74-14.48,21.08-41.53,8.81-70.15-6.95-16.22-19.64-23.47-29.13-23.47-6.12,0-10.83,2.79-13.27,7.85-.51,1.06-.79,2.2-.86,3.5l-.42,8-6.41-4.8c-4.87-3.65-10-5.58-14.83-5.58-10.36,0-17.34,8.77-18.65,23.45-.54,6,.8,11.27,3.96,15.68l4.92,6.64-8.43-.3h-.01Z"></path><path class="uuid-816bd8a6-fe0f-4269-b716-c0ed8eb5707f" d="m272.91,446.47c-5.04-3.86-10.85-9.78-18.29-18.61l6.53-5.5c6.93,8.23,12.48,13.9,16.95,17.33l-5.2,6.79Z"></path><path class="uuid-816bd8a6-fe0f-4269-b716-c0ed8eb5707f" d="m264.08,462.14c-8.58-2.98-15.53-4.52-20.65-4.57l.08-8.55c6.05.06,13.91,1.76,23.37,5.05l-2.8,8.07Z"></path><rect class="uuid-816bd8a6-fe0f-4269-b716-c0ed8eb5707f" x="252.73" y="429.28" width="8.55" height="27.3" transform="translate(-255.03 451.02) rotate(-60.78)"></rect><path class="uuid-816bd8a6-fe0f-4269-b716-c0ed8eb5707f" d="m262.09,512.44c-10.46,0-21.08-3.17-31.55-9.43-3.46-2.07-6.74-4.44-9.76-7.03-.87-.75-1.4-1.81-1.48-2.95-.55-8.06,2.39-19.04,19.5-25.56,8.6-3.28,16.63-4.09,24.01-2.48-2.21-8.09.32-13.82,3.37-17.52,4.04-4.9,11.9-11.59,20.34-14.58-8.45-9.66-12.59-19.37-12-28.23.54-7.92,4.37-14.98,11.05-20.42,1.12-.9,2.6-1.19,3.97-.77,11.82,3.68,21.95,13.59,27.78,27.2,13.77,32.11,3.2,62.57-10.03,78.91-4.36,5.36-20.47,22.86-45.21,22.86Zm-34.28-21.73c2.24,1.81,4.62,3.47,7.12,4.97,9.13,5.45,18.27,8.22,27.16,8.22,20.96,0,34.82-15.08,38.57-19.7,11.74-14.48,21.08-41.55,8.81-70.16-4.45-10.41-11.75-18.16-20.25-21.61-3.76,3.65-5.83,7.95-6.16,12.81-.62,9.11,6.23,18.3,12.09,24.41.96,1.02,1.95,1.97,2.92,2.88l.89.84c1.71,1.62,1.79,4.32.18,6.03-1.47,1.57-3.85,1.78-5.56.58-7.71.82-16.6,7.85-20.8,12.92-3.48,4.21-2.84,10.1,1.88,17.51,1.05,1.65.85,3.81-.5,5.24-1.35,1.43-3.5,1.75-5.2.78-8.23-4.63-16.83-4.9-27.1-.98-9.18,3.5-13.8,8.5-14.05,15.25Z"></path></g></svg> 