<?xml version="1.0" encoding="UTF-8"?> <svg xmlns="http://www.w3.org/2000/svg" id="uuid-410c59f0-0541-480a-85ff-b3843a2779c8" viewBox="0 0 633.8 566.37"><defs><style>.uuid-8739b998-84f3-41bd-b8cd-b7ec69618ee5{fill:#aacfa0;}.uuid-8739b998-84f3-41bd-b8cd-b7ec69618ee5,.uuid-9fdd3747-d1ce-4265-a421-ce10b7793d76,.uuid-d3daf7e5-44a1-429f-b636-bcf22377fac3{stroke-width:0px;}.uuid-9fdd3747-d1ce-4265-a421-ce10b7793d76{fill:#245e02;}.uuid-d3daf7e5-44a1-429f-b636-bcf22377fac3{fill:#b9ddae;}</style></defs><g id="uuid-5977336f-6eee-4f90-bf0e-59bc1b91fadd"><path class="uuid-d3daf7e5-44a1-429f-b636-bcf22377fac3" d="m479.58,453.12c-12.36-20.15-30.92-33.39-53.27-35.3-7.06-.6-14.1-.01-21.01,1.59,11,19.59,30.04,33.08,53.39,35.07,7.07.61,14.07.09,20.88-1.36Z"></path><path class="uuid-d3daf7e5-44a1-429f-b636-bcf22377fac3" d="m114.92,371.72c-14.53-11.59-29.37-15.77-41.46-9.89-3.82,1.86-7.14,4.63-9.97,8.15,13.61,11.6,28.8,15.82,41.43,9.67,3.83-1.85,7.16-4.56,10.01-7.93Z"></path><path class="uuid-d3daf7e5-44a1-429f-b636-bcf22377fac3" d="m496.09,426.31c-9.06-6.9-19.41-10.34-29.18-8.76-3.08.5-5.93,1.48-8.54,2.86,8.38,6.82,18.99,10.3,29.2,8.66,3.09-.5,5.93-1.45,8.53-2.76Z"></path><path class="uuid-d3daf7e5-44a1-429f-b636-bcf22377fac3" d="m278.7,506.95c-.95-.5-1.95-.94-2.95-1.36-8.51,15.29-1.5,33.33,16.76,41.46.91.4,1.85.71,2.79,1.06,4.8-16.81-.92-33.04-16.6-41.15Z"></path><path class="uuid-d3daf7e5-44a1-429f-b636-bcf22377fac3" d="m467.68,407.35c-16.54-25-45.64-41.44-78.34-40.95-15.5.23-29.97,4.24-42.53,11.09,23.65,20.35,57.68,32.9,95.2,32.35,8.82-.13,17.4-.98,25.67-2.48Z"></path><path class="uuid-d3daf7e5-44a1-429f-b636-bcf22377fac3" d="m269.49,432.77c-2.53,63.97,52.86,118.66,129.13,133.42,13.94-18.35,22.54-40.65,23.5-64.83.05-1.24.04-2.47.06-3.7l-24.39-29.47,22.01,5.78c-10.87-51.59-57.75-90.79-115.51-92.04-2.32-.05-4.62-.01-6.92.06-.25,2.72-.43,5.45-.55,8.2-1.71,43.39,13.83,83.26,40.65,113.47-33.07-28.16-54.43-68.75-56.92-114.21-6.56,13.52-10.45,28.08-11.06,43.32Z"></path><path class="uuid-d3daf7e5-44a1-429f-b636-bcf22377fac3" d="m185.79,431.87c-25.75,18.76-63.71,11-90.93-16.46,3.73-10.85,10.58-20.58,20.31-27.67.5-.36,1-.7,1.51-1.05l18.95,1.93-8.48-7.51c24.35-9.79,53.53-1.25,70.05,22.3.66.95,1.28,1.91,1.89,2.88-1.06.86-2.14,1.69-3.24,2.5-17.48,12.72-38.27,17.34-58.19,14.6,20.81,5.88,43.51,3.48,63-8.08-3.77,6.46-8.71,12.1-14.86,16.57Z"></path><path class="uuid-d3daf7e5-44a1-429f-b636-bcf22377fac3" d="m193.61,519.17c28.81-.44,56.33-7.91,79.18-20.63-4.02-7.27-13.42-38.26-14.08-45.83-1.99-22.85,3.06-44.48,13.4-63.03-30.03,7.54-56.71,27.35-71.59,54.09l18.77-1.47-26.68,19.76c-.3.97-.62,1.93-.9,2.91-5.42,19.13-4.36,37.85,1.91,54.21Z"></path><path class="uuid-d3daf7e5-44a1-429f-b636-bcf22377fac3" d="m247.55,536.98c3.56-.49,7.14-3.69,8.71-8.23,1.58-4.55.65-8.98-1.99-11.19-3.56.49-7.14,3.68-8.71,8.23-1.58,4.55-.65,8.98,1.99,11.19Z"></path><path class="uuid-d3daf7e5-44a1-429f-b636-bcf22377fac3" d="m151.78,477.46c6.42,2.07,15.07-.41,21.44-6.81,6.36-6.4,8.41-14.65,5.74-20.53-6.42-2.07-15.06.4-21.44,6.8-6.36,6.41-8.41,14.65-5.75,20.53Z"></path><path class="uuid-8739b998-84f3-41bd-b8cd-b7ec69618ee5" d="m76.18,109.92c.42,1.2.64,2.44.64,3.72,0,.6-.1,1.52-.32,2.76-.21,1.24-.62,2.88-1.22,4.94-.85,2.65-1.33,5.21-1.41,7.7.18,2.73.6,5.56,1.28,8.46.59,2.74,1.03,5.47,1.29,8.21v2.57c0,2.65-.09,5.3-.26,7.95-.18,2.31-.26,4.62-.26,6.93v2.31l-.39.39v.13l-.12.13c-.09.09-.13.17-.13.25l-.13.13c-.18.26-.3.47-.39.64l-.26.26v.13l-.26.26c-.17.34-.34.64-.51.9,1.88,1.37,2.82,3.08,2.82,5.13,0,.34-.04.69-.13,1.03.43,3.76.64,7.87.64,12.31,0,3.42-.19,8.3-.58,14.62-.39,6.33-2.29,13.02-5.71,20.07-3.41,7.06-8.97,11.27-16.67,12.64-1.2.17-2.35.25-3.46.25-10.68,0-17.49-5.94-20.39-17.83-.43-2.22-.64-4.53-.64-6.93,0-1.54.09-3.08.26-4.62.17-1.62.26-3.21.26-4.75s-.09-3.03-.26-4.49c-.35-2.31-.85-4.66-1.54-7.05-.68-2.31-1.2-4.7-1.54-7.18-.08-1.45-.12-2.9-.12-4.36,0-5.05.55-10.22,1.67-15.52,1.11-5.56,1.74-11.03,1.92-16.42.08-13.59,1.45-27.06,4.1-40.4-2.23.34-4.49.77-6.8,1.28-2.91.77-5.85,1.33-8.85,1.67-.85.08-1.75.12-2.69.12-1.97,0-3.94-.26-5.9-.77-4.87-1.45-7.82-3.64-8.85-6.54-.86-2.39-1.29-5.17-1.29-8.34,0-.77.04-1.58.12-2.44v-2.69c0-4.02,1.22-8.04,3.66-12.06,2.44-4.02,5.49-7.86,9.17-11.54,3.67-3.67,7.5-7.09,11.47-10.26,3.97-3.16,7.63-5.94,10.97-8.34,5.9-4.44,11.58-6.67,17.05-6.67,1.03,0,3.34.28,6.93.83,3.59.56,7.1,5.32,10.52,14.3,1.45,4.44,2.3,8.94,2.56,13.47.17,2.74.26,5.51.26,8.33,0,1.79-.04,3.63-.12,5.52-.09,1.62-.13,3.25-.13,4.87,0,3.33.15,7.01.45,11.03.3,4.02,1.39,8.34,3.28,12.95Zm-38.73-10.9c3.25-1.97,6.67-4.02,10.26-6.16l2.05-1.28c-2.82-.51-5.09-.77-6.8-.77-1.54,0-2.82.32-3.85.96-1.03.64-1.58,3.06-1.66,7.25Zm15.64-16.42c-1.45-.77-3.29-1.41-5.52-1.92-.93-.25-1.84-.38-2.69-.38-1.12,0-2.14.21-3.08.64.77,2.31,1.54,4.66,2.31,7.05,2.22-1.28,4.44-1.92,6.67-1.92.25,0,1.04.02,2.37.06,1.32.04,3.35.45,6.1,1.22-.69-.77-1.33-1.35-1.93-1.73-.6-.38-1.15-.66-1.67-.83-.43-.26-.85-.53-1.28-.83-.43-.3-.86-.75-1.29-1.35Zm-6.93,20.13c-.08.43-.13.86-.13,1.28,0,1.28.47,1.92,1.41,1.92s2.26-.56,3.97-1.66v-.39c0-1.45-.63-2.18-1.92-2.18-.77,0-1.89.34-3.34,1.02Zm2.31,33.99c.95,3.85,1.92,5.77,2.95,5.77.18,0,.64-.28,1.41-.83.77-.56,1.16-2.54,1.16-5.96-.86.17-1.67.34-2.44.51l-3.08.51Zm5.64-52.2c.08.17.12.3.12.38,0,.43-.21.64-.63.64-.52,0-1.12-.09-1.8-.26.34-.17.73-.3,1.16-.39.34-.17.73-.3,1.15-.38Zm.77,118.12l.13-.64c0-.68-.34-1.03-1.02-1.03-.52,0-1.25.21-2.19.64v.51c0,.68.34,1.03,1.03,1.03.52,0,1.2-.17,2.05-.51Zm-1.67-83.75l-.13.26c-.17.34-.26.6-.26.77s.04.34.13.51c.09-.59.17-1.11.25-1.54Zm2.44-13.59c.34.09.64.13.9.13,1.29,0,1.92-.64,1.92-1.92,0-1.03-.43-2.48-1.28-4.36-.34-.08-.64-.13-.9-.13-1.28,0-1.92.64-1.92,1.92,0,1.03.43,2.48,1.28,4.36Zm-1.15,11.93c.17.09.38.3.64.64,1.71-.6,2.56-1.2,2.56-1.79,0-.43-.34-.86-1.03-1.28l-.89.89-1.29,1.54Zm.38,62.84v.51c0,.68.34,1.02,1.03,1.02.52,0,1.19-.17,2.05-.51l.12-.64c0-.68-.34-1.03-1.02-1.03-.51,0-1.24.21-2.18.64Zm0,26.93v.64c0,1.97.39,3.29,1.15,3.98.52.43,1.07.64,1.67.64.26,0,.73-.1,1.41-.32.68-.21,1.2-.71,1.54-1.48.17-.34.25-.64.25-.9,0-.51-.32-1.07-.96-1.67-.64-.6-2.33-.9-5.07-.9Zm2.06-58.74c-.18-.09-.35-.13-.51-.13-.69,0-1.03.34-1.03,1.03,0,.51.17,1.24.51,2.18h.64c.68,0,1.03-.34,1.03-1.03,0-.51-.22-1.2-.64-2.05Zm1.02,16.54l1.29-.51c1.61-.6,3.33-1.2,5.12-1.79-1.97-.6-3.51-.9-4.62-.9-1.45,0-2.18.51-2.18,1.54,0,.51.12,1.07.38,1.67Z"></path><path class="uuid-8739b998-84f3-41bd-b8cd-b7ec69618ee5" d="m259.06,106.97c0,3.25.04,6.59.12,10.01.08,3.25.12,6.54.12,9.88,0,8.89-.3,18.92-.89,30.07-.6,11.16-2.63,22.53-6.1,34.11-3.46,11.59-9.23,21.46-17.31,29.62-8.08,8.17-19.39,13.49-33.92,15.97-3.68.6-7.36.9-11.03.9-7.35,0-15.59-1.43-24.69-4.29-9.11-2.87-17.76-8.02-25.97-15.46-10.69-10.09-17.57-21.59-20.65-34.5-2.91-12.23-4.36-25.05-4.36-38.47v-2.18c0-1.28-.04-2.61-.13-3.98-.16-3.5-.25-7.05-.25-10.64,0-10.09.66-21.2,1.99-33.35,1.33-12.14,5.79-23.89,13.41-35.27,3.15-4.36,6.75-7.7,10.77-10,4.02-2.31,8.47-4.36,13.34-6.16l1.02-.51c1.71-.68,3.34-1.45,4.88-2.31,2.74-1.54,5.64-2.69,8.72-3.46,1.54-1.62,3.42-2.52,5.64-2.69l3.08,2.56h2.04c2.66-.17,5.3-.26,7.95-.26,5.39,0,11.56.37,18.53,1.09,6.97.73,14.48,3.32,22.51,7.76,10.43,5.98,18.04,14.45,22.83,25.39,1.45,4.45,2.18,9.02,2.18,13.72v2.7c0,3.33.32,6.67.96,10,.64,3.33,2.38,6.58,5.2,9.74Zm-108.5-17.05v-3.08c-.6,0-.98.26-1.16.77-.08.26-.12.52-.12.77s.07.58.19.96c.13.39.49.58,1.1.58Zm35.26,107.86c5.13-1.71,10.13-3.89,15.01-6.54,4.88-2.65,8.81-6.37,11.8-11.16,1.45-2.48,2.27-4.49,2.44-6.03v-.77c0-1.45-.17-2.95-.51-4.49-.26-1.11-.48-2.44-.64-3.98-.17-2.05-.26-4.02-.26-5.9,0-2.82.22-5.47.64-7.95.26-1.97.47-4.06.65-6.28v-1.03c0-2.31-.26-4.49-.77-6.54-.52-2.48-.77-5.17-.77-8.08.16-3.25.59-6.41,1.28-9.49.77-3.25,1.16-6.58,1.16-10,0-1.11-.05-2.26-.13-3.46-.94-7.35-3.5-13.81-7.7-19.37-4.19-5.56-9.79-9.06-16.8-10.52-1.02-.17-1.96-.3-2.82-.39-2.74-.59-5.04-.9-6.92-.9-.44,0-1.27.06-2.51.19-1.24.13-3.52,1.17-6.86,3.14-7.01,4.45-11.88,10.05-14.62,16.8-1.53,3.59-2.6,7.44-3.21,11.54-.59,4.1-1.07,8.25-1.41,12.44-.34,3.85-.77,7.52-1.28,11.03-.43,3.17-.64,6.33-.64,9.49,0,2.82.26,6.48.77,10.97.51,4.49,1.37,9.64,2.56,15.45,1.79,8.55,5.15,14.9,10.07,19.04,4.92,4.15,11.01,7.85,18.28,11.09,1.03.6,2.09,1.15,3.21,1.67Zm-24.5,14.49c1.54.6,2.74.9,3.6.9,1.11,0,1.66-.51,1.66-1.54,0-.51-.13-1.15-.39-1.92-1.02-.26-1.88-.39-2.56-.39-1.71,0-2.56.6-2.56,1.8,0,.34.08.73.25,1.15Zm29.11,9.75v-3.08c-.51,0-.85.26-1.02.77-.09.25-.13.51-.13.77s.07.58.19.96c.13.38.45.58.96.58Zm21.55-9.1v-3.08c-.6,0-.98.26-1.16.77-.08.25-.13.51-.13.77s.07.58.19.96c.12.38.49.58,1.09.58Zm9.74,5.64c.6-1.45.9-2.61.9-3.46,0-1.2-.64-1.79-1.93-1.79-.42,0-.97.09-1.66.26-.18,1.02-.26,1.88-.26,2.56,0,1.79.59,2.69,1.8,2.69.34,0,.72-.09,1.15-.26Zm2.57-8.72v-3.08c-.6,0-.98.25-1.16.77-.08.26-.12.51-.12.77s.07.58.19.96c.12.38.49.58,1.09.58Zm9.23-3.08v-3.08c-.6,0-.98.26-1.15.77-.09.26-.13.51-.13.77s.06.58.19.96c.13.38.49.58,1.1.58Zm4.1-68.61l.13-.64c0-.68-.34-1.03-1.03-1.03-.51,0-1.24.21-2.18.64v.51c0,.69.34,1.03,1.02,1.03.51,0,1.2-.17,2.05-.51Zm-2.31-57.45v6.16c.85,0,1.45-.51,1.79-1.54.17-.51.26-1.02.26-1.54s-.13-1.15-.39-1.92c-.26-.77-.82-1.15-1.67-1.15Zm10.51,95.29v-3.08c-.6,0-.98.26-1.15.77-.09.26-.13.51-.13.77s.07.58.19.96c.14.39.49.58,1.09.58Z"></path><path class="uuid-8739b998-84f3-41bd-b8cd-b7ec69618ee5" d="m426.94,106.97c0,3.25.04,6.59.12,10.01.08,3.25.12,6.54.12,9.88,0,8.89-.3,18.92-.89,30.07-.6,11.16-2.63,22.53-6.1,34.11-3.46,11.59-9.23,21.46-17.31,29.62-8.08,8.17-19.39,13.49-33.92,15.97-3.68.6-7.36.9-11.03.9-7.35,0-15.59-1.43-24.69-4.29-9.11-2.87-17.76-8.02-25.97-15.46-10.69-10.09-17.57-21.59-20.65-34.5-2.91-12.23-4.36-25.05-4.36-38.47v-2.18c0-1.28-.04-2.61-.13-3.98-.17-3.5-.25-7.05-.25-10.64,0-10.09.66-21.2,1.99-33.35,1.33-12.14,5.79-23.89,13.41-35.27,3.15-4.36,6.75-7.7,10.77-10,4.02-2.31,8.46-4.36,13.34-6.16l1.02-.51c1.71-.68,3.34-1.45,4.88-2.31,2.74-1.54,5.64-2.69,8.72-3.46,1.54-1.62,3.42-2.52,5.64-2.69l3.08,2.56h2.04c2.66-.17,5.3-.26,7.95-.26,5.39,0,11.56.37,18.53,1.09,6.97.73,14.48,3.32,22.51,7.76,10.43,5.98,18.04,14.45,22.83,25.39,1.45,4.45,2.18,9.02,2.18,13.72v2.7c0,3.33.32,6.67.96,10,.64,3.33,2.38,6.58,5.2,9.74Zm-108.5-17.05v-3.08c-.6,0-.98.26-1.16.77-.08.26-.12.52-.12.77s.07.58.19.96c.13.39.49.58,1.1.58Zm35.26,107.86c5.13-1.71,10.13-3.89,15.01-6.54,4.88-2.65,8.81-6.37,11.8-11.16,1.45-2.48,2.27-4.49,2.44-6.03v-.77c0-1.45-.16-2.95-.5-4.49-.26-1.11-.48-2.44-.65-3.98-.17-2.05-.26-4.02-.26-5.9,0-2.82.22-5.47.64-7.95.26-1.97.47-4.06.65-6.28v-1.03c0-2.31-.26-4.49-.77-6.54-.52-2.48-.77-5.17-.77-8.08.17-3.25.59-6.41,1.28-9.49.77-3.25,1.16-6.58,1.16-10,0-1.11-.05-2.26-.13-3.46-.94-7.35-3.5-13.81-7.7-19.37-4.19-5.56-9.79-9.06-16.8-10.52-1.02-.17-1.96-.3-2.82-.39-2.74-.59-5.04-.9-6.92-.9-.44,0-1.27.06-2.51.19-1.24.13-3.52,1.17-6.86,3.14-7.01,4.45-11.88,10.05-14.62,16.8-1.54,3.59-2.61,7.44-3.21,11.54-.59,4.1-1.07,8.25-1.41,12.44-.34,3.85-.77,7.52-1.28,11.03-.43,3.17-.64,6.33-.64,9.49,0,2.82.26,6.48.77,10.97.51,4.49,1.37,9.64,2.56,15.45,1.79,8.55,5.15,14.9,10.07,19.04,4.91,4.15,11.01,7.85,18.28,11.09,1.03.6,2.09,1.15,3.21,1.67Zm-24.5,14.49c1.54.6,2.73.9,3.6.9,1.11,0,1.66-.51,1.66-1.54,0-.51-.13-1.15-.39-1.92-1.02-.26-1.88-.39-2.56-.39-1.72,0-2.57.6-2.57,1.8,0,.34.08.73.25,1.15Zm29.11,9.75v-3.08c-.51,0-.85.26-1.03.77-.08.25-.13.51-.13.77s.07.58.19.96c.13.38.45.58.96.58Zm21.55-9.1v-3.08c-.6,0-.98.26-1.16.77-.08.25-.13.51-.13.77s.07.58.19.96c.12.38.49.58,1.09.58Zm9.74,5.64c.6-1.45.9-2.61.9-3.46,0-1.2-.64-1.79-1.93-1.79-.42,0-.97.09-1.66.26-.18,1.02-.26,1.88-.26,2.56,0,1.79.59,2.69,1.79,2.69.34,0,.73-.09,1.15-.26Zm2.57-8.72v-3.08c-.6,0-.98.25-1.16.77-.08.26-.12.51-.12.77s.07.58.19.96c.12.38.49.58,1.09.58Zm9.23-3.08v-3.08c-.6,0-.98.26-1.15.77-.09.26-.13.51-.13.77s.06.58.19.96c.13.38.49.58,1.1.58Zm4.1-68.61l.13-.64c0-.68-.34-1.03-1.03-1.03-.51,0-1.24.21-2.18.64v.51c0,.69.34,1.03,1.02,1.03.51,0,1.2-.17,2.05-.51Zm-2.31-57.45v6.16c.85,0,1.45-.51,1.79-1.54.17-.51.26-1.02.26-1.54s-.13-1.15-.38-1.92c-.26-.77-.82-1.15-1.67-1.15Zm10.51,95.29v-3.08c-.6,0-.98.26-1.15.77-.09.26-.13.51-.13.77s.07.58.19.96c.14.39.5.58,1.09.58Z"></path><path class="uuid-8739b998-84f3-41bd-b8cd-b7ec69618ee5" d="m486.7,137.49c-1.97.34-3.85.51-5.64.51-5.56,0-10.65-1.77-15.27-5.32-4.61-3.55-8.29-8.78-11.02-15.71-2.74-6.92-4.36-14.15-4.88-21.67-.08-1.88-.13-3.72-.13-5.52,0-5.3.55-10.05,1.66-14.24,1.8-6.93,4.73-13.51,8.79-19.75,4.05-6.24,9-11.24,14.82-15.01,5.21-3.33,10.98-5,17.31-5,.85,0,1.71.04,2.56.13,4.45.51,8.42,2.12,11.93,4.81,3.51,2.7,6.79,5.71,9.88,9.04l2.95,2.95c4.53,4.45,7.48,9.23,8.85,14.36,1.02,3.85,1.54,8.08,1.54,12.7,0,1.46-.04,2.95-.13,4.49-.86,13.94-5.18,26.67-12.95,38.22-3.93,5.3-8.01,8.83-12.24,10.58-4.23,1.75-9.05,3.02-14.43,3.78-1.2.17-2.39.38-3.59.64Zm117.21-66.69c-4.87,11.2-10.58,21.93-17.12,32.19-6.53,10.26-13.4,20.39-20.58,30.39-6.58,9.23-12.93,18.58-19.04,28.02-6.11,9.45-11.52,19.22-16.22,29.3-2.14,4.87-4.96,10.56-8.47,17.06-3.51,6.5-7.57,12.42-12.18,17.76-4.62,5.34-9.67,8.66-15.13,9.94h-.52c-3.59.86-7.65,1.41-12.18,1.67h-1.41c-3.76,0-6.84-.94-9.24-2.82-2.73-3.08-4.14-7.14-4.23-12.18v-.9c0-4.79.6-8.8,1.8-12.05,1.02-2.31,2.43-4.49,4.23-6.54,1.54-1.8,2.87-3.72,3.98-5.77.94-2.39,1.71-4.79,2.3-7.18.52-2.31,1.24-4.57,2.18-6.8,3.51-7.27,7.99-14.11,13.46-20.52,1.97-2.56,3.85-5.04,5.64-7.44,14.36-20.26,28.17-40.87,41.43-61.82,6.07-9.32,12.31-18.55,18.72-27.7,1.02-1.37,2.01-2.78,2.95-4.23,1.2-1.79,2.44-3.76,3.72-5.9,2.05-3.42,4.31-6.75,6.8-10,2.48-3.24,5.3-5.73,8.46-7.44,2.73-1.28,5.98-1.93,9.74-1.93.52,0,1.99.05,4.43.13,2.43.09,5.01,1.24,7.76,3.46,2.74,2.56,4.15,5.77,4.23,9.62v.77c0,3.59-.6,7.27-1.8,11.03-1.2,3.76-2.43,7.05-3.72,9.88Zm-126.06,36.29c-.09.51-.13.98-.13,1.41,0,1.2.47,1.79,1.41,1.79.86,0,2.18-.56,3.98-1.67v-.38c0-1.45-.64-2.18-1.93-2.18-.77,0-1.88.34-3.33,1.02Zm9.62-28.34c-2.48,1.03-3.72,2.87-3.72,5.52,0,.25.06,1.24.19,2.95.13,1.71.71,3.93,1.73,6.67.26-.6.55-1.2.89-1.8,1.37-2.14,2.31-4.31,2.83-6.54.17-.51.25-1.07.25-1.67,0-1.71-.72-3.42-2.18-5.13Zm.77,21.42c.69-.51,1.03-.94,1.03-1.28,0-.51-1.03-.9-3.08-1.15.34.43.68.81,1.02,1.15l1.03,1.28Zm9.75-39.76c-1.71.34-3.42.73-5.13,1.15.18.94.69,1.54,1.55,1.8.34.08.64.13.89.13.52,0,1.03-.13,1.54-.39.77-.43,1.15-1.2,1.15-2.31v-.38Zm3.33,9.75h-1.02c-1.46,0-2.19.51-2.19,1.54,0,.86.56,2.14,1.67,3.85h.12c1.63,0,2.44-.64,2.44-1.92,0-.85-.34-2.01-1.03-3.46Zm1.55,33.34v3.08c.59,0,.98-.26,1.15-.77.08-.26.12-.51.12-.77s-.06-.58-.19-.96c-.12-.39-.49-.58-1.08-.58Zm3.21,95.93c-.18,2.74-.26,4.7-.26,5.9,0,1.11.22,1.75.64,1.92.17.09.38.13.64.13.42,0,.98-.13,1.67-.39-.18-.51-.56-1.54-1.16-3.08-.43-1.2-.94-2.69-1.53-4.49Zm2.44-7.31h1.02c1.45,0,2.18-.47,2.18-1.41s-.6-2.26-1.8-3.98c-1.63,0-2.44.68-2.44,2.05,0,.85.34,1.97,1.03,3.33Zm11.28-6.16c.51-1.37.77-2.48.77-3.33,0-1.29-.6-1.93-1.79-1.93-.43,0-.98.09-1.67.26-.17,1.03-.25,1.88-.25,2.56,0,1.8.59,2.7,1.79,2.7.34,0,.73-.09,1.15-.26Zm3.59-31.04h6.16c0-.86-.52-1.45-1.54-1.79-.51-.17-1.03-.26-1.54-.26s-1.15.13-1.92.39c-.78.25-1.16.81-1.16,1.67Zm3.85,13.21c.77-.17,1.49-.34,2.18-.51.26-.08.52-.13.77-.13.09-.09.17-.13.25-.13h.13c.51-.17,1.07-.3,1.66-.38-.17-.94-.73-1.54-1.66-1.8-.34-.17-.68-.25-1.03-.25-.43,0-.86.17-1.29.51-.68.34-1.02,1.11-1.02,2.31v.38Zm22.96-43.09v-6.16c-.86,0-1.46.52-1.8,1.54-.08.51-.12,1.02-.12,1.54s.11,1.16.32,1.92c.21.77.75,1.15,1.61,1.15Zm68.48,21.42c5.65.52,9.58,3.25,11.8,8.21,2.22,4.7,3.34,10.3,3.34,16.8,0,.26-.02,2.16-.07,5.71-.04,3.55-.71,8.49-1.99,14.81-1.29,6.33-2.69,11.2-4.23,14.62-3.85,8.64-9.09,15.56-15.72,20.77-6.63,5.21-13.91,7.83-21.86,7.83h-.26c-7.87,0-15.69-3.38-23.47-10.13-5.9-5.64-9.71-12.48-11.41-20.52-1.03-4.53-1.55-9.06-1.55-13.59,0-3.76.52-8.7,1.55-14.81,1.02-6.11,3.24-12.59,6.67-19.43,2.14-4.1,5.16-8.44,9.11-13.02,3.93-4.57,8.12-7.67,12.56-9.3,1.2-.34,3.04-.53,5.51-.58,2.48-.04,4.94,0,7.38.13,2.43.13,4.29.28,5.57.45,3.85.51,6.69,1.45,8.53,2.82,1.84,1.37,3.74,3.33,5.7,5.9.86,1.02,1.8,2.14,2.82,3.33Zm-63.74-11.41c2.48-2.65,5-5.26,7.57-7.82-1.2.26-2.23.43-3.08.51-2.31.26-3.81.77-4.49,1.54-.34.43-.51,1.11-.51,2.05s.16,2.18.51,3.72Zm20.65-42.83v.51c0,.69.34,1.03,1.03,1.03.51,0,1.19-.17,2.06-.51l.12-.64c0-.68-.34-1.03-1.03-1.03-.5,0-1.24.21-2.18.64Zm12.57,98.88c-1.46.68-2.87,1.37-4.23,2.05l-4.36,2.05h5c1.54,0,2.86-.21,3.98-.64,1.11-.43,2.35-1.92,3.71-4.49,1.03-2.14,1.54-4.19,1.54-6.16,0-1.03-.28-2.52-.84-4.49-.56-1.97-2.25-4.02-5.07-6.16,0,2.4-.13,4.49-.39,6.28-.26,1.28-.38,2.61-.38,3.97,0,2.4.33,4.92,1.02,7.57Zm-8.47-10.78v3.08c.6,0,.98-.26,1.16-.77.08-.26.12-.52.12-.77s-.07-.58-.19-.96c-.13-.38-.49-.58-1.1-.58Zm25.02,27.7c.17-.85.25-1.67.25-2.44,0-1.54-.38-3.06-1.15-4.55-.77-1.49-2.56-2.24-5.39-2.24-.17.43-.26.85-.26,1.28,0,.94.49,1.99,1.48,3.14.98,1.15,2.16,2.29,3.52,3.4.68.51,1.2.98,1.54,1.41Z"></path><path class="uuid-9fdd3747-d1ce-4265-a421-ce10b7793d76" d="m13.52,356.32c-.41,0-1.03-.11-1.85-.37-2.21-.91-3.13-2.53-2.77-4.86,1.1-5.91,2.22-11.26,3.36-16.08,1.13-4.81,2.21-8.9,3.23-12.27,1.02-3.37,1.89-5.99,2.6-7.85.71-1.86,1.07-2.86,1.06-3,.53-1.1,1.36-1.94,2.51-2.51,1.14-.57,2.27-.59,3.38-.07,1.24.52,2.11,1.36,2.62,2.5.5,1.15.49,2.28-.03,3.39,0,.14-.61,1.96-1.83,5.48-1.23,3.51-2.66,8.5-4.3,14.96,1.07-1.11,2.17-2.3,3.31-3.56,1.14-1.25,2.31-2.44,3.52-3.56,4.55-4.75,8.47-8.49,11.77-11.22,3.29-2.74,6.05-4.81,8.28-6.23,2.23-1.41,4.06-2.24,5.49-2.47,1.43-.24,2.7-.29,3.8-.18,3.01.62,4.97,2.36,5.85,5.21.28.68.47,1.26.55,1.73.08.48.25.99.55,1.53.74,2.72,1.58,5.2,2.52,7.43.93,2.24,2.58,3.95,4.93,5.13,7.32,3.54,21.98,1.38,43.97-6.47,1.08-.43,2.21-.38,3.39.13,1.17.53,1.98,1.4,2.41,2.62.44,1.22.39,2.39-.13,3.49-.53,1.11-1.4,1.87-2.62,2.31-12.62,4.65-23.09,7.43-31.41,8.36-8.32.93-14.91.14-19.74-2.35-2.08-1.05-3.78-2.28-5.11-3.69-1.33-1.41-2.45-2.92-3.38-4.54-.92-1.62-1.67-3.25-2.25-4.88-.58-1.63-1.1-3.26-1.54-4.89,0-.41-.16-1.02-.45-1.84-1.5.58-3.59,1.96-6.27,4.13-2.7,2.18-5.75,4.91-9.16,8.2-3.42,3.28-7.1,7.06-11.05,11.31-3.95,4.26-7.85,8.68-11.72,13.27-.67,1.11-1.82,1.68-3.46,1.72Z"></path><path class="uuid-9fdd3747-d1ce-4265-a421-ce10b7793d76" d="m169.45,347.08c-5.61.12-10.15-1.08-13.62-3.61-1.66-1.2-2.95-2.61-3.88-4.23-.93-1.62-1.61-3.28-2.05-4.98-.45-1.7-.69-3.4-.72-5.11-.03-1.71,0-3.25.11-4.62-1.36.58-2.91,1.39-4.67,2.46-1.76,1.06-3.58,2.16-5.47,3.29-1.9,1.14-3.74,2.31-5.56,3.5-1.82,1.2-3.41,2.3-4.75,3.28-2.3,1.41-4.45,2.76-6.48,4.03-2.02,1.27-3.85,2.41-5.47,3.4-.8.57-1.72,1.1-2.73,1.6-1.01.5-2.04.9-3.05,1.19-1.02.3-2.01.35-2.97.17-.96-.19-1.86-.68-2.7-1.48-.97-.94-1.48-2.02-1.5-3.25-.03-1.23.26-2.47.84-3.71.59-1.25,1.39-2.56,2.38-3.95,1-1.39,2.1-2.78,3.3-4.17,10.12-12.93,19.69-19.7,28.7-20.3,2.87-.2,5.31.17,7.31,1.08,2,.92,3.56,1.84,4.67,2.77,1.91-.18,3.56.13,4.94.92.55.27,1.22.93,2,2.01.77,1.08,1.04,2.72.82,4.91-1.08,7.41-.3,12.04,2.34,13.9.97.67,2.62,1.17,4.96,1.54,2.33.36,5.68.15,10.04-.62,4.36-.78,10-2.4,16.92-4.87,6.93-2.47,15.53-6.21,25.82-11.21,1.08-.71,2.2-.83,3.38-.38,1.17.45,2.05,1.29,2.62,2.51.71,1.08.83,2.21.38,3.38-.46,1.17-1.3,2.05-2.51,2.62-23.83,11.72-41.62,17.7-53.37,17.95Zm-30.74-27.25c-1.63.31-3.6,1.1-5.9,2.38-2.3,1.28-4.99,3.46-8.07,6.53,5.39-3.53,10.05-6.5,13.96-8.91Z"></path><path class="uuid-9fdd3747-d1ce-4265-a421-ce10b7793d76" d="m338.47,258.79c.43.95.56,2.01.37,3.17-.18,1.17-.94,2.31-2.29,3.43-.93.71-2,1-3.16.89-1.16-.11-2.17-.57-3-1.38-2.74.06-7.06.56-12.99,1.51-5.93.95-12.88,2.19-20.85,3.72-7.97,1.54-16.72,3.26-26.25,5.17-9.53,1.91-19.27,3.93-29.21,6.05-3.87,11.3-8.13,26.3-12.79,45-4.68,18.7-8.71,41.08-12.13,67.13-.35,2.61-1.83,3.94-4.42,4h-.82c-1.24-.23-2.24-.83-3.01-1.77-.77-.94-1.03-2.03-.79-3.26,3.16-24.96,6.92-46.41,11.26-64.35,4.34-17.94,8.37-32.76,12.09-44.46-9.25,2.11-18.31,4.15-27.15,6.11-8.85,1.97-17.15,3.85-24.91,5.66l-1.02.02c-1.09.02-2.06-.3-2.89-.96-.83-.67-1.4-1.54-1.7-2.63-.3-1.23-.12-2.35.54-3.4.66-1.04,1.68-1.71,3.03-2.01,6.26-1.36,12.02-2.64,17.26-3.85,5.24-1.2,11.34-2.6,18.27-4.18,6.95-1.58,14.3-3.21,22.05-4.88,2.59-6.89,4.67-12.13,6.23-15.72,1.57-3.59,2.42-5.52,2.55-5.8.66-1.11,1.6-1.88,2.82-2.31,1.23-.44,2.39-.32,3.5.34,1.1.66,1.88,1.57,2.31,2.72.44,1.15.33,2.28-.34,3.39-.14.14-.76,1.45-1.87,3.94-1.11,2.48-2.63,6.21-4.58,11.18,1.49-.31,3.06-.61,4.69-.92,1.64-.31,3.2-.61,4.7-.92,11.44-2.42,21.62-4.52,30.54-6.29,8.92-1.76,16.72-3.19,23.4-4.29,7.9-1.4,14.04-2.35,18.4-2.85,3.14-.34,5.74-.43,7.79-.27,2.06.16,3.51,1.19,4.38,3.09Z"></path><path class="uuid-9fdd3747-d1ce-4265-a421-ce10b7793d76" d="m304.92,370.28c-1.64.04-2.95-.55-3.94-1.77-.42-.54-.74-1.22-.97-2.03-.22-.82-.15-2.46.21-4.93.36-2.47,1.14-6.11,2.34-10.92,1.2-4.81,3-11.48,5.42-20.01.77-2.48,1.5-4.89,2.2-7.23.71-2.34,1.38-4.61,2.01-6.81-4.82,4.75-9.24,8.85-13.27,12.28-4.03,3.44-7.6,6.35-10.69,8.74-1.61,1.13-3.3,2.23-5.06,3.29-1.75,1.06-3.48,1.92-5.18,2.57-1.7.65-3.4,1-5.11,1.03-1.71.04-3.26-.41-4.63-1.34-1.53-.92-2.55-2.2-3.06-3.83-.51-1.63-.72-3.37-.62-5.22.09-1.85.36-3.77.79-5.76.44-1.99.91-3.88,1.42-5.67,1.02-3.31,2.09-6.23,3.2-8.79,1.11-2.55,1.73-3.9,1.87-4.04.52-1.11,1.39-1.88,2.61-2.31,1.22-.43,2.39-.39,3.49.13,1.1.52,1.88,1.4,2.31,2.62.43,1.22.39,2.39-.14,3.49-1.05,2.07-1.96,4.21-2.73,6.42-.77,2.21-1.45,4.31-2.02,6.3-.57,2-1.01,3.75-1.32,5.26-.31,1.51-.39,2.68-.23,3.49.68-.15,1.9-.65,3.66-1.51,1.76-.86,4.36-2.65,7.79-5.4,3.42-2.74,7.86-6.59,13.29-11.56,5.44-4.97,12.09-11.57,20-19.81.67-.7,1.55-1.16,2.64-1.39,1.09-.23,2.12,0,3.09.65,1.94,1.19,2.59,2.96,1.95,5.3-2.04,6.61-4.06,13.28-6.03,20.03-1.98,6.74-3.76,13-5.35,18.78-1.59,5.78-2.92,10.77-3.99,14.96-1.07,4.2-1.66,7.12-1.76,8.76.29.81.43,1.36.44,1.63.03,1.23-.4,2.3-1.27,3.21-.87.91-1.98,1.38-3.35,1.4Z"></path><path class="uuid-9fdd3747-d1ce-4265-a421-ce10b7793d76" d="m339.46,354.57c-.55.01-.96-.05-1.24-.18-1.1-.25-2-.88-2.71-1.89-.7-1.01-.93-2.06-.68-3.17,1.2-7.95,2.59-15.03,4.17-21.22,1.58-6.19,3.08-11.45,4.49-15.79,1.4-4.34,2.64-7.65,3.69-9.93,1.04-2.28,1.63-3.49,1.77-3.63.66-1.11,1.61-1.88,2.83-2.32,1.22-.44,2.38-.39,3.49.13,1.11.66,1.88,1.61,2.32,2.83.43,1.22.32,2.39-.34,3.5-.14,0-.76,1.32-1.86,3.94-1.11,2.62-2.5,6.41-4.17,11.37,3.71-5.41,7.88-10.7,12.48-15.85,4.61-5.16,9.75-9.57,15.42-13.25,1.08-.7,2.2-.9,3.37-.58,1.17.32,2.1,1.01,2.82,2.09.7,1.08.93,2.21.68,3.37-.25,1.16-.92,2.1-1.99,2.81-4.04,2.55-7.84,5.67-11.39,9.37-3.55,3.7-6.82,7.6-9.81,11.7-3,4.1-5.67,8.15-8.05,12.17-2.38,4.02-4.39,7.62-6.03,10.8-1.65,3.18-3.38,6.84-5.2,10.98-.65,1.79-1.99,2.71-4.04,2.75Z"></path><path class="uuid-9fdd3747-d1ce-4265-a421-ce10b7793d76" d="m459.19,340.97c-5.61.12-10.15-1.08-13.62-3.61-1.67-1.19-2.96-2.6-3.88-4.23-.93-1.62-1.61-3.28-2.06-4.98-.45-1.7-.68-3.4-.72-5.11-.03-1.71,0-3.25.11-4.62-1.36.58-2.91,1.39-4.67,2.46-1.76,1.06-3.58,2.16-5.47,3.29-1.9,1.14-3.75,2.31-5.57,3.5-1.83,1.2-3.41,2.3-4.75,3.28-2.3,1.41-4.45,2.76-6.48,4.03-2.02,1.28-3.85,2.41-5.47,3.4-.81.57-1.72,1.1-2.74,1.6-1.01.5-2.03.9-3.05,1.2-1.02.3-2.01.35-2.97.16-.96-.18-1.86-.68-2.7-1.48-.97-.93-1.48-2.02-1.5-3.25-.03-1.23.25-2.47.84-3.71.59-1.24,1.39-2.56,2.38-3.95.99-1.39,2.1-2.78,3.3-4.18,10.12-12.93,19.69-19.7,28.7-20.3,2.87-.2,5.31.16,7.31,1.08,2,.91,3.56,1.84,4.67,2.77,1.91-.18,3.56.13,4.94.92.55.27,1.22.93,2,2.01.77,1.08,1.04,2.71.82,4.91-1.08,7.41-.3,12.04,2.34,13.9.97.67,2.62,1.18,4.96,1.54,2.33.36,5.68.15,10.04-.62,4.36-.77,10-2.4,16.92-4.87,6.93-2.47,15.53-6.21,25.82-11.21,1.08-.7,2.2-.83,3.38-.38,1.17.45,2.04,1.29,2.61,2.51.7,1.08.82,2.21.38,3.38-.45,1.17-1.29,2.05-2.51,2.62-23.83,11.72-41.61,17.7-53.37,17.95Zm-30.73-27.25c-1.64.31-3.6,1.1-5.9,2.38-2.3,1.28-4.99,3.46-8.06,6.53,5.39-3.53,10.04-6.5,13.96-8.91Z"></path><path class="uuid-9fdd3747-d1ce-4265-a421-ce10b7793d76" d="m511.09,379.88c-2.05.04-4.05-.46-5.98-1.52-1.8-1.06-3.37-2.87-4.73-5.44-1.35-2.57-1.99-6.73-1.91-12.47.09-5.74,1.12-13.53,3.1-23.35,1.98-9.82,5.41-22.51,10.28-38.07.64-2.2,1.31-4.37,2.01-6.51.71-2.13,1.38-4.23,2.02-6.3-.99-1.48-1.09-3.06-.3-4.71,1.31-2.49,2.56-4.91,3.74-7.26,1.19-2.35,2.3-4.63,3.35-6.84,1.67-4.82,3.29-9.3,4.84-13.44,1.56-4.13,2.92-7.72,4.08-10.75,1.16-3.03,2.46-6.34,3.89-9.93,1.05-2.21,1.98-3.91,2.77-5.08.79-1.18,1.94-1.85,3.45-2.02,1.91-.04,3.29.68,4.15,2.17.28.4.5.88.64,1.43.15.54.1,1.5-.14,2.87-.25,1.38-.82,3.3-1.72,5.78-.91,2.48-2.2,5.93-3.89,10.34-.91,2.35-2.18,5.41-3.81,9.21-1.63,3.8-3.56,8.11-5.78,12.94-1.82,4.69-3.59,9.65-5.33,14.88-1.73,5.24-3.5,10.54-5.3,15.91-4.87,15.42-8.21,27.63-10,36.63-1.79,9-2.78,15.86-2.95,20.57-.18,4.72.1,7.8.81,9.22.72,1.42,1.21,2.2,1.49,2.33.14.13.62.23,1.44.28.82.05,2.08-.32,3.77-1.11,1.69-.78,3.98-2.2,6.88-4.25,2.89-2.04,6.56-5.16,10.99-9.36,4.42-4.2,9.64-9.6,15.66-16.23,6.02-6.62,13.08-14.94,21.22-24.96.79-1.11,1.84-1.71,3.14-1.81,1.29-.09,2.43.26,3.41,1.06.97.8,1.54,1.82,1.7,3.04.16,1.23-.16,2.33-.96,3.3-18.53,22.83-33.64,39.08-45.33,48.76-2.96,2.38-6.26,4.75-9.91,7.08-3.65,2.33-7.24,3.54-10.79,3.61Z"></path><path class="uuid-9fdd3747-d1ce-4265-a421-ce10b7793d76" d="m118.92,495.9c1.3,1.73,4.08,1.82,4.21,3.33.23,2.57-2.4,3.4-4.45,1.15-1.35-1.44-.07-2.96-.96-4.12-.55-.71-2.45-.44-3.42-1.48-1.14-1.19-1.35-3.05-1.92-3.45-2.96-1.96-6.14,2.38-8.89-1.02-.62-.79,1.06-.59.85-1.54-.19-.88-2.95-2.85-3.99-2.99-1.4-.2-3.39,2.79-4.27.09-.88-2.79-1.34-1.89-1.36-.19-3.1-3.04-6.16-6.13-9.14-9.33-5.94-6.36-11.46-12.94-16.69-19.69.51-.88.77-2.05,1.83-3.12,1.09-1.09,2.21-.9,2.59-1.8.06-.15-1.03-2.74-.81-3.26.39-1.07,1.52-1.52,2.56-1.99,5.77,7.67,11.97,15.11,18.65,22.28,7.55,8.1,15.53,15.57,23.8,22.54-.2,1.24.38,3.2,1.43,4.58Z"></path><path class="uuid-9fdd3747-d1ce-4265-a421-ce10b7793d76" d="m34.77,394.98c1.28-2.39,3.26-3.83,5.26-.76-1.12,1.51-3.77,1.76-1.89,4.19-2.11.15-2.22,1.94-2.59,3.47-.41-.9-.82-1.82-1.22-2.73.1-.1.2-.14.32-.26.84-.78-.55-2.66.12-3.91Z"></path><path class="uuid-9fdd3747-d1ce-4265-a421-ce10b7793d76" d="m481.59,492.14c.91-.04,1.44.15,1.71.48-1.82,1.64-3.63,3.26-5.48,4.85-2.1-1.4,2.04-5.27,3.76-5.33Z"></path><path class="uuid-9fdd3747-d1ce-4265-a421-ce10b7793d76" d="m57.11,440.36c-.69-1.02-1.33-2.07-2-3.09,1.82-.79,4.11-1.29,4.66-.14.62,1.28-.86,2.78-2.66,3.24Z"></path><path class="uuid-9fdd3747-d1ce-4265-a421-ce10b7793d76" d="m42.31,415.57c-1.85-3.5-3.66-7.02-5.35-10.57,1.23-1,2.2-.67,3.46-1.93-.15-1.34-.93-1.75-.06-2.83,2.95-3.76,3.85,2.18,6.31,4.24.97.81,1.97.88,2.88.84.75,1.5,1.53,3,2.3,4.5-1.26,1.26-3.07,2.43-3.9,3.39-.73.86-.71,3.08-1.46,3.42-1.19.56-2.66-.49-4.17-1.05Z"></path><path class="uuid-9fdd3747-d1ce-4265-a421-ce10b7793d76" d="m67.74,452.73c-.61.13-1.08.33-1.51.51-1.09-1.43-2.1-2.93-3.16-4.38.19.01.37.02.56.01,1.97,0,3.39-1.12,4.36-.64,1.16.58,2.92,3.2,2.69,3.88-.33,1.05-3.14.64-2.95.61Z"></path><path class="uuid-9fdd3747-d1ce-4265-a421-ce10b7793d76" d="m575.31,264.31c.08,1.24.16,2.48.22,3.72-.45-.52-.8-1.14-.94-1.95-.1-.43.13-1.09.72-1.77Z"></path><path class="uuid-9fdd3747-d1ce-4265-a421-ce10b7793d76" d="m561.86,209.14c-1.05.6-1.44,1.68-1.73,1.66-1.87.1-5.31-3.41-6.55-5.99-.49-1.02-.17-2.5-.83-3.27-.06-.05-.22-.08-.4-.1-1.44-4.59-3.03-9.14-4.72-13.66.3.1.65.02.92-.35.38-.51-.17-1.15-.91-1.28-.28-.06-.49-.02-.63.04-12.16-31.92-30.51-62.11-55.25-88.63-26.58-28.49-57.85-49.95-91.52-64.4.87-.82.41-1.9,1.85-1.75,1.46,1.03.09,3.01,1.72,3.12,1.27-1.6,1.91-2.76,1.34-4.27-.64-1.55-2.76-1.69-3.46-2.89-1.04-1.8.16-3.61.58-5.4,1.11.47,2.24.92,3.36,1.4-.37.15-.82.37-1.37.78.18-.13-2.39,1.1-.18,2.53,1.57,1.01,3.05-1.51,2.84-2.76,34.16,15.04,65.9,37.05,92.96,66.07,32.39,34.73,54.32,75.47,66.01,118.3-1.46.2-3.14.34-4.01.85Zm-126.73-164.71c-5.55-7.67-8.52,5.15,0,0h0Zm32.85,28.55c1.14,1.91,4.87-1.86,6.18-2.84-2.17-1.45-7.24,1.12-6.18,2.84Zm34.81,28.64c-.84.42-1.22.93-1.41,1.47,1.41,1.5,3.43-.44,1.41-1.47Zm-23.1-22.84c-.17-2.13-3.36-3.66-4.77-3.4-.63.12-2.22.22-2.02,1.91.11,1.55,7.15,6.06,6.79,1.49Z"></path><path class="uuid-9fdd3747-d1ce-4265-a421-ce10b7793d76" d="m384.87,15.31c1.86.65,3.71,1.34,5.56,2.01-1.96.07-3.88-.36-5.56-2.01Z"></path><path class="uuid-9fdd3747-d1ce-4265-a421-ce10b7793d76" d="m363.43,11.74c-.93-1.41,0-1.99.13-2.77,1.29.34,2.61.65,3.92.99-1.15,1.03-3.26,1.65-4.05,1.77Z"></path><path class="uuid-9fdd3747-d1ce-4265-a421-ce10b7793d76" d="m493.35,478.66c1.46-1.61,4.64-7.66,7.3-3.28-.05.06-.1.1-.14.15-1.17.61-2.12-.07-3.38.98.09.89.57,1.12,1.14,1.45-2.17,2.27-4.41,4.5-6.65,6.72-3.48-2.21.22-4.42,1.73-6.03Z"></path><path class="uuid-9fdd3747-d1ce-4265-a421-ce10b7793d76" d="m297.93,2.51c.52-.03,1.78-1.11,2.49-2.43,9.56.25,19.07.96,28.56,2.18.28.67.47,1.32.38,1.94-.3,2.1-1.75.73-2.23,3,3.16-2.45,4.68.29,7.32.16,2.92-.11,3.88-3.67,6.74-1.33-2.8.43-6.07,2.21-4.17,4.35.93,1.04,1.39-.78,2.94-.62,2.02.26,2.99,1.87,4.14-.94,1.65,2.66,3.45,3.62,3.74,6.05,2.27-1.66,3.68,1.46,5.9.21-.42-1.92-3.74-5.13-4.09-7.25-.1-.57.63-1.34,1.02-1.86,2.53.53,5.08,1.05,7.59,1.65-.01.01-.08.03-.08.05-2.93,2.66,2,5.66,3.69,8.02-.55,1.02-5.77-2.72-5.7.11.04,3.1,3.76,1.24,4.95,2.32.46.4.68,1.14.92,1.92-5.12-1.34-10.29-2.52-15.47-3.57-.04-.06-.07-.14-.15-.16-.33-.09-.62-.08-.86-.04-2.98-.59-5.96-1.12-8.95-1.61-.7-.96-4.09-5.59-3.66-5.29-2.61-1.87-7.65,1.05-9.79,2.49.68.18,1.31.62,1.93,1.16-6.24-.75-12.49-1.26-18.76-1.58.44-.33.85-.72,1.26-1.25-1.56-1.85-4.27.3-6.64.78-.58.13-1.35.15-2.15.19-2.17-.05-4.36-.08-6.53-.07.59-.27.66-1.44-1.5-1.66.22,1.04.61,1.5.98,1.65-3.57,0-7.14.11-10.71.27.15-.84.36-1.75.18-2.49-.16-.61-2.46-5.31-1.74-4.57-4.07-4.3-8.51,4.96-13.19,2.46-1,2.16,2.44,2.07,3.36,3.4.06.08.3.89.57,1.87-58.85,4.84-116.56,28.72-163.11,72.12-14.2,13.25-26.64,27.68-37.38,42.98-.43-.05-.86.06-1.32.42.18.28.36.51.54.77-.56.78-1.08,1.59-1.63,2.39-1.65-.57-3.6-1.01-4.43-.74.71.88,1.43,2.56,2.29,3.89-1.67,2.57-3.29,5.14-4.87,7.75-1.79-2.09-3.35-4.02-5.77-1.52-2.48,2.55.64,3.43,1.64,5.1.4.69-.15,1.94.44,2.52-2.09,3.62-4.06,7.28-5.95,10.96-.18-.35-.4-.69-.69-.99-1.09-1.11-3.78-.45-5.3-2.09-1.22-1.3.94-2.07-1.81-2.59.12,1.43,1.22,1.86.61,2.95-1.33,2.31-2.56.89-3.73-.38,1.73-3.43,3.57-6.81,5.45-10.18.05.03.12.08.14.14,1.44,1.69.83,3.14,1.64,5.1,4.21-1.95,1.29-5.08-.89-6.87,13.88-24.56,31.7-47.47,53.44-67.75C154.91,24.39,225.46-.71,295.64.02c.88,1.17.94,2.58,2.28,2.49ZM53.78,150.7c.84-.79,1.02-1.69.5-2.74-.37.87-1.29,1.67-.5,2.74ZM237.55,8.95c-.05-.03-1.08-.14-1.17.36-.38,2.04,4.03.16,1.17-.36Zm52.75-4.96c-3.32-1.99-1.85,3.6,0,0h0Z"></path><path class="uuid-9fdd3747-d1ce-4265-a421-ce10b7793d76" d="m556.3,215.33c1.95.39,2.75,3.53,3.78,3.69,2.57.32,4.57-5.32,6.82-7.13,1.89,7.28,3.4,14.65,4.69,22.03-3.44-.86-9.74,1.77-11.12.18-.49-.6.81-2.47.36-3.62-.41-1.19-.96-1.84-1.56-2.2-.89-4.33-1.88-8.65-2.98-12.95Z"></path><path class="uuid-9fdd3747-d1ce-4265-a421-ce10b7793d76" d="m138.3,514.13c-2.35.03-1.78-2.94-.51-3.5,3.39-1.51,1.91,3.46.51,3.5Z"></path><path class="uuid-9fdd3747-d1ce-4265-a421-ce10b7793d76" d="m200.5,540.02c.75.08,1.26,1.11.57,1.52-.95.58-2.27-1.68-.57-1.52Z"></path><path class="uuid-9fdd3747-d1ce-4265-a421-ce10b7793d76" d="m186.39,544.57c-1.92-4.93-5.98-4.23-6.96-8.62l.96-.67c2.05,2.37,5.02,2.17,6.3,4.25,3.34-2.79,5.26-.13,6.63,2.61,1.61,3.18,5.3,6.13,6.17,8.49-4.36-1.53-8.69-3.15-12.99-4.88.02-.44,0-.85-.12-1.17Z"></path><path class="uuid-9fdd3747-d1ce-4265-a421-ce10b7793d76" d="m61.34,433.16c-.78-.5-.41-2.05-1.15-3.03-1.04-1.48-5.56-3.38-2.21-6.63.52,1.63,2.13,2.87,3.68,3.43,1.24,2,2.55,3.98,3.86,5.96-1.67.19-3.39.77-4.18.26Z"></path><path class="uuid-9fdd3747-d1ce-4265-a421-ce10b7793d76" d="m37.85,167.01l.98,1.67c1.62-.14,3.39-.14,4.74-.88,1.03-.55,1.67-1.67,2.53-1.92.17-.06.44-.05.71-.01-13.23,31.96-20.25,66.1-20.75,100.48-1.08-1.28-3.01-2.56-4.07-2.34-3.82.76-1.55,6.63-6.23,7.28,4.91,2.91,2.12,5.52-.75,4.98-.78-38.61,6.3-77.17,20.94-113.12.57,1.31,1.17,2.62,1.9,3.85Z"></path><path class="uuid-9fdd3747-d1ce-4265-a421-ce10b7793d76" d="m50.5,143.98c.41-1.06,1.1-1.23,1.7-1.35-1.43,3.14-2.86,6.31-4.17,9.53-1.12-.86-1.85-1.87-1.39-3.42.2-.68,2.83-1.27,4.06-2.8.29-.35-.38-1.52-.2-1.97Z"></path><path class="uuid-9fdd3747-d1ce-4265-a421-ce10b7793d76" d="m43.28,150.69c-.86-.4-1.09-2.58.98-1.69,1.56.66-.06,2.17-.98,1.69Z"></path><path class="uuid-9fdd3747-d1ce-4265-a421-ce10b7793d76" d="m44.25,156.14c.2.08,1.11.73,1.61,1.58-.36.95-.76,1.89-1.09,2.84-2.27.18-4.47-6.16-.51-4.42Z"></path><path class="uuid-9fdd3747-d1ce-4265-a421-ce10b7793d76" d="m31.42,207.85c.1.09.2.25.31.37-.53,2.91-1.02,5.83-1.45,8.75-1.85-2.34-2.08-7.81,1.14-9.12Z"></path><path class="uuid-9fdd3747-d1ce-4265-a421-ce10b7793d76" d="m28.5,187.54c.97.37,2.29,1.69,1.07,2.66-2.35,1.86-4.22-3.91-1.07-2.66Z"></path><path class="uuid-9fdd3747-d1ce-4265-a421-ce10b7793d76" d="m32.48,202.98c.08.05.1.12.16.17-.13.64-.22,1.28-.35,1.92-1.44.36-1.57-3.57.19-2.09Z"></path><path class="uuid-9fdd3747-d1ce-4265-a421-ce10b7793d76" d="m31.27,383.01c-.06-1.18.81-.97,1.29-.89,2.98.53-1.14,3.58-1.29.89Z"></path><path class="uuid-9fdd3747-d1ce-4265-a421-ce10b7793d76" d="m130.19,513.52c1.14-.23,2.49-.36,2.8,1.91.07.69.01,1.19-.15,1.52-1.3-.9-2.63-1.74-3.93-2.66.16-.36.54-.65,1.27-.78Z"></path><path class="uuid-9fdd3747-d1ce-4265-a421-ce10b7793d76" d="m58.04,420.9c-1.92.85-3.72.65-5.99.98-1.38-2.02,1.65-3.16,1.99-4.75.25-1.19-2.13-2.65-.11-3.33.48.87,1.01,1.72,1.49,2.6-.05.44-.02.91.48,1.35.16.14.31.19.46.3.55.96,1.11,1.9,1.67,2.86Z"></path><path class="uuid-9fdd3747-d1ce-4265-a421-ce10b7793d76" d="m37.58,182.63c.32-1.05,1.46-.99,2.46-.55-.16.41-.35.8-.51,1.2-.73.24-1.42.24-1.95-.65Z"></path><path class="uuid-9fdd3747-d1ce-4265-a421-ce10b7793d76" d="m25.66,188.99c1.62-1.6,4.76,3.15,4.54,3.08,1.24.4,3.56-1.27,5.33-1.3.4,0,.8.05,1.19.13-.62,1.75-1.29,3.47-1.89,5.23-.2-.07-.39-.13-.51-.19-1.36-.67-10.08-5.53-8.67-6.94Z"></path><path class="uuid-9fdd3747-d1ce-4265-a421-ce10b7793d76" d="m485.45,483.19c-1.42.62-3.43,3.54-5.49,4.77-.51-.12-1.09.07-1.69.51-.53,0-1.06-.15-1.56-.61,1.52-1.48,6.26-5.91,8.75-4.67Z"></path><path class="uuid-9fdd3747-d1ce-4265-a421-ce10b7793d76" d="m42.91,159.23c-6.69,3.56-4.79-5.25,0,0h0Z"></path><path class="uuid-9fdd3747-d1ce-4265-a421-ce10b7793d76" d="m36.76,180.79c-2.04,1.17-4.29-.75-4.74-2-1.15-3.17,2.88-5.16,6.42-2.51.03-2.04-3.37-3.01-1.42-4.81,3.19,3.73,5.06,1.47,7.76-.59-1.07,2.37-2.07,4.78-3.06,7.17-2.21-1.38-3.66,2.01-4.96,2.74Z"></path><path class="uuid-9fdd3747-d1ce-4265-a421-ce10b7793d76" d="m510.71,460.81c1.32-2.61-.37-10.08-3.95-6.36-.98,1.02,1.21,5.58-2.52,6.08,4.58,5.98-2.61,3.77-5.14,5.02-1.19.57-2.85,3.21-4.98,5.25-1.17-.63-2.87-.56-4.09-.26,14.23-14.96,26.42-31.18,36.61-48.3.43.09,1.05,0,1.91-.45-.38-.49-.72-.8-1.02-1.04,3.01-5.14,5.88-10.33,8.53-15.64,1.72.82,4.06,2.16,4.59,2.74,2.93,3.56-.69,6.09.48,8.29.08.13.58.43,1.29.75-.91,1.68-1.78,3.37-2.72,5.02-.71.08-1.33.42-1.7.99.21.29.48.52.76.73-6.77,11.84-14.47,23.29-23.07,34.24-1.72.15-3.46.91-4.97,2.93Zm17.47-22.92c-6.03-4.3-6.12,6.83,0,0h0Zm-6.49,1.66c-.71-.36-1.4-.72-2.29.15.52,1.12,1.4.57,2.29-.15Z"></path><path class="uuid-9fdd3747-d1ce-4265-a421-ce10b7793d76" d="m39.81,163.77c1.13-.43,5.44.94,4.23,3.31-1.76,3.47-8.58-1.58-4.23-3.31Z"></path><path class="uuid-9fdd3747-d1ce-4265-a421-ce10b7793d76" d="m486.9,473.77c0,.08.04.17.05.27-.71.56-1.32,1.15-1.92,1.56.61-.61,1.26-1.21,1.87-1.83Z"></path><path class="uuid-9fdd3747-d1ce-4265-a421-ce10b7793d76" d="m544.09,405.93c-1.05-.67-1.79-.22-2.11-.95-.62-1.54,1.78-6.28,3.26-7.09,1.75-.92,3.8,1.19,5.14-.2.9-.89,1.14-3.42-1.76-5.98,2.11-1.15.76-4.6,2.07-5.29,2.63-1.35,3.54,2.55,4.02,4.37-2.38,5.78-4.93,11.49-7.71,17.14-.16.06-.36.13-.48.12-2.14-.2-.3-.8-2.44-2.12Z"></path><path class="uuid-9fdd3747-d1ce-4265-a421-ce10b7793d76" d="m557.75,373.82c3.57-1.06-.38,3.52-.96.68-.1-.65.76-.61.96-.68Z"></path><path class="uuid-9fdd3747-d1ce-4265-a421-ce10b7793d76" d="m205.38,549.1c-.15-1.36-2.88-1.13-.94-2.71,3.1-.64,4.89,4.54,7.93,3.14,4.78-2.21-2.05-4.82-1.33-6.74,0-.02.04-.03.05-.05,2.2.69,4.36,1.4,6.59,2.04.03.43,0,.76.21.93,1.38.99,3.33.18,4.06,1.01,1.14,1.28.5,4.59,1.55,5.65.25.26,7.35,2.22,7.91,1.7,2.72-2.5-3.97-4.22-4.05-5.85-.03-.35.06-.63.19-.86,76.34,18.76,159.44,4.15,225.93-44.67,1.26.68,4.06.52,2.8-1.79-.03-.08-.07-.09-.09-.15,5.68-4.28,11.23-8.89,16.63-13.68.56.37,1.3.78,1.69,1.81.04.13.02.3-.05.5-.12-.1-.26-.21-.48-.33-.07-.04-.52.44-.64.45-2.4.36-.21.82.87.61-.19.57-.38,1.27-.29,2.07.2,1.63,1.47,1.12.7,2.4-.4.66-1.14.97-1.97,1.19,0-.55-.57-1.12-1.08-1.19-.51.41-.3,1.02.11,1.43-.93.21-1.89.43-2.57.98-.59.44-.69,2.25-1.7,3.11-1.44,1.14-3.01.68-3.68,1.59-1.62,2.17.4,3.29-.35,5.05-.49,1.1-4.49,3.99-4.28,4.88.06.22.15.39.27.52-11.64,8.5-23.77,16-36.28,22.49.18-1.09-.2-2.03-1.72-1.76-.16.01-2.78,2.47-2.15,3.75-67.32,33.63-144.87,38.66-215.04,15.65.48-.95,1.34-1.88,1.19-3.15Zm240.13-40.23c2.97,2.94,4.04-3.07,0,0h0Zm-1.83,2.19c-1.38.72-1.67,1.63-2.14,2.47,1.51,1.04,3.08-.86,2.14-2.47Zm-16.26,18.06c1.02-.42,3.45.02,4.05-.41.57-.43,3.31-7.06,2.89-8.24-4.31,2.11-8.61,5.79-9.97,9.82,1.49,2.04,1.57-.59,3.03-1.16Zm-16.95,6.02c-.46-1.86-1.24-1.84-3.52-.91-6.01,2.44,4.35,4.12,3.52.91Zm-62.31,17.42c-4.21-5.57-6.16,5.24,0,0h0Z"></path><path class="uuid-9fdd3747-d1ce-4265-a421-ce10b7793d76" d="m546.44,392.75c-.47,1.39-1.64.03-2.5,1.24-.7,1.04,1.44,1.32-.38,2.21-.82.39-1.46-.48-3.11-.31,1.37-3.04,2.67-6.11,3.93-9.2,1.58,0,3.11-.08,4.66-.56-4.88,1.38-2.04,4.93-2.6,6.62Z"></path><path class="uuid-9fdd3747-d1ce-4265-a421-ce10b7793d76" d="m393.23,27c1.78.32.8,2.75-.43,3.06-.36-.15-.72-.31-1.08-.45-.66-1.02.6-2.78,1.51-2.61Z"></path></g></svg> 