<?xml version="1.0" encoding="UTF-8"?> <svg xmlns="http://www.w3.org/2000/svg" id="uuid-cd9d0a6e-3371-42df-b682-98a9d8eafb47" viewBox="0 0 639.37 97.87"><defs><style>.uuid-d744930d-77d6-472c-9ad1-866836f284a7{fill:#f7941d;fill-rule:evenodd;}.uuid-d744930d-77d6-472c-9ad1-866836f284a7,.uuid-5f9bcffe-3684-47a5-9981-e65d2fbd95fe,.uuid-736ad07a-6708-4ab8-aadb-9c906733a729{stroke-width:0px;}.uuid-5f9bcffe-3684-47a5-9981-e65d2fbd95fe{fill:#39b54a;}.uuid-736ad07a-6708-4ab8-aadb-9c906733a729{fill:#006838;}</style></defs><g id="uuid-e712e6c0-fb9c-4486-8c62-561e047cd841"><path class="uuid-736ad07a-6708-4ab8-aadb-9c906733a729" d="m76.69,88.14v-53.21h9.86v43.78h16.27v9.43h-26.14Z"></path><path class="uuid-736ad07a-6708-4ab8-aadb-9c906733a729" d="m107.51,34.93h9.86v33.7c0,3.36.43,5.81,1.3,7.34,1.68,2.26,3.96,3.46,6.84,3.6,2.83,0,5.02-1.08,6.55-3.24.05-.14.12-.26.22-.36.86-1.49,1.3-3.94,1.3-7.34v-33.7h9.86v33.7c0,5.76-1.13,10.2-3.38,13.32-.1.1-.17.19-.22.29-2.69,3.6-6.46,5.81-11.3,6.62-1.06.14-2.09.22-3.1.22-5.09,0-9.36-1.7-12.82-5.11-.86-.86-1.61-1.8-2.23-2.81-1.92-3.07-2.88-7.25-2.88-12.53v-33.7Z"></path><path class="uuid-736ad07a-6708-4ab8-aadb-9c906733a729" d="m149.7,72.95h10.3c.43,4.42,2.83,6.62,7.2,6.62,3.12,0,5.28-1.15,6.48-3.46.48-.91.72-1.92.72-3.02,0-2.26-.82-4.06-2.45-5.4-1.15-.82-3.1-1.75-5.83-2.81-.82-.34-1.94-.77-3.38-1.3-6.24-2.35-9.86-6.24-10.87-11.66-.14-.91-.22-1.85-.22-2.81,0-4.66,1.8-8.5,5.4-11.52,2.88-2.4,6.24-3.6,10.08-3.6,4.85,0,8.78,1.66,11.81,4.97.24.24.46.48.65.72,2.02,2.45,3.12,5.59,3.31,9.43h-10.22c-.29-3.36-1.87-5.21-4.75-5.54-.29-.05-.58-.07-.86-.07-2.5,0-4.18,1.03-5.04,3.1-.29.72-.43,1.49-.43,2.3,0,1.97.98,3.58,2.95,4.82.53.34,2.5,1.13,5.9,2.38,4.03,1.49,6.81,2.9,8.35,4.25.19.19.41.38.65.58,3.17,2.93,4.75,6.62,4.75,11.09,0,5.28-1.92,9.6-5.76,12.96-3.17,2.74-6.91,4.1-11.23,4.1-5.18,0-9.46-1.7-12.82-5.11-.43-.43-.84-.89-1.22-1.37-1.97-2.54-3.12-5.76-3.46-9.65Z"></path><path class="uuid-736ad07a-6708-4ab8-aadb-9c906733a729" d="m196.64,88.14v-43.78h-9.86v-9.43h29.59v9.43h-9.86v43.78h-9.86Z"></path><path class="uuid-736ad07a-6708-4ab8-aadb-9c906733a729" d="m221.41,88.14v-53.21h28.58v9.43h-18.72v12.53h17.93v9.43h-17.93v12.38h18.72v9.43h-28.58Z"></path><path class="uuid-736ad07a-6708-4ab8-aadb-9c906733a729" d="m258.85,88.14v-53.21h15.34c5.76,0,10.01.89,12.74,2.66.62.38,1.22.82,1.8,1.3,3.74,3.17,5.62,7.54,5.62,13.1,0,5.28-1.82,9.48-5.47,12.6-1.97,1.68-4.61,2.93-7.92,3.74l-.5.14,14.4,19.66h-12.17l-13.97-20.38v20.38h-9.86Zm9.86-27.79h4.82c5.9,0,9.38-1.66,10.44-4.97.29-.91.43-1.94.43-3.1,0-2.69-.86-4.7-2.59-6.05-1.44-1.25-4.34-1.87-8.71-1.87h-4.39v15.98Z"></path><path class="uuid-736ad07a-6708-4ab8-aadb-9c906733a729" d="m320.77,88.14v-53.21h13.54l14.33,40.32,14.18-40.32h13.54v53.21h-9.86v-39.89l-13.9,39.89h-8.06l-13.9-39.89v39.89h-9.86Z"></path><path class="uuid-736ad07a-6708-4ab8-aadb-9c906733a729" d="m385.57,88.14v-53.21h28.58v9.43h-18.72v12.53h17.93v9.43h-17.93v12.38h18.72v9.43h-28.58Z"></path><path class="uuid-736ad07a-6708-4ab8-aadb-9c906733a729" d="m423.01,88.14v-53.21h13.54l14.33,40.32,14.18-40.32h13.54v53.21h-9.86v-39.89l-13.9,39.89h-8.06l-13.9-39.89v39.89h-9.86Z"></path><path class="uuid-736ad07a-6708-4ab8-aadb-9c906733a729" d="m487.81,88.14v-53.21h10.94c6.1,0,10.34.55,12.74,1.66.58.29,1.13.6,1.66.94,3.79,2.4,5.81,6,6.05,10.8v.79c0,3.89-1.3,6.79-3.89,8.71-.58.48-1.25.91-2.02,1.3,2.88,1.2,4.9,2.52,6.05,3.96l.43.5c1.73,2.26,2.59,5.16,2.59,8.71,0,5.04-1.85,9.02-5.54,11.95-.43.34-.89.65-1.37.94-3.17,1.97-7.66,2.95-13.46,2.95h-14.18Zm9.86-32.69h3.17c4.94,0,7.73-1.32,8.35-3.96.1-.43.14-.94.14-1.51,0-3.6-2.54-5.4-7.63-5.4h-4.03v10.87Zm0,23.26h4.9c5.57,0,8.76-1.51,9.58-4.54.19-.62.29-1.32.29-2.09-.48-4.51-3.84-6.84-10.08-6.98h-4.68v13.61Z"></path><path class="uuid-736ad07a-6708-4ab8-aadb-9c906733a729" d="m529.57,88.14v-53.21h28.58v9.43h-18.72v12.53h17.93v9.43h-17.93v12.38h18.72v9.43h-28.58Z"></path><path class="uuid-736ad07a-6708-4ab8-aadb-9c906733a729" d="m567.01,88.14v-53.21h15.34c5.76,0,10.01.89,12.74,2.66.62.38,1.22.82,1.8,1.3,3.74,3.17,5.62,7.54,5.62,13.1,0,5.28-1.83,9.48-5.47,12.6-1.97,1.68-4.61,2.93-7.92,3.74l-.5.14,14.4,19.66h-12.17l-13.97-20.38v20.38h-9.86Zm9.86-27.79h4.82c5.9,0,9.38-1.66,10.44-4.97.29-.91.43-1.94.43-3.1,0-2.69-.86-4.7-2.59-6.05-1.44-1.25-4.34-1.87-8.71-1.87h-4.39v15.98Z"></path><path class="uuid-736ad07a-6708-4ab8-aadb-9c906733a729" d="m604.88,72.95h10.3c.43,4.42,2.83,6.62,7.2,6.62,3.12,0,5.28-1.15,6.48-3.46.48-.91.72-1.92.72-3.02,0-2.26-.82-4.06-2.45-5.4-1.15-.82-3.1-1.75-5.83-2.81-.82-.34-1.94-.77-3.38-1.3-6.24-2.35-9.86-6.24-10.87-11.66-.14-.91-.22-1.85-.22-2.81,0-4.66,1.8-8.5,5.4-11.52,2.88-2.4,6.24-3.6,10.08-3.6,4.85,0,8.78,1.66,11.81,4.97.24.24.46.48.65.72,2.02,2.45,3.12,5.59,3.31,9.43h-10.22c-.29-3.36-1.87-5.21-4.75-5.54-.29-.05-.58-.07-.86-.07-2.5,0-4.18,1.03-5.04,3.1-.29.72-.43,1.49-.43,2.3,0,1.97.98,3.58,2.95,4.82.53.34,2.5,1.13,5.9,2.38,4.03,1.49,6.82,2.9,8.35,4.25.19.19.41.38.65.58,3.17,2.93,4.75,6.62,4.75,11.09,0,5.28-1.92,9.6-5.76,12.96-3.17,2.74-6.91,4.1-11.23,4.1-5.18,0-9.46-1.7-12.82-5.11-.43-.43-.84-.89-1.22-1.37-1.97-2.54-3.12-5.76-3.46-9.65Z"></path><path class="uuid-736ad07a-6708-4ab8-aadb-9c906733a729" d="m48.85,2.04c.44,3.28.65,6.68.33,9.96-.65,6.23-3.38,11.32-8.07,15.17-3.05,2.38-6.43,4.19-9.81,5.89-1.74.91-3.6,1.81-5.02,3.4-1.53,1.58-2.29,3.51-2.29,5.77,0,1.58.11,3.28.33,4.75,0,.11.11.34.11.45-.98,2.26-1.74,4.53-2.07,6.91-.11-.23-.11-.34-.22-.57-1.53-4.3-2.07-8.72-1.53-13.24.33-2.94,1.2-5.77,2.29-8.49,1.42-3.62,3.27-6.91,5.78-9.74,1.31-1.58,2.84-2.83,4.36-4.19.76-.57,1.53-1.13,2.29-1.7-6.76,3.4-12.1,8.15-13.96,16.3-.65-3.62-.55-7.13.98-10.41,1.09-2.49,2.84-4.64,4.91-6.45,2.84-2.49,6.11-4.41,9.27-6.34,2.62-1.58,5.34-3.06,7.96-4.75,1.53-1.02,2.94-2.6,4.14-4.75,0,.91.11,1.47.22,2.04Z"></path><path class="uuid-5f9bcffe-3684-47a5-9981-e65d2fbd95fe" d="m13.19,35.66c-2.4-1.25-5.02-1.58-7.63-1.47-1.85.11-3.71.34-5.56.91.33.11.44.11.65.23,3.16.91,5.34,2.83,6.76,5.89.87,1.81,1.42,3.74,2.18,5.55.76,1.7,1.74,3.17,3.38,4.08,1.96,1.02,4.03,1.13,6.11,1.02.33,0,.22-.23.11-.34-.44-.91-.76-1.81-1.2-2.72-1.2-2.6-2.62-4.98-4.58-7.02,2.84,1.58,4.58,4.08,6,7.13.11-2.26-.11-4.41-.87-6.57-.87-3.17-2.62-5.32-5.34-6.68Z"></path><path class="uuid-736ad07a-6708-4ab8-aadb-9c906733a729" d="m58.67,73.47h11.01c-1.96,4.75-5.13,8.72-9.6,11.55-4.47,2.94-9.16,4.41-14.18,4.41-6.43,0-12-2.04-16.79-6.23-1.74-7.81-8.07-15.85-10.03-22.07,0-2.94.44-5.66,1.31-8.38.76-2.26,1.74-4.41,3.05-6.45.98-1.47,2.18-2.94,3.49-4.3,5.23-5.43,11.45-8.15,18.76-8.15,5.23,0,10.14,1.47,14.5,4.41s7.63,6.91,9.71,11.89h-10.8c-1.09-1.36-2.29-2.49-3.6-3.51-3.05-2.38-6.43-3.62-10.25-3.62-4.58,0-8.61,1.81-11.89,5.55s-4.91,8.04-4.91,12.91c0,.91,0,1.7.11,2.49,0,.34.11.68.11,1.02h0c.65,3.51,2.18,6.57,4.69,9.4,3.38,3.74,7.42,5.66,12.1,5.66,4.91.11,9.16-2.15,13.19-6.57Z"></path><path class="uuid-d744930d-77d6-472c-9ad1-866836f284a7" d="m28.35,87.85c0,10.87-13.41,14.38-18.1,3.06-3.05-7.36,8.18-17.77,8.07-28.41.11.57.87,1.92,1.09,2.49,2.18,6.11,6.76,11.32,8.51,19.13.33,1.25.44,2.49.44,3.74Z"></path></g></svg> 