<?xml version="1.0" encoding="UTF-8"?> <svg xmlns="http://www.w3.org/2000/svg" id="uuid-21dd9574-dd39-498c-bf8c-d6e6be839fd3" viewBox="0 0 678.09 97.87"><defs><style>.uuid-ba0950aa-0d5b-4825-9ac3-87505a9fc889{fill:#f7941d;fill-rule:evenodd;}.uuid-ba0950aa-0d5b-4825-9ac3-87505a9fc889,.uuid-5443399f-ff42-4804-8764-f38accb2a47a,.uuid-634b1910-dfd8-4b3a-abeb-9a9d6b679d12{stroke-width:0px;}.uuid-5443399f-ff42-4804-8764-f38accb2a47a{fill:#39b54a;}.uuid-634b1910-dfd8-4b3a-abeb-9a9d6b679d12{fill:#006838;}</style></defs><g id="uuid-fdfb9c02-f6e3-4a16-9a10-eafba66ec1a4"><path class="uuid-634b1910-dfd8-4b3a-abeb-9a9d6b679d12" d="m77.1,87.82v-53.21h9.86v43.78h16.27v9.43h-26.14Z"></path><path class="uuid-634b1910-dfd8-4b3a-abeb-9a9d6b679d12" d="m107.92,34.61h9.86v33.7c0,3.36.43,5.81,1.3,7.34,1.68,2.26,3.96,3.46,6.84,3.6,2.83,0,5.02-1.08,6.55-3.24.05-.14.12-.26.22-.36.86-1.49,1.3-3.94,1.3-7.34v-33.7h9.86v33.7c0,5.76-1.13,10.2-3.38,13.32-.1.1-.17.19-.22.29-2.69,3.6-6.46,5.81-11.3,6.62-1.06.14-2.09.22-3.1.22-5.09,0-9.36-1.7-12.82-5.11-.86-.86-1.61-1.8-2.23-2.81-1.92-3.07-2.88-7.25-2.88-12.53v-33.7Z"></path><path class="uuid-634b1910-dfd8-4b3a-abeb-9a9d6b679d12" d="m150.11,72.63h10.3c.43,4.42,2.83,6.62,7.2,6.62,3.12,0,5.28-1.15,6.48-3.46.48-.91.72-1.92.72-3.02,0-2.26-.82-4.06-2.45-5.4-1.15-.82-3.1-1.75-5.83-2.81-.82-.34-1.94-.77-3.38-1.3-6.24-2.35-9.86-6.24-10.87-11.66-.14-.91-.22-1.85-.22-2.81,0-4.66,1.8-8.5,5.4-11.52,2.88-2.4,6.24-3.6,10.08-3.6,4.85,0,8.78,1.66,11.81,4.97.24.24.46.48.65.72,2.02,2.45,3.12,5.59,3.31,9.43h-10.22c-.29-3.36-1.87-5.21-4.75-5.54-.29-.05-.58-.07-.86-.07-2.5,0-4.18,1.03-5.04,3.1-.29.72-.43,1.49-.43,2.3,0,1.97.98,3.58,2.95,4.82.53.34,2.5,1.13,5.9,2.38,4.03,1.49,6.81,2.9,8.35,4.25.19.19.41.38.65.58,3.17,2.93,4.75,6.62,4.75,11.09,0,5.28-1.92,9.6-5.76,12.96-3.17,2.74-6.91,4.1-11.23,4.1-5.18,0-9.46-1.7-12.82-5.11-.43-.43-.84-.89-1.22-1.37-1.97-2.54-3.12-5.76-3.46-9.65Z"></path><path class="uuid-634b1910-dfd8-4b3a-abeb-9a9d6b679d12" d="m197.06,87.82v-43.78h-9.86v-9.43h29.59v9.43h-9.86v43.78h-9.86Z"></path><path class="uuid-634b1910-dfd8-4b3a-abeb-9a9d6b679d12" d="m221.82,87.82v-53.21h28.58v9.43h-18.72v12.53h17.93v9.43h-17.93v12.38h18.72v9.43h-28.58Z"></path><path class="uuid-634b1910-dfd8-4b3a-abeb-9a9d6b679d12" d="m259.26,87.82v-53.21h15.34c5.76,0,10.01.89,12.74,2.66.62.38,1.22.82,1.8,1.3,3.74,3.17,5.62,7.54,5.62,13.1,0,5.28-1.82,9.48-5.47,12.6-1.97,1.68-4.61,2.93-7.92,3.74l-.5.14,14.4,19.66h-12.17l-13.97-20.38v20.38h-9.86Zm9.86-27.79h4.82c5.9,0,9.38-1.66,10.44-4.97.29-.91.43-1.94.43-3.1,0-2.69-.86-4.7-2.59-6.05-1.44-1.25-4.34-1.87-8.71-1.87h-4.39v15.98Z"></path><path class="uuid-634b1910-dfd8-4b3a-abeb-9a9d6b679d12" d="m321.18,87.82v-53.21h13.18c6,0,10.32.7,12.96,2.09.24.1.46.22.65.36,4.32,2.64,6.7,6.74,7.13,12.31.05.53.07,1.08.07,1.66,0,5.18-1.58,9.34-4.75,12.46-.72.67-1.46,1.25-2.23,1.73-2.35,1.44-6.02,2.23-11.02,2.38h-6.12v20.23h-9.86Zm9.86-29.66h2.88c3.84,0,6.53-.41,8.06-1.22,2.16-1.2,3.24-3.12,3.24-5.76,0-3.07-1.2-5.16-3.6-6.26-.34-.14-.67-.26-1.01-.36-1.49-.34-3.58-.5-6.26-.5h-3.31v14.11Z"></path><path class="uuid-634b1910-dfd8-4b3a-abeb-9a9d6b679d12" d="m361.5,87.82v-53.21h15.34c5.76,0,10.01.89,12.74,2.66.62.38,1.22.82,1.8,1.3,3.74,3.17,5.62,7.54,5.62,13.1,0,5.28-1.82,9.48-5.47,12.6-1.97,1.68-4.61,2.93-7.92,3.74l-.5.14,14.4,19.66h-12.17l-13.97-20.38v20.38h-9.86Zm9.86-27.79h4.82c5.9,0,9.38-1.66,10.44-4.97.29-.91.43-1.94.43-3.1,0-2.69-.86-4.7-2.59-6.05-1.44-1.25-4.34-1.87-8.71-1.87h-4.39v15.98Z"></path><path class="uuid-634b1910-dfd8-4b3a-abeb-9a9d6b679d12" d="m428.97,33.68c7.29,0,13.56,2.5,18.79,7.49,5.18,4.94,8.02,10.97,8.5,18.07.05.62.07,1.27.07,1.94,0,7.58-2.52,14.02-7.56,19.3-4.99,5.18-11.21,7.94-18.65,8.28h-1.22c-7.54,0-13.99-2.5-19.37-7.49-5.23-4.9-8.09-10.94-8.57-18.14-.05-.62-.07-1.25-.07-1.87,0-7.58,2.57-13.99,7.7-19.22,5.14-5.23,11.5-8.02,19.08-8.35h1.3Zm-.14,9.5c-5.57,0-10.1,2.02-13.61,6.05l-1.66,2.23c-1.83,2.93-2.74,6.19-2.74,9.79,0,5.38,1.94,9.84,5.83,13.39,3.41,3.07,7.46,4.61,12.17,4.61,5.52,0,9.98-2.02,13.39-6.05,2.78-3.31,4.18-7.27,4.18-11.88,0-5.57-1.94-10.13-5.83-13.68-3.31-2.98-7.22-4.46-11.74-4.46Z"></path><path class="uuid-634b1910-dfd8-4b3a-abeb-9a9d6b679d12" d="m464.1,87.82v-53.21h12.17c8.35,0,14.64,1.27,18.86,3.82,5.86,3.5,9.5,8.98,10.94,16.42.43,2.06.65,4.22.65,6.48,0,8.11-2.42,14.59-7.27,19.44l-2.23,1.94-2.66,1.73-.86.43c-3.84,1.92-9.29,2.9-16.34,2.95h-13.25Zm9.86-9.43h2.16c5.81,0,10.13-.79,12.96-2.38,3.65-1.97,6.02-5.28,7.13-9.94.38-1.54.58-3.12.58-4.75,0-5.62-1.78-10.01-5.33-13.18-.86-.77-1.8-1.42-2.81-1.94-2.78-1.44-7.03-2.16-12.74-2.16h-1.94v34.34Z"></path><path class="uuid-634b1910-dfd8-4b3a-abeb-9a9d6b679d12" d="m514.5,34.61h9.86v33.7c0,3.36.43,5.81,1.3,7.34,1.68,2.26,3.96,3.46,6.84,3.6,2.83,0,5.01-1.08,6.55-3.24.05-.14.12-.26.22-.36.86-1.49,1.3-3.94,1.3-7.34v-33.7h9.86v33.7c0,5.76-1.13,10.2-3.38,13.32-.1.1-.17.19-.22.29-2.69,3.6-6.46,5.81-11.3,6.62-1.06.14-2.09.22-3.1.22-5.09,0-9.36-1.7-12.82-5.11-.86-.86-1.61-1.8-2.23-2.81-1.92-3.07-2.88-7.25-2.88-12.53v-33.7Z"></path><path class="uuid-634b1910-dfd8-4b3a-abeb-9a9d6b679d12" d="m598.81,72.99h11.59c-2.59,6.05-6.89,10.46-12.89,13.25-3.6,1.68-7.49,2.52-11.66,2.52-7.44,0-13.85-2.52-19.22-7.56-5.28-4.9-8.18-10.92-8.71-18.07-.05-.67-.07-1.37-.07-2.09,0-7.15,2.45-13.34,7.34-18.58,4.8-5.18,10.68-8.09,17.64-8.71.82-.05,1.61-.07,2.38-.07,6.72,0,12.6,2.04,17.64,6.12,2.88,2.35,5.11,5.11,6.7,8.28l.86,1.8h-11.02c-3.12-4.03-7.13-6.24-12.02-6.62-.62-.05-1.27-.07-1.94-.07-5.52,0-9.94,1.94-13.25,5.83-2.74,3.65-4.2,7.68-4.39,12.1,0,5.23,1.92,9.65,5.76,13.25,3.41,3.26,7.44,4.9,12.1,4.9,4.22,0,8.02-1.49,11.38-4.46.58-.53,1.18-1.13,1.8-1.8Z"></path><path class="uuid-634b1910-dfd8-4b3a-abeb-9a9d6b679d12" d="m622.22,87.82v-43.78h-9.86v-9.43h29.59v9.43h-9.86v43.78h-9.86Z"></path><path class="uuid-634b1910-dfd8-4b3a-abeb-9a9d6b679d12" d="m643.6,72.63h10.3c.43,4.42,2.83,6.62,7.2,6.62,3.12,0,5.28-1.15,6.48-3.46.48-.91.72-1.92.72-3.02,0-2.26-.82-4.06-2.45-5.4-1.15-.82-3.1-1.75-5.83-2.81-.82-.34-1.94-.77-3.38-1.3-6.24-2.35-9.86-6.24-10.87-11.66-.14-.91-.22-1.85-.22-2.81,0-4.66,1.8-8.5,5.4-11.52,2.88-2.4,6.24-3.6,10.08-3.6,4.85,0,8.78,1.66,11.81,4.97.24.24.46.48.65.72,2.02,2.45,3.12,5.59,3.31,9.43h-10.22c-.29-3.36-1.87-5.21-4.75-5.54-.29-.05-.58-.07-.86-.07-2.5,0-4.18,1.03-5.04,3.1-.29.72-.43,1.49-.43,2.3,0,1.97.98,3.58,2.95,4.82.53.34,2.5,1.13,5.9,2.38,4.03,1.49,6.82,2.9,8.35,4.25.19.19.41.38.65.58,3.17,2.93,4.75,6.62,4.75,11.09,0,5.28-1.92,9.6-5.76,12.96-3.17,2.74-6.91,4.1-11.23,4.1-5.18,0-9.46-1.7-12.82-5.11-.43-.43-.84-.89-1.22-1.37-1.97-2.54-3.12-5.76-3.46-9.65Z"></path><path class="uuid-634b1910-dfd8-4b3a-abeb-9a9d6b679d12" d="m48.85,2.04c.44,3.28.65,6.68.33,9.96-.65,6.23-3.38,11.32-8.07,15.17-3.05,2.38-6.43,4.19-9.81,5.89-1.74.91-3.6,1.81-5.02,3.4-1.53,1.58-2.29,3.51-2.29,5.77,0,1.58.11,3.28.33,4.75,0,.11.11.34.11.45-.98,2.26-1.74,4.53-2.07,6.91-.11-.23-.11-.34-.22-.57-1.53-4.3-2.07-8.72-1.53-13.24.33-2.94,1.2-5.77,2.29-8.49,1.42-3.62,3.27-6.91,5.78-9.74,1.31-1.58,2.84-2.83,4.36-4.19.76-.57,1.53-1.13,2.29-1.7-6.76,3.4-12.1,8.15-13.96,16.3-.65-3.62-.55-7.13.98-10.41,1.09-2.49,2.84-4.64,4.91-6.45,2.84-2.49,6.11-4.41,9.27-6.34,2.62-1.58,5.34-3.06,7.96-4.75,1.53-1.02,2.94-2.6,4.14-4.75,0,.91.11,1.47.22,2.04Z"></path><path class="uuid-5443399f-ff42-4804-8764-f38accb2a47a" d="m13.19,35.66c-2.4-1.25-5.02-1.58-7.63-1.47-1.85.11-3.71.34-5.56.91.33.11.44.11.65.23,3.16.91,5.34,2.83,6.76,5.89.87,1.81,1.42,3.74,2.18,5.55.76,1.7,1.74,3.17,3.38,4.08,1.96,1.02,4.03,1.13,6.11,1.02.33,0,.22-.23.11-.34-.44-.91-.76-1.81-1.2-2.72-1.2-2.6-2.62-4.98-4.58-7.02,2.84,1.58,4.58,4.08,6,7.13.11-2.26-.11-4.41-.87-6.57-.87-3.17-2.62-5.32-5.34-6.68Z"></path><path class="uuid-634b1910-dfd8-4b3a-abeb-9a9d6b679d12" d="m58.67,73.47h11.01c-1.96,4.75-5.13,8.72-9.6,11.55-4.47,2.94-9.16,4.41-14.18,4.41-6.43,0-12-2.04-16.79-6.23-1.74-7.81-8.07-15.85-10.03-22.07,0-2.94.44-5.66,1.31-8.38.76-2.26,1.74-4.41,3.05-6.45.98-1.47,2.18-2.94,3.49-4.3,5.23-5.43,11.45-8.15,18.76-8.15,5.23,0,10.14,1.47,14.5,4.41s7.63,6.91,9.71,11.89h-10.8c-1.09-1.36-2.29-2.49-3.6-3.51-3.05-2.38-6.43-3.62-10.25-3.62-4.58,0-8.61,1.81-11.89,5.55s-4.91,8.04-4.91,12.91c0,.91,0,1.7.11,2.49,0,.34.11.68.11,1.02h0c.65,3.51,2.18,6.57,4.69,9.4,3.38,3.74,7.42,5.66,12.1,5.66,4.91.11,9.16-2.15,13.19-6.57Z"></path><path class="uuid-ba0950aa-0d5b-4825-9ac3-87505a9fc889" d="m28.35,87.85c0,10.87-13.41,14.38-18.1,3.06-3.05-7.36,8.18-17.77,8.07-28.41.11.57.87,1.92,1.09,2.49,2.18,6.11,6.76,11.32,8.51,19.13.33,1.25.44,2.49.44,3.74Z"></path></g></svg> 