<?xml version="1.0" encoding="UTF-8"?> <svg xmlns="http://www.w3.org/2000/svg" id="uuid-0a3e859c-f83f-4075-a91c-80582d5c2582" viewBox="0 0 138.01 216.33"><defs><style>.uuid-066eeaa4-d783-461e-b9bc-6a7e06d7f4f2{fill:#fff;stroke-width:0px;}</style></defs><g id="uuid-6682ab4e-2873-4949-8bbf-4dca47cae92c"><path class="uuid-066eeaa4-d783-461e-b9bc-6a7e06d7f4f2" d="m137.8,84.49l.21-.09-5.85-9.11,1.31-.3-.14-.23c-1.29-2.1-3.26-3.31-5.16-4.48-.87-.53-1.76-1.09-2.59-1.72l2.38-1.23-.21-.19c-1.52-1.37-2.87-1.91-4.51-1.8-1.87.12-3.7.49-5.58,1.12-.35.12-.74.22-1.02.07-.18-.1-.31-.29-.41-.6.91-.51,1.91-.77,3.07-.78,1.34-.02,2.77-.09,4.15-.74,2.31-1.1,4.2-2.78,6.02-4.4.58-.52,1.19-1.05,1.79-1.56.19-.16.22-.43.26-.7.01-.11.03-.21.05-.31l.04-.17-.16-.06c-1.01-.39-1.99-.22-2.95-.06-.54.09-1.09.18-1.65.18h0c.36-.3.73-.38,1.12-.47.15-.03.3-.07.45-.11.23-.07.46-.14.69-.22,1.81-.56,3.68-1.13,4.83-2.86l.21-.31c1.29-1.93,2.63-3.93,2.59-6.46,0-.16.05-.33.1-.51.11-.39.26-.88-.19-1.25l-.08-.07-4.35,1.29c.38-.63.82-1.09,1.2-1.47.13-.13.33-.22.54-.32.46-.22,1.03-.49.94-1.32v-.13s-.14-.04-.14-.04c-3.31-.96-6.52-.3-9.63.35-.63.13-1.29.27-1.94.39l1.77-2.82-.38.02c-1.98.13-3.5.9-4.97,1.64-.6.3-1.16.59-1.76.83-2.01.82-3.6,2.24-5.28,3.89l-.33-2.18-.26.2c-.24.18-.47.34-.67.49-.41.3-.77.55-1.09.84-1.38,1.22-2.15,2.85-2.9,4.43l-.18.38c-.15.31-.29.62-.43.93-.36.78-.74,1.6-1.17,2.35-.41.72-.8,1.39-1.81,1.07.1-1.61.77-3.05,1.34-4.13.45-.85.91-1.68,1.37-2.52.57-1.03,1.17-2.1,1.72-3.18l.13-.25c.42-.79.9-1.68.19-2.9l-.11-.18-2.16,1.47.89-5.81-.08-.07c-.76-.69-1.65-.68-2.5-.67-.4,0-.79,0-1.16-.06.29-.46.57-.9.86-1.35.78-1.22,1.51-2.36,2.2-3.56.43-.76.79-1.58,1.13-2.38.18-.41.36-.83.55-1.24.31-.65.37-1.06.2-1.36-.17-.3-.54-.46-1.23-.55-.11-.01-.23,0-.34,0-.11,0-.22.01-.31,0-.34-.07-.55-.18-.63-.33-.08-.15-.06-.39.07-.73.12-.31.28-.61.43-.9.07-.14.15-.29.22-.43.4-.82.48-1.32.25-1.67-.23-.36-.73-.5-1.67-.49-.33,0-.66.05-.98.08-.28.04-.57.07-.86.08-.37.01-.73.04-1.1.07-.97.08-1.96.15-3.07-.08l2.92-3.87h-.38c-2.94-.07-5.37.72-8.26,2.04v-3.68l-.28.12c-.34.15-.65.28-.95.4-.63.26-1.18.49-1.68.81-.77.5-1.49,1.05-2.24,1.64-.24.19-.49.38-.74.57l-.82-3.59-.19.04c-1.11.25-1.99.82-2.61,1.71-1.12,1.59-1.88,3.45-2.4,5.87-.44,2.05-1.09,4.1-1.72,6.08l-.3.95c-.35,1.11-1.03,1.78-2.07,2.06-.65-1.14-.36-2.13.29-3.27l.12-.2c.67-1.18,1.36-2.39,1.84-3.67.79-2.13.88-4.4.96-6.59.02-.58.04-1.15.08-1.72.08-1.34-.21-2.73-.94-4.5l-.12-.28-2.61,2.75c.11-.92.29-1.82.47-2.69.19-.94.38-1.91.48-2.87.15-1.4.12-2.82.08-4.32-.02-.68-.03-1.37-.03-2.09v-.28l-.26.09c-.27.1-.53.17-.78.23-.52.14-.96.26-1.29.55-3.13,2.72-4.86,5.83-5.26,9.5-.48-.6-.38-1.15-.27-1.77l.02-.11c.44-2.49.25-4.68-.57-6.68-.59-1.43-1.25-2.85-1.9-4.23l-.3-.64c-.09-.2-.25-.36-.44-.56-.1-.1-.21-.22-.33-.36l-.14-.17-4.15,4.46-1.26-2.24-.11-.11-.59.09-.03.13c-.17.64-.36,1.28-.54,1.91-.43,1.47-.88,2.98-1.09,4.51l-.03.2c-.22,1.63-.48,3.47.5,5.16.29.5.31,1.22.31,1.86,0,.32-.22.78-.41.87-.15.07-.28.07-.39.02-.17-.08-.33-.31-.42-.62-.07-.24-.13-.49-.19-.74-.07-.29-.14-.59-.23-.88-.07-.24-.14-.48-.21-.73-.32-1.12-.66-2.27-1.31-3.31l-.11-.17-.17.12c-2.03,1.41-3.29,4.77-2.64,7.06.09.33.18.65.26.98.36,1.38.73,2.8,1.6,4.04.42.6.8,1.24,1.16,1.86.71,1.2,1.45,2.44,2.5,3.48,1.24,1.23,2.3,2.73,3.25,4.17.58.87,1.1,1.83.78,3.18-.1-.09-.19-.18-.29-.26-.31-.28-.55-.49-.71-.75-1.12-1.87-2.11-3.62-3.04-5.34-1.87-3.47-3.99-5.64-6.69-6.85-.16-.07-.32-.16-.48-.24-.78-.41-1.76-.92-2.82-.09l-.08.06v3.23c-.3-.14-.59-.28-.88-.41-.86-.41-1.67-.79-2.53-1.09-.86-.3-1.75-.51-2.7-.74-.43-.1-.88-.21-1.35-.33l-.24-.06v2.7c-1.13-.01-2.25-.22-3.33-.42-1.89-.35-3.84-.71-5.94-.09l-.2.06.07.19c.16.47.31.93.45,1.39.32,1.03.63,2.01,1.11,2.9.51.93,1.19,1.78,1.91,2.67.28.35.57.71.86,1.09l-4.1,1.32.11.21c.07.13.12.25.17.36.09.21.17.4.32.54,1.42,1.31,3.36,2.9,5.86,3.52,1.26.31,2.56.52,3.82.72l.61.1c1.05.17,2.11.27,3,.35.97.09,1.83.49,2.54,1.19.24.23.41.61.37.73-.07.19-.48.45-.69.43l-.36-.03c-1.08-.08-2.19-.17-3.21-.48-3.03-.93-5.58-1.09-8.01-.49-.24.06-.44.18-.7.33-.13.08-.28.16-.45.25l-.27.14,3.86,2.89c-.52.54-1.14.99-1.74,1.43-1.01.74-2.05,1.5-2.62,2.67l-.04.09.05.09c.45.84.54,1.76.63,2.64.06.62.13,1.25.31,1.85.32,1.04.7,2.05,1.11,3.13.15.39.3.79.45,1.2l-3.57-.51.04.26c.8,4.74,2.77,8.35,6.02,11.02,1.3,1.07,2.22,2.07,2.96,3.2-.85.2-1.4.1-1.87-.31l-.69-.61c-.96-.84-1.96-1.72-2.86-2.65-1.52-1.58-2.95-3.23-4.52-5.05-1.64-1.9-3.72-3.09-6.2-3.53-.29-.05-.59-.07-.87-.1-.12,0-.25-.02-.37-.03h-.14s-.06.12-.06.12c-.43,1,.06,1.6.5,2.12.19.23.38.46.48.71l-1.69-.21c-1.49-.18-2.96-.36-4.44-.53-2.14-.24-4.35-.49-6.54-.11l-.11.02-.24.63,4.1,3.32c-3.89.55-7.23,1.86-10.46,3.14l-.9.35-.42,2.1.12.07c1.85,1.16,3.93,1.58,6.13,2.04l.37.08-2.84,1.84.29.16c2.51,1.34,5.12,1.55,7.64,1.75,0,0,0,0,.01,0l-3.16.95v.15c0,.07,0,.14-.01.19-.01.14-.02.28.08.38,1.64,1.5,3.52,2.87,5.99,2.77,1.36-.06,2.74-.17,4.08-.28.7-.06,1.4-.11,2.09-.16.09,0,.19-.02.28-.03.33-.04.62-.07.87.09-.21.06-.42.12-.62.18-.73.21-1.41.42-2.1.65-.39.14-.67.41-.74.73-.06.27.04.55.27.77.09.08.17.16.26.25.73.7,1.55,1.5,2.91,1.28,1.92-.32,3.84-.49,5.29-.61,1.37-.11,2.78-.14,4.14-.18h.53c.63-.03,1.17.13,1.7.5-.06.02-.11.03-.16.05-.29.09-.5.15-.71.17-1.12.1-2.26.18-3.36.26l-.46.03c-2.22.15-4.84.55-7.37,2.36l-.26.19,2.48,1.24c-2.58,2.15-5.14,4.58-6.15,8.32l-.07.25h1.88l-2.96,3.37.13.13c.34.35.7.68,1.05,1,.97.89,1.88,1.74,2.48,2.92.53,1.04,1.3,1.97,2.12,2.95.19.23.39.47.58.71-.7-.43-1.3-.97-1.89-1.49-1.11-.98-2.15-1.9-3.69-2.1h-.11s-.07.07-.07.07c-.05.06-.1.11-.15.16-.12.12-.23.24-.24.4-.18,3.13-.01,6.39,2.46,9.04.45.48.92.94,1.37,1.39.26.25.51.51.75.73l-1.44-.13.04.25c.03.21.05.41.06.6.03.42.06.81.24,1.15l.21.4c.69,1.34,1.4,2.73,2.72,3.69.86.63,1.74,1.34,2.69,2.18.11.1.18.3.27.55.02.07.05.14.08.21-.12,0-.23,0-.33,0-.35,0-.62,0-.85-.08l-.44-.13c-1.16-.35-2.36-.71-3.48-1.19-2.67-1.14-5.42-.97-7.99-.63-.55.07-1.12.25-1.2,1.01v.11s1.7,1.31,1.7,1.31l-.04.11c-.13.02-.26.04-.39.06-.37.06-.71.12-1.06.11-.74-.02-1.5-.06-2.23-.1-.59-.03-1.19-.07-1.78-.09-3.86-.14-7.17,1.1-9.84,3.68-.45.43-.85.91-1.27,1.42-.21.25-.42.51-.65.77l-.19.22,1.62.56-2.83,2.23,1.24.58c.58.27,1.08.51,1.57.74,2.64,1.23,5.12,1.61,7.57,1.16,1.25-.23,2.54-.35,3.79-.47l.34-.03c.16-.02.36.04.65.13.05.01.1.03.16.05-.05.02-.09.05-.13.07-.26.14-.41.22-.56.24-1.01.17-2.16.35-3.29.45-2.21.18-4.35.87-6.55,2.11-.23.13-.41.34-.59.56-.09.1-.18.21-.28.32l-.16.17.19.13c1.57,1.1,3.28,1.94,5.37,2.64,1.53.52,3.02.58,4.69.21.76-.17,1.55-.23,2.38-.3.3-.02.6-.05.91-.08-.15.65-.58.82-1.08,1-.16.06-.33.12-.47.2-.45.24-.9.48-1.44.78l-1.12.61.24.18c.24.18.44.36.62.51.35.31.66.57,1.02.72,3.79,1.62,7.35,2.11,10.87,1.5,1.95-.34,3.97-.89,5.52-2.65.46-.52,1.01-.97,1.58-1.42.73-.57,1.15-.61,1.99.34-.81.85-1.72,1.64-2.6,2.41-1.79,1.57-3.64,3.19-4.98,5.44l-.16.26,1.76.18c-.05.09-.1.18-.15.26-.19.33-.36.61-.5.92-.11.24-.22.47-.33.71-.8,1.72-1.62,3.49-1.76,5.48-.02.35.02.71.08,1.12.03.21.06.43.08.68l.03.29,2.41-1.23c.05.61.1,1.22.15,1.81.12,1.56.24,3.03.46,4.5.04.25.07.48.09.69.12.89.19,1.43.59,1.65.43.25,1.13.02,2.43-.55.12-.05.25-.09.37-.12,0,0,0,0,.01,0l.75,1.39,1-.68c.55-.38,1.08-.73,1.6-1.08,2.63-1.76,5.62-3.75,7.29-6.99.27-.52.59-.89,1.21-.95l-.03.1c-.27.97-.5,1.81-1.25,2.54-.99.97-1.85,2.1-1.47,3.73l.04.16h.16c1.14-.03,1.97-.56,2.77-1.07l.13-.08c2.23-1.42,3.98-3.33,5.67-5.19.7-.77,1.29-1.65,1.86-2.79.71-1.42.89-2.93,1.07-4.39.07-.55.14-1.11.23-1.66.64-3.71-.06-7.36-.76-10.49-.57-2.54-.91-4.66.35-6.82.57-.97,1.23-1.54,1.97-1.71.66-.15,1.38.03,2.13.55,1.08.73,2.3,1.62,3.25,2.73,1.17,1.36,2.26,2.89,2.35,4.9.06,1.37.15,2.76.24,4.1.13,2.04.27,4.16.32,6.24.08,3.66.12,7.38.16,10.98.05,4.52.11,9.19.23,13.78.11,3.89.41,7.83.91,11.68.5,3.89,1.21,7.87,2.16,12.18.87,3.95,2.01,7.84,3.1,11.61.23.81,1.06,1.49,1.54,1.82.55.39,1.19.65,1.8.9.21.09.43.17.64.26.28.12.55.18.8.18.27,0,.52-.07.73-.22.4-.28.59-.79.55-1.43-.03-.4-.15-.79-.26-1.17l-.05-.17c-.35-1.21-.73-2.42-1.1-3.62-.81-2.62-1.64-5.33-2.28-8.03-.82-3.44-1.4-6.92-1.73-10.35-.46-4.8-.81-9.69-1.15-14.42-.15-2.14-.31-4.27-.47-6.41-.11-1.42-.22-2.83-.34-4.24-.21-2.59-.43-5.27-.6-7.91-.05-.85-.12-1.69-.18-2.54-.27-3.54-.54-7.19,0-10.77.22-1.45.74-2.85,1.33-4.39.18-.47.51-.89.86-1.33.17-.22.34-.43.49-.65.21-.31.42-.63.63-.94.39-.6.8-1.23,1.25-1.8,2.92-3.75,6.29-7.13,10.02-10.05.71.15,1.08.32,1.26.59.16.25.18.63.05,1.23-.17.78-.4,1.45-.69,2-1.19,2.29-1.53,4.85-1.02,7.6.73,3.91,3.34,6.75,5.8,9.01.08.07.18.07.27.06.04,0,.09,0,.15,0h.12l.69-1.31c2.87,4.11,7.06,5.93,11.47,7.58l.21.08.38-1.84,4.35,1.49v-2.55c.36.15.72.32,1.08.48,1.01.46,2.06.94,3.14,1.18.49.1.97.26,1.48.43,1.08.36,2.2.73,3.5.57l.22-.03-.57-2.3,4.01.52-.05-.27c-.05-.25-.09-.49-.12-.7-.07-.43-.13-.81-.27-1.16-.82-2.07-2.31-3.74-4.54-5.09-.2-.12-.41-.22-.61-.31-.45-.21-.88-.41-1.17-.82,1-.4,1.32-.94,1.4-1.33.09-.4.01-1.05-.83-1.83l-.15-.14c-.4-.38-.81-.76-1.29-1.06-1.47-.91-2.95-1.8-4.51-2.74l-1.47-.88,2.01-.56-.19-.23c-.27-.32-.52-.63-.76-.93-.5-.61-.97-1.19-1.46-1.74-.44-.49-.63-.88-.57-1.2.05-.33.37-.65.97-.98.55-.31,1.04-.29,1.69.08.24.13.48.28.71.43.42.27.86.54,1.33.74,2.69,1.11,5.31.32,7.62-.38.26-.08.49-.22.73-.38.12-.07.24-.15.37-.22l.19-.11-1.18-1.67c5.08.39,7.05-.2,8.99-2.62l.17-.21-.25-.09c-.4-.15-.81-.28-1.21-.42-.92-.31-1.79-.6-2.6-1.03-.43-.23-.91-.35-1.38-.47-.84-.21-1.63-.41-2.22-1.16.93-.23,1.7-.09,2.51.07l.26.05c3.5.63,6.81-.08,9.84-2.11.59-.4,1.13-.89,1.64-1.36.23-.21.46-.42.69-.62l.11-.1-.06-.13c-.22-.49-.66-.72-1.05-.93-.5-.27-.8-.45-.81-.92.32-.19.68-.3,1.05-.42.6-.19,1.23-.38,1.72-.93l.14-.16-1.38-1.05c-.93-.71-1.82-1.39-2.72-2.07-2.98-2.26-6.48-3.11-10.69-2.59-.89.11-1.77.19-2.7.28-.33.03-.66.06-.99.09.22-.5.66-.83,1.12-1.18.69-.52,1.48-1.12,1.35-2.38v-.14s-.16-.03-.16-.03c-.16-.03-.32-.07-.48-.11-.37-.09-.75-.2-1.14-.18-.47.01-.93.02-1.4.02-2.23.02-4.54.05-6.74.94-.75.31-1.54.57-2.29.83-.32.11-.64.22-.96.33-.53.19-1.07.37-1.67.58l-.5.18c.09-.26.18-.51.27-.74.27-.74.5-1.38.67-2.04.18-.68.3-1.37.44-2.16.07-.38.14-.78.22-1.22l.06-.32-.31.1c-1.32.41-2.14,1.1-2.93,1.77-.17.14-.34.28-.51.42-.68.54-1.33,1.13-1.97,1.7-.24.21-.48.43-.72.64l-.06-.05c.07-.1.14-.2.21-.3.21-.32.43-.65.68-.94.29-.35.6-.68.91-1,.7-.73,1.43-1.49,1.88-2.53,1.08-2.5,1.25-5.05,1.18-8.11-.02-.73-.07-1.46-.12-2.24-.03-.37-.05-.76-.08-1.16l-.02-.34-.28.19c-.43.29-.83.57-1.21.84-.81.57-1.58,1.11-2.39,1.52-.44.23-.84.54-1.22.85-.64.51-1.29,1.03-2.21,1.19v-3.86l-.27.12c-1.98.84-3.06,2.35-4.1,3.81-.21.3-.43.59-.64.88-.88,1.17-1.73,2.37-2.63,3.65-.34.48-.68.97-1.04,1.48l-.9-2.89-.19.07c-.09.03-.18.06-.27.08-.2.05-.38.1-.5.24l-.49.62c-.69.87-1.41,1.76-2.02,2.7-2.45,3.73-3.78,7.87-3.95,12.31-.1,2.71.93,4.53,3.26,5.73.5.26.92.71,1.37,1.18.18.19.36.39.56.58-1,1.09-2.1,1.95-3.16,2.78-.58.45-1.17.92-1.73,1.4-1.62,1.42-3.17,3-4.53,4.39-1.03,1.06-2.05,2.16-3.03,3.23-.41.44-.81.89-1.22,1.33l-.22-.11c.02-.41.04-.81.06-1.22.05-.96.09-1.96.21-2.93.27-2.16.56-4.32.85-6.49.38-2.87.78-5.84,1.12-8.76.36-3.06.66-6.17.96-9.18.17-1.76.34-3.52.53-5.28v-.1c.14-1.27.28-2.59.53-3.85l.43-2.19c.72-3.63,1.46-7.38,2.35-11.03.44-1.8,1.63-3.15,3.36-3.8,1.19-.45,2.38-.91,3.57-1.36,1.51-.58,3.02-1.16,4.53-1.73.45-.17.77-.22.99-.16,1.69.45,3.35.95,4.93,1.47.3.1.63.36.91.72.81,1.03,1.61,2.08,2.41,3.12.54.71,1.09,1.42,1.64,2.13.16.2.31.4.46.61.55.72,1.11,1.46,1.75,2.12.3.31.59.64.88.96,1.34,1.49,2.72,3.03,4.99,3.37.12.02.24.06.36.11.33.13.75.29,1.18-.12.51-.48.67-1.12.46-1.89-.08-.3-.22-.59-.41-.98-.05-.1-.1-.21-.16-.32.13.04.24.08.36.11.41.13.71.22.96.37.45.26.91.55,1.35.83,1.47.93,2.98,1.89,4.87,2.05.19.02.39.11.6.2.14.07.3.14.45.18,1.84.56,3.61.46,5.4-.31l.22-.09-1.42-2.1c2.07.55,4.28.88,6.65-.41l.26-.14-.23-.18c-.19-.15-.36-.28-.52-.4-.33-.25-.61-.47-.87-.71-.24-.22-.47-.47-.69-.72-.07-.08-.14-.15-.21-.23l.02-.05c4.6,1.64,8.44,1.63,12.06,0ZM60.13,5.73h.07s1.26,2.85,1.26,2.85l-.26-3.56,1.17,1.4.97-1.25c.77-.99,1.49-1.93,2.23-2.86.08-.1.22-.17.4-.26.02-.01.04-.02.06-.03,0,.3,0,.6,0,.89,0,.89-.01,1.74.02,2.59.05,1.45.19,2.62.46,3.7l.39,1.59v-2.36c-.02-.52-.02-1.05-.01-1.57.02-.88.04-1.75.07-2.74l.03-.97s.06.05.08.07c.16.14.26.23.31.32,1.44,2.92,1.96,5.79,1.6,8.77-.07.59-.07,1.19-.07,1.77v.42c0,.39,0,1.21.88,1.33.77.11,1.35-.2,1.58-.83.2-.55.41-1.19.46-1.82.22-2.56,1.73-4.37,3.32-6.29l.08-.09c.26-.32.49-.25.89-.1.15.06.3.11.46.14.6,3.75-.45,7.36-1.37,10.55l-.05.17.16.07c1.53.66,2.26-.14,2.89-.84.11-.12.21-.23.31-.34l-.61,2.86-2.92,5.01-.29.19c-1.43.94-2.34,2.04-2.79,3.38l-.07.22-.84.54c-.53.34-1.07.7-1.74,1.14-.28-.87-.28-1.72-.29-2.54,0-.5,0-1.02-.07-1.51-.13-.95-.21-1.91-.29-2.84-.03-.38-.06-.76-.1-1.13l.61-.73c2.68-3.2,5.45-6.51,6.08-11.07l.12-.85-.47.71c-.09.13-.17.25-.26.37-.18.26-.35.51-.5.77-.19.35-.36.75-.54,1.25-.9,2.55-2.4,4.86-4.71,7.26-.86-.88-1.11-1.97-1.25-3.02-.2-1.5-.46-3.25-1.02-4.94l-.6-1.77.76,6.59-1.37-.99.15-.15-.25-.03-.05-.22-.12.12-.75-1.06.07-.07-.26-.21-.76-1.28-.66.61,1.1.91h0s.13.18.13.18h0c.09.53.21,1.18.96,1.36,0,.04.02.08.05.12l.05.06q2.22,2.76,2.57,6.21c.12,1.21.2,2.45.28,3.65l.06,1c0,.11-.01.24-.04.42-.01.07-.02.14-.03.22l-3.25-.31-3.32-1.56.61.7c.68.78,1.56,1.19,2.7,1.27l.94.06c.16.06.32.12.49.18.39.14.75.27,1.09.46.26.14.8.44.94.79.51,1.26.37,7.03-.18,8.86l-2.07-.87-.89-.45c-.1-.31-.2-.63-.29-.94-.24-.78-.48-1.59-.81-2.36-.95-2.22-2.48-4-3.85-5.46-1.11-1.18-2.25-2.46-2.98-4.1-.32-.71-.68-1.42-1.03-2.1-.45-.87-.91-1.76-1.27-2.67-.78-1.94-.61-3.69.51-5.34l.07.33c.11.5.2.94.29,1.39.19.99.4,2.12,1.3,2.93l.55.49-.23-.7c-.58-1.78-.78-2.56-.67-3.19.04.31.09.58.2.83.05.12.1.24.15.36.28.66.56,1.35,1.06,1.82.48.45,1.08.61,1.61.42.52-.19.87-.69.95-1.33.12-1.05,0-2.09-.36-2.84-.64-1.37-.81-2.39-.59-3.52.22-1.1.34-2.23.47-3.32.05-.43.1-.86.15-1.29Zm15.08,76.81c-.09.54-.19,1.07-.29,1.61l-.14.71c-.29,1.48-.59,3.01-.94,4.5-1.39,6.02-1.96,12.13-2.51,18.03-.33,3.6-.82,7.24-1.3,10.76-.22,1.6-.43,3.21-.63,4.81-.08.65-.17,1.3-.25,1.95-.23,1.75-.46,3.56-.64,5.35-.08.76-.02,1.54.03,2.29.01.19.03.38.04.57.06.93.53,1.46,1.41,1.58h.1s.07-.07.07-.07c.35-.4.7-.81,1.05-1.22.77-.9,1.56-1.84,2.41-2.69.81-.82,1.67-1.61,2.5-2.38,1.12-1.04,2.28-2.12,3.34-3.26,1.61-1.74,3.56-2.72,6.14-3.08.24-.03.46-.13.7-.24.08-.03.16-.07.24-.1l1.17.98c.58,1.14,1.25,2.41,2.6,3.09l.73.36-.49-.66c-.22-.29-.42-.62-.61-.93-.49-.78-1-1.58-1.87-2.1l-.34-1.13c.31-.27.56-.17.89-.03.09.04.18.08.27.11.4.13.79.26,1.19.39.75.24,1.52.5,2.27.77,1.1.39,2.19.79,3.28,1.2.78.29,1.56.58,2.34.86.57.21,1.15.41,1.73.6l.58.2,2.24,1.35,1.21,1.06c-.08.11-.16.22-.24.33-.25.34-.49.66-.58,1.03-.09.38-.04.78.02,1.21.02.15.04.3.06.46-.31.14-.62.28-.93.42-.85.39-1.73.8-2.64,1.06-.6.17-1.47.08-2.07-.22-1.2-.61-2.35-1.38-3.47-2.13l-.44-.3c-.8-.53-1.06-1.28-.75-2.15l.06-.18-2.7-1.05,1.2,1.67c-.97,2.08-.66,4.28-.42,6.05.3,2.15.2,3.78-.3,5.3-.12.37-.15.77-.18,1.16-.01.17-.02.34-.04.51-.49.82-1.02,1.3-2.01,1.18l-.22-.03v2.05c-1.75-1.39-2.93-2.99-3.68-5-.71-1.91-1.29-3.97-.71-6.07.26-.92.6-1.84.93-2.73.22-.6.46-1.21.66-1.83.16-.48.33-1.11.26-1.69-.14-1.04-.65-1.81-1.41-2.11-.75-.3-1.63-.11-2.43.52-3.83,3.03-6.47,5.62-8.57,8.41-.75,1-1.48,2.05-2.17,3.06-.72,1.05-1.47,2.13-2.25,3.16-1.12,1.48-1.35,3.18-1.42,4.49-.16,2.88-.18,5.94-.07,9.36.1,3.02.29,6.08.48,9.05.06.99.13,1.98.18,2.97.1,1.69.19,3.38.29,5.07.24,4.3.48,8.74.86,13.1.45,5.21,1.04,9.77,1.8,13.93.59,3.23,1.42,6.46,2.23,9.58.29,1.13.59,2.26.87,3.39.15.59.35,1.16.55,1.72.15.42.3.85.42,1.29.06.2.06.43.06.72,0,.07,0,.15,0,.23-2.22-.69-3.34-1.7-3.85-3.46-1.49-5.1-2.97-10.6-3.69-16.23-.18-1.41-.39-2.83-.59-4.21-.36-2.47-.74-5.01-.95-7.53-.36-4.23-.47-8.55-.58-12.73v-.12c-.1-3.8-.16-7.66-.22-11.39-.04-2.55-.08-5.11-.13-7.66-.02-1.17-.07-2.35-.12-3.5-.06-1.54-.13-3.12-.13-4.68,0-2.74-1.15-5.07-3.7-7.54-.65-.63-1.43-1.14-2.19-1.63-.28-.18-.57-.37-.84-.56l.44-.52-.24-.11c-3.05-1.32-5.99-2.03-8.99-2.18-.38-.02-.76-.05-1.14-.08-1.1-.08-2.24-.17-3.38.02-.39.06-.81-.02-1.26-.1-.22-.04-.44-.08-.66-.11-.11-.01-.21-.03-.32-.05-.51-.09-1.14-.19-1.59.43-.38-.02-.76-.03-1.14-.05-.96-.05-1.95-.09-2.93-.1-1.64-.02-3.32-.02-4.93-.01-.68,0-1.37,0-2.05,0l-.02.39c2.04.23,4.06.32,6.03.32,1.75,0,3.46-.07,5.11-.15l.1.03h.02s0,0,0,0h.02s.01-.03.01-.03h3.76l.02.08c-.25.13-.51.26-.76.39-.65.33-1.33.68-1.98,1.05-.5.29-1.01.57-1.52.85-1.46.81-2.97,1.65-4.34,2.64-1.6,1.16-3.25,2.49-4.43,4.29-.39.59-.94.88-1.82.94-1.51.11-3.28.26-4.99.59-1.13.22-2.24.58-3.32.94-.28.09-.56.19-.85.28-.45.15-.89.34-1.27.51-.11.05-.22.1-.32.14l-1.61-1.49c.1-.15.25-.38.4-.61,1.07-1.6,1.86-3,2.22-4.68.21-.96.56-1.89.94-2.86.17-.44.34-.88.49-1.33l.17-.48-3.17,1.72h-.06c-.09.04-.2.05-.3.06-.28.04-.56.07-.75.26-1.22,1.28-2.76,1.45-4.4,1.63-.36.04-.72.08-1.07.13-.42.06-.83.14-1.24.22-.45.09-.92.18-1.41.24-.53.07-1.07.14-1.54.03-1.29-.32-2.58-.68-3.94-1.07-.44-.12-.89-.25-1.35-.38l3.67-3.45-.38-.44-1.97.21c1.26-1.61,2.46-2.52,3.95-3.02,1.93-.65,4.27-1.24,6.93-.72,2.22.44,4.2.22,5.86-.67l.09-.05v-.1c.11-.82-.41-1.22-.91-1.61-.18-.14-.36-.27-.52-.44.35-.02.68-.04,1.01-.07,1.1-.08,2.14-.16,3.15.12,1.24.34,2.49.71,3.69,1.08.84.25,1.68.51,2.53.75.87.25,1.81.41,2.72-.12l.07-.04.02-.08c.24-.96.01-1.78-.66-2.37-.23-.2-.48-.39-.72-.57-.16-.12-.32-.24-.48-.37,1.08.14,2.08-.17,3.06-.47.47-.15.92-.29,1.38-.38,1.24-.24,2.32-.04,3.5.65l1.11.65c1.29.76,2.62,1.54,3.95,2.28.64.35,1.33.64,2.04.84,1.61.46,3.35.92,5.32,1.4,1.42.35,2.39.85,3.23,1.68.76.74,1.88,1.18,2.86,1.56l.11.04c3.07,1.19,5.16,2.51,6.78,4.25.24.26.53.49.84.65.46.24.85.3,1.16.16.3-.13.51-.44.63-.91.13-.5.19-1.07.18-1.7-.03-2.03-.07-4.02-.16-5.99-.15-3.06.38-6.11.88-9.06.09-.51.17-1.01.26-1.52.36-2.18.8-4.38,1.23-6.51.36-1.79.73-3.64,1.05-5.47.22-1.27.37-2.58.5-3.84.09-.86.19-1.76.31-2.63.19-1.38.4-2.76.61-4.14.33-2.16.67-4.4.94-6.61.26-2.14.41-4.46.5-7.52.02-.66-.15-1.33-.32-1.97-.07-.28-.14-.56-.2-.84-.25-1.27-1.3-1.43-2.07-1.44h-.23c-.63-.02-1.27-.03-1.84.21-1.79.74-3.37.16-5.05-.44-.18-.07-.36-.13-.55-.2-.64-.22-1.28-.46-1.91-.69l-.89-.32-.16.36c.23.13.46.26.7.39.52.3,1.07.6,1.62.86.28.13.56.25.84.37.45.19.91.38,1.36.62-1.78.77-3.6,1.15-5.26,1.1-.85-.02-1.66.09-2.46.21-1.08.15-2.2.31-3.33.11-1.36-.25-2.79-.29-4.16-.33-.59-.02-1.18-.03-1.76-.07l-3.38-3.23-1.3-2.18c.74-.15,1.18-.69,1.21-1.5l2.76-.89-.04.15.29-.04c.14-.02.28-.05.42-.08.28-.06.54-.13.75-.07,1.24.35,2.48.74,3.69,1.11.66.21,1.33.41,2,.62,1.41.43,2.58,1.03,3.58,1.85.22.18.51.24.8.29.12.02.23.04.34.08l.63.18-.43-.5s-.06-.08-.09-.12c-.08-.12-.17-.25-.33-.31-1.66-.57-2.02-1.86-2.01-3.62,1.77-.33,2.77-1.64,3.82-3.01.37-.49.76-.99,1.18-1.45.03.17.05.33.08.48.09.55.17,1.03.3,1.49.08.28.16.56.23.84.27,1,.55,2.03,1.04,2.94.8,1.46,2.04,2.3,3.6,2.44,1.56.14,3.38.13,5.07-1,.63-.42.91-.94.89-1.69-.08-3.5-.17-6.99-.27-10.48,0-.06,0-.13,0-.2,0-.39,0-.83-.25-1.06-1.27-1.17-1.22-2.58-1.17-4.08.02-.5.03-1.01,0-1.51l3.3-6.79-.95,1.08c-1.4,1.58-2.32,3.46-2.74,5.59l-.31.67s-.03-.06-.05-.09c-.11-.23-.2-.39-.24-.56-.74-3.09-1.01-6.36-.85-10l.04-1q.11-3.29,2.26-5.68l.48-.53,1.65-1.32,2.83-1.69c.07.15.17.32.3.47.84.95.96.97,1.94.31l.17-.12c1.5-1.02,2.05-2.53,2.57-4.27.36-1.22.69-2.48,1.01-3.69.4-1.53.82-3.11,1.31-4.64.38-1.2,1.11-2.29,2.16-3.25.82,1.42.61,2.82.4,4.17l-.06.4.11.07c.29.18.52.24.73.19.28-.07.44-.32.58-.57l.04-.06c1.1-1.83,2.65-3.14,4.73-4,.31,1.54.14,2.93-.06,4.1l-.02.13-.58,1.43c-.74.49-.73,1.26-.72,1.95l.02,1.11,1.19-3.25.48-1.17s.01,0,.02,0c.16-.03.34-.07.42-.22.51-1.04,1.43-1.39,2.41-1.76.4-.15.81-.31,1.19-.51-.2.95-.63,1.79-1.04,2.62-.26.51-.52,1.04-.73,1.58l-.35.9.67-.7c1.35-1.41,2.6-2.83,3.14-4.85h1.24l-1.91,2.97.1.11c.6.65,1.34.9,2.32.78,1.54-.19,2.81-.34,3.98-.46.27-.03.55-.02.87-.01.08,0,.15,0,.24,0-.39.82-1.02,1.36-1.63,1.88-.13.11-.26.22-.39.34-1.01.9-2.02,1.8-3.04,2.69-.99.87-1.98,1.74-2.95,2.62-.17.15-.23.37-.29.59-.01.05-.03.1-.05.14-.97.22-1.7.81-2.4,1.39-.26.22-.53.44-.8.64l.22.33,2.75-1.72-.07.18.61-.52.84-.53-.28.05,7.32-6.19c-.07.13-.18.25-.32.39-.25.26-.54.56-.51,1.05v.06s.04.05.04.05c.64.91,1.68,1.06,2.69,1.21.12.02.23.03.35.05-.23,1.5-.94,2.75-1.63,3.96-.17.29-.33.59-.49.88-.15.29-.72.45-1.21.59-.2.06-.39.11-.57.18-.57.2-1.14.4-1.71.59-.83.28-1.69.57-2.52.9-.26.1-.42.35-.58.58-.04.06-.08.12-.12.18-.32.12-.64.24-.95.36-.79.29-1.6.59-2.39.94-1.33.58-2.66.38-4.13.1-.2-.04-.47-.13-.59-.32-.07-.1-.08-.24-.06-.4l1.82-1.29-.55-.04c-.76-.05-1.13.44-1.46.88-.03.04-.06.08-.1.12h-.48l-.46-2.55-.21.96c-.05.24-.09.49-.13.74-.17,1.05-.31,1.95-1.42,2.42l-1.35.58,1.45-.2c.18-.02.36-.06.53-.1.37-.08.72-.15,1.04-.11,3.78.51,7.53.4,11.68.22,1.22-.05,2.47.04,3.68.14.51.04,1.03.08,1.54.11.17.76-.22,1.24-.68,1.7l-.26.26c-1.78,1.78-3.62,3.61-6.16,4.39-.26.08-.48.25-.69.42-.18.14-.35.28-.54.34l-.4.14c-1.09.39-2.12.76-3.46.43-1.8-.44-3.71-.55-5.55-.65-.64-.04-1.27-.07-1.91-.12-.35-.03-.7.06-1.04.15-.08.02-.15.04-.23.06h-.11c-.44-.02-.88,0-1.29-.06l-.31-.05c-.52-.08-1.06-.15-1.5-.37-.55-.27-1.07-.63-1.66-1.03-.21-.14-.42-.29-.65-.44l1.07-1.05,1.65-1.24,2.52-1.36-.19-.35-2.41,1.3-.05.02c-.85.31-1.71.69-2.15,1.62-1.3.44-2.32,1.05-3.1,1.89-.28.31-.59.6-.89.89-.14.13-.27.26-.41.39l-1.04,1.02,1.27-.71c.13-.07.26-.14.4-.2.31-.15.63-.3.89-.54,1.22-1.1,1.72-1.07,3.03-.37,1.57.85,3.21,1.63,4.79,2.39.44.21.87.42,1.31.63.25.12.64.27,1.04.27,1.32.01,2.1.86,2.99,1.85-1.36.37-2.68.24-3.95.12-.31-.03-.62-.06-.93-.08-1.38-.1-2.79-.29-4.15-.48-.71-.1-1.41-.19-2.12-.28-1.21-.15-2.23.38-3.13,1.62-1.06,1.46-1.46,3.27-1.17,5.38.13.99.18,1.87-.52,2.66-.18.2-.19.56-.17.88.09,1.37.19,2.74.29,4.11.09,1.22.17,2.44.26,3.66.04.57.07,1.13.1,1.7.04.86.09,1.75.17,2.63.06.67.35,1.25.81,1.61.46.36,1.04.51,1.7.42,3.11-.41,5.68-1.32,7.86-2.77.39-.26.81-.49,1.21-.71.35-.19.71-.38,1.05-.6.3-.19.55-.44.7-.59.04-.04.08-.08.11-.1l.07-.06v-.09c0-.4,0-.78.01-1.15.01-.76.02-1.48-.02-2.18-.09-1.42-.26-2.84-.45-4.31-.02-.19-.21-.29-.4-.39-.02-.01-.05-.02-.07-.04v-.06c.08-1.39.15-2.77.21-4.16l.02-.49-.63-.02v4.66s0,.07,0,.11l-.05.07-.04.05.12.08.43,2.13c-1.68-2.83-2.03-6.54-1.13-11.82l1.24-.08v2.61l.37-.64c.17-.29.29-.58.4-.86.28-.66.47-1.14,1.12-1.28.58-.12,1.16-.28,1.82-.45.32-.08.65-.17,1.01-.27l.31-.08-1.46-1.65,5.16-1.53-1.48,3.39.63.34.09-.18c.11-.22.23-.45.35-.67.26-.49.53-1,.77-1.52.76-1.63,1.72-2.55,3.13-3.01,1.59-.51,2.81-1.6,3.98-2.65.39-.35.79-.7,1.19-1.03.27-.22.51-.45.76-.7.04-.04.07-.07.11-.11.18.96-.03,1.77-.6,2.15-1.24.84-1.91,2.07-2.56,3.26l-.84,1.54,3.03-3.27c.85.51,1.59.12,2.37-.3.12-.06.24-.13.36-.19-.68,2.19-1.54,3.77-2.76,5.08l-.35-.46-.15.1c-1.12.7-2.3,1.1-3.6,1.21-.54.05-.83-.09-1.01-.48l1.82-1.62-.57.04c-.83.05-1.38.53-1.69,1.43l-1.72,1.48v-.03s-.72.65-.72.65l-.57.49h.02s-.32.28-.32.28l.04-.11-.55.5c-.07.06-.13.15-.18.23l-.22.2h.07c-.05.06-.1.11-.13.11h0s-.12-.01-.36-.35l-.19-.28-.15.31c-.78,1.64-.88,3.31-.99,4.92l-.04.57c-.07.93-.11,1.87-.16,2.81-.03.56-.06,1.12-.09,1.68v.27c-.06.9-.11,1.75-.66,2.48-.01.02-.03.04-.03.06l-.02-.02v.07c-.06.18,0,.39.06.46l.09.12.06-.02.72.5c.63.44,1.18.82,1.74,1.2l.11.08c.2.14.43.3.68.35,1.94.42,3.26,1.59,4.03,3.54l-.09-.03.31.61.41,1.23-.02-.46,1.9,3.77-.31-.22.63.91s.07.1.1.15l.45.9-.04-.3c.18.26.35.51.53.77.86,1.25,1.74,2.54,2.65,3.79.1.13.2.26.3.38.44.56.83,1.04.79,1.8-.02.3.18.56.37.82.1.13.21.27.27.4.11.23.19.48.28.77.02.07.05.15.07.22-1.69.16-2.82-.73-3.91-1.59l-.21-.17c-.55-.43-1.01-1-1.46-1.55-.17-.21-.34-.42-.52-.63-.29-.33-.57-.66-.86-.99-.9-1.03-1.82-2.1-2.68-3.19-.9-1.15-1.93-2.5-2.74-3.93-.42-.75-.9-1.09-1.65-1.17-.46-.05-.92-.1-1.39-.15h-.11c-.97-.11-1.7-.28-2.35-.85-.85-.74-1.86-.8-2.83-.17-1.8,1.18-3.93,2.06-6.51,2.71-1.89.47-3.28,1.65-4.63,2.79l-.21.18c-.24.21-.42.58-.54,1.14-.14.67-.26,1.34-.37,2Zm18.62,21.12c-.18-.54.07-.87.38-1.28l.1-.13c.23-.31.4-.67.56-1.01.07-.15.14-.3.22-.44l.06-.11-.04-.05h.03c1.08-.3,1.42-1.16,1.63-2.04l.11-.48.44-.28c1.04-.67,1.82-1.58,2.39-2.77.36-.76.76-1.49,1.22-2.33.14-.26.28-.52.43-.8.28.98.46,1.75.28,2.6-.16.75-.26,1.51-.36,2.25-.08.61-.17,1.24-.28,1.86-.26,1.42-1.01,2.64-2.23,3.64-.05.02-.12.06-.17.14-.95,1.73-2.35,1.54-3.83,1.34-.31-.04-.62-.08-.94-.11Zm3.23-6.09l-.61.84h0s-1.56,1.97-1.56,1.97c-.06-.07-.15-.17-.16-.21.21-1.62.46-3.24.69-4.61.05-.32.14-.54.25-.65,1.31-1.32,2.83-2.36,4.51-3.12-.82,2.12-1.84,4.02-3.12,5.78Zm16.86,11.41c.8.52,1.64.43,2.45.33.19-.02.37-.04.55-.06.62-.05,1.25-.14,1.86-.23.59-.09,1.19-.18,1.79-.22,4.23-.33,7.89,1.15,11.18,4.51-.61.73-1.39.86-2.57.43-1.52-.56-2.94-.72-4.47-.51-1.44.19-2.92.24-4.35.28-.91.03-1.86.06-2.78.12-.93.07-1.86.2-2.76.33-.51.08-1.03.15-1.54.21-.76.09-1.53.17-2.4.27l-.84.09c2.08-2.01,3.93-3.42,5.95-4.53l.53-.29-.6-.08c-.08-.01-.17-.03-.25-.05-.23-.06-.48-.11-.69-.02-.77.36-1.52.72-2.2,1.21-1.49,1.1-2.95,2.24-4.34,3.39-1.26,1.05-2.74,1.31-4.32,1.59-.35.06-.71.13-1.06.2-.21.05-.48-.04-.77-.13-.16-.05-.32-.1-.48-.13l-.12-.03-.08.1c-.75,1-1.9,1.2-3.11,1.42-.1.02-.21.04-.31.06-.12-.66.13-1.21.4-1.79.12-.25.23-.51.32-.77.11-.35.25-.71.39-1.05.06-.15.12-.3.18-.45.1-.12.21-.23.31-.35.29-.33.59-.66.87-1.02.33-.43.66-.88.99-1.32.53-.72,1.08-1.46,1.65-2.15.29-.35.76-.66,1.29-.86,4.08-1.51,7.56-2.46,11.29-2.19.22.02.44.08.69.15.06.02.12.03.18.05-.32.52-.79.87-1.28,1.25-.68.51-1.39,1.04-1.62,2.03l-.03.13.11.07Zm-11.16,17.42c-.38-.79-1.16-.94-1.8-1.05l-.43-.07.08-.19c-3.13-1.7-5.65-2.74-8.16-3.39-.93-.24-1.82-.61-2.7-1.12.44-.12.88-.24,1.32-.37,1.34-.37,2.73-.76,4.1-1.1.87-.22,1.76-.41,2.63-.6,1.06-.23,2.15-.47,3.22-.76.84-.22,1.22.02,1.76.65.85,1.01,1.82,1.95,2.75,2.86.36.35.72.7,1.08,1.06.26.26.5.53.75.79.76.82,1.55,1.68,2.6,2.19.02.03.04.13.05.2.02.1.04.22.09.32.23.47.5.96,1.03,1.33l.44.31-.43-1.59s.05-.03.08-.05c.07-.05.15-.1.19-.1.85-.02,1.54.02,2.01.79.17.28.49.46.79.62.11.06.23.13.33.19l.07.05c.38.25.74.49,1.08.82-.23.07-.45.14-.68.22-2.24.73-4.35,1.41-6.63-.1l-.04-.03c-1.1-.73-2.34-1.56-3.97-1.26-.31.06-.72-.16-1.12-.38-.16-.09-.33-.17-.49-.24Zm-3.87-13.16c-.21.22-.43.45-.57.73-.21.41-.39.85-.57,1.27-.21.49-.42.99-.67,1.46-.24.46-.62.85-.83.86-1.53.09-2.92.66-4.26,1.21-.98.4-2,.81-3.05,1.03-.12.03-.23.08-.33.12-.1.05-.19.09-.27.1-.35.04-.66-.06-.84-.29-.16-.2-.2-.48-.1-.79.11-.31.29-.6.49-.9.11-.16.21-.33.31-.5.12-.22.23-.44.35-.67l.11-.21,1.25-.73c1.06-.62,2.11-1.24,3.17-1.85.15-.09.31-.19.46-.28.44-.28.9-.56,1.36-.65,1.59-.29,2.93-1.08,4.23-1.84.29-.17.58-.34.86-.5l-.91,2.24c-.06.06-.12.13-.18.19Zm13.44,11.72c-1.14.26-2.16-.69-3-1.48-1.45-1.36-2.81-2.8-4.24-4.33-.54-.57-1.08-1.15-1.64-1.74,1.25-.8,2.46-.93,3.63-1.06.17-.02.34-.04.52-.06.17-.01.45.08.61.22,1.82,1.59,4.04,2.44,6.19,3.25.37.14.75.28,1.12.43.74.29,1.21.59,1.44,1.24.3.87,1.03,1.24,1.7,1.49.83.31,1.67.6,2.51.89.53.18,1.06.37,1.59.55.23.08.45.18.71.29.05.02.11.05.16.07-.93.84-2.06,1.26-3.52,1.32-1.17.06-2.38-.15-3.43-.35-.44-.08-.88-.23-1.31-.37-.69-.23-1.4-.47-2.18-.47-.28,0-.56.03-.86.1Zm-2.66-9.12c.72-.12,1.45-.25,2.17-.38,1.71-.31,3.47-.63,5.21-.83,2.81-.33,5.36-.51,7.8-.54,1.82-.03,3.88-.05,5.2,1.85.22.31.52.57.84.83.1.09.21.18.32.28-3.67,3.11-7.04,3.97-10.9,2.78-.91-.28-1.88-.39-2.81-.49-.71-.08-1.44-.16-2.13-.32-1.97-.44-3.84-1.42-5.73-3.01l.03-.16Zm-8.66-8.73l-.09.1.06.12c.53,1.13.56,1.25-.28,1.82l-.46.31c-1.55,1.06-3.02,2.06-4.82,2.65-2.83.92-5.19,2.33-7.02,4.21l-.92.41c.06-1.46.14-2.84.71-4.12.72-1.63,1.48-3.28,2.22-4.87.31-.68.63-1.36.94-2.03l.08-.18.09-.02c.41-.09.82-.23,1.21-.36.85-.28,1.64-.55,2.55-.44h.06c.66.09,1.1.15,1.33.82.1.29.33.51.61.77.13.12.28.26.43.42l.13.14,4.69-3.88c.21,1.44-.29,2.83-1.5,4.13Zm-6.83-13.57c-.05.34-.11.7-.12,1.05,0,.23,0,.45,0,.68,0,.18,0,.36,0,.54,0,.19,0,.38,0,.57,0,.48,0,.93-.07,1.37-.32,1.7-.64,3.09-1,4.37-.11.41-.34.78-.59,1.18-.11.17-.21.35-.31.52-.18.33-.37.66-.56.99l-1.93,2.55c-.5-.22-.65-.57-.55-1.26.32-2.23.61-4.5.9-6.7.11-.89.23-1.78.35-2.71.03-.2.05-.4.11-.58.3-1.04,2.54-3.63,3.82-4.47.15.63.05,1.25-.05,1.9Zm-4.93,4.48c-.13,2.48-.45,4.62-.98,6.65-1.38-2.41-1.03-4.74.98-6.65Zm-.96,12.44c-1.11,1.62-1.4,3.42-1.64,5.45,0,.07-.04.16-.09.28,0,0,0,.02-.01.03-.75-.64-1.22-1.44-1.69-2.21l-.24-.4c-.88-1.43-1.3-3-1.29-4.77,0-1.84-.33-3.71-.65-5.52l-.02-.11c-.15-.83-.14-1.52.36-2.19.44-.58.89-1.17,1.37-1.79l.64-.83.08.19c.12.29.21.51.29.73.04.12.07.25.1.38.07.29.13.6.34.79.9.81,1.06,1.87,1.23,2.98.05.33.1.66.17.99.05.24.1.49.15.73.18.93.36,1.9.88,2.81.29.52.68,1.53.03,2.48Zm-5.6-.24v.29c-1.2-.79-1.59-1.99-1.98-3.15-.05-.15-.1-.3-.15-.45-.29-.85.11-1.55.56-2.36.16-.28.32-.57.47-.89,1.21,2.13,1.16,4.28,1.09,6.56Zm2.03,5.8c.22.34.45.67.69.99.27.37.54.76.78,1.15.08.13.1.4.04.63-.12.49-.28.98-.45,1.54-.07.21-.14.44-.21.67l-1.44.5s0,0,0,0c0,0,0,0,0,0,.86-2.12.64-2.83-1.28-4.15-.26-.18-.54-.35-.81-.52-.43-.26-.87-.53-1.25-.85-.57-.48-.9-.93-.96-1.29-.3-2.09-.24-4.08.19-6.06.37.63.81,1.19,1.25,1.74.67.84,1.29,1.63,1.64,2.63.28.81.79,1.54,1.29,2.25.18.25.35.51.52.77Zm24.42,25.5l-.4-.15c.15,0,.27.04.4.15Zm1.1-.89l-.05-.03c-1.15-.68-2.24-.58-3.16-.38l-.13.03-.02.13c-.17.92.22,1.58,1.16,1.95,1.08.42,2.2.8,3.15,1.11,2.6.85,4.58,2.61,6.07,5.35,0,.02,0,.09,0,.14,0,.03,0,.06,0,.09-1.14-.02-2.28-.24-3.38-.46-1.05-.21-2.14-.43-3.24-.46h0l-3.52-1.79.34.58c.04.08.08.16.12.25.11.24.22.49.44.58.62.24,1.27.42,1.9.6.24.07.48.14.71.21v-.02s.48.21.48.21c.42.19.83.37,1.24.57.66.32,1,.82,1.08,1.58-2.81-.39-5.5-1.43-8.44-3.28l-.13-.08-.11.11c-.87.84-.58,1.62-.31,2.38.06.17.13.35.18.52l-4.83-1.76.54,2.38c-1.98-.66-3.68-1.67-5.2-2.58-.35-.21-.7-.42-1.04-.61-.17-.72-.32-1.44-.46-2.13-.34-1.66-.66-3.22-1.31-4.65-.48-1.04-.41-1.89-.34-2.88.02-.2.03-.41.04-.63.09-1.7-.03-3.39-.15-4.68-.1-1.11-.15-2.22.21-3.54.23.39.45.77.66,1.14.6,1.05,1.17,2.04,1.83,2.96.73,1.03.89,2.17,1.05,3.38.09.62.17,1.26.35,1.88.38,1.36.75,2.73,1.11,4.1.16.61.32,1.21.48,1.82l.05.19.76-.21-.05-.19c-.13-.5-.27-.99-.41-1.49-.33-1.2-.67-2.44-.97-3.67-.15-.6-.21-1.25-.26-1.87l-.03-.27s.09-.02.13-.04c.07-.02.15-.04.2-.06l.21-.07-.09-.2c-.11-.25-.21-.5-.32-.74-.23-.56-.48-1.14-.78-1.68-.33-.6-.7-1.16-1.13-1.81-.08-.13-.17-.26-.26-.39.21.1.41.19.6.28.82.39,1.53.72,2.28.99l.52.19c1.18.43,2.4.87,3.65,1.01,2.09.23,3.94.98,5.66,2.3,1.03.79,2.09,1.46,3.13,1.98.73.37,1.24.89,1.62,1.68-.57.65-1.14.39-1.86-.04Zm-18.85.17c.95,1.98,1.25,3.98,1.4,5.88-1.32-.89-2.06-2.01-2.78-3.09-.09-.13-.18-.27-.26-.4l.95-2.06.7-.33Zm8.38-7.63c.21-.1.43-.21.64-.31.72-.35,1.4-.67,2.1-.97,1.02-.43,1.37-.3,2.1.94-1.82,1.21-3.33,1.31-4.84.34Zm-53.72,29.4c.15-.33.21-.85.03-1.15-.48-.81-.16-1.47.3-2.26.73-1.24,1.15-2.61,1.57-3.94.39-1.26.79-2.57,1.46-3.73.16-.28.17-.6.19-.93l.07.07v-.57s0,0,0,0v-.09c.13-.53.26-1.07.4-1.6l.06-.22-.75-.06.4-.42c.93-.99,1.01-2.01,1.09-2.92.02-.27.04-.53.09-.78.19-1.13.38-2.15.72-3.12h.1s.18,1.1.18,1.1c.17,1.01.33,2.02.52,3.03.1.52.23,1.05.36,1.56.06.24.12.47.17.71.37,1.54.38,3.2.03,5.22-.05.29-.12.58-.19.86-.12.53-.25,1.07-.27,1.62-.07,2.98-1.38,5.58-3.99,7.96-1.09.99-2.28,2.02-3.65,3.15-.26.21-.57.38-.93.58-.09.05-.19.1-.29.16.09-.38.31-.63.54-.89.14-.16.28-.32.39-.51.5-.93.98-1.84,1.41-2.8Zm4.62-21.19c-.33,1.26-.67,2.52-.98,3.78-.11.43-.14.87-.18,1.42-.02.28-.04.58-.08.92l-.06.58h-.09s0,1.77,0,1.77l-.02.16s0,.02,0,.03l-.02.11h.01s0,.03,0,.04c-.31.72-.62,1.45-.94,2.17-.8,1.84-1.62,3.75-2.38,5.65l-.08.2c-.45,1.12-.83,2.09-1.93,2.77-.85.52-1.63,1.41-2.03,2.32-.72,1.63-2.01,2.61-3.38,3.64-.23.17-.46.35-.69.52-.75.58-1.55,1.13-2.32,1.65-.29.2-.59.4-.88.6-.43-.89-.43-1.74-.28-2.79.4-2.81.74-5.72,1.02-8.63.2-2.08,1.07-3.83,2.8-5.66,1.99-2.1,4.03-4.4,5.2-7.34.34-.84.72-1.69,1.09-2.5.17-.38.35-.76.51-1.14l.19-.42h.02s1.38-2.55,1.38-2.55h-.01c.13-.22.26-.43.38-.64.3-.5.61-1.02.94-1.51l.14-.21c.91-1.37,1.86-2.8,2.86-4.14.17-.24.69-.47.92-.41,1.04.27,2.07.61,3.16.97.26.08.51.17.78.26l-.22.1c-.45.2-.85.38-1.24.56-1.25.57-1.96,1.42-2.26,2.65-.41,1.7-.86,3.41-1.3,5.07Zm-16.1,15.57l-.19,1.9c-.21,2.16-.42,4.21-.63,6.26-.11,1.07-.24,1.87-.42,2.61-.31,1.31-.65,1.6-2.31,1.77-.04-.77-.18-1.54-.31-2.29-.35-2.01-.68-3.9.57-5.78.76-1.14,1.58-2.23,2.46-3.38.27-.36.55-.73.83-1.1Zm-4.7-4.64c.23-.22.45-.43.67-.64.63-.61,1.22-1.18,1.84-1.71.39-.34.82-.67,1.23-.99.54-.41,1.09-.84,1.59-1.32,1.24-1.17,1.19-1.71.33-3.37.22-.19.45-.39.68-.58.6-.51,1.22-1.03,1.78-1.61,1.04-1.07,2.04-2.22,3-3.33l.33-.38c.13-.15.15-.35.17-.53,0-.06.01-.12.02-.17.3-.38.6-.77.9-1.15.73-.94,1.48-1.92,2.29-2.8,1.12-1.22,2.49-2.49,4.51-2.17.19.03.39.08.61.16,0,0,.01,0,.02,0-.26.43-.52.86-.78,1.3-.7,1.16-1.42,2.36-2.09,3.55-.25.43-.42.91-.59,1.37-.08.21-.15.42-.24.62h.02s-1.34,2.5-1.34,2.5l.06.03-.26.36c-.09.12-.19.24-.28.37-.21.27-.43.55-.59.86-1.87,3.93-4.65,7.29-7.11,10.13-1.54,1.78-3.03,3.63-4.48,5.43l-.68.85c-.26.32-.45.68-.61.97-.05.09-.09.17-.13.24l-3.04,1.13c.21-2.5,1.39-4.51,2.63-6.64.36-.63.74-1.27,1.09-1.93l.12-.23-1.65-.33Zm-12.06-14.38c.23-.49.15-1.12-.24-1.92l1.08-1.25,1.01.15c-.38.82-.63,1.68-.87,2.51-.4,1.39-.78,2.71-1.73,3.84-.85,1.01-1.62,1.81-3.05,2.05-2.62.45-5.04-.13-8.05-1.92.16-.09.3-.17.43-.24.41-.23.74-.42,1.08-.56,1.99-.82,4.15-1.25,6.61-1.33.7-.02,1.29-.07,1.86-.2,1.02-.23,1.6-.59,1.86-1.13Zm10.41,8.79c1.03-1.39,1.99-2.71,3.14-3.87.45-.46.83-.97,1.19-1.46.48-.65.93-1.26,1.53-1.77.48-.4.95-.83,1.41-1.24.59-.54,1.2-1.09,1.84-1.59.74-.59,1.57-1.06,2.36-1.49,1.3-.7,2.39-1.19,3.46-1.55l-2.03,3.81c-.22.21-.45.41-.67.61-.54.49-1.09.99-1.61,1.51-.19.19-.39.39-.58.58-1.49,1.51-2.9,2.94-4.94,3.69-.66.24-1.19.79-1.7,1.32-.21.22-.42.43-.64.62-1.23,1.09-2.3,1.96-3.79,2.24.36-.47.7-.94,1.04-1.4Zm-1.43-45.53l.04-.56h-2.99c1.25-1.53,2.45-2.81,4.03-3.95l.55-.39-3.95.24c.65-1.68,1.74-2.95,2.79-4.18l.1-.12c.27-.31.6-.56.95-.83.23-.18.47-.36.69-.56.78-.72,1.45-.88,2.24-.56l.31.13-.22-1.77-.13-.03c-.26-.07-.53-.08-.8-.1-.58-.03-1.13-.06-1.56-.57,1.22-.68,2.54-.89,3.68-1.01l1.43-.15c1.44-.15,2.92-.3,4.38-.47,1.79-.21,1.94-.34,1.85-2.06.16-.02.32-.03.47-.05.87-.07,1.77-.14,2.43-.95.11-.03.22-.05.34-.07.35-.06.72-.13.92-.38.61-.76,1.34-.72,2.17-.67.22.01.45.03.66.02.97,0,1.95-.1,2.9-.18.58-.05,1.16-.11,1.74-.14.5-.03,1-.02,1.58-.02.18,0,.36,0,.56,0-.45.83-1.05,1.38-1.64,1.92-.24.22-.47.43-.69.66-.18.19-.34.39-.5.59-.05.06-.1.13-.15.19-.14.08-.29.16-.44.24-.38.2-.78.4-1.08.71-1.29,1.33-2.87,2.13-4.38,2.8-2.11.93-4.35,1.43-6.84,1.53-1,.04-2.04-.09-3.04-.23-.46-.06-.92-.12-1.39-.17-.39-.04-.8-.08-1.26.12l-.57.25,1.18.23c.44.09.88.18,1.33.25.29.05.47.13.56.26.06.08.08.19.07.32l-.28.02.09.1c-.64.19-1.12.55-1.41,1.11l-.06.11.46.56,1.33-1.43.15.17.05-.25.17-.03v-.02c.12,0,.24-.02.37-.03.52-.04,1.04-.08,1.56-.11,2.38-.11,4.62-.89,6.79-1.65l.47-.16c.42-.15.83-.31,1.25-.47.13-.05.27-.11.4-.16l.04.06-2.18,2.07s0,0-.01,0l-.14-.16-.07.25-.16.07.07.08c-.33.22-.65.44-.98.66l-.51.34.61.02s.03,0,.04,0c.51,0,.85-.25,1.09-.47.11-.1.13-.23.16-.36l.18-.13h-.01c.06-.04.13-.07.19-.09.34-.14.7-.29,1-.51.53-.4,1.02-.84,1.55-1.32.16-.15.33-.3.5-.45.63,1.95.84,3.58.65,5.1-.1.81-.42,1.6-.77,2.44-.15.37-.3.74-.44,1.13-1.11.27-1.74,1.26-2.21,2.19-.93,1.83-2.54,2.92-4.25,3.97-1.44.88-2.99,1.76-4.75,2.06-.3-1.64.33-2.9,1.86-3.75.72-.4,1.2-.91,1.2-2.09v-.18s-.18-.01-.18-.01c-.13-.01-.27-.04-.4-.06-.2-.04-.41-.07-.61-.07-.14,0-.27.02-.4.06-.79.29-1.82.7-2.74,1.3-1.86,1.22-3.55,1.85-5.32,1.99-.52.04-1.3.04-2.05-.2-.96-.3-1.9-.72-2.81-1.13l-.41-.18c-.08-.03-.16-.15-.28-.32-.03-.04-.06-.09-.09-.13l2.98-.25Zm11.88-17.48c-1.17-.09-2.33-.18-3.5-.27-.17-.01-.33.02-.49.04-.41.07-.63.09-.82-.28l-.06-.09-.08-.02c-.19-.06-.66.05-.86.16-1.37.72-2.82.73-4.35.74-.71,0-1.44,0-2.15.09-.3.04-.72-.35-1.1-.72.47-.16.94-.3,1.4-.44,1.2-.36,2.34-.7,3.38-1.37.76.11,1.51.07,2.31.04,1.14-.05,2.32-.1,3.53.3l.14.05.08-.13c.5-.77,1.65-.86,2.67-.94,2.16-.17,3.71.12,5.28,1.01l-1.15.97-2.92.98-1.32-.1Zm-11.67-21.23c-.31-.44-.61-.85-.78-1.33.9-.07,1.82.18,2.74.76,1.89,1.19,3.63,2.8,5.17,4.78,1.83,2.35,3.89,5.02,6.99,6.57.14.07.25.24.37.42.09.14.18.28.3.4.41.42.84.84,1.26,1.25l.43.42c.1.16.2.32.3.49.23.38.48.78.78,1.12.31.35.68.64,1.04.91.11.09.22.17.33.26l-.04.07c-.06,0-.12,0-.18.01-.18.02-.35.03-.47-.02-.83-.34-1.67-.71-2.49-1.07-.48-.21-.96-.42-1.45-.63-.35-.15-.72-.29-1.08-.42-.71-.26-1.44-.53-2.07-.93-.99-.63-1.95-1.36-2.88-2.07-.55-.42-1.11-.84-1.67-1.25-.57-.41-1.13-.84-1.67-1.26-1.67-1.29-3.39-2.63-5.49-3.33-.87-.29-1.79-.48-2.68-.66-.38-.08-.76-.15-1.14-.24-1.16-1.2-2.75-1.64-4.29-1.94-1.11-.21-1.91-.71-2.64-1.65,1.02-.37,2.28-.25,5.88.1h.1c2.32.24,4.26.93,6.1,2.19l.3.2v-.36c.04-1.24-.53-2.03-1.08-2.81Zm-12.87,10.82c-1.17-.61-2.41-.87-3.61-1.11-.96-.2-1.88-.39-2.74-.75l7.79.47-.03.02.43.03.08.05.05-.04c.69.04,1.39.09,2.08.13.03.1.08.2.2.23l.67.18c1.96.53,3.99,1.09,5.99,1.59.13.03.26.04.39.04.19,0,.38-.02.57-.05.05,0,.1-.01.15-.02h.15s.06.03.06.03c.04.04.07.08.11.12.17.19.35.38.59.49.2.09.4.16.61.24.16.06.32.11.48.18-2.78,1.02-5.78,1.81-9.03,1.09-.79-.18-1.64-.14-2.45-.11-.41.02-.83.04-1.24.02-1.44-.04-2.19-.21-3.7-.91l2.72-1.77-.3-.15Zm22.99,28.17h0c-1.19.74-1.97,1.89-2.42,3.59l-1.86-1.19,4.28-2.4Zm28.41,30.51c0,.8.02,1.61.01,2.41,0,.22-.04.45-.09.76-.01.08-.03.17-.04.26-.19-.16-.36-.31-.53-.46-.53-.46-.99-.86-1.5-1.2-1.23-.84-2.55-1.73-3.92-2.48-.71-.39-1.47-.69-2.21-.99-.43-.17-.87-.35-1.29-.54-.94-.42-1.29-1.3-1.6-2.25-.23-.7-.43-1.42-.63-2.12-.38-1.36-.78-2.76-1.37-4.05-.67-1.46-1.6-2.82-2.51-4.14-.25-.37-.5-.73-.75-1.1-.19-.28-.44-.44-.7-.44-.01,0-.03,0-.04,0-.3.02-.59.24-.78.61-.15.3-.27.61-.42,1-.03.09-.07.19-.11.29-.07-.13-.13-.26-.19-.38-.22-.44-.41-.82-.59-1.19-.26-.56-.51-1.13-.76-1.7-.54-1.24-1.1-2.53-1.8-3.72-.67-1.14-1.64-2.11-2.59-3.05l-.14-.13c-.39-.38-1.24-.66-1.68-.45-.51.25-.57,1.38-.57,1.6-.01.4.07.79.16,1.17.05.22.1.45.13.68.03.22.02.45.01.73,0,.06,0,.13,0,.2-1.22-.55-1.72-1.54-2.26-2.59-.19-.37-.39-.76-.62-1.12,4.17-1.48,8.31-3.5,10.71-7.94l.14.08c-.03.07-.06.15-.09.22-.12.29-.23.58-.37.87-.07.15-.16.3-.25.44-.15.24-.3.48-.38.76-.09.29-.1.6-.11.89,0,.12,0,.25-.02.37l-.02.2h.2c.13.02.27.04.41.07.36.06.73.13.97-.06.26-.19.54-.35.84-.52.69-.38,1.4-.77,1.77-1.63.09-.22.3-.41.53-.63.09-.08.18-.17.27-.25l1.35.69.1-.1c.65-.65.81-1.45.96-2.22.08-.39.15-.76.28-1.1.29-.73.45-1.49.63-2.37.06-.29.12-.58.19-.89l1.5,1.82.15-.13c.06-.05.13-.09.2-.14.19-.13.41-.27.5-.5.14-.37.29-.75.43-1.12.49-1.27,1.01-2.59,1.32-3.93.51-2.15,1.4-4.19,2.26-6.16l.34-.78c.44-1.02.85-1.99,1.64-2.82,2.21-2.32,5.1-2.68,7.62-2.73h0c.23,0,.64.3.83.6.57.9.84,1.85.82,2.89-.03,2.99-.48,5.99-.91,8.9l-.13.87c-.17,1.13-.32,2.27-.48,3.4-.12.85-.24,1.7-.36,2.54-.16,1.11-.31,2.23-.47,3.35-.36,2.64-.74,5.37-1.2,8.04-.3,1.76-.68,3.55-1.04,5.27-.42,2.02-.86,4.11-1.19,6.18-.36,2.28-.45,4.63-.53,6.9l-.02.6c-.06,1.48-.04,2.99-.03,4.45Zm-15.6-33.08c-.18,1.12-1.01,2.14-2.35,2.91.41-.95.51-1.9.61-2.82.11-1.03.22-2.01.74-2.87.8.85,1.15,1.83,1,2.79Zm11.83-19.26c-.22.32-.39.57-.54.84-.32.58-.62,1.16-.93,1.74-.21.4-.41.79-.63,1.19-1.39,2.59-2.16,5.44-2.9,8.2l-.22.8c-.11.42-.35.81-.59,1.23-.07.12-.15.25-.22.37-1.43-1.82-1.67-3.71-.77-6.08.25-.66.39-1.36.53-2.04.08-.4.17-.82.27-1.21l.1-.37c.27-1.03.55-2.1.92-3.11.34-.92.9-1.37,1.79-1.4.8-.03,1.61-.13,2.46-.23.27-.03.55-.07.85-.1-.04.06-.08.12-.12.18Zm-8.81,4.64c.26-.29.5-.57.79-.78.23-.16.44-.35.65-.53.31-.26.63-.54,1-.76-.05.3-.1.59-.15.89-.16.94-.33,1.92-.53,2.87-.11.54-.27,1.08-.42,1.61-.29,1.02-.59,2.07-.6,3.12-.02,1.38-.38,2.69-.73,3.95-.14.49-.27.97-.39,1.47-.18.74-.34,1.48-.5,2.2l-.19.82c-.49.06-.64-.12-.79-.52-.15-.43-.34-.85-.53-1.26-.27-.59-.54-1.2-.7-1.82-.19-.76-.25-1.58-.31-2.37-.03-.35-.05-.7-.09-1.04-.04-.34-.06-.68-.08-1.02-.05-.77-.11-1.56-.31-2.32-.2-.78.06-1.22.57-1.71.39-.38.77-.77,1.13-1.16.13-.13.26-.27.38-.4.83-.14,1.33-.7,1.8-1.24Zm-33.72-17.57c.16-.1.33-.2.53-.31l2.86.77c.31.14.62.29.93.44.82.39,1.66.8,2.54,1.08,2.45.77,4.43,2.29,6.35,3.75,1.03.78,2.06,1.56,3.09,2.34.78.59,1.57,1.18,2.35,1.77.05.04.1.1.15.17,0,0,0,0-.01,0l-.76-.21c-1.93-.52-3.92-1.06-5.86-1.62-.6-.17-1.2-.37-1.78-.56-.63-.21-1.27-.42-1.92-.6-.2-.06-.4-.07-.6-.07-.05,0-.1,0-.15,0l.06-.05-.59.03-.06-.03-.05.03c-.11-.05-.22-.1-.33-.16-.3-.15-.61-.3-.94-.38-1.66-.37-3.35-.72-4.98-1.05l-1.33-.28.11-.09-.39-.03-.05-.12-.14.11c-.72-.05-1.44-.09-2.17-.13h-.02s-.04-.04-.07-.06c-.14-.11-.29-.24-.48-.26-1.99-.17-3.99-.32-5.98-.47l-1.77-.13-.05.78c-.28-.12-.55-.25-.82-.41.64-1.03,1.44-1.51,2.44-1.89,3.4-1.32,6.25-1.96,8.98-2.01.31,0,.59-.17.94-.39Zm25.49,55.54c-1.02-.93-1.95-1.98-2.84-3-.79-.9-1.61-1.83-2.49-2.68-.96-.92-1.47-1.68-1.22-2.87.08-.38-.04-.78-.17-1.21-.02-.06-.03-.12-.05-.18l1.17.7.1-.06c1.4-.89,1.21-2.04,1.02-3.16-.07-.42-.15-.86-.14-1.29,1.29.72,2.02,1.83,2.7,2.99,1.36,2.31,2.11,4.84,2.76,7.24.34,1.26.8,2.51,1.25,3.72.14.39.29.77.42,1.16.11.3.37.53.77.68l.41.15-1.86-4.76h1.19l.74-2.2c2.79,2.97,3.72,6.59,4.57,10.12l-.24-.09c-1.32-.46-2.56-.89-3.66-1.65-.95-.66-1.95-1.3-2.91-1.92-.41-.26-.82-.53-1.22-.79-.01-.07-.02-.13-.03-.2-.04-.26-.08-.53-.26-.7Zm-27.1-43.87l.28-.04c1.18-.19,2.37-.36,3.56-.53,1.58-.23,3.22-.47,4.83-.75.96-.17,1.91-.47,2.82-.76.3-.09.6-.19.89-.28.71-.21,1.36-.2,2.15.05,1.52.47,3.08.89,4.58,1.29,1.04.28,2.09.56,3.13.86.33.09.66.25.98.4.41.19.83.39,1.28.48.71.14,1.44.2,2.14.26.49.04,1.01.09,1.5.16,2.54.36,5.9.75,9.37.56.15,0,.31.02.51.04.04,0,.08.01.12.02-.13.4-.25.64-.45.74-.17.08-.41.06-.75-.08-.53-.21-1.23-.28-1.9-.2-4.11.53-7.88.31-11.51-.68-.15-.04-.29-.05-.44-.05-.08,0-.17,0-.25-.02,0,0-.02,0-.03,0l1.2-.22-.35-.27c-.93-.72-1.94-.28-2.34-.06-2.54,1.45-5.35,1.63-8.04,1.64l.03-.02-.1.02c-.13,0-.25,0-.38,0h0c-.15,0-.28.07-.4.13-.01,0-.02.01-.04.02h0c-.71.13-1.26.03-1.88-.36-.56-.35-1.33-.43-2.02-.43-.16,0-.32,0-.48.01-1.3.05-2.62.17-3.89.29-.59.05-1.19.11-1.78.16-1.66.13-2.99-.67-4.28-1.62.58-.57,1.27-.67,1.94-.77Zm8.34,25.65c.42.09.73.16,1.05.2l.39.05c.67.08,1.36.17,2.04.17h.15c2.23,0,3.79.9,4.9,2.82.22.38.4.79.57,1.2.39.92.8,1.87,1.71,2.52.07.05.14.19.15.28.01.75.01,1.51.01,2.34v.66c-1.57-.24-2.8-1.01-4-1.76-.24-.15-.49-.3-.73-.45l-.32-.19h.08s-.33-.38-.33-.38c-.39-.47-.78-.94-1.18-1.41-.9-1.07-1.82-2.18-2.71-3.29-.5-.63-.96-1.28-1.5-2.03-.17-.24-.35-.5-.55-.77.09.02.18.04.27.06Zm-2.63,3.05c.1.05.19.1.29.15.36.19.71.37,1.01.6,1.57,1.19,2.86,2.2,4.04,3.18.68.56,1.45.64,2.2.72.19.02.38.04.57.07l.17.03.3.49c.59.99,1.53,1.75,2.86,2.32,1.43.62,2.52,1.61,3.49,2.6,1.48,1.51,3.04,2.99,4.55,4.41.63.6,1.26,1.19,1.89,1.79l2.52,2.71c-1.07-.08-3.04-.62-3.53-1.08-1.28-1.22-2.84-2.03-4.34-2.81l-.44-.23c-.38-.2-.74-.43-1.1-.66-.46-.29-.93-.6-1.43-.83-.77-.35-1.59-.61-2.38-.86-.26-.08-.51-.16-.77-.25l-.08-.03c-.88-.29-1.72-.57-2.45-1.26-.47-.44-1.08-.72-1.67-.99-.42-.19-.86-.39-1.23-.65-3.74-2.57-4.97-5.14-4.46-9.42Zm3.27,11.6c.36.12.62.2.87.27l.49.15c1.1.34,2.24.69,3.5.78,1.11.08,2.24.54,3.32.99.34.14.69.28,1.04.42-1.92.94-4.04,1.25-6.45.94-.47-.06-1.02-.53-1.33-.94-.44-.58-.83-1.24-1.27-1.99-.13-.22-.26-.45-.4-.68l.22.07Zm19.13-47.91c-.23,0-.47.02-.7.06-1.13.2-2.06-.17-3.02-1.19-.51-.54-1.04-1.03-1.66-1.6-.18-.17-.37-.34-.56-.52h1.2l4.31,1.78-.49-.6s-.02-.02-.03-.04l.21.19c.13.12.25.24.37.37.29.29.59.6.95.8.34.19.34.37.27.7l-.54.04c-.1,0-.2.01-.3.01Zm-10.83-11.68s0-.09,0-.14c.64-.12,1.19.12,1.78.38.15.07.3.13.45.19.49.19.98.42,1.45.64.21.1.42.2.62.29l1.15.77-.14-.03.9.53.09.06h0s2.47,1.45,2.47,1.45l-.18-.51c-.37-1.02-1.27-1.18-2.06-1.32l-.12-.02-1.87-1.25c-1.67-2.63-2.78-5.65-3.29-8.98-.01-.07.03-.18.09-.34.01-.04.03-.08.04-.12.77.76,1.47,1.53,2.23,2.47.75.93,1.54,1.85,2.31,2.74.33.38.66.77.99,1.15h0s.98,1.12.98,1.12l1.71,2.62-.02-.69c-.02-.78-.4-1.36-1.13-1.73l-.23-.11.14-.13-1.17-1.33-4.27-5.98c.12.01.24.02.36.03.57.06,1.12.11,1.67.1.57-.01,1.14-.09,1.75-.16.19-.03.39-.05.6-.08l-.89,3.86.15.07c1.23.54,2.61.59,4.33.17.95-.23,1.85-.62,2.79-1.03.32-.14.65-.28.98-.41v2.91l.17.02c.26.04.51.08.76.12.54.09,1.05.17,1.56.21,1.69.15,1.93.51,2.39,2.29.08.32.18.63.27.94.26.86.5,1.67.49,2.55-.01.66-.03,1.33-.04,1.99-.01.61-.03,1.22-.04,1.82,0,.49-.01.98-.02,1.47,0,.84-.02,1.67-.05,2.5,0,.11,0,.22,0,.34,0,.37,0,.89-.16,1.01-.35.28-.57.1-.98-.38-.07-.09-.15-.17-.22-.25-.08-.08-.16-.16-.24-.23l-.79-.78.73,1.81c-.97.16-1.83-.18-2.83-.62-1.28-.57-2.56-1.2-3.8-1.81-.53-.26-1.06-.52-1.59-.78l-1.14-.55c-.78-.58-1.79-.86-3.12-.9-.02-.01-.03-.02-.05-.03-.14-.1-.31-.2-.49-.2-1.61,0-2.44-1.09-3.24-2.18-.96-1.29-1.46-2.81-1.94-4.27-.1-.32-.21-.63-.32-.95-.03-.09-.02-.21-.01-.37Zm40.59-34.92l.08-.08c1.23-1.16,2-2.45,2.36-3.92l1.47-3.04c.01.24.02.48.04.72.04.68.07,1.39.07,2.09-.04,3.16-.59,5.84-1.68,8.19l-.28.6c-.66,1.43-1.35,2.9-2.2,4.24-.4.63-1.01,1.15-1.6,1.66-.25.21-.49.43-.73.65-.85.2-1.37.82-1.75,1.41l-2.24,1.57v-.98c0-.47,0-.94,0-1.4,0-1.12,0-2.27.04-3.4v-.1c.03-.8.06-1.55.91-2.01.38-.21.66-.58.92-.94.11-.15.23-.31.35-.45l.49-.57-.17.5,3.92-4.73Zm-20.37,31.83c.41-.19.83-.4,1.27-.5,1.75-.43,3.4-1.29,5.04-2.64,1.16-.95,3.23-.94,4.61.02,1.32.93,2,2.28,2.45,3.35.52,1.26,1.13,2.48,1.86,3.73.39.67.42,1.6.46,2.5,0,.15.01.31.02.46.08,1.73.13,3.5.17,5.2.02.93.05,1.85.08,2.78.02.76-.61,1.82-1.5,2.1-3.12.99-5.24.02-6.3-2.9-.54-1.49-.94-3.16-1.27-5.28-.14-.88-.41-1.66-.87-2.54-.25-.46-.46-.97-.66-1.45-.11-.27-.22-.54-.34-.81l-.09-.2c-.29-.67-.63-1.44-1.59-1.9l-.2-.09-.92,2.64-2.55-4.31c.11-.05.21-.1.32-.15Zm1.11,7.49c-.12-.67-.18-1.37-.24-2.05-.02-.25-.05-.5-.07-.76l.12-.05c.07.12.14.24.21.35.25.43.51.88.8,1.3.16.22.55.49.85.43.29-.06.57-.45.61-.74.08-.45.11-.91.15-1.45,0-.14.02-.28.03-.43.05.03.1.07.15.1.17.11.29.18.32.25.51,1.1,1.05,2.28,1.52,3.5.1.27.08.69-.06.89l-.26.39c-.75,1.14-1.52,2.33-2.44,3.35-.31.35-.82.56-1.35.78-.2.08-.4.16-.6.26-.51-1.39-.24-2.61.1-3.62.27-.82.32-1.57.16-2.51Zm6.43-19.49c.33.31.68.63,1.06.9.49.34,1.02.64,1.53.94.26.15.51.29.76.44,1.33.8,1.92,1.75,1.97,3.17.04,1.07.29,2.11.56,3.22.07.31.15.62.22.94-.19-.15-.37-.3-.55-.45-.72-.59-1.39-1.14-2.13-1.62-1.25-.81-2.73-.88-4.17-.18-.51.25-.98.58-1.44.91-.43.31-.88.63-1.35.86-.99.49-2.03.9-3.12,1.34-.37.15-.74.3-1.12.45.08-.24.16-.48.23-.7.25-.75.49-1.46.64-2.18.12-.57.16-1.16.21-1.73.04-.47.07-.96.15-1.42.29-1.76,1.59-2.9,2.84-4l.13-.12c.12-.11.27-.2.42-.3.23-.15.47-.3.65-.52.34-.41.72-.56,1.15-.56.19,0,.4.03.62.07l.14.03.15.14c.15.13.3.27.45.41Zm26.65,3.8c-.28-.02-.55-.03-.83-.04-.48-.01-.97-.03-1.44-.12-.65-.13-1.29-.32-1.97-.52-.23-.07-.46-.14-.69-.21l.29-.54c.5.03,1.01.05,1.51.07,1.3.06,2.65.12,3.97.25.77.07,1.59.28,2.6.67-1.04.5-2.14.54-3.44.43Zm-4.2,13.7c.14.49.29,1,.4,1.51.23,1.01.42,2.05.61,3.05l.19,1.01c.14.75-.08,1.45-.67,2.14-.92,1.06-1.97,2.11-3.46,2.6-.45.15-.9.32-1.34.49-1.22.47-2.36.91-3.7.9-1.07-.02-1.38-.14-1.51-1.01-.19-1.27-.27-2.23-.29-3.13-.01-.68-.03-1.36-.04-2.04-.05-2.29-.11-4.65.07-6.95.13-1.63.17-3.32.13-5.33-.02-1.32.79-2.3,1.58-3.25.21-.26.73-.47,1.11-.47.02,0,.04,0,.07,0,1.58.11,3.19.28,4.75.44.5.05,1.01.11,1.51.16,0,.64.01,1.24.03,1.82.03,1.33.05,2.6-.06,3.82-.14,1.52.25,2.9.63,4.24Zm11.54-23.71l1.63-1.12.04-.02c.38-.14.75-.29,1.13-.43.98-.38,2-.77,3-1.12.24-.08.52-.08.81-.09.05,0,.09,0,.14,0-1.33,2.65-4.35,3.16-6.76,2.77Zm14.92,11.91c.1-.02.2-.02.28-.03.19-.01.35-.02.44-.16.33-.47.79-.82,1.27-1.18.64-.49,1.31-.99,1.68-1.82.18-.39.66-.8,1.4-1.18,1.37-.7,2.76-1.36,4.23-2.06.45-.21.9-.43,1.36-.64-.37,1.34-1.21,2.56-3.02,4.43l-1.18,1.22,1.43-.92c.22-.14.44-.28.65-.43,1.91-1.25,3.72-2.43,6.08-2.56.81-.04,1.62-.22,2.4-.39.61-.13,1.24-.27,1.86-.35.54-.06,1.11,0,1.77.07.21.02.44.05.68.07l-.63.59c-.66.62-1.22,1.15-1.79,1.67l-.12.11c-.39.34-.87.76-.55,1.49.23.53-.05.78-.52,1.14l-.56.43c-.64.49-1.3.99-1.92,1.52-.26.22-.45.49-.64.76-.04.05-.08.11-.12.16h0s-.23.2-.23.2c-.14.06-.28.12-.42.17-.69.27-1.46.59-1.62,1.58-.84-.1-.94-.04-1.52.61l-.51.56,2.22-.76.16-.02v-.08s1.91-1.72,1.91-1.72l.05.06.14-.18s.06-.07.08-.11c.33-.24.66-.46,1-.69.91-.63,1.86-1.28,2.67-2.05.65-.62,1.32-1.07,2.11-1.39.79-.33,1.58-.63,2.49-.98.32-.12.65-.25,1-.39,0,.22,0,.43,0,.62,0,.52,0,.93-.14,1.27-.1.23-.19.47-.28.7-.72,1.82-1.47,3.71-3.17,4.92-.67.48-1.33.83-1.97,1.05-3.09,1.08-6.36,1.76-10,2.08-.29.03-.57.1-.85.17-.66.17-1.29.33-1.89-.15l-.11-.09-2.09,1.3-3.11,1.74-1.11.15v-.54c.83-.86.92-1.94.98-3l.32-.82c.68-1.73,1.4-3.09,2.72-4.09.37-.28.67-.63.97-.97.13-.15.26-.31.4-.45l-.26-.29-2.8,2.17-.19-1.52-.49-.03-.62,4.37-1.47,4.62-.59,1.45s-.07,0-.1.01c-.2.02-.41.04-.61.12-1.55.62-3.16,1.26-4.73,1.95-.29.13-.52.36-.75.58-.1.09-.19.19-.29.28l.23.31c1.98-1.25,3.7-.51,5.52.28.45.19.91.39,1.38.56l.51.18c.76.28,1.55.57,2.36.72.12.02.25.04.37.06.68.1,1.22.19,1.61.86.25.42,1.07.59,1.54.55l.25-.02c1.04-.1,2.12-.2,3.06-.62,1.24-.55,2.46-.47,3.75-.39.25.02.5.03.75.04.18,0,.39.15.68.36.1.07.2.14.31.22l-2.19.89-.03.09c-.56,1.81-1.29,2.32-3.55,2.46-.42.03-.83.06-1.25.1l-.24.02h-.78c-1.3-.09-2.6-.18-3.9-.27h-.2s-.03.66-.03.66h4.06l-.1.08.62-.05h.01s.08,0,.08,0h.01s4.13,1.44,4.13,1.44c.96,1.08,2.35,1.36,3.46,1.47,3.6.38,6.26,2.28,8.36,6,.37.65.73,1.31,1.1,2l.39.72c-.62-.01-1.11-.32-1.63-.64-.2-.13-.41-.25-.62-.36-.44-.23-.9-.43-1.34-.64-.19-.09-.38-.17-.57-.26l-1.29-.94h.36s-4.78-2.09-4.78-2.09h0s-2.57-1.1-2.57-1.1c-2.23-1.12-4.72-1.87-7.4-2.23-.55-.66-1.31-.68-1.98-.68-.17,0-.34,0-.51-.01h-.07s-1.2-.42-1.2-.42c-1.15-.4-2.3-.8-3.46-1.19-.37-.13-.75-.23-1.14-.33l2.5-.79-.08-.38c-4.78.5-10.32.49-15.29-3.32l.75-.86,2.18-.64h.06c.19-.02.39-.03.58-.04,1.14-.05,2.33-.11,3.27-1.06l.33-.33h-1.43l1.12-2.68c.56-.39.8-.86.72-1.43.06-.06.11-.11.17-.17.25-.23.5-.47.56-.79.16-.91.73-1.57,1.71-2,1.33-.58,1.9-1.76,2.4-2.8.3-.62.57-1.24.85-1.87.39-.88.79-1.79,1.24-2.66.47-.91,1.08-1.94,2.29-2.68v2.38l.23-.04Zm1.06,15.33c-1.7-.44-3.36-1.14-5.09-2.16l2.56-1.44,1.86-.94h.02c1.11-.3,2.24-.72,3.09-1.7l.92-.15c.74-.12,1.49-.25,2.24-.36,1.61-.24,3.22-.48,4.88-.72l1.89-.28c.91,1.57,2.36,1.33,3.76,1.09.27-.05.55-.09.83-.13-2.28,2.23-4.59,4.29-7.5,5.48-.63.26-1.36.32-2.09.36-1.69.08-3.29.16-4.88.97-.51.26-1.37.25-2.47-.04Zm2.55,14.15c-1.41-1.52-2.75-3.27-4.1-5.35l2.11.38c.52.6,1.22.63,1.84.64.22,0,.42.01.62.04h.03c.43.15.85.29,1.28.44,1.1.38,2.24.77,3.37,1.12.68.21,1.39.38,2.07.55.28.07.57.14.85.21.67.67,1.48,1.02,2.4,1.03l.25.17c1.09.74,2.21,1.5,3.67,1.5h.48s-.2.27-.2.27l1.44,1.05h0s.65.45.65.45c.53.37,1.06.73,1.58,1.1.42.3.84.59,1.38.98l.5.35c-.2.05-.38.1-.55.15-.53.15-.95.26-1.36.29-3.01.24-5.59-.13-7.88-1.16-.11-.05-.22-.09-.33-.13-.2-.07-.39-.14-.54-.25-2.14-1.49-4.59-1.97-6.93-2.27-.98-.12-2-.89-2.63-1.56Zm15.99-5.17c-.2.07-.34.13-.44.11l-.38-.05c-1.27-.17-2.59-.35-3.86-.63-.58-.13-1.17-.34-1.73-.55-.31-.11-.61-.23-.92-.33-.32-.11-.65-.2-.98-.29l-.47-.13-1.22-.77c.32-.24.73-.38,1.15-.52.78-.27,1.67-.57,2.04-1.63.59.35,1.2.69,1.79,1.01,1.81,1,3.69,2.03,5.22,3.7-.07.02-.13.05-.19.07Zm-28.31-19.96c-.28.82-.59,1.76-.47,2.61.17,1.25-.16,2.33-.7,3.57l-.22.5-.38.76c-.06.04-.11.08-.17.13-.17.13-.35.26-.5.41-.42.43-.76.94-1.08,1.44-.52.79-1.01,1.54-1.85,1.99l-2.09.61-2.06.23c.04-.6.07-1.19.11-1.77.1-1.56.19-3.03.25-4.54.07-1.7.48-3.22,1.25-4.64.21-.38.32-.8.44-1.21.03-.12.07-.23.1-.35.91-.08,1.31-.71,1.56-1.37.09-.03.18-.06.27-.09.28-.1.54-.19.8-.2,1.82-.08,3.52-.66,5.17-1.21.31-.11.62-.21.93-.31-.09.22-.18.43-.27.65-.35.85-.71,1.72-1.01,2.61l-.07.21Zm1.81,26.42c-.49-.63-.98-1.26-1.47-1.88-.11-.14-.25-.22-.39-.3-.02,0-.03-.02-.05-.03-.18-1.18-.74-2.2-1.29-3.18-.36-.64-.73-1.3-.98-2-.06-.16-.23-.2-.38-.24l-.06-1.31c1.43-.1,2.77.2,4.08.5.22.05.43.1.65.15,1.2.26,2.61.59,3.96,1.04.39.13.83.5,1.12.95.78,1.18,1.55,2.4,2.3,3.57.82,1.29,1.67,2.62,2.53,3.92.25.38.62.66.98.94.13.1.27.2.39.31.06.13.11.26.17.4.14.36.29.74.56,1.03.64.7,1.33,1.38,1.99,2.03.45.44.9.89,1.34,1.34.19.19.34.43.51.69.05.08.1.16.16.24-.92.46-1.84.33-2.73.2h-.09c-2.7-.39-4.91-1.29-6.76-2.75-.54-.43-1.18-.72-1.8-1.01-.38-.18-.77-.36-1.13-.57-.49-.28-.9-.62-1.2-.98-.82-1.01-1.63-2.06-2.42-3.07Zm13.48,4.15c-.39-.49-.82-.95-1.24-1.4-.16-.18-.33-.35-.49-.53l-1.62-2.4.03-.04c1.12,1.04,2.48,1.21,3.8,1.38.3.04.6.08.9.12,2.46.4,3.96,1.33,4.85,3.03.26.49.65.9,1.1,1.38.15.16.3.32.46.5-1.5.25-2.69.44-3.87-.38-.59-.41-1.37-.69-2.07-.75-.86-.07-1.4-.34-1.86-.91Zm-53.3-47.86l1.14.58c.08.07.15.15.23.23.24.25.49.52.81.64.77.28,1.09.83,1.06,1.78-.05,1.52-.13,3.04-.21,4.64-.03.56-.06,1.13-.09,1.71l-5.7-3.26-.88-1.38-.91.25c-.25-.38-.5-.76-.76-1.14-.67-1.02-1.36-2.07-2.11-3.06-.42-.55-.93-1.03-1.43-1.49-.22-.21-.45-.41-.66-.63l-.05.04-1.66-2.08c-.09-.15-.18-.31-.27-.46-.27-.44-.54-.9-.77-1.37-.26-.52-.48-1.06-.7-1.59-.1-.24-.2-.48-.3-.71l-.08-.18-.66.26.69,2.15-3.86-1.53c-.29-.47-.79-.61-1.25-.74-.18-.05-.35-.09-.51-.16l-1.76-.72,3.8,2.55-.1-.47c-.01-.06-.03-.12-.05-.17l.37.31c.11.09.21.19.31.29.24.24.49.48.8.62.17.07.34.15.52.22,1.08.46,2.1.88,2.83,1.83.14.18.38.22.61.25.08.01.16.03.24.05.11.9.75,1.34,1.37,1.77l.23.16.77,1.11c.77,1.1,1.53,2.2,2.29,3.31.13.19.23.42.35.68.03.06.06.13.09.2l-.45.05-.77-1.11-2.98-.53-2.38-1.41.13.47c.26.96,1.03,1.11,1.7,1.24.16.03.31.06.46.1.04.02.07.05.11.07.16.11.32.21.5.28.6.2.77.57.58,1.23h-.07c-.88.18-1.37.79-1.84,1.38-.13.17-.26.33-.41.49l.27.28,1.88-1.58-.08.28.57-.65c.43-.49.86-.37,1.42-.22.25.07.5.12.77.13l1.65,1.06s0,.03,0,.05c0,.04-.02.09,0,.09h0l-.51.46c-1,.88-2.03,1.8-3.07,2.67-.56.47-1.14.93-1.71,1.39-.49.39-.98.78-1.47,1.18-.13.11-.19.28-.23.43l-.04.05c-.53.04-1.09.35-1.11,1.43v.57s1.25-1.55,1.25-1.55l.09.09.12-.27s0-.02.01-.03l1.87-1.25c.33,2.37-.15,4.5-1.49,6.51-.54.81-1.09.89-2.54.31.01-.12.02-.24.03-.37.03-.4.07-.81.13-1.22.06-.39.14-.77.25-1.25.05-.24.11-.5.17-.8l.09-.43-.38.22c-.31.18-.6.33-.86.47-.53.27-.98.51-1.36.84-1.66,1.45-3.56,1.57-5.9,1.28.04-.25.08-.5.11-.75.21-1.49.4-2.89,2.03-3.63l-.13-.37c-.23.06-.47.11-.71.16-.52.11-1.07.22-1.57.42-2.14.85-4.2.4-6.61-.56.04-.06.09-.13.13-.19.18-.26.35-.5.56-.67l.39-.3c.98-.77,2-1.57,3.07-2.21,1.88-1.14,6-.45,7.48,1.24.06.07.06.28.06.44,0,.11,0,.22,0,.33l.03.19.19-.02c.73-.08,1.56-.16,1.85-1.15l.05-.18-.17-.06c-.24-.08-.49-.15-.74-.22-.54-.15-1.06-.29-1.45-.58-1.15-.86-2.41-1.25-3.87-1.18-.21.01-.43,0-.64,0-.4,0-.82-.01-1.22.07-1.6.31-2.65-.51-3.87-1.45-.26-.2-.53-.41-.81-.61.08-.03.16-.06.23-.09.28-.1.48-.18.67-.19,2.09-.12,3.69.05,5.2.55,1.52.5,3.17.67,4.63.81,1.13.11,1.72-.26,1.98-1.25.2-.76-.11-1.74-1.09-2.14-1.36-.56-2.75-1-4.14-1.33-.84-.2-1.73-.23-2.59-.25h-.44c-1.99-.09-3.86-.67-5.56-1.76-.57-.36-1.1-.79-1.71-1.29-.22-.18-.45-.37-.7-.56l3.83-1.16v-.15c-.01-1-.55-1.52-1.03-1.98-.08-.08-.16-.16-.24-.24-1.63-1.69-2.56-3.27-2.96-5.09h1.08l.08.24c.25.78.9.95,1.48,1.1.08.02.16.04.23.06l1.23.34-3.06-2-.38-.66c.19,0,.37-.01.55-.02.53-.02.98-.04,1.4.04,1.66.31,3.43.66,5.15,1.14.54.15,1.03.45,1.56.77.24.14.48.29.72.42l.61.33-.34-.6c-.07-.12-.12-.24-.18-.37-.14-.3-.29-.62-.55-.82-.75-.58-.74-1.31-.73-2.33v-.05c3.71.56,6.33,2.01,8.46,4.67l.28.35.06-.45c.03-.24.07-.44.11-.61.07-.33.12-.58.05-.81-.13-.45-.36-.94-.68-1.4-.65-.94-.65-1.93-.43-3.1,2.11.67,3.73,1.62,5.1,3,1.64,1.66,2.75,3.7,3.82,5.68.33.6.65,1.2.99,1.79.16.27.21.62.26.98.04.24.07.48.14.71.03.11.06.23.09.35.13.55.29,1.22,1.08,1.42-.08,1.35.48,2.49,1.03,3.59.17.34.34.69.49,1.04h0s-.09.08-.09.08l.1.09v.34s.03-.02.03-.02c.03.71.3,1.36.84,1.9l.29.29.04-.41c.09-.84-.17-1.58-.77-2.21l-.02-.04v-.04s-.02-.02-.02-.02c0-.02-.01-.04-.02-.05-.1-1.61-.76-3.06-1.4-4.46l-.08-.17.21-.2-.32-.04-.07-.14s0,0,0,0c.02,0,.09-.02.25.02.66.16,1.32.34,1.98.52l.99.27Zm-35.01,105.9c-.09.25-.16.45-.28.61-1.39,1.86-2.83,3.77-4.9,4.94-.75.43-1.7.63-2.4.51-1.59-.26-3.19-.69-4.73-1.11-.4-.11-.81-.22-1.21-.32-.11-.03-.23-.15-.35-.28-.02-.02-.03-.03-.05-.05,3.87-2.72,8.33-4.14,13.99-4.44-.02.05-.04.1-.05.15Zm-13.25-5.25l-.29.07h-.05c.11-.04.22-.07.34-.09v.02Z"></path><path class="uuid-066eeaa4-d783-461e-b9bc-6a7e06d7f4f2" d="m28.59,130.67c-4.09-.8-10.77-.89-12.96-.37l-.89.21-.02-.28-1.95.2.07.57h1.94l-.03-.38,1.37.09c.25.02.46.03.67.05l6.48.33h.08c.14,0,.36.02.4.08.01.02.01.05,0,.11h0s-.31.04-.31.04l.16.17c-.34.22-.69.44-1.03.66l-.2.13.64.67.87-1.15.1.11.09-.24h0c.25-.02.5-.04.75-.06.75-.06,1.53-.12,2.3-.21.36-.04.71-.13,1.05-.22.15-.04.3-.08.46-.11l.91-.21-.91-.18Z"></path><polygon class="uuid-066eeaa4-d783-461e-b9bc-6a7e06d7f4f2" points="7.05 131.1 7.13 131.74 10.53 131.31 10.45 130.64 7.05 131.1"></polygon><polygon class="uuid-066eeaa4-d783-461e-b9bc-6a7e06d7f4f2" points="36.66 124.01 39.39 125.52 39.75 124.82 36.98 123.4 36.66 124.01"></polygon><polygon class="uuid-066eeaa4-d783-461e-b9bc-6a7e06d7f4f2" points="34.34 136.16 33.87 135.6 32.38 136.84 32.94 137.42 34.34 136.16"></polygon><polygon class="uuid-066eeaa4-d783-461e-b9bc-6a7e06d7f4f2" points="29.93 140.8 31.14 139.26 30.63 138.83 29.14 139.99 29.93 140.8"></polygon><path class="uuid-066eeaa4-d783-461e-b9bc-6a7e06d7f4f2" d="m40.55,125.53l-.51.06,2.34,1.66-.1-.49c-.25-1.22-.98-1.32-1.73-1.23Z"></path><polygon class="uuid-066eeaa4-d783-461e-b9bc-6a7e06d7f4f2" points="37.21 126.22 38.62 126.78 38.87 126.2 37.49 125.55 37.21 126.22"></polygon><path class="uuid-066eeaa4-d783-461e-b9bc-6a7e06d7f4f2" d="m74.57,46.06c1.45-.81,2.29-2.2,2.97-3.45l.59-1.09-4.24,4.04.55.57.13-.07Z"></path><path class="uuid-066eeaa4-d783-461e-b9bc-6a7e06d7f4f2" d="m92.22,27.91c.6-.13.87-.58,1.1-.99.08-.14.15-.29.25-.41l-.3-.25-1.76,1.74.43-.03-1.53,1.34v-1.81l-1.55,4.03.72.37,2.64-3.99Z"></path><path class="uuid-066eeaa4-d783-461e-b9bc-6a7e06d7f4f2" d="m88.32,30.98l.36-4.83-.41.58c-1.43,2.02-1.44,2.13-.27,3.8l.32.45Z"></path><polygon class="uuid-066eeaa4-d783-461e-b9bc-6a7e06d7f4f2" points="76.73 41.88 76.37 41.39 75.29 42.12 75.68 42.68 76.73 41.88"></polygon><path class="uuid-066eeaa4-d783-461e-b9bc-6a7e06d7f4f2" d="m77.27,41.14c.8,0,1.21-.39,1.38-1.31l.11-.6-1.99,1.9h.49s0,0,.01,0Z"></path><path class="uuid-066eeaa4-d783-461e-b9bc-6a7e06d7f4f2" d="m42,88.25l.51.16c.28.09.53.13.77.13,1.06,0,1.75-.78,2.42-1.55l.29-.33h-3.99l2.06.73-2.06.85Z"></path><path class="uuid-066eeaa4-d783-461e-b9bc-6a7e06d7f4f2" d="m33.58,98.97c1.11,0,1.98-.39,2.58-1.12l.08-.05h0c1.24.03,1.58-.19,2.04-1.31l.03-.03s0,0,.01-.01c1.07-.17,1.43-.45,1.65-1.31,0,0,.01,0,.02-.02l.05-.04c.87-.16.94-.26,1.43-1.26l.41-.84-2,1.72-.17-.17-.05.22-.24.04.16.16c-.22.18-.44.35-.67.53-.23.18-.46.37-.7.56l-.12-.13-.11.28s0,.01,0,.02c-.6.39-1.2.77-1.8,1.16l-.08-.07-.13.17s-.01.02-.02.02l-3.29,1.48h.93Z"></path><polygon class="uuid-066eeaa4-d783-461e-b9bc-6a7e06d7f4f2" points="29.2 99.88 29.3 100.65 30.88 100.19 30.71 99.55 29.2 99.88"></polygon><path class="uuid-066eeaa4-d783-461e-b9bc-6a7e06d7f4f2" d="m30.83,95.51l.22-.09v-.06s2.4-2.16,2.4-2.16l-.83.25c-.82.24-1.44.72-1.88,1.11-.12.1-.12.26-.11.43-.77-.24-1.28.27-1.69.83l-.38.52,2.27-.84h0Z"></path><path class="uuid-066eeaa4-d783-461e-b9bc-6a7e06d7f4f2" d="m45.5,152.41c.2-.49.4-.98.6-1.46l.23-.6-.55.38c-.44.3-.89.61-.97,1.09-.03.2.02.41.14.63-.92.28-1.17,1.05-1.38,1.74-.07.23-.14.45-.23.65l-.41.94.73-.72c.4-.39.7-.86.98-1.31l.11-.18c.14-.21.28-.41.43-.61l.13-.18.24.04-2.91,6.95,1.05-1.52c1.24-1.78,2.12-3.68,2.64-5.67l.14-.02-.13-.02c.11-.44.22-.88.29-1.32l.3-1.73-1.24,2.95-.21-.03Z"></path><path class="uuid-066eeaa4-d783-461e-b9bc-6a7e06d7f4f2" d="m58.57,21.96l-1.35-2.7-.04.75c-.04.84.3,1.53,1.01,2.13.1.74.63,1.14,1.1,1.5.09.07.18.14.27.21.2.8.74,1.28,1.64,1.43l.65.11-2-1.83-1.27-1.59Z"></path><polygon class="uuid-066eeaa4-d783-461e-b9bc-6a7e06d7f4f2" points="72.51 21.64 72.95 22.14 73.91 21.13 73.52 20.72 72.51 21.64"></polygon><polygon class="uuid-066eeaa4-d783-461e-b9bc-6a7e06d7f4f2" points="103.54 68.52 101.61 68.97 101.76 69.6 105 68.86 104.96 68.28 102.35 67.15 103.54 68.52"></polygon><polygon class="uuid-066eeaa4-d783-461e-b9bc-6a7e06d7f4f2" points="120.24 52.04 119.88 51.46 118.46 52.24 118.75 52.78 120.24 52.04"></polygon><polygon class="uuid-066eeaa4-d783-461e-b9bc-6a7e06d7f4f2" points="118.28 56.26 118.68 56.85 120.15 55.94 119.76 55.34 118.28 56.26"></polygon><polygon class="uuid-066eeaa4-d783-461e-b9bc-6a7e06d7f4f2" points="119.1 54.16 118.69 53.54 117.38 54.46 117.75 55.01 119.1 54.16"></polygon><polygon class="uuid-066eeaa4-d783-461e-b9bc-6a7e06d7f4f2" points="120.16 53.64 120.9 52.79 120.38 52.36 119.68 53.23 120.16 53.64"></polygon><path class="uuid-066eeaa4-d783-461e-b9bc-6a7e06d7f4f2" d="m57.32,32.88l-.02.13c0,.05-.02.11-.04.17-.04.17-.09.35-.02.52.4.86.83,1.73,1.24,2.57l.48.98.58-.27-1.62-4.24-.61.14Z"></path><polygon class="uuid-066eeaa4-d783-461e-b9bc-6a7e06d7f4f2" points="55.54 29.01 55.81 31.18 55.87 31.37 56.6 31.29 56.47 28.95 55.54 29.01"></polygon><polygon class="uuid-066eeaa4-d783-461e-b9bc-6a7e06d7f4f2" points="43.21 140.72 42.63 140.44 41.81 141.88 42.52 142.29 43.21 140.72"></polygon><polygon class="uuid-066eeaa4-d783-461e-b9bc-6a7e06d7f4f2" points="41.48 143.91 40.89 143.6 40.3 144.8 40.85 145.09 41.48 143.91"></polygon><path class="uuid-066eeaa4-d783-461e-b9bc-6a7e06d7f4f2" d="m100.88,141.19c-.18-.27-.36-.55-.56-.81-.21-.27-.43-.52-.65-.77-.1-.11-.19-.21-.28-.32l-.3.25,1.64,2.15c.33.72.78,1.7,1.99,1.83l.58.07-2.22-2.09c-.07-.1-.13-.2-.2-.3Z"></path><polygon class="uuid-066eeaa4-d783-461e-b9bc-6a7e06d7f4f2" points="98.01 145.62 98.81 147.27 99.49 146.92 98.58 145.32 98.01 145.62"></polygon><path class="uuid-066eeaa4-d783-461e-b9bc-6a7e06d7f4f2" d="m107.68,82.65c.06.02.12.04.18.04.26,0,.59-.19,1.22-.55l.23-.13-1.62-1.56-.15-.11-.36.32c-.26-.22-.54-.44-.82-.63-.19-.13-.4-.19-.6-.26-.02,0-.05-.02-.07-.02.26-.88-.49-1.35-.87-1.58l-.58-.36.99,1.99-.14.14.29.11s0,0,.01,0l.08.06h0s1.71,1.56,1.71,1.56c.16.57.25.87.51.98Z"></path><path class="uuid-066eeaa4-d783-461e-b9bc-6a7e06d7f4f2" d="m42.81,33.36c.06.09.12.19.17.3.14.26.28.52.53.66.77.44,1.58.84,2.36,1.22.3.15.59.29.89.44l.2-.34-4.69-3.1.55.81Z"></path><path class="uuid-066eeaa4-d783-461e-b9bc-6a7e06d7f4f2" d="m37.84,28.56l-1.09-.4,3.63,2.99-.19-.63c-.38-1.23-1.47-1.63-2.35-1.96Z"></path><polygon class="uuid-066eeaa4-d783-461e-b9bc-6a7e06d7f4f2" points="42.91 36.39 44.21 36.73 44.42 36.07 43.28 35.58 42.91 36.39"></polygon><path class="uuid-066eeaa4-d783-461e-b9bc-6a7e06d7f4f2" d="m45.74,64.26c.1.02.2.04.3.06,1.26.33,2.12.86,2.77,1.71.78,1.01,1.6,2.01,2.39,2.98.34.42.68.83,1.02,1.25l.64.8-.3-.98c-.03-.09-.05-.19-.07-.28-.05-.24-.11-.48-.26-.68-.26-.34-.55-.66-.82-.97-.37-.41-.74-.84-1.06-1.3-.23-.33-.37-.73-.52-1.15-.06-.18-.13-.35-.2-.53l.11-1.28c.17-1.88-.76-7.36-1.58-8.5l-.51-.71,1.91,10.37h0c-.19-.19-.39-.38-.6-.57-.54-.51-1.1-1.04-1.69-1.54-.21-.18-.47-.3-.72-.41-.11-.05-.21-.09-.31-.14l-.67-.34,1.03,1.55-2.16-.82v.3c.04.95.77,1.09,1.31,1.19Z"></path><path class="uuid-066eeaa4-d783-461e-b9bc-6a7e06d7f4f2" d="m53.92,69l-.13-.96c-.1-.72-.05-1.47-.02-2.19.06-1.04.12-2.11-.21-3.17l-.32-1.03-.06,1.08c-.02.45-.09.92-.16,1.38-.19,1.34-.39,2.72.4,4.06l.49.83Z"></path><polygon class="uuid-066eeaa4-d783-461e-b9bc-6a7e06d7f4f2" points="52.55 65.52 52.55 62.03 51.91 62 51.68 65.35 51.69 65.57 52.55 65.52"></polygon><polygon class="uuid-066eeaa4-d783-461e-b9bc-6a7e06d7f4f2" points="110.11 53.81 109.51 53.59 108.84 55.22 109.52 55.47 110.11 53.81"></polygon><path class="uuid-066eeaa4-d783-461e-b9bc-6a7e06d7f4f2" d="m111.08,54.45l-.74-.23-.14,1-.02-.02-.06.31-.04.08.02.03-.02.1c-.04.09-.09.19-.14.28-.36.74-.74,1.5-.72,2.39v.15s.69.18.69.18l.52-2.75.06.05.05-.33.05-.11-.03-.03v-.03s.53-1.05.53-1.05Z"></path><polygon class="uuid-066eeaa4-d783-461e-b9bc-6a7e06d7f4f2" points="51.15 33.55 48.85 32.62 48.59 33.28 50.9 34.18 51.15 33.55"></polygon></g></svg> 