<?xml version="1.0" encoding="UTF-8"?> <svg xmlns="http://www.w3.org/2000/svg" id="uuid-6cd381ca-5ae9-4f2e-9dd6-d93926df81c0" viewBox="0 0 782.81 655.29"><defs><style>.uuid-6b21f7ce-a406-4635-a394-33a992bfea5b{fill:#245e02;}.uuid-6b21f7ce-a406-4635-a394-33a992bfea5b,.uuid-ffc9f760-2c1a-4dee-9736-c217348ee759{stroke-width:0px;}.uuid-ffc9f760-2c1a-4dee-9736-c217348ee759{fill:#e1d0b6;}</style></defs><g id="uuid-f4a6d353-b644-4e95-b0b6-0d953d55ee17"><path class="uuid-ffc9f760-2c1a-4dee-9736-c217348ee759" d="m72.53,467.67c3.68-21.61,9.95-37.13,18.82-46.57,8.37-9.06,19.37-13.59,33.03-13.59,8.81,0,16.57,3.14,23.31,9.43,6.72,6.29,11.67,13.27,14.81,20.95,1,2.52,2.15,5.2,3.44,8.07,1.29,2.86,2.22,5.58,2.79,8.16-1.51.75-6.65,2.62-15.43,5.61-8.78,2.99-13.92,4.48-15.43,4.48-.19-1.32-.96-3.63-2.31-6.94-1.35-3.3-2.34-5.61-2.97-6.93-.94-1.82-2.03-3.99-3.25-6.51-1.23-2.52-3.06-3.78-5.52-3.78-4.66,0-7.77,1.39-9.34,4.15-1.95,3.33-3.37,6.23-4.25,8.68-7.36,20.38-10.99,46.47-10.9,78.27.1,31.8,3.7,57.92,10.81,78.36,3.02,8.81,8.33,13.21,15.94,13.21,6.61,0,9.48-7.63,8.63-22.88-.85-15.25-1.49-25.81-1.93-31.66l-16.32-.57v-32.55c3.33,0,5.71.1,7.12.28,1.42.19,2.98.28,4.67.28,2.08,0,4.15-.02,6.23-.05,2.08-.03,4.16-.05,6.23-.05,1.45.07,2.42.17,2.93.33.5.16,1.38.27,2.64.33h18.59c0,14.53.69,32.66,2.08,54.4,1.39,21.73-1.95,38.04-10,48.92-7.3,9.81-17.21,15.07-29.72,15.76h-5.67c-5.98-.25-11.73-1.79-17.26-4.62-3.78-1.89-7.8-4.97-12.08-9.24-3.46-3.4-6.36-7.6-8.68-12.6-2.33-5-4.34-10.14-6.04-15.43-4.72-14.15-7.64-29.05-8.77-44.68-1.14-15.63-1.7-31.53-1.7-47.7,0-13.97,1.84-31.75,5.52-53.36Z"></path><path class="uuid-ffc9f760-2c1a-4dee-9736-c217348ee759" d="m179.74,419.73c.03-.16,1.14-.24,3.35-.24,12.01,0,23.01.77,32.98,2.31,9.97,1.54,20.05,5.55,30.24,12.03,8.5,5.41,15.88,13.21,22.18,23.4,5.78,9.62,8.68,21.2,8.68,34.72,0,10.82-3.7,21.28-11.09,31.38-7.39,10.1-15.65,17.88-24.77,23.35-1.38.88-2.74,1.65-4.05,2.31-1.32.66-2.71,1.37-4.15,2.12l5.19,11.32c.95,1.89,3.35,6.9,7.22,15.05,3.87,8.15,7.95,16.81,12.22,26,4.27,9.18,8.18,17.56,11.7,25.14,3.52,7.58,5.38,11.71,5.57,12.41l-28.69,13.12-32.74-69.82c-.51-1.13-1.26-2.77-2.27-4.91-.56-1.13-.97-1.98-1.23-2.55l-.57-1.13-.38-.76c-.06-.13-.12-.22-.19-.28,0,13.4.1,26.54.28,39.44.19,12.9.28,25.89.28,38.97h-31.99c0-38.87.18-77.33.52-115.35.35-38.02-.14-77.29-1.46-117.81,2.08,0,3.13-.08,3.16-.23Zm42.89,100.96c6.03-3.55,10.63-6.97,13.77-10.24.13-.12.28-.3.48-.52.19-.22.38-.43.57-.61,9.37-10.13,10.82-21.71,4.34-34.73-3.59-6.98-8.32-12-14.21-15.05-5.88-3.05-12.47-5.43-19.77-7.12,0,12.64.09,25.04.28,37.18.19,12.14.28,24.41.28,36.8,3.46-.25,8.21-2.15,14.25-5.71Z"></path><path class="uuid-ffc9f760-2c1a-4dee-9736-c217348ee759" d="m284.45,528.86v-.94c0-14.91,2.16-31.55,6.47-49.92,4.31-18.37,12.31-32.77,24.01-43.21,3.9-3.52,8.27-6.04,13.12-7.55,6.03-1.89,11.73-2.83,17.08-2.83,10.19,0,18.5,4.45,24.91,13.35,6.41,8.9,11.3,17.41,14.63,25.52,5.16,13.02,8.47,25.87,9.95,38.55,1.48,12.67,2.22,26.56,2.22,41.66s-1.88,30.08-5.66,44.96c-3.77,14.88-9.19,27.63-16.23,38.26-1.45,2.2-2.96,4.24-4.53,6.13l-4.53,5.38c-3.65,3.65-7.52,6.86-11.6,9.63-5.47,3.52-12.05,5.28-19.72,5.28-5.09,0-9.94-1.79-14.53-5.38-4.59-3.59-8.02-6.89-10.28-9.91-6.17-7.86-10.93-17-14.3-27.41-3.36-10.41-5.89-20.68-7.6-30.81-1.57-9.25-2.53-17.02-2.88-23.31-.35-6.29-.52-13.56-.52-21.8v-5.66Zm36.85,53.03c3.05,20.26,8.57,33.06,16.56,38.4,3.96-.94,7.83-5.31,11.6-13.12,3.77-7.8,6.42-13.81,7.93-18.02,5.72-15.85,8.11-35.73,7.17-59.63-.95-23.9-4.84-43.53-11.71-58.88-.94-2.08-2.33-4.64-4.14-7.69-1.83-3.05-3.59-5.14-5.29-6.27-5.6.5-10.51,4.28-14.72,11.32-4.97,8.18-8.21,18.95-9.72,32.32-1.51,13.37-2.27,25.15-2.27,35.34s1.52,25.98,4.58,46.23Z"></path><path class="uuid-ffc9f760-2c1a-4dee-9736-c217348ee759" d="m420.21,423.84c4.94-.19,10.21-.28,15.81-.28,0,2.08.09,3.74.28,5,.19,1.26.28,2.89.28,4.91l.56,20.47c-.06,13.46.21,26.91.81,40.34.6,13.43,1.06,26.84,1.36,40.24,0,2.08.1,3.7.28,4.86.19,1.16.29,2.69.29,4.58v10.47c0,1.82.09,3.34.28,4.53.19,1.19.28,2.8.28,4.81-.06,3.71.02,7.11.24,10.19.22,3.08.33,6.32.33,9.72l26.13-53.22c.82,3.71,4.8,12,11.94,24.86,7.15,12.86,12.03,21.53,14.67,26l1.51-39.06c0-3.65.09-6.96.28-9.95.19-2.99.28-6.31.28-9.96,0-3.27-.01-6.56-.05-9.86-.03-3.3-.05-6.65-.05-10.05,0-1.76.11-3.32.33-4.67.22-1.35.33-3.07.33-5.14-.06-4.47-.1-9.44-.1-14.91s.2-10.29.57-14.44c.25-2.95.34-6.31.24-10.05-.1-3.74-.14-7.19-.14-10.33,0-3.59.08-6.83.24-9.72.15-2.89.23-6.1.23-9.62l31.61.57c0,19.44-.28,38.7-.85,57.8-.57,19.09-.85,38.29-.85,57.6,0,11.76-.19,23.73-.57,35.9-.38,12.17-.53,24.33-.47,36.47,0,2.58-.09,4.84-.28,6.79-.19,1.95-.28,4.28-.28,6.98v22.08c-.06,1.45-.17,2.58-.33,3.39-.16.82-.24,1.89-.24,3.21-2.01,0-7.5-.06-16.46-.19-8.97-.13-14.02-.06-15.14.19-1.38-2.64-5.8-11.69-13.26-27.13-7.45-15.44-11.33-23.88-11.65-25.33h-1.13c-.5,2.26-1.35,4.42-2.55,6.46-1.2,2.04-2.2,4.1-3.02,6.18-1.25,3.02-4.33,9.39-9.2,19.11-4.87,9.72-7.5,15.52-7.88,17.41-.75-.12-1.26-.19-1.51-.19l-32.27,1.32-1.13-28.78c-.19-2.26-.2-4.7-.04-7.31.16-2.61.17-5.14.04-7.6l-1.7-41.89c-.57-18.93-1.15-37.88-1.75-56.85-.6-18.96-1.12-37.91-1.55-56.85,0-5.1-.1-9.88-.29-14.34-.19-4.47-.28-9.28-.28-14.44,5.6,0,10.87-.09,15.8-.28Z"></path><path class="uuid-ffc9f760-2c1a-4dee-9736-c217348ee759" d="m633.72,438.08c1.26.25,1.86,2.04,1.79,5.38-.12,7.92-.06,15.65.19,23.17.25,7.52.38,15.05.38,22.6,0,9,.1,17.77.28,26.33.19,8.56.28,17.36.28,26.42,0,2.2.08,4.31.23,6.32.16,2.01.24,4.25.24,6.7l.66,39.25c0,8.93.08,17.61.24,26.04.16,8.43.24,17.17.24,26.23-5.41,0-10.57.08-15.48.24-4.91.16-10.1.24-15.56.24l-28.02-74.83c-2.14-5.41-3.71-9.66-4.72-12.74-.37-1.01-1.1-3.05-2.17-6.13-1.07-3.08-1.98-5.03-2.74-5.85,0,17.61.19,34.96.57,52.04.38,17.08.57,34.39.57,51.94h-31.04l-1.04-48.59c-.38-3.27-.48-7.34-.32-12.22.16-4.88.24-9.11.24-12.69,0-4.34-.1-8.34-.29-11.98-.19-3.65-.28-7.64-.28-11.98,0-16.48-.17-32.77-.52-48.88-.35-16.1-.52-32.46-.52-49.07,5.28,0,10.41-.09,15.38-.28,4.97-.19,10.19-.28,15.66-.28l9.91,23.4,27.74,73.5c0-19-.28-37.95-.85-56.85-.57-18.9-.86-37.88-.86-56.94l29.82-.47Z"></path><path class="uuid-ffc9f760-2c1a-4dee-9736-c217348ee759" d="m130.06,131.42c.42,1.2.64,2.44.64,3.72,0,.6-.1,1.52-.32,2.76-.21,1.24-.62,2.88-1.22,4.94-.85,2.65-1.33,5.21-1.41,7.7.17,2.73.6,5.56,1.28,8.46.59,2.74,1.03,5.47,1.29,8.21v2.57c0,2.65-.09,5.3-.26,7.95-.17,2.31-.26,4.62-.26,6.93v2.31l-.38.39v.13l-.12.13c-.09.09-.13.17-.13.25l-.13.13c-.18.26-.3.47-.38.64l-.26.26v.13l-.26.26c-.17.34-.34.64-.51.9,1.88,1.37,2.82,3.08,2.82,5.13,0,.34-.04.69-.12,1.03.42,3.76.64,7.87.64,12.31,0,3.42-.19,8.3-.58,14.62-.38,6.33-2.29,13.02-5.71,20.07-3.42,7.05-8.98,11.27-16.67,12.64-1.2.17-2.36.25-3.47.25-10.68,0-17.48-5.94-20.39-17.83-.43-2.22-.64-4.53-.64-6.93,0-1.54.09-3.08.26-4.62.17-1.62.25-3.21.25-4.75s-.09-3.03-.25-4.49c-.34-2.31-.85-4.66-1.54-7.05-.68-2.31-1.2-4.7-1.54-7.18-.09-1.45-.12-2.9-.12-4.36,0-5.05.55-10.22,1.66-15.52,1.11-5.56,1.75-11.03,1.92-16.42.08-13.59,1.45-27.06,4.1-40.4-2.23.34-4.49.77-6.8,1.28-2.91.77-5.85,1.33-8.85,1.67-.85.08-1.75.13-2.69.13-1.97,0-3.94-.26-5.91-.77-4.87-1.45-7.82-3.63-8.84-6.54-.86-2.39-1.29-5.17-1.29-8.34,0-.77.04-1.58.12-2.44v-2.69c0-4.02,1.22-8.04,3.66-12.06,2.43-4.02,5.49-7.86,9.17-11.54,3.67-3.67,7.5-7.1,11.47-10.26,3.97-3.16,7.63-5.94,10.97-8.34,5.9-4.44,11.58-6.67,17.05-6.67,1.03,0,3.34.28,6.93.83,3.59.56,7.09,5.32,10.52,14.3,1.45,4.44,2.3,8.94,2.56,13.47.18,2.74.26,5.51.26,8.33,0,1.79-.04,3.63-.13,5.52-.09,1.62-.13,3.25-.13,4.87,0,3.33.15,7.01.45,11.03.3,4.02,1.39,8.34,3.28,12.95Zm-38.73-10.9c3.25-1.97,6.67-4.02,10.26-6.16l2.05-1.28c-2.82-.51-5.09-.77-6.8-.77-1.54,0-2.82.32-3.85.96-1.03.64-1.58,3.06-1.66,7.25Zm15.64-16.42c-1.45-.77-3.29-1.41-5.52-1.92-.94-.25-1.84-.38-2.69-.38-1.11,0-2.14.22-3.08.64.77,2.31,1.54,4.66,2.31,7.05,2.22-1.28,4.44-1.92,6.67-1.92.25,0,1.04.02,2.37.06,1.32.04,3.35.45,6.1,1.22-.69-.77-1.33-1.35-1.93-1.73-.6-.38-1.15-.66-1.67-.83-.43-.26-.85-.53-1.28-.83-.43-.3-.86-.75-1.29-1.35Zm-6.93,20.13c-.08.43-.13.86-.13,1.28,0,1.28.47,1.92,1.41,1.92s2.26-.55,3.97-1.67v-.39c0-1.45-.63-2.18-1.92-2.18-.77,0-1.89.34-3.34,1.02Zm2.31,33.99c.95,3.85,1.92,5.77,2.95,5.77.18,0,.64-.28,1.41-.83.78-.56,1.16-2.54,1.16-5.96-.86.17-1.67.34-2.44.51l-3.08.51Zm5.64-52.2c.08.17.12.3.12.38,0,.43-.21.64-.63.64-.52,0-1.12-.09-1.8-.26.34-.17.73-.3,1.16-.39.34-.17.73-.3,1.15-.38Zm.77,118.12l.13-.64c0-.68-.34-1.03-1.02-1.03-.52,0-1.25.21-2.19.64v.51c0,.68.34,1.03,1.03,1.03.52,0,1.2-.17,2.05-.51Zm-1.67-83.75l-.13.26c-.17.34-.26.6-.26.77s.04.34.13.51c.08-.59.17-1.11.25-1.54Zm2.44-13.59c.34.09.64.13.9.13,1.29,0,1.92-.64,1.92-1.92,0-1.03-.42-2.48-1.28-4.36-.34-.08-.64-.13-.9-.13-1.28,0-1.92.64-1.92,1.92,0,1.03.43,2.48,1.28,4.36Zm-1.15,11.93c.17.09.38.3.64.64,1.71-.6,2.56-1.2,2.56-1.79,0-.43-.34-.86-1.02-1.28l-.89.9-1.29,1.54Zm.38,62.84v.51c0,.68.34,1.02,1.03,1.02.52,0,1.2-.17,2.06-.51l.13-.64c0-.68-.34-1.03-1.03-1.03-.51,0-1.23.21-2.18.64Zm0,26.93v.64c0,1.97.38,3.29,1.15,3.98.52.43,1.07.64,1.67.64.26,0,.73-.1,1.41-.32.68-.21,1.2-.71,1.54-1.48.16-.34.25-.64.25-.9,0-.51-.32-1.07-.96-1.67-.64-.6-2.33-.9-5.07-.9Zm2.06-58.74c-.18-.09-.34-.13-.51-.13-.69,0-1.03.34-1.03,1.03,0,.51.16,1.24.51,2.18h.64c.69,0,1.03-.34,1.03-1.03,0-.51-.22-1.2-.64-2.05Zm1.02,16.54l1.29-.51c1.62-.6,3.33-1.2,5.12-1.79-1.97-.6-3.51-.9-4.62-.9-1.45,0-2.18.51-2.18,1.54,0,.51.12,1.07.38,1.67Z"></path><path class="uuid-ffc9f760-2c1a-4dee-9736-c217348ee759" d="m312.94,128.47c0,3.25.04,6.59.12,10.01.09,3.25.13,6.54.13,9.88,0,8.89-.3,18.92-.89,30.07-.6,11.16-2.63,22.53-6.09,34.12-3.47,11.58-9.23,21.46-17.31,29.62-8.08,8.17-19.39,13.49-33.92,15.97-3.68.6-7.36.9-11.03.9-7.35,0-15.58-1.43-24.69-4.29-9.11-2.87-17.76-8.02-25.97-15.46-10.69-10.09-17.57-21.59-20.65-34.5-2.91-12.23-4.36-25.05-4.36-38.47v-2.18c0-1.28-.04-2.61-.13-3.98-.16-3.5-.25-7.05-.25-10.64,0-10.09.66-21.2,1.99-33.35,1.33-12.14,5.79-23.89,13.41-35.27,3.15-4.36,6.75-7.7,10.76-10,4.03-2.31,8.47-4.36,13.34-6.16l1.02-.51c1.71-.68,3.34-1.45,4.88-2.31,2.74-1.54,5.64-2.69,8.72-3.46,1.54-1.62,3.42-2.52,5.64-2.69l3.08,2.56h2.05c2.65-.17,5.3-.26,7.95-.26,5.39,0,11.56.37,18.53,1.09,6.97.73,14.48,3.32,22.51,7.76,10.42,5.98,18.04,14.45,22.83,25.39,1.45,4.45,2.18,9.02,2.18,13.72v2.7c0,3.33.32,6.67.96,10,.64,3.33,2.38,6.58,5.2,9.74Zm-108.5-17.05v-3.08c-.6,0-.98.26-1.16.77-.09.26-.12.52-.12.77s.07.58.19.96c.13.39.49.58,1.1.58Zm35.26,107.86c5.13-1.71,10.13-3.89,15.01-6.54,4.87-2.65,8.8-6.37,11.79-11.16,1.45-2.48,2.27-4.49,2.44-6.03v-.77c0-1.45-.17-2.95-.51-4.49-.26-1.11-.48-2.44-.64-3.98-.17-2.05-.26-4.02-.26-5.9,0-2.82.21-5.47.64-7.95.26-1.97.47-4.06.64-6.28v-1.03c0-2.31-.26-4.49-.77-6.54-.52-2.48-.77-5.17-.77-8.08.17-3.25.6-6.41,1.28-9.49.77-3.25,1.16-6.58,1.16-10,0-1.11-.05-2.26-.13-3.46-.94-7.35-3.5-13.81-7.7-19.37-4.19-5.56-9.79-9.06-16.8-10.52-1.02-.17-1.96-.3-2.82-.39-2.74-.59-5.04-.9-6.92-.9-.43,0-1.26.06-2.5.19-1.24.13-3.52,1.17-6.86,3.14-7.01,4.45-11.88,10.05-14.62,16.8-1.53,3.59-2.6,7.44-3.21,11.54-.59,4.1-1.07,8.25-1.41,12.44-.34,3.85-.77,7.52-1.28,11.03-.43,3.17-.64,6.33-.64,9.49,0,2.82.26,6.48.77,10.97.51,4.49,1.37,9.64,2.56,15.45,1.79,8.55,5.15,14.9,10.07,19.05,4.92,4.15,11.01,7.85,18.28,11.09,1.02.6,2.09,1.15,3.2,1.67Zm-24.5,14.49c1.54.6,2.73.9,3.6.9,1.11,0,1.66-.51,1.66-1.54,0-.51-.12-1.15-.39-1.92-1.02-.26-1.88-.39-2.56-.39-1.71,0-2.56.6-2.56,1.79,0,.34.09.73.25,1.15Zm29.11,9.75v-3.08c-.51,0-.85.26-1.02.77-.09.25-.13.51-.13.77s.07.58.19.96c.13.38.45.58.96.58Zm21.55-9.1v-3.08c-.6,0-.98.26-1.16.77-.08.25-.12.51-.12.77s.06.58.19.96c.12.38.49.58,1.09.58Zm9.74,5.64c.6-1.45.9-2.61.9-3.46,0-1.2-.64-1.79-1.93-1.79-.43,0-.98.09-1.66.26-.18,1.02-.26,1.88-.26,2.56,0,1.79.59,2.69,1.8,2.69.34,0,.72-.09,1.15-.26Zm2.57-8.72v-3.08c-.6,0-.98.25-1.16.77-.08.26-.12.51-.12.77s.06.58.19.96c.13.38.49.58,1.09.58Zm9.23-3.08v-3.08c-.6,0-.99.26-1.15.77-.09.26-.13.51-.13.77s.07.58.19.96c.13.38.49.58,1.1.58Zm4.1-68.61l.13-.64c0-.68-.34-1.03-1.03-1.03-.51,0-1.24.21-2.18.64v.51c0,.69.34,1.03,1.03,1.03.51,0,1.2-.17,2.05-.51Zm-2.31-57.45v6.16c.85,0,1.45-.51,1.79-1.54.17-.51.26-1.02.26-1.54s-.14-1.15-.39-1.92c-.26-.77-.82-1.15-1.67-1.15Zm10.51,95.29v-3.08c-.6,0-.98.26-1.15.77-.09.26-.13.51-.13.77s.07.58.19.96c.13.39.49.58,1.09.58Z"></path><path class="uuid-ffc9f760-2c1a-4dee-9736-c217348ee759" d="m480.81,128.47c0,3.25.04,6.59.12,10.01.09,3.25.13,6.54.13,9.88,0,8.89-.3,18.92-.89,30.07-.6,11.16-2.63,22.53-6.09,34.12-3.47,11.58-9.23,21.46-17.31,29.62-8.08,8.17-19.39,13.49-33.92,15.97-3.68.6-7.36.9-11.03.9-7.35,0-15.58-1.43-24.69-4.29-9.11-2.87-17.76-8.02-25.97-15.46-10.69-10.09-17.57-21.59-20.65-34.5-2.91-12.23-4.36-25.05-4.36-38.47v-2.18c0-1.28-.04-2.61-.13-3.98-.16-3.5-.25-7.05-.25-10.64,0-10.09.66-21.2,1.99-33.35,1.33-12.14,5.79-23.89,13.41-35.27,3.15-4.36,6.75-7.7,10.77-10,4.02-2.31,8.47-4.36,13.34-6.16l1.02-.51c1.71-.68,3.34-1.45,4.88-2.31,2.74-1.54,5.64-2.69,8.72-3.46,1.54-1.62,3.42-2.52,5.64-2.69l3.08,2.56h2.05c2.65-.17,5.3-.26,7.95-.26,5.39,0,11.56.37,18.53,1.09,6.97.73,14.48,3.32,22.51,7.76,10.42,5.98,18.04,14.45,22.83,25.39,1.45,4.45,2.18,9.02,2.18,13.72v2.7c0,3.33.32,6.67.96,10,.64,3.33,2.38,6.58,5.2,9.74Zm-108.5-17.05v-3.08c-.6,0-.98.26-1.16.77-.09.26-.12.52-.12.77s.07.58.19.96c.13.39.49.58,1.1.58Zm35.26,107.86c5.13-1.71,10.13-3.89,15.01-6.54,4.87-2.65,8.8-6.37,11.79-11.16,1.45-2.48,2.27-4.49,2.44-6.03v-.77c0-1.45-.17-2.95-.5-4.49-.26-1.11-.48-2.44-.65-3.98-.17-2.05-.26-4.02-.26-5.9,0-2.82.21-5.47.64-7.95.26-1.97.47-4.06.64-6.28v-1.03c0-2.31-.26-4.49-.77-6.54-.52-2.48-.77-5.17-.77-8.08.17-3.25.59-6.41,1.28-9.49.77-3.25,1.16-6.58,1.16-10,0-1.11-.05-2.26-.13-3.46-.94-7.35-3.5-13.81-7.7-19.37-4.19-5.56-9.79-9.06-16.8-10.52-1.02-.17-1.96-.3-2.82-.39-2.74-.59-5.04-.9-6.92-.9-.43,0-1.26.06-2.5.19-1.24.13-3.52,1.17-6.86,3.14-7.01,4.45-11.88,10.05-14.62,16.8-1.54,3.59-2.61,7.44-3.21,11.54-.59,4.1-1.07,8.25-1.41,12.44-.34,3.85-.77,7.52-1.28,11.03-.43,3.17-.64,6.33-.64,9.49,0,2.82.26,6.48.77,10.97.51,4.49,1.36,9.64,2.56,15.45,1.79,8.55,5.15,14.9,10.07,19.05,4.91,4.15,11.01,7.85,18.28,11.09,1.02.6,2.09,1.15,3.2,1.67Zm-24.5,14.49c1.54.6,2.73.9,3.6.9,1.11,0,1.66-.51,1.66-1.54,0-.51-.12-1.15-.39-1.92-1.02-.26-1.88-.39-2.56-.39-1.72,0-2.57.6-2.57,1.79,0,.34.09.73.25,1.15Zm29.11,9.75v-3.08c-.51,0-.85.26-1.03.77-.09.25-.13.51-.13.77s.07.58.19.96c.13.38.45.58.96.58Zm21.55-9.1v-3.08c-.6,0-.98.26-1.16.77-.08.25-.12.51-.12.77s.06.58.19.96c.12.38.49.58,1.09.58Zm9.74,5.64c.6-1.45.9-2.61.9-3.46,0-1.2-.64-1.79-1.93-1.79-.43,0-.97.09-1.66.26-.18,1.02-.26,1.88-.26,2.56,0,1.79.59,2.69,1.79,2.69.34,0,.72-.09,1.15-.26Zm2.57-8.72v-3.08c-.6,0-.99.25-1.16.77-.08.26-.12.51-.12.77s.07.58.19.96c.13.38.49.58,1.09.58Zm9.23-3.08v-3.08c-.6,0-.98.26-1.15.77-.09.26-.13.51-.13.77s.07.58.19.96c.13.38.49.58,1.1.58Zm4.1-68.61l.13-.64c0-.68-.34-1.03-1.03-1.03-.51,0-1.24.21-2.18.64v.51c0,.69.34,1.03,1.03,1.03.51,0,1.19-.17,2.05-.51Zm-2.31-57.45v6.16c.85,0,1.45-.51,1.79-1.54.17-.51.26-1.02.26-1.54s-.14-1.15-.38-1.92c-.26-.77-.82-1.15-1.67-1.15Zm10.51,95.29v-3.08c-.6,0-.98.26-1.15.77-.09.26-.13.51-.13.77s.07.58.19.96c.13.39.49.58,1.09.58Z"></path><path class="uuid-ffc9f760-2c1a-4dee-9736-c217348ee759" d="m540.57,158.99c-1.97.34-3.85.51-5.64.51-5.56,0-10.65-1.77-15.27-5.32-4.62-3.55-8.29-8.78-11.03-15.71-2.74-6.92-4.36-14.15-4.87-21.67-.09-1.88-.13-3.72-.13-5.52,0-5.3.55-10.05,1.66-14.23,1.8-6.93,4.73-13.51,8.79-19.75,4.05-6.24,9-11.24,14.82-15.01,5.21-3.33,10.98-5,17.31-5,.85,0,1.71.04,2.56.13,4.45.51,8.42,2.12,11.93,4.81,3.5,2.7,6.79,5.71,9.88,9.04l2.95,2.95c4.52,4.45,7.48,9.23,8.84,14.36,1.03,3.85,1.54,8.08,1.54,12.7,0,1.46-.05,2.95-.13,4.49-.86,13.93-5.18,26.67-12.95,38.22-3.93,5.3-8.01,8.83-12.25,10.58-4.23,1.75-9.05,3.02-14.43,3.78-1.2.17-2.39.38-3.59.64Zm117.21-66.69c-4.87,11.2-10.58,21.93-17.12,32.19-6.53,10.26-13.4,20.39-20.59,30.39-6.58,9.23-12.93,18.58-19.04,28.02-6.11,9.45-11.52,19.22-16.22,29.3-2.14,4.87-4.96,10.56-8.47,17.06-3.51,6.5-7.57,12.42-12.18,17.76-4.62,5.34-9.67,8.66-15.13,9.94h-.52c-3.59.86-7.65,1.41-12.18,1.67h-1.41c-3.76,0-6.84-.94-9.24-2.82-2.73-3.08-4.14-7.14-4.23-12.18v-.9c0-4.79.6-8.8,1.8-12.05,1.02-2.31,2.43-4.49,4.23-6.54,1.54-1.8,2.86-3.72,3.97-5.77.94-2.39,1.71-4.79,2.3-7.18.52-2.31,1.24-4.57,2.18-6.8,3.51-7.27,7.99-14.11,13.46-20.52,1.97-2.56,3.85-5.04,5.64-7.44,14.36-20.26,28.17-40.87,41.42-61.82,6.07-9.32,12.31-18.55,18.72-27.7,1.03-1.37,2.02-2.78,2.96-4.23,1.2-1.79,2.44-3.76,3.71-5.9,2.05-3.42,4.31-6.75,6.8-10,2.48-3.25,5.3-5.73,8.46-7.44,2.73-1.28,5.99-1.93,9.74-1.93.52,0,2,.05,4.43.13,2.43.09,5.01,1.24,7.76,3.46,2.74,2.56,4.14,5.77,4.23,9.62v.77c0,3.59-.6,7.27-1.79,11.03-1.2,3.76-2.44,7.06-3.72,9.88Zm-126.06,36.29c-.09.51-.13.98-.13,1.41,0,1.2.47,1.79,1.41,1.79.86,0,2.18-.56,3.98-1.67v-.38c0-1.45-.64-2.18-1.93-2.18-.77,0-1.88.34-3.33,1.02Zm9.62-28.34c-2.48,1.03-3.72,2.87-3.72,5.52,0,.25.07,1.24.19,2.95.13,1.71.71,3.93,1.73,6.67.26-.6.55-1.2.89-1.8,1.37-2.14,2.31-4.31,2.83-6.54.17-.51.25-1.07.25-1.67,0-1.71-.72-3.42-2.18-5.13Zm.77,21.42c.69-.51,1.03-.94,1.03-1.28,0-.51-1.03-.9-3.08-1.15.34.43.68.81,1.02,1.15l1.03,1.28Zm9.75-39.76c-1.71.34-3.42.73-5.13,1.15.18.94.68,1.54,1.54,1.8.34.08.64.13.89.13.52,0,1.03-.13,1.54-.39.77-.43,1.15-1.2,1.15-2.31v-.38Zm3.33,9.74h-1.02c-1.46,0-2.18.51-2.18,1.54,0,.86.56,2.14,1.67,3.85h.12c1.63,0,2.44-.64,2.44-1.92,0-.85-.34-2.01-1.03-3.46Zm1.55,33.35v3.08c.59,0,.97-.26,1.15-.77.08-.26.12-.51.12-.77s-.06-.58-.19-.96c-.12-.39-.49-.58-1.08-.58Zm3.2,95.93c-.18,2.74-.26,4.7-.26,5.9,0,1.11.22,1.75.64,1.92.17.09.38.13.64.13.42,0,.98-.13,1.67-.39-.18-.51-.56-1.54-1.16-3.08-.43-1.2-.94-2.69-1.54-4.49Zm2.44-7.31h1.02c1.45,0,2.18-.47,2.18-1.41s-.6-2.26-1.8-3.98c-1.63,0-2.44.68-2.44,2.05,0,.85.34,1.97,1.03,3.33Zm11.28-6.16c.51-1.37.77-2.48.77-3.33,0-1.29-.6-1.93-1.79-1.93-.43,0-.98.09-1.67.26-.17,1.03-.25,1.88-.25,2.56,0,1.8.59,2.7,1.8,2.7.34,0,.73-.09,1.15-.26Zm3.59-31.04h6.16c0-.86-.52-1.45-1.54-1.79-.51-.17-1.03-.26-1.54-.26s-1.15.13-1.92.39c-.78.25-1.16.81-1.16,1.67Zm3.85,13.21c.77-.17,1.49-.34,2.18-.51.26-.08.52-.13.78-.13.08-.09.16-.13.25-.13h.13c.51-.17,1.07-.3,1.66-.38-.17-.94-.73-1.54-1.66-1.8-.34-.17-.68-.25-1.03-.25-.43,0-.86.17-1.29.51-.68.34-1.03,1.11-1.03,2.31v.38Zm22.96-43.09v-6.16c-.86,0-1.46.52-1.81,1.54-.08.51-.12,1.02-.12,1.54s.11,1.16.32,1.92c.22.77.75,1.15,1.61,1.15Zm68.48,21.42c5.65.52,9.58,3.25,11.8,8.21,2.22,4.7,3.34,10.3,3.34,16.8,0,.26-.03,2.16-.07,5.71-.04,3.55-.71,8.49-1.99,14.81-1.29,6.33-2.69,11.2-4.23,14.62-3.85,8.64-9.09,15.56-15.72,20.77-6.62,5.21-13.91,7.83-21.86,7.83h-.26c-7.87,0-15.69-3.38-23.47-10.13-5.9-5.64-9.7-12.48-11.41-20.52-1.03-4.53-1.55-9.06-1.55-13.59,0-3.76.52-8.7,1.55-14.81,1.02-6.11,3.24-12.59,6.66-19.43,2.14-4.1,5.17-8.44,9.11-13.02,3.93-4.57,8.12-7.67,12.56-9.3,1.2-.34,3.04-.53,5.52-.58,2.48-.04,4.94,0,7.38.13,2.43.13,4.29.28,5.58.45,3.85.51,6.69,1.45,8.53,2.82,1.84,1.37,3.74,3.33,5.7,5.9.86,1.02,1.8,2.14,2.82,3.33Zm-63.74-11.41c2.48-2.65,5-5.26,7.57-7.82-1.2.26-2.23.43-3.08.51-2.31.26-3.81.77-4.49,1.54-.34.43-.5,1.11-.5,2.05s.16,2.18.5,3.72Zm20.65-42.83v.51c0,.69.34,1.03,1.03,1.03.51,0,1.19-.17,2.06-.51l.12-.64c0-.68-.34-1.03-1.03-1.03-.51,0-1.24.21-2.18.64Zm12.57,98.88c-1.46.68-2.87,1.37-4.23,2.05l-4.36,2.05h5c1.54,0,2.86-.21,3.98-.64,1.11-.43,2.35-1.92,3.71-4.49,1.03-2.14,1.54-4.19,1.54-6.16,0-1.03-.28-2.52-.83-4.49-.56-1.97-2.25-4.02-5.07-6.16,0,2.4-.13,4.49-.39,6.28-.26,1.28-.38,2.61-.38,3.97,0,2.4.33,4.92,1.02,7.57Zm-8.47-10.78v3.08c.61,0,.99-.26,1.16-.77.09-.26.13-.52.13-.77s-.06-.58-.19-.96c-.13-.38-.49-.58-1.1-.58Zm25.02,27.7c.17-.85.25-1.67.25-2.44,0-1.54-.38-3.06-1.15-4.55-.77-1.49-2.56-2.24-5.38-2.24-.18.43-.26.85-.26,1.28,0,.94.49,1.99,1.48,3.14.98,1.15,2.16,2.29,3.52,3.4.69.51,1.2.98,1.55,1.41Z"></path><path class="uuid-6b21f7ce-a406-4635-a394-33a992bfea5b" d="m16.91,421.08c-2.75.06-5.42-.62-8.01-2.03-2.41-1.41-4.52-3.84-6.34-7.29-1.82-3.44-2.66-9.01-2.55-16.7.11-7.7,1.5-18.12,4.15-31.27,2.65-13.15,7.23-30.14,13.75-50.99.85-2.94,1.76-5.85,2.71-8.71.94-2.86,1.85-5.67,2.7-8.44-1.32-1.98-1.46-4.09-.41-6.31,1.76-3.34,3.44-6.58,5.02-9.72,1.58-3.15,3.07-6.2,4.48-9.16,2.24-6.45,4.41-12.46,6.49-18,2.08-5.54,3.9-10.34,5.47-14.4,1.56-4.06,3.29-8.49,5.22-13.3,1.4-2.96,2.64-5.23,3.7-6.81,1.06-1.58,2.6-2.48,4.61-2.71,2.56-.05,4.41.92,5.56,2.9.37.54.66,1.18.86,1.9.2.73.13,2.02-.19,3.85-.33,1.84-1.1,4.42-2.31,7.74-1.21,3.33-2.95,7.94-5.2,13.85-1.22,3.14-2.91,7.25-5.09,12.33-2.19,5.09-4.77,10.86-7.74,17.33-2.43,6.28-4.81,12.93-7.14,19.93-2.32,7.01-4.69,14.11-7.1,21.31-6.53,20.66-11,37.01-13.39,49.05-2.4,12.05-3.72,21.24-3.95,27.56-.23,6.32.13,10.44,1.09,12.34.95,1.9,1.61,2.94,1.99,3.12.18.17.83.3,1.93.37,1.1.07,2.78-.43,5.05-1.48,2.27-1.06,5.34-2.95,9.23-5.69,3.88-2.73,8.78-6.91,14.71-12.54,5.92-5.62,12.92-12.86,20.97-21.74,8.06-8.87,17.52-20.01,28.42-33.43,1.07-1.49,2.46-2.29,4.21-2.43,1.73-.13,3.26.34,4.57,1.42,1.3,1.07,2.06,2.43,2.28,4.08.22,1.64-.21,3.12-1.28,4.42-24.83,30.56-45.06,52.33-60.72,65.3-3.96,3.2-8.38,6.36-13.27,9.49-4.88,3.12-9.7,4.74-14.45,4.84Z"></path><path class="uuid-6b21f7ce-a406-4635-a394-33a992bfea5b" d="m106.72,380.44c-5.32.11-9.52-1.45-12.6-4.68-3.09-3.23-4.7-7.78-4.82-13.64-.11-4.94.87-10.69,2.93-17.23,2.06-6.54,5.03-13.16,8.92-19.83,1.95-3.15,4.39-6.73,7.34-10.73,2.94-4,6.21-7.14,9.82-9.41-1.64-8.21-1.24-15.36,1.2-21.46,3.27-9.78,9.67-14.77,19.19-14.97,4.21-.09,7.53.67,9.94,2.26,2.41,1.6,4.28,3.3,5.6,5.1,3.03,4.33,4.61,9.89,4.76,16.66.12,5.86-.71,12.38-2.47,19.56-1.77,7.18-4.23,14.56-7.36,22.14,2.98,2.32,6.59,4.26,10.84,5.81,4.24,1.56,9.16,2.33,14.75,2.3,5.59-.03,11.84-1.03,18.76-3.01,6.92-1.98,14.63-5.43,23.14-10.38,1.44-.95,2.95-1.16,4.52-.64,1.57.52,2.82,1.5,3.77,2.94.94,1.45,1.17,3,.65,4.66-.51,1.66-1.49,2.96-2.94,3.91-9.78,5.7-18.76,9.6-26.96,11.7-8.2,2.1-15.56,3.08-22.06,2.94-6.5-.14-12.24-1.07-17.23-2.8-4.99-1.72-9.14-3.74-12.49-6.05-.18.19-.44.65-.8,1.39-1.58,3.15-3.61,6.63-6.09,10.43-2.49,3.81-5.3,7.4-8.43,10.76-3.14,3.36-6.56,6.23-10.26,8.6-3.71,2.37-7.57,3.6-11.59,3.68Zm15.16-62.69c-3.24,3-6.71,7.65-10.42,13.96-3.18,5.56-5.68,11.11-7.48,16.65-1.8,5.54-2.58,10.22-2.31,14.06.06,2.93.6,4.62,1.62,5.05,1.01.44,2.07.64,3.17.62,4.21-.09,8.81-3.11,13.82-9.08,5-5.97,9.62-13.21,13.83-21.72-5.43-5.75-9.5-12.25-12.22-19.52Zm10.29-7.09c.97,2.55,2.03,5,3.18,7.36,1.15,2.36,2.57,4.61,4.27,6.78,2.26-5.72,4.02-11.3,5.28-16.74,1.26-5.43,1.84-10.52,1.74-15.29-.06-2.75-.34-4.84-.82-6.3-.49-1.45-1.01-2.63-1.59-3.54-.39-.54-.94-1.03-1.68-1.48-.74-.44-1.94-.65-3.58-.61-.74.02-1.97.32-3.69.9-1.73.59-3.2,2.54-4.41,5.87-.68,2.21-1.09,4.65-1.21,7.3-.13,2.66.12,5.54.73,8.64,1.48,1.07,2.25,2.61,2.29,4.62.01.55-.15,1.38-.5,2.48Z"></path><path class="uuid-6b21f7ce-a406-4635-a394-33a992bfea5b" d="m223.14,376.61c-3.12.07-6.11-.37-8.96-1.32-2.86-.94-5.14-2.77-6.84-5.49-5.11-7.77-1.55-20.94,10.7-39.52,2.13-3.34,4.35-6.55,6.67-9.62,2.31-3.07,4.55-5.87,6.69-8.38,2.15-2.52,4.16-4.71,6.05-6.58,1.89-1.87,3.37-3.28,4.44-4.22,4.87-3.4,8.9-3.85,12.07-1.35,2.23,1.79,3.24,4.01,3.03,6.67-.22,2.66-.85,5.19-1.9,7.6-.52,1.66-1.55,2.83-3.09,3.5-1.55.68-3.15.66-4.81-.03-.92-.16-1.76-.79-2.51-1.87-2.15,2.43-4.69,5.45-7.64,9.09-2.95,3.63-5.84,7.59-8.68,11.86-2.84,4.28-5.05,7.99-6.64,11.13-1.58,3.15-2.72,5.78-3.41,7.9-.68,2.12-1.02,3.78-.99,4.97.03,1.19.13,1.97.33,2.33,1.48.7,3.27,1.03,5.38.99,2.1-.05,5.16-.56,9.17-1.57,4.01-1,9.42-2.85,16.23-5.56,6.81-2.71,15.12-6.5,24.9-11.38,9.79-4.88,21.56-11.31,35.31-19.29,1.45-.95,3-1.16,4.67-.65,1.65.52,2.96,1.5,3.91,2.94.94,1.45,1.16,3,.65,4.66-.51,1.66-1.5,2.96-2.94,3.91-16.12,9.13-30.29,16.67-42.53,22.6-12.24,5.94-22.73,10.28-31.46,13.03-1.82.59-4.33,1.33-7.51,2.22-3.19.89-6.61,1.38-10.27,1.45Z"></path><path class="uuid-6b21f7ce-a406-4635-a394-33a992bfea5b" d="m381.31,359.81c-7.51.16-13.59-1.45-18.24-4.84-2.23-1.6-3.96-3.48-5.2-5.66-1.24-2.17-2.15-4.39-2.75-6.67-.6-2.28-.92-4.56-.97-6.85-.05-2.29,0-4.35.14-6.18-1.82.77-3.9,1.87-6.25,3.29-2.36,1.42-4.79,2.89-7.33,4.41-2.53,1.52-5.01,3.09-7.45,4.69-2.44,1.61-4.56,3.07-6.37,4.39-3.08,1.9-5.96,3.7-8.68,5.41-2.71,1.71-5.15,3.22-7.32,4.55-1.08.76-2.3,1.47-3.66,2.14-1.36.67-2.73,1.21-4.09,1.6-1.36.4-2.68.47-3.98.22-1.29-.25-2.49-.91-3.61-1.98-1.3-1.25-1.98-2.71-2.02-4.35-.03-1.65.34-3.31,1.14-4.97.79-1.67,1.85-3.43,3.19-5.29,1.33-1.86,2.81-3.72,4.42-5.59,13.55-17.32,26.36-26.38,38.43-27.19,3.85-.26,7.11.22,9.79,1.44,2.68,1.23,4.77,2.47,6.26,3.71,2.56-.24,4.77.18,6.62,1.23.74.35,1.63,1.25,2.67,2.7,1.04,1.44,1.41,3.64,1.1,6.57-1.44,9.92-.39,16.13,3.15,18.62,1.29.89,3.51,1.58,6.64,2.06,3.12.48,7.6.21,13.45-.83,5.84-1.04,13.39-3.21,22.67-6.52,9.27-3.31,20.8-8.31,34.57-15.02,1.45-.94,2.95-1.11,4.52-.51,1.58.61,2.74,1.73,3.51,3.36.94,1.45,1.11,2.96.51,4.52-.61,1.57-1.73,2.74-3.36,3.51-31.92,15.69-55.73,23.71-71.48,24.04Zm-41.16-36.5c-2.19.42-4.82,1.48-7.9,3.19-3.08,1.71-6.68,4.63-10.81,8.75,7.23-4.73,13.47-8.71,18.71-11.93Z"></path><path class="uuid-6b21f7ce-a406-4635-a394-33a992bfea5b" d="m450.82,411.92c-2.75.06-5.42-.62-8.01-2.03-2.4-1.42-4.52-3.84-6.33-7.28-1.82-3.45-2.66-9.01-2.55-16.71.11-7.7,1.51-18.12,4.15-31.27,2.65-13.15,7.23-30.15,13.76-50.99.86-2.94,1.75-5.85,2.7-8.71.94-2.86,1.85-5.67,2.7-8.44-1.33-1.99-1.46-4.09-.41-6.31,1.76-3.33,3.44-6.57,5.02-9.72,1.58-3.14,3.08-6.2,4.48-9.16,2.25-6.46,4.41-12.46,6.49-18,2.08-5.54,3.9-10.34,5.47-14.41,1.56-4.06,3.3-8.49,5.22-13.29,1.4-2.96,2.64-5.23,3.7-6.81,1.06-1.57,2.6-2.48,4.61-2.7,2.56-.05,4.41.91,5.56,2.9.38.54.66,1.18.86,1.91.2.73.13,2.02-.19,3.85-.33,1.84-1.1,4.42-2.31,7.74-1.21,3.33-2.95,7.94-5.2,13.85-1.22,3.14-2.91,7.25-5.1,12.33-2.18,5.09-4.76,10.86-7.74,17.33-2.44,6.28-4.81,12.93-7.13,19.94-2.32,7.01-4.69,14.11-7.11,21.31-6.53,20.66-10.99,37.01-13.39,49.05-2.4,12.05-3.72,21.24-3.95,27.56-.24,6.32.13,10.44,1.09,12.34.95,1.9,1.62,2.94,1.99,3.12.19.18.83.3,1.93.37,1.1.07,2.79-.43,5.05-1.48,2.27-1.05,5.34-2.95,9.22-5.69,3.88-2.74,8.79-6.92,14.71-12.54,5.92-5.62,12.92-12.86,20.97-21.74,8.06-8.87,17.53-20.02,28.42-33.43,1.06-1.49,2.46-2.29,4.21-2.42,1.73-.12,3.26.34,4.57,1.42,1.3,1.07,2.06,2.43,2.28,4.08.22,1.64-.21,3.12-1.28,4.42-24.82,30.57-45.06,52.33-60.72,65.3-3.96,3.19-8.38,6.36-13.27,9.49-4.88,3.12-9.7,4.74-14.45,4.84Z"></path><path class="uuid-6b21f7ce-a406-4635-a394-33a992bfea5b" d="m533.76,410.18c-2.75.06-5.41-.62-8.01-2.03-2.41-1.42-4.52-3.84-6.34-7.28-1.82-3.45-2.67-9.01-2.55-16.71.11-7.7,1.5-18.12,4.15-31.27,2.65-13.15,7.23-30.14,13.75-50.99.86-2.94,1.76-5.85,2.71-8.71.94-2.86,1.85-5.67,2.7-8.44-1.33-1.98-1.46-4.09-.4-6.31,1.76-3.33,3.44-6.57,5.01-9.72,1.58-3.15,3.07-6.2,4.47-9.16,2.24-6.46,4.41-12.46,6.49-18,2.08-5.54,3.9-10.34,5.46-14.41,1.56-4.06,3.3-8.49,5.21-13.3,1.4-2.96,2.64-5.23,3.7-6.81,1.06-1.57,2.6-2.48,4.62-2.71,2.56-.05,4.41.92,5.56,2.9.37.54.66,1.18.86,1.91.2.73.13,2.02-.19,3.85-.33,1.84-1.1,4.42-2.31,7.74-1.21,3.32-2.95,7.94-5.2,13.85-1.22,3.14-2.92,7.25-5.1,12.33-2.18,5.09-4.76,10.86-7.74,17.33-2.44,6.28-4.81,12.93-7.14,19.93-2.32,7.01-4.69,14.11-7.1,21.31-6.53,20.66-10.99,37-13.4,49.05-2.39,12.05-3.71,21.23-3.95,27.56-.24,6.32.13,10.44,1.09,12.34.95,1.9,1.61,2.94,1.99,3.12.18.18.83.3,1.93.37,1.1.07,2.78-.43,5.05-1.48,2.27-1.05,5.34-2.95,9.22-5.69,3.88-2.74,8.78-6.92,14.71-12.54,5.92-5.62,12.92-12.86,20.97-21.74,8.05-8.87,17.53-20.01,28.42-33.43,1.07-1.49,2.46-2.3,4.21-2.42,1.73-.12,3.26.34,4.56,1.41,1.3,1.07,2.06,2.43,2.28,4.08.22,1.64-.21,3.12-1.28,4.42-24.82,30.57-45.06,52.33-60.72,65.3-3.96,3.2-8.39,6.36-13.26,9.49-4.88,3.12-9.7,4.74-14.46,4.84Z"></path><path class="uuid-6b21f7ce-a406-4635-a394-33a992bfea5b" d="m630.82,452.91c-2.38.05-4.59-.64-6.64-2.06-4.64-3.02-6.84-7.1-6.58-12.23-.04-1.83.42-4.04,1.37-6.62.95-2.59,2.85-5.69,5.72-9.33,2.84-3.63,6.93-7.93,12.22-12.9,5.3-4.97,12.27-10.75,20.93-17.34,1.91-4.8,3.91-10.02,5.99-15.65,2.07-5.63,4.32-11.86,6.75-18.69,3.28-9.41,6.34-18.54,9.18-27.4,2.83-8.85,5.45-16.96,7.86-24.34-10.71,13.23-19.79,23.59-27.23,31.07-7.45,7.49-13.69,12.98-18.74,16.47-5.06,3.5-9.14,5.41-12.25,5.75-3.11.34-5.77-.1-7.99-1.34-2.41-1.23-4.14-2.98-5.2-5.25-1.06-2.27-1.75-4.86-2.09-7.79-.34-2.92-.35-5.9-.05-8.93.31-3.03.7-5.92,1.19-8.68.98-5.33,2.08-10.07,3.27-14.22,1.19-4.15,1.88-6.4,2.06-6.77.51-1.48,1.55-2.6,3.09-3.36,1.53-.76,3.04-.89,4.53-.37,1.66.52,2.87,1.55,3.64,3.08.76,1.54.89,3.05.37,4.53-1.39,3.88-2.49,7.84-3.32,11.89-.83,4.05-1.48,7.77-1.96,11.17-.48,3.4-.7,6.33-.64,8.8.05,2.47.36,4.16.94,5.06.55,0,2-.54,4.36-1.6,2.36-1.05,6.19-4.02,11.49-8.9,5.3-4.87,12.38-12.25,21.24-22.15,8.86-9.9,20.06-23.68,33.61-41.37.89-1.3,2.02-2.1,3.38-2.4,1.37-.31,2.7-.1,4,.6,1.48.7,2.51,1.69,3.09,2.96.58,1.27.6,2.64.08,4.12-2.55,9.4-4.98,17.92-7.29,25.57-2.3,7.65-5.01,16.32-8.1,26-3.1,9.68-6.46,19.6-10.09,29.75-1.21,3.51-2.37,6.78-3.5,9.82-1.13,3.05-2.21,6.05-3.25,9,3.06-2.26,6.36-4.53,9.88-6.8,3.53-2.27,7.18-4.73,10.98-7.38,9.38-6.24,18.66-12.16,27.79-17.76,9.13-5.59,17.27-10.53,24.42-14.8,7.15-4.27,12.93-7.69,17.36-10.26,4.44-2.57,6.74-3.85,6.93-3.86,1.44-.94,2.94-1.16,4.52-.64,1.56.52,2.82,1.5,3.77,2.94.94,1.45,1.16,3,.65,4.66-.51,1.66-1.49,2.96-2.94,3.91-.18,0-2.45,1.24-6.79,3.71-4.34,2.47-10.09,5.85-17.23,10.12-7.15,4.27-15.2,9.16-24.15,14.66-8.96,5.51-18.13,11.37-27.52,17.62-7.58,4.92-14.32,9.42-20.18,13.48-5.87,4.06-11.15,7.97-15.83,11.74-4.88,11.64-9.13,20.8-12.74,27.47-3.62,6.67-6.77,11.77-9.43,15.31-2.67,3.53-4.87,5.83-6.59,6.87-1.72,1.04-3.12,1.75-4.22,2.15-1.46.58-2.83.88-4.1.91Zm15.73-35.5c-3.59,3.37-6.51,6.32-8.74,8.84-2.24,2.52-3.94,4.62-5.09,6.29-1.16,1.67-1.91,3.07-2.25,4.17-.35,1.11-.51,1.93-.5,2.48-.36.38-.17.83.58,1.36.36-.19.95-.57,1.76-1.14.81-.57,1.84-1.65,3.09-3.23,1.24-1.59,2.8-3.86,4.67-6.83,1.86-2.97,4.01-6.95,6.47-11.95Z"></path><path class="uuid-6b21f7ce-a406-4635-a394-33a992bfea5b" d="m548.62,486.99c-1.23,1.79-3.99,2.02-4.05,3.54-.09,2.57,2.56,3.27,4.5.93,1.28-1.5-.08-2.96.76-4.16.52-.74,2.42-.57,3.34-1.65,1.08-1.25,1.2-3.12,1.75-3.54,2.85-2.1,6.25,2.07,8.82-1.47.57-.82-1.08-.53-.93-1.49.15-.89,2.81-3,3.85-3.19,1.39-.27,3.52,2.62,4.27-.12.74-2.83,1.24-1.95,1.34-.25,2.95-3.19,5.85-6.42,8.66-9.77,5.61-6.64,10.8-13.5,15.69-20.49-.56-.86-.87-2.01-1.98-3.03-1.15-1.03-2.25-.78-2.67-1.66-.06-.15.89-2.79.65-3.3-.44-1.05-1.59-1.44-2.65-1.86-5.38,7.94-11.2,15.68-17.52,23.17-7.14,8.47-14.74,16.33-22.64,23.7.26,1.23-.22,3.22-1.19,4.65Z"></path><path class="uuid-6b21f7ce-a406-4635-a394-33a992bfea5b" d="m627.63,382.01c-1.4-2.32-3.45-3.67-5.28-.5,1.19,1.45,3.84,1.57,2.1,4.09,2.1.05,2.31,1.83,2.76,3.34.37-.92.73-1.86,1.08-2.79-.11-.09-.21-.13-.33-.24-.89-.74.41-2.68-.32-3.9Z"></path><path class="uuid-6b21f7ce-a406-4635-a394-33a992bfea5b" d="m186.2,501.29c-.91,0-1.43.22-1.68.56,1.89,1.55,3.79,3.07,5.72,4.57,2.02-1.5-2.31-5.17-4.03-5.13Z"></path><path class="uuid-6b21f7ce-a406-4635-a394-33a992bfea5b" d="m607.58,428.45c.63-1.06,1.22-2.13,1.85-3.19-1.86-.7-4.17-1.08-4.66.09-.56,1.31.99,2.74,2.81,3.1Z"></path><path class="uuid-6b21f7ce-a406-4635-a394-33a992bfea5b" d="m621.12,402.95c1.68-3.58,3.31-7.19,4.83-10.83-1.29-.94-2.23-.56-3.55-1.75.08-1.35.84-1.79-.08-2.83-3.14-3.61-3.74,2.37-6.1,4.55-.93.85-1.92.98-2.83.98-.68,1.54-1.36,3.07-2.08,4.6,1.33,1.19,3.2,2.27,4.08,3.19.77.82.86,3.04,1.63,3.34,1.21.5,2.62-.63,4.1-1.25Z"></path><path class="uuid-6b21f7ce-a406-4635-a394-33a992bfea5b" d="m597.58,441.33c.62.1,1.1.27,1.53.44,1.02-1.49,1.95-3.03,2.94-4.53-.19.02-.37.04-.56.04-1.96.11-3.44-.95-4.38-.42-1.14.63-2.77,3.34-2.5,4.01.38,1.03,3.16.48,2.97.47Z"></path><path class="uuid-6b21f7ce-a406-4635-a394-33a992bfea5b" d="m81.27,278.4c-.03,1.24-.03,2.48-.04,3.73.42-.54.74-1.18.84-2,.08-.44-.19-1.09-.8-1.73Z"></path><path class="uuid-6b21f7ce-a406-4635-a394-33a992bfea5b" d="m91.95,222.63c1.07.55,1.51,1.6,1.81,1.58,1.87,0,5.15-3.67,6.25-6.31.43-1.05.05-2.5.67-3.31.06-.06.21-.09.39-.12,1.21-4.65,2.57-9.27,4.04-13.87-.29.11-.64.05-.93-.31-.41-.49.1-1.16.84-1.32.28-.07.49-.05.64,0,10.55-32.49,27.38-63.55,50.77-91.27,25.13-29.78,55.29-52.77,88.19-68.87-.9-.77-.5-1.88-1.93-1.66-1.4,1.1.06,3.01-1.57,3.2-1.35-1.54-2.04-2.66-1.55-4.2.56-1.59,2.68-1.83,3.32-3.06.94-1.85-.34-3.6-.85-5.37-1.09.52-2.19,1.03-3.28,1.56.38.13.83.33,1.4.71-.19-.13,2.46.98.32,2.52-1.52,1.08-3.12-1.35-2.97-2.62-33.37,16.72-63.98,40.28-89.57,70.62-30.62,36.3-50.5,78.08-60.04,121.44,1.47.13,3.17.18,4.06.64ZM210.32,51.82c5.16-7.94,8.77,4.72,0,0h0Zm-31.38,30.15c-1.04,1.97-4.96-1.61-6.31-2.53,2.1-1.56,7.29.75,6.31,2.53Zm-33.35,30.33c.86.38,1.27.87,1.48,1.4-1.33,1.57-3.45-.27-1.48-1.4Zm21.93-23.96c.06-2.14,3.18-3.83,4.59-3.64.63.09,2.23.11,2.12,1.8-.05,1.55-6.84,6.41-6.71,1.83Z"></path><path class="uuid-6b21f7ce-a406-4635-a394-33a992bfea5b" d="m259.08,20.24c-1.83.74-3.65,1.53-5.45,2.28,1.95-.03,3.85-.55,5.45-2.28Z"></path><path class="uuid-6b21f7ce-a406-4635-a394-33a992bfea5b" d="m280.31,15.59c.87-1.45-.1-1.98-.27-2.75-1.27.41-2.58.78-3.86,1.19,1.19.97,3.33,1.48,4.13,1.56Z"></path><path class="uuid-6b21f7ce-a406-4635-a394-33a992bfea5b" d="m173.79,488.41c-1.54-1.54-5.01-7.42-7.46-2.91.05.06.12.1.16.15,1.2.56,2.12-.18,3.42.82-.05.89-.51,1.14-1.07,1.5,2.29,2.17,4.63,4.28,6.99,6.38,3.36-2.38-.44-4.41-2.03-5.94Z"></path><path class="uuid-6b21f7ce-a406-4635-a394-33a992bfea5b" d="m345.27,3.12c-.52,0-1.83-1.02-2.61-2.3-9.53.73-19,1.91-28.42,3.6-.24.68-.4,1.34-.28,1.95.41,2.09,1.8.64,2.38,2.89-3.27-2.29-4.66.53-7.3.53-2.93.03-4.06-3.47-6.8-1,2.82.29,6.16,1.9,4.38,4.14-.87,1.09-1.43-.71-2.97-.47-2,.36-2.89,2.02-4.18-.73-1.51,2.74-3.26,3.78-3.43,6.22-2.35-1.54-3.61,1.64-5.88.5.32-1.94,3.47-5.31,3.72-7.44.07-.57-.71-1.31-1.11-1.8-2.5.65-5.02,1.3-7.5,2.02.02.01.08.03.08.05,3.06,2.51-1.7,5.75-3.27,8.19.6.99,5.63-3,5.69-.17.12,3.09-3.69,1.42-4.83,2.56-.44.42-.62,1.17-.83,1.97,5.06-1.59,10.16-3.03,15.28-4.33.04-.06.06-.14.13-.17.33-.11.61-.11.85-.09,2.94-.74,5.9-1.42,8.87-2.06.65-.99,3.81-5.79,3.39-5.46,2.51-2,7.7.66,9.9,2-.66.21-1.28.69-1.87,1.26,6.2-1.06,12.41-1.88,18.66-2.51-.45-.3-.88-.68-1.31-1.18,1.46-1.92,4.28.09,6.66.45.59.1,1.36.08,2.16.08,2.17-.15,4.35-.29,6.53-.39-.61-.24-.74-1.4,1.42-1.73-.17,1.05-.54,1.52-.9,1.7,3.56-.17,7.14-.24,10.71-.26-.19-.83-.45-1.74-.3-2.48.12-.62,2.19-5.43,1.51-4.65,3.86-4.5,8.76,4.53,13.3,1.8,1.11,2.11-2.34,2.19-3.19,3.57-.06.08-.26.9-.48,1.9,59.03,1.9,117.85,22.88,166.49,63.91,14.85,12.53,27.99,26.32,39.46,41.06.42-.07.87.01,1.35.35-.16.29-.33.53-.5.8.59.76,1.16,1.53,1.75,2.31,1.62-.65,3.54-1.19,4.38-.96-.67.92-1.3,2.63-2.1,4,1.81,2.48,3.55,4.97,5.26,7.49,1.68-2.17,3.14-4.18,5.68-1.8,2.6,2.42-.47,3.46-1.39,5.17-.36.72.26,1.93-.31,2.54,2.26,3.51,4.41,7.07,6.49,10.65.16-.36.36-.71.64-1.02,1.02-1.16,3.74-.63,5.18-2.34,1.15-1.36-1.03-2.02,1.67-2.68-.04,1.44-1.12,1.92-.46,2.98,1.44,2.24,2.59.76,3.71-.56-1.89-3.34-3.91-6.62-5.95-9.9-.05.03-.12.09-.13.14-1.35,1.76-.67,3.18-1.39,5.18-4.3-1.73-1.53-5.01.55-6.9-15.08-23.84-34.02-45.83-56.74-65C489.2,17.85,417.48-3.7,347.43.52c-.83,1.21-.81,2.62-2.16,2.6Zm251.22,135.86c-.87-.75-1.1-1.64-.62-2.72.41.85,1.35,1.6.62,2.72ZM405.89,6.55c.06-.03,1.07-.2,1.19.3.48,2.02-4.03.36-1.19-.3Zm-52.93-2.33c3.22-2.15,2.03,3.5,0,0h0Z"></path><path class="uuid-6b21f7ce-a406-4635-a394-33a992bfea5b" d="m97.81,228.54c-1.93.48-2.58,3.67-3.6,3.87-2.54.45-4.83-5.09-7.17-6.78-1.53,7.37-2.67,14.8-3.6,22.24,3.4-1.03,9.82,1.28,11.11-.38.46-.63-.92-2.43-.54-3.6.36-1.21.87-1.89,1.45-2.28.68-4.37,1.45-8.73,2.34-13.08Z"></path><path class="uuid-6b21f7ce-a406-4635-a394-33a992bfea5b" d="m530.16,506.16c2.35-.09,1.63-3.02.33-3.51-3.46-1.35-1.74,3.54-.33,3.51Z"></path><path class="uuid-6b21f7ce-a406-4635-a394-33a992bfea5b" d="m469.32,535.12c-.74.11-1.2,1.16-.49,1.54.98.53,2.19-1.79.49-1.54Z"></path><path class="uuid-6b21f7ce-a406-4635-a394-33a992bfea5b" d="m483.65,538.96c1.67-5.02,5.76-4.52,6.52-8.95l-1-.62c-1.92,2.46-4.92,2.41-6.08,4.55-3.47-2.61-5.26.14-6.49,2.94-1.44,3.25-4.98,6.38-5.74,8.79,4.28-1.74,8.51-3.58,12.73-5.53-.05-.44-.04-.85.06-1.18Z"></path><path class="uuid-6b21f7ce-a406-4635-a394-33a992bfea5b" d="m602.99,421.47c.76-.54.32-2.07,1-3.08.97-1.53,5.4-3.66,1.87-6.73-.43,1.66-1.98,2.97-3.5,3.61-1.14,2.06-2.35,4.11-3.56,6.15,1.68.11,3.43.6,4.18.06Z"></path><path class="uuid-6b21f7ce-a406-4635-a394-33a992bfea5b" d="m613.22,154.47l-.9,1.72c-1.63-.06-3.39.03-4.77-.64-1.06-.49-1.75-1.59-2.62-1.79-.17-.05-.44-.02-.72.02,14.82,31.26,23.52,65.01,25.73,99.32,1.01-1.34,2.89-2.71,3.95-2.54,3.85.56,1.88,6.54,6.58,6.97-4.76,3.15-1.84,5.61,1,4.94-1.14-38.61-10.14-76.76-26.55-111.94-.51,1.34-1.05,2.68-1.7,3.94Z"></path><path class="uuid-6b21f7ce-a406-4635-a394-33a992bfea5b" d="m599.43,132.11c-.46-1.04-1.15-1.17-1.77-1.26,1.59,3.07,3.18,6.16,4.65,9.3,1.07-.91,1.75-1.96,1.21-3.48-.24-.67-2.88-1.13-4.19-2.59-.31-.34.3-1.53.1-1.98Z"></path><path class="uuid-6b21f7ce-a406-4635-a394-33a992bfea5b" d="m606.97,138.44c.84-.44.96-2.62-1.07-1.64-1.52.74.17,2.16,1.07,1.64Z"></path><path class="uuid-6b21f7ce-a406-4635-a394-33a992bfea5b" d="m606.28,143.94c-.19.09-1.06.78-1.52,1.66.4.93.84,1.84,1.23,2.78,2.27.06,4.16-6.38.29-4.44Z"></path><path class="uuid-6b21f7ce-a406-4635-a394-33a992bfea5b" d="m621.67,194.94c-.1.1-.18.26-.29.39.67,2.88,1.3,5.77,1.87,8.67,1.73-2.43,1.69-7.9-1.59-9.06Z"></path><path class="uuid-6b21f7ce-a406-4635-a394-33a992bfea5b" d="m623.58,174.51c-.95.42-2.21,1.8-.94,2.71,2.44,1.74,4.02-4.11.94-2.71Z"></path><path class="uuid-6b21f7ce-a406-4635-a394-33a992bfea5b" d="m620.36,190.13c-.06.05-.09.13-.15.18.17.63.29,1.26.45,1.9,1.46.28,1.39-3.65-.3-2.08Z"></path><path class="uuid-6b21f7ce-a406-4635-a394-33a992bfea5b" d="m630.54,369.88c0-1.19-.86-.93-1.34-.82-2.95.68,1.31,3.52,1.34.82Z"></path><path class="uuid-6b21f7ce-a406-4635-a394-33a992bfea5b" d="m538.23,505.15c-1.15-.18-2.5-.23-2.69,2.05-.04.7.04,1.19.21,1.51,1.26-.96,2.55-1.86,3.79-2.85-.18-.34-.57-.62-1.31-.71Z"></path><path class="uuid-6b21f7ce-a406-4635-a394-33a992bfea5b" d="m605.68,409.05c1.96.75,3.76.46,6.04.68,1.27-2.08-1.81-3.07-2.23-4.64-.3-1.17,1.99-2.75-.05-3.33-.45.89-.93,1.77-1.37,2.67.07.44.07.9-.42,1.37-.15.15-.3.21-.45.32-.5.99-1,1.95-1.53,2.94Z"></path><path class="uuid-6b21f7ce-a406-4635-a394-33a992bfea5b" d="m614.26,170.07c-.37-1.03-1.52-.91-2.49-.43.18.4.39.78.57,1.17.75.21,1.44.17,1.92-.74Z"></path><path class="uuid-6b21f7ce-a406-4635-a394-33a992bfea5b" d="m626.48,175.83c-1.69-1.52-4.59,3.38-4.38,3.3-1.22.46-3.62-1.09-5.39-1.04-.39.02-.8.09-1.18.18.71,1.72,1.46,3.41,2.14,5.13.19-.08.39-.15.51-.21,1.33-.74,9.78-6.03,8.31-7.36Z"></path><path class="uuid-6b21f7ce-a406-4635-a394-33a992bfea5b" d="m181.9,492.54c1.45.56,3.61,3.37,5.73,4.49.5-.15,1.08.02,1.72.42.53-.04,1.05-.2,1.53-.69-1.59-1.41-6.54-5.6-8.97-4.23Z"></path><path class="uuid-6b21f7ce-a406-4635-a394-33a992bfea5b" d="m607.77,146.95c6.86,3.23,4.52-5.48,0,0h0Z"></path><path class="uuid-6b21f7ce-a406-4635-a394-33a992bfea5b" d="m614.99,168.19c2.09,1.07,4.24-.97,4.63-2.23,1-3.22-3.14-5.01-6.53-2.18-.12-2.03,3.22-3.17,1.18-4.88-2.99,3.89-4.98,1.72-7.78-.21,1.18,2.31,2.3,4.67,3.41,7.01,2.14-1.48,3.77,1.82,5.1,2.49Z"></path><path class="uuid-6b21f7ce-a406-4635-a394-33a992bfea5b" d="m155.56,471.44c-1.45-2.55-.14-10.09,3.62-6.55,1.03.96-.92,5.63,2.82,5.94-4.28,6.2,2.79,3.63,5.38,4.76,1.22.51,3,3.06,5.24,5,1.14-.69,2.84-.71,4.08-.47-14.96-14.23-27.94-29.83-38.98-46.42-.42.12-1.04.05-1.92-.35.35-.51.67-.84.96-1.09-3.26-4.99-6.39-10.03-9.3-15.2-1.68.91-3.95,2.36-4.44,2.97-2.75,3.69,1,6.05-.06,8.31-.07.13-.56.46-1.25.81.99,1.64,1.93,3.28,2.96,4.88.71.04,1.36.36,1.75.91-.19.3-.46.55-.73.77,7.35,11.49,15.62,22.54,24.75,33.05,1.73.06,3.51.73,5.11,2.68Zm-18.59-22.02c5.8-4.59,6.45,6.52,0,0h0Zm6.56,1.33c.68-.4,1.36-.78,2.29.03-.46,1.14-1.36.64-2.29-.03Z"></path><path class="uuid-6b21f7ce-a406-4635-a394-33a992bfea5b" d="m611.09,151.34c-1.15-.38-5.38,1.21-4.05,3.51,1.93,3.38,8.48-2,4.05-3.51Z"></path><path class="uuid-6b21f7ce-a406-4635-a394-33a992bfea5b" d="m179.97,483.2c.02.08-.02.18-.02.27.74.52,1.38,1.08,1.99,1.46-.64-.58-1.32-1.14-1.96-1.73Z"></path><path class="uuid-6b21f7ce-a406-4635-a394-33a992bfea5b" d="m119.49,418.29c1.01-.72,1.78-.31,2.06-1.06.54-1.56-2.09-6.18-3.6-6.92-1.8-.83-3.73,1.38-5.14.06-.95-.84-1.31-3.36,1.46-6.06-2.16-1.04-.98-4.56-2.33-5.18-2.69-1.22-3.41,2.72-3.8,4.57,2.66,5.65,5.5,11.22,8.55,16.73.17.05.38.1.48.09,2.13-.3.27-.82,2.32-2.24Z"></path><path class="uuid-6b21f7ce-a406-4635-a394-33a992bfea5b" d="m104.24,386.9c-3.62-.88.55,3.49,1,.63.06-.65-.8-.57-1-.63Z"></path><path class="uuid-6b21f7ce-a406-4635-a394-33a992bfea5b" d="m464.9,544.43c.09-1.37,2.81-1.28.8-2.76-3.12-.49-4.66,4.78-7.76,3.52-4.88-1.97,1.81-4.91.99-6.79,0-.02-.04-.02-.04-.04-2.16.79-4.29,1.61-6.48,2.36-.02.43.04.77-.17.94-1.32,1.06-3.31.35-4,1.21-1.07,1.34-.27,4.61-1.26,5.72-.23.27-7.23,2.58-7.82,2.09-2.83-2.36,3.76-4.41,3.76-6.04,0-.35-.1-.63-.24-.85-75.31,22.54-159.04,12.08-227.87-33.37-1.22.74-4.03.72-2.89-1.65.03-.08.06-.09.08-.16-5.88-4-11.66-8.32-17.3-12.84-.54.4-1.26.84-1.6,1.89-.04.13-.01.3.08.5.12-.1.25-.22.47-.35.06-.04.54.41.65.42,2.41.24.25.81-.83.65.22.56.44,1.25.39,2.05-.12,1.63-1.4,1.2-.57,2.43.43.64,1.17.91,2.02,1.09-.02-.55.51-1.15,1.02-1.24.54.38.35,1-.03,1.43.94.16,1.9.34,2.61.86.62.41.81,2.21,1.86,3.02,1.48,1.07,3.03.53,3.75,1.41,1.73,2.09-.23,3.31.59,5.03.55,1.08,4.7,3.76,4.53,4.66-.05.22-.13.39-.24.53,12.04,7.91,24.53,14.8,37.35,20.65-.24-1.08.11-2.03,1.63-1.84.17,0,2.91,2.32,2.34,3.64,68.91,30.24,146.62,31.41,215.55,4.93-.53-.92-1.43-1.81-1.35-3.08Zm-241.83-28.23c-2.83,3.09-4.19-2.87,0,0h0Zm1.93,2.09c1.42.64,1.76,1.54,2.26,2.36-1.46,1.12-3.13-.71-2.26-2.36Zm17.14,17.23c-1.04-.37-3.44.19-4.06-.21-.59-.4-3.66-6.89-3.29-8.09,4.41,1.89,8.88,5.36,10.45,9.31-1.39,2.12-1.59-.51-3.09-1.01Zm17.23,5.17c.37-1.88,1.15-1.9,3.47-1.08,6.13,2.14-4.14,4.33-3.47,1.08Zm63.1,14.3c3.92-5.78,6.41,4.93,0,0h0Z"></path><path class="uuid-6b21f7ce-a406-4635-a394-33a992bfea5b" d="m116.49,405.25c.53,1.37,1.63-.06,2.55,1.11.74,1-1.38,1.39.49,2.19.83.35,1.43-.56,3.09-.46-1.53-2.96-2.97-5.97-4.38-8.99-1.58.09-3.11.08-4.68-.33,4.94,1.13,2.29,4.82,2.93,6.48Z"></path><path class="uuid-6b21f7ce-a406-4635-a394-33a992bfea5b" d="m251.32,32.33c-1.76.41-.66,2.79.57,3.04.36-.17.71-.34,1.07-.5.6-1.05-.75-2.75-1.64-2.53Z"></path></g></svg> 