<?xml version="1.0" encoding="UTF-8"?> <svg xmlns="http://www.w3.org/2000/svg" id="uuid-f2f20946-ead9-41bc-813b-eddf5d520606" viewBox="0 0 710.62 596.6"><defs><style>.uuid-0cfa2fdd-66d3-465c-a410-6dc1c118318f{fill:#245e02;}.uuid-0cfa2fdd-66d3-465c-a410-6dc1c118318f,.uuid-e88be0b1-24a0-4a4a-8e88-3caf18cefbbe{stroke-width:0px;}.uuid-e88be0b1-24a0-4a4a-8e88-3caf18cefbbe{fill:#d8bfb6;}</style></defs><g id="uuid-cdeda9b2-5165-4340-9617-cbf7c39f99f2"><path class="uuid-e88be0b1-24a0-4a4a-8e88-3caf18cefbbe" d="m51.71,416.42c4.24-18.09,12.16-32.29,23.73-42.6,3.59-3.2,7.86-5.69,12.84-7.45,17.8-6.42,31.89-2.77,42.27,10.94,14.53,19.25,22.88,44.07,25.05,74.45,2.17,30.38-.05,57.28-6.65,80.67-.38,1.2-1.16,3.59-2.36,7.17-1.19,3.58-2.14,5.88-2.83,6.89l20.57,27.93c1.45,2.01,2.3,3.4,2.55,4.15-2.89,1.51-7.5,4.76-13.82,9.76-6.32,5-10.33,7.75-12.03,8.26-.19-.75-1.98-3.37-5.38-7.83-3.4-4.47-5.5-7.3-6.32-8.49-1.45-1.7-2.67-3.4-3.68-5.1-1.13.76-2.58,2.05-4.34,3.87-1.76,1.82-4.06,3.59-6.89,5.28-11.83,7.11-23.15,7.05-33.97-.19-7.68-5.09-13.79-12.62-18.35-22.59-4.56-9.97-7.91-19.42-10.05-28.35-3.02-12.14-4.89-23.21-5.61-33.22-.73-10-1.09-21.33-1.09-33.97,0-14.97,2.12-31.5,6.37-49.59Zm30.24,104.41c1.01,4.52,2.91,11.08,5.71,19.67,2.8,8.58,6.27,14.26,10.42,17.03,2.52-1.64,4.08-2.8,4.67-3.49.6-.69,1.81-2.08,3.64-4.15-1.2-2.2-2.97-4.72-5.33-7.55-2.36-2.83-3.73-4.94-4.1-6.32.19-.12,2.11-1.51,5.75-4.16l11.32-8.49c3.58-2.52,5.68-4.47,6.27-5.85.6-1.39,1.52-6.32,2.79-14.81,2.07-14.47,2.09-31.88.04-52.23-2.04-20.35-6.84-36.72-14.39-49.11-1.89-2.96-3.7-4.89-5.43-5.8-1.73-.91-4.73.55-9.01,4.39-7.86,7.11-12.68,18.86-14.44,35.24-1.76,16.38-2.64,28.85-2.64,37.41,0,18.37,1.57,34.44,4.71,48.22Z"></path><path class="uuid-e88be0b1-24a0-4a4a-8e88-3caf18cefbbe" d="m230.87,374.86h31.51l.47,45.11c0,1.82.1,3.22.28,4.2.19.98.28,2.31.28,4.01,0,2.58-.06,5.53-.19,8.87-.13,3.33-.03,6.19.28,8.58.26,2.64.4,5.49.43,8.54.03,3.05.04,6.08.04,9.11,0,1.95.1,3.46.28,4.53.19,1.07.29,2.48.29,4.24l.56,26.42v17.55c0,14.22-2.2,30.32-6.6,48.31-4.4,17.99-15.82,26.99-34.25,26.99h-4.44c-8.18,0-14.78-2.64-19.81-7.93-5.03-5.28-8.96-11.23-11.79-17.84-2.58-5.85-4.73-13.68-6.46-23.5-1.73-9.81-2.63-17.77-2.69-23.87-.06-1.51-.17-2.57-.33-3.21-.16-.63-.24-1.57-.24-2.83l-1.32-30.01c-.63-3.84-.76-7.91-.38-12.22.38-4.31.28-8.41-.28-12.32-.13-.88-.19-2.52-.19-4.9v-76.71h31.42c0,8.49.09,16.65.28,24.49.19,7.83.28,15.96.28,24.39v43.4c0,1.44.06,2.42.19,2.93.13.5.22,1.35.28,2.55.19,4.15.3,8.21.33,12.17.04,3.96.11,7.95.24,11.99l1.7,23.02c.19,4.34,1.23,11.84,3.12,22.5,1.88,10.66,4.52,15.99,7.92,15.99h1.04c6.04,0,9.21-8.47,9.53-25.42.31-16.96.47-28.26.47-33.92,0-19.38-.38-38.39-1.13-57.04-.75-18.65-1.13-37.69-1.13-57.13v-11.04Z"></path><path class="uuid-e88be0b1-24a0-4a4a-8e88-3caf18cefbbe" d="m340.15,377.69c.19,1.51.32,2.42.38,2.74l35.1,210.79-32.84.38-5.38-34.63-26.71.56-5.38,33.97-32.65.09c0-1,1.3-9.7,3.87-26.09,2.58-16.39,5.48-34.41,8.68-54.07,3.21-19.66,6.2-37.93,8.96-54.82,2.77-16.89,4.34-26.43,4.72-28.64l8.58-53.13h32.27c.06.38.19,1.33.37,2.83Zm-18.4,112.57c-1,5.53-1.7,9.53-2.07,11.99-.38,1.95-.69,3.9-.95,5.85-.25,1.95-.5,3.78-.76,5.47-.31,1.7-.69,3.62-1.13,5.76-.44,2.14-.66,3.96-.66,5.47h15.19c0-2.52-.57-6.48-1.7-11.89-.5-2.26-1.53-8.05-3.07-17.36-1.55-9.31-2.31-14.82-2.31-16.51h-1.04c0,1.95-.5,5.69-1.51,11.23Z"></path><path class="uuid-e88be0b1-24a0-4a4a-8e88-3caf18cefbbe" d="m413.49,374.11c0,2.08.1,3.93.29,5.57.18,1.64.28,3.58.28,5.85,0,11.76.19,23.46.57,35.1.38,11.64.53,23.31.47,35.01,0,2.07.11,3.83.33,5.28.22,1.44.33,3.3.33,5.56-.13,15.66.11,31.19.71,46.57.6,15.38.9,30.84.9,46.37h26.14v31.52l-56.61.57c0-1.32-.1-2.35-.28-3.07-.19-.72-.28-1.87-.28-3.44v-20.76c0-1.45-.1-2.5-.28-3.16-.19-.66-.29-1.75-.29-3.26l.1-20.66c-.06-1.51-.19-2.6-.38-3.25-.18-.66-.28-1.75-.28-3.25l.1-20.76c-.06-1.51-.17-2.61-.33-3.3-.16-.69-.24-1.73-.24-3.11v-20.76c0-1.51-.09-2.61-.28-3.3-.19-.69-.28-1.76-.28-3.21l-1.04-74.92c0-2.14-.1-4.21-.28-6.23-.19-2.01-.28-4.31-.28-6.89v-13.49l30.95-.57Z"></path><path class="uuid-e88be0b1-24a0-4a4a-8e88-3caf18cefbbe" d="m464.89,375.99c4.94-.19,10.24-.28,15.9-.28l1.13,25.57c0,4.72.08,9.12.24,13.2.16,4.09.23,8.4.23,12.93,0,2.58.1,4.78.29,6.61.19,1.82.28,3.87.28,6.13l.57,26.23c0,2.52.09,4.65.28,6.42.19,1.76.28,3.86.28,6.32l2.27,77.94c0,4.59.08,8.91.24,12.97.16,4.06.24,8.45.24,13.16-5.66,0-10.97.1-15.9.28-4.94.19-10.18.28-15.71.28l-5.57-181.36c0-4.52-.09-8.83-.28-12.92-.19-4.09-.28-8.49-.28-13.21,5.6,0,10.87-.09,15.8-.28Z"></path><path class="uuid-e88be0b1-24a0-4a4a-8e88-3caf18cefbbe" d="m592.23,397.79c-3.21,0-6.08.1-8.63.28-2.55.19-5.43.28-8.63.28h-17.26v24.54c0,27.87.28,55.78.84,83.74.57,27.96.85,55.91.85,83.83h-31.71l-1.7-168.71c0-4.03-.1-7.86-.28-11.51-.19-3.65-.28-7.61-.28-11.89l-33.4.57v-32.36c16.98,0,33.68-.09,50.1-.28,16.42-.19,33.12-.28,50.1-.28v31.8Z"></path><path class="uuid-e88be0b1-24a0-4a4a-8e88-3caf18cefbbe" d="m653.03,403.87c2.96-7.45,4.81-12.22,5.57-14.29.57-1.51,2.33-6.04,5.29-13.59,2.95-7.55,4.5-11.95,4.62-13.21,1.64.19,6.51,1.97,14.63,5.33,8.11,3.36,13.27,5.3,15.47,5.8-.06,1.07-.36,2.17-.9,3.31-.53,1.13-.93,2.11-1.18,2.93l-24.06,62.65-7.83,23.96c-.25,20.83-.58,41.67-.99,62.56-.41,20.88-.61,41.74-.61,62.56-5.41,0-10.83-.09-16.28-.28-5.44-.19-10.8-.28-16.09-.28l2.17-124.18-35.47-90.39c1.32-.31,2.56-.74,3.72-1.27,1.16-.53,2.44-1.09,3.82-1.65,4.28-1.82,6.64-2.83,7.08-3.02l14.82-5.75c1.76,3.77,5.52,13.13,11.27,28.07,5.76,14.94,9.23,22.82,10.43,23.64.06-1.13,1.58-5.43,4.53-12.88Z"></path><path class="uuid-e88be0b1-24a0-4a4a-8e88-3caf18cefbbe" d="m135.82,109.92c.42,1.2.64,2.44.64,3.72,0,.6-.1,1.51-.32,2.76-.21,1.24-.62,2.88-1.22,4.94-.85,2.65-1.33,5.21-1.41,7.7.18,2.73.6,5.56,1.28,8.46.59,2.74,1.03,5.47,1.29,8.21v2.57c0,2.65-.09,5.3-.26,7.95-.18,2.31-.26,4.62-.26,6.93v2.3l-.39.39v.13l-.12.12c-.09.09-.13.18-.13.26l-.13.12c-.18.26-.3.48-.39.64l-.26.26v.13l-.26.26c-.17.34-.34.64-.51.9,1.88,1.37,2.82,3.08,2.82,5.13,0,.34-.04.68-.13,1.03.43,3.76.64,7.87.64,12.31,0,3.42-.19,8.3-.58,14.62-.39,6.33-2.29,13.02-5.71,20.07-3.41,7.05-8.97,11.27-16.67,12.64-1.2.17-2.35.25-3.46.25-10.68,0-17.49-5.94-20.39-17.82-.43-2.22-.64-4.53-.64-6.93,0-1.54.09-3.08.26-4.62.17-1.62.26-3.21.26-4.75s-.09-3.03-.26-4.49c-.35-2.31-.85-4.66-1.54-7.05-.68-2.31-1.2-4.7-1.54-7.18-.08-1.45-.12-2.9-.12-4.36,0-5.05.55-10.22,1.67-15.52,1.11-5.55,1.74-11.03,1.92-16.41.08-13.6,1.45-27.06,4.1-40.4-2.23.34-4.49.77-6.8,1.28-2.91.77-5.85,1.32-8.85,1.67-.85.08-1.75.12-2.69.12-1.97,0-3.94-.25-5.9-.77-4.87-1.46-7.82-3.63-8.85-6.54-.86-2.4-1.29-5.17-1.29-8.34,0-.77.04-1.58.12-2.44v-2.69c0-4.02,1.22-8.03,3.66-12.06,2.44-4.01,5.49-7.86,9.17-11.54,3.67-3.67,7.5-7.09,11.47-10.26,3.97-3.16,7.63-5.94,10.97-8.34,5.9-4.44,11.58-6.67,17.05-6.67,1.03,0,3.34.28,6.93.83,3.59.56,7.1,5.33,10.52,14.3,1.45,4.44,2.3,8.93,2.56,13.47.17,2.74.26,5.51.26,8.34,0,1.79-.04,3.63-.12,5.52-.09,1.62-.13,3.25-.13,4.87,0,3.33.15,7.01.45,11.03.3,4.02,1.39,8.33,3.28,12.95Zm-38.73-10.9c3.25-1.97,6.67-4.02,10.26-6.16l2.05-1.29c-2.82-.51-5.09-.77-6.8-.77-1.54,0-2.82.32-3.85.96-1.03.64-1.58,3.06-1.66,7.25Zm15.64-16.42c-1.45-.77-3.29-1.41-5.52-1.92-.93-.25-1.84-.38-2.69-.38-1.12,0-2.14.22-3.08.64.77,2.3,1.54,4.66,2.31,7.05,2.22-1.29,4.44-1.93,6.67-1.93.25,0,1.04.02,2.37.07,1.32.04,3.35.45,6.1,1.22-.69-.77-1.33-1.34-1.93-1.73-.6-.38-1.15-.66-1.67-.83-.43-.26-.85-.53-1.28-.83-.43-.3-.86-.75-1.29-1.35Zm-6.93,20.14c-.08.43-.13.85-.13,1.28,0,1.28.47,1.92,1.41,1.92s2.26-.55,3.97-1.67v-.39c0-1.45-.63-2.18-1.92-2.18-.77,0-1.89.34-3.34,1.03Zm2.31,33.98c.95,3.85,1.92,5.77,2.95,5.77.18,0,.64-.28,1.41-.83.77-.55,1.16-2.54,1.16-5.96-.86.17-1.67.34-2.44.51l-3.08.51Zm5.64-52.2c.08.17.12.3.12.38,0,.43-.21.64-.63.64-.52,0-1.12-.08-1.8-.26.34-.17.73-.3,1.16-.38.34-.17.73-.3,1.15-.38Zm.77,118.12l.13-.64c0-.68-.34-1.03-1.02-1.03-.52,0-1.25.21-2.19.64v.52c0,.68.34,1.03,1.03,1.03.52,0,1.2-.18,2.05-.51Zm-1.67-83.75l-.13.26c-.17.34-.26.6-.26.77s.04.34.13.51c.09-.59.17-1.11.25-1.54Zm2.44-13.59c.34.09.64.13.9.13,1.29,0,1.92-.64,1.92-1.92,0-1.03-.43-2.48-1.28-4.36-.34-.08-.64-.12-.9-.12-1.28,0-1.92.64-1.92,1.92,0,1.03.43,2.48,1.28,4.36Zm-1.15,11.93c.17.09.38.3.64.64,1.71-.6,2.56-1.2,2.56-1.79,0-.43-.34-.86-1.03-1.29l-.89.9-1.29,1.54Zm.38,62.84v.51c0,.68.34,1.02,1.03,1.02.52,0,1.19-.17,2.05-.51l.12-.64c0-.68-.34-1.03-1.02-1.03-.51,0-1.24.22-2.18.64Zm0,26.93v.64c0,1.96.39,3.29,1.15,3.98.52.43,1.07.64,1.67.64.26,0,.73-.1,1.41-.32.68-.21,1.2-.7,1.54-1.47.17-.34.25-.64.25-.9,0-.51-.32-1.07-.96-1.67-.64-.6-2.33-.9-5.07-.9Zm2.06-58.74c-.18-.09-.35-.13-.51-.13-.69,0-1.03.34-1.03,1.03,0,.51.17,1.24.51,2.18h.64c.68,0,1.03-.34,1.03-1.03,0-.51-.22-1.19-.64-2.05Zm1.02,16.54l1.29-.51c1.61-.6,3.33-1.19,5.12-1.8-1.97-.6-3.51-.9-4.62-.9-1.45,0-2.18.52-2.18,1.54,0,.51.12,1.07.38,1.67Z"></path><path class="uuid-e88be0b1-24a0-4a4a-8e88-3caf18cefbbe" d="m318.71,106.97c0,3.25.04,6.58.12,10,.08,3.25.12,6.54.12,9.88,0,8.89-.3,18.92-.89,30.07-.6,11.16-2.63,22.53-6.1,34.12-3.46,11.59-9.23,21.46-17.31,29.62-8.08,8.16-19.39,13.49-33.92,15.97-3.68.6-7.36.9-11.03.9-7.35,0-15.59-1.43-24.69-4.3-9.11-2.86-17.76-8.02-25.97-15.46-10.69-10.08-17.57-21.58-20.65-34.5-2.91-12.23-4.36-25.05-4.36-38.47v-2.18c0-1.28-.04-2.6-.13-3.97-.16-3.51-.25-7.05-.25-10.64,0-10.09.66-21.2,1.99-33.34,1.33-12.14,5.79-23.9,13.41-35.27,3.15-4.36,6.75-7.7,10.77-10,4.02-2.31,8.47-4.36,13.34-6.16l1.02-.51c1.71-.68,3.34-1.45,4.88-2.31,2.74-1.54,5.64-2.69,8.72-3.46,1.54-1.62,3.42-2.52,5.64-2.69l3.08,2.56h2.04c2.66-.17,5.3-.25,7.95-.25,5.39,0,11.56.36,18.53,1.09,6.97.73,14.48,3.32,22.51,7.76,10.43,5.98,18.04,14.45,22.83,25.39,1.45,4.45,2.18,9.02,2.18,13.72v2.7c0,3.33.32,6.67.96,10,.64,3.33,2.38,6.58,5.2,9.75Zm-108.5-17.06v-3.08c-.6,0-.98.25-1.16.77-.08.25-.12.51-.12.77s.07.58.19.96c.13.38.49.58,1.1.58Zm35.26,107.86c5.13-1.71,10.13-3.88,15.01-6.54,4.88-2.65,8.81-6.37,11.8-11.16,1.45-2.48,2.27-4.49,2.44-6.03v-.77c0-1.45-.17-2.95-.51-4.49-.26-1.11-.48-2.44-.64-3.98-.17-2.05-.26-4.02-.26-5.9,0-2.82.22-5.48.64-7.96.26-1.96.47-4.06.65-6.28v-1.03c0-2.3-.26-4.49-.77-6.54-.52-2.48-.77-5.17-.77-8.08.16-3.25.59-6.41,1.28-9.49.77-3.25,1.16-6.59,1.16-10.01,0-1.11-.05-2.26-.13-3.46-.94-7.35-3.5-13.81-7.7-19.37-4.19-5.55-9.79-9.06-16.8-10.52-1.02-.17-1.96-.3-2.82-.38-2.74-.59-5.04-.9-6.92-.9-.44,0-1.27.06-2.51.2-1.24.13-3.52,1.17-6.86,3.14-7.01,4.45-11.88,10.05-14.62,16.8-1.53,3.59-2.6,7.44-3.21,11.54-.59,4.1-1.07,8.25-1.41,12.44-.34,3.85-.77,7.52-1.28,11.03-.43,3.17-.64,6.33-.64,9.49,0,2.82.26,6.48.77,10.97.51,4.49,1.37,9.64,2.56,15.45,1.79,8.55,5.15,14.89,10.07,19.04,4.92,4.15,11.01,7.85,18.28,11.09,1.03.6,2.09,1.16,3.21,1.67Zm-24.5,14.49c1.54.6,2.74.9,3.6.9,1.11,0,1.66-.51,1.66-1.54,0-.52-.13-1.16-.39-1.92-1.02-.26-1.88-.39-2.56-.39-1.71,0-2.56.6-2.56,1.79,0,.34.08.73.25,1.16Zm29.11,9.75v-3.08c-.51,0-.85.25-1.02.77-.09.25-.13.51-.13.77s.07.58.19.96c.13.38.45.58.96.58Zm21.55-9.1v-3.08c-.6,0-.98.25-1.16.77-.08.25-.13.51-.13.77s.07.58.19.96c.12.38.49.58,1.09.58Zm9.74,5.64c.6-1.45.9-2.61.9-3.46,0-1.2-.64-1.79-1.93-1.79-.42,0-.97.09-1.66.26-.18,1.02-.26,1.88-.26,2.56,0,1.79.59,2.69,1.8,2.69.34,0,.72-.08,1.15-.25Zm2.57-8.72v-3.08c-.6,0-.98.25-1.16.77-.08.26-.12.51-.12.77s.07.58.19.96c.12.38.49.58,1.09.58Zm9.23-3.08v-3.08c-.6,0-.98.26-1.15.77-.09.26-.13.52-.13.77s.06.58.19.96c.13.38.49.58,1.1.58Zm4.1-68.61l.13-.64c0-.68-.34-1.03-1.03-1.03-.51,0-1.24.21-2.18.64v.51c0,.68.34,1.03,1.02,1.03.51,0,1.2-.17,2.05-.51Zm-2.31-57.45v6.16c.85,0,1.45-.51,1.79-1.54.17-.51.26-1.02.26-1.54s-.13-1.16-.39-1.93c-.26-.76-.82-1.15-1.67-1.15Zm10.51,95.29v-3.08c-.6,0-.98.25-1.15.77-.09.25-.13.51-.13.77s.07.58.19.96c.14.38.49.58,1.09.58Z"></path><path class="uuid-e88be0b1-24a0-4a4a-8e88-3caf18cefbbe" d="m486.58,106.97c0,3.25.04,6.58.12,10,.08,3.25.12,6.54.12,9.88,0,8.89-.3,18.92-.89,30.07-.6,11.16-2.63,22.53-6.1,34.12-3.46,11.59-9.23,21.46-17.31,29.62-8.08,8.16-19.39,13.49-33.92,15.97-3.68.6-7.36.9-11.03.9-7.35,0-15.59-1.43-24.69-4.3-9.11-2.86-17.76-8.02-25.97-15.46-10.69-10.08-17.57-21.58-20.65-34.5-2.91-12.23-4.36-25.05-4.36-38.47v-2.18c0-1.28-.04-2.6-.13-3.97-.17-3.51-.25-7.05-.25-10.64,0-10.09.66-21.2,1.99-33.34,1.33-12.14,5.79-23.9,13.41-35.27,3.15-4.36,6.75-7.7,10.77-10,4.02-2.31,8.46-4.36,13.34-6.16l1.02-.51c1.71-.68,3.34-1.45,4.88-2.31,2.74-1.54,5.64-2.69,8.72-3.46,1.54-1.62,3.42-2.52,5.64-2.69l3.08,2.56h2.04c2.66-.17,5.3-.25,7.95-.25,5.39,0,11.56.36,18.53,1.09,6.97.73,14.48,3.32,22.51,7.76,10.43,5.98,18.04,14.45,22.83,25.39,1.45,4.45,2.18,9.02,2.18,13.72v2.7c0,3.33.32,6.67.96,10,.64,3.33,2.38,6.58,5.2,9.75Zm-108.5-17.06v-3.08c-.6,0-.98.25-1.16.77-.08.25-.12.51-.12.77s.07.58.19.96c.13.38.49.58,1.1.58Zm35.26,107.86c5.13-1.71,10.13-3.88,15.01-6.54,4.88-2.65,8.81-6.37,11.8-11.16,1.45-2.48,2.27-4.49,2.44-6.03v-.77c0-1.45-.16-2.95-.5-4.49-.26-1.11-.48-2.44-.65-3.98-.17-2.05-.26-4.02-.26-5.9,0-2.82.22-5.48.64-7.96.26-1.96.47-4.06.65-6.28v-1.03c0-2.3-.26-4.49-.77-6.54-.52-2.48-.77-5.17-.77-8.08.17-3.25.59-6.41,1.28-9.49.77-3.25,1.16-6.59,1.16-10.01,0-1.11-.05-2.26-.13-3.46-.94-7.35-3.5-13.81-7.7-19.37-4.19-5.55-9.79-9.06-16.8-10.52-1.02-.17-1.96-.3-2.82-.38-2.74-.59-5.04-.9-6.92-.9-.44,0-1.27.06-2.51.2-1.24.13-3.52,1.17-6.86,3.14-7.01,4.45-11.88,10.05-14.62,16.8-1.54,3.59-2.61,7.44-3.21,11.54-.59,4.1-1.07,8.25-1.41,12.44-.34,3.85-.77,7.52-1.28,11.03-.43,3.17-.64,6.33-.64,9.49,0,2.82.26,6.48.77,10.97.51,4.49,1.37,9.64,2.56,15.45,1.79,8.55,5.15,14.89,10.07,19.04,4.91,4.15,11.01,7.85,18.28,11.09,1.03.6,2.09,1.16,3.21,1.67Zm-24.5,14.49c1.54.6,2.73.9,3.6.9,1.11,0,1.66-.51,1.66-1.54,0-.52-.13-1.16-.39-1.92-1.02-.26-1.88-.39-2.56-.39-1.72,0-2.57.6-2.57,1.79,0,.34.08.73.25,1.16Zm29.11,9.75v-3.08c-.51,0-.85.25-1.03.77-.08.25-.13.51-.13.77s.07.58.19.96c.13.38.45.58.96.58Zm21.55-9.1v-3.08c-.6,0-.98.25-1.16.77-.08.25-.13.51-.13.77s.07.58.19.96c.12.38.49.58,1.09.58Zm9.74,5.64c.6-1.45.9-2.61.9-3.46,0-1.2-.64-1.79-1.93-1.79-.42,0-.97.09-1.66.26-.18,1.02-.26,1.88-.26,2.56,0,1.79.59,2.69,1.79,2.69.34,0,.73-.08,1.15-.25Zm2.57-8.72v-3.08c-.6,0-.98.25-1.16.77-.08.26-.12.51-.12.77s.07.58.19.96c.12.38.49.58,1.09.58Zm9.23-3.08v-3.08c-.6,0-.98.26-1.15.77-.09.26-.13.52-.13.77s.06.58.19.96c.13.38.49.58,1.1.58Zm4.1-68.61l.13-.64c0-.68-.34-1.03-1.03-1.03-.51,0-1.24.21-2.18.64v.51c0,.68.34,1.03,1.02,1.03.51,0,1.2-.17,2.05-.51Zm-2.31-57.45v6.16c.85,0,1.45-.51,1.79-1.54.17-.51.26-1.02.26-1.54s-.13-1.16-.38-1.93c-.26-.76-.82-1.15-1.67-1.15Zm10.51,95.29v-3.08c-.6,0-.98.25-1.15.77-.09.25-.13.51-.13.77s.07.58.19.96c.14.38.5.58,1.09.58Z"></path><path class="uuid-e88be0b1-24a0-4a4a-8e88-3caf18cefbbe" d="m546.34,137.49c-1.97.34-3.85.51-5.64.51-5.56,0-10.65-1.77-15.27-5.32-4.61-3.55-8.29-8.79-11.02-15.71-2.74-6.92-4.36-14.15-4.88-21.67-.08-1.88-.13-3.72-.13-5.52,0-5.3.55-10.05,1.66-14.24,1.8-6.92,4.73-13.51,8.79-19.75,4.05-6.24,9-11.24,14.82-15,5.21-3.34,10.98-5,17.31-5,.85,0,1.71.05,2.56.13,4.45.51,8.42,2.12,11.93,4.81,3.51,2.69,6.79,5.71,9.88,9.04l2.95,2.95c4.53,4.45,7.48,9.24,8.85,14.36,1.02,3.85,1.54,8.08,1.54,12.7,0,1.46-.04,2.95-.13,4.49-.86,13.93-5.18,26.67-12.95,38.22-3.93,5.3-8.01,8.83-12.24,10.58-4.23,1.75-9.05,3.01-14.43,3.78-1.2.17-2.39.38-3.59.64Zm117.21-66.69c-4.87,11.2-10.58,21.93-17.12,32.19-6.53,10.26-13.4,20.39-20.58,30.39-6.58,9.23-12.93,18.58-19.04,28.02-6.11,9.44-11.52,19.22-16.22,29.3-2.14,4.87-4.96,10.56-8.47,17.06-3.51,6.49-7.57,12.42-12.18,17.76-4.62,5.34-9.67,8.66-15.13,9.94h-.52c-3.59.86-7.65,1.42-12.18,1.67h-1.41c-3.76,0-6.84-.94-9.24-2.82-2.73-3.08-4.14-7.14-4.23-12.18v-.9c0-4.79.6-8.81,1.8-12.05,1.02-2.31,2.43-4.49,4.23-6.54,1.54-1.8,2.87-3.72,3.98-5.77.94-2.4,1.71-4.79,2.3-7.18.52-2.31,1.24-4.57,2.18-6.8,3.51-7.27,7.99-14.11,13.46-20.52,1.97-2.57,3.85-5.05,5.64-7.44,14.36-20.26,28.17-40.87,41.43-61.82,6.07-9.32,12.31-18.55,18.72-27.7,1.02-1.37,2.01-2.77,2.95-4.23,1.2-1.79,2.44-3.76,3.72-5.9,2.05-3.42,4.31-6.75,6.8-10.01,2.48-3.24,5.3-5.73,8.46-7.44,2.73-1.28,5.98-1.92,9.74-1.92.52,0,1.99.04,4.43.12,2.43.08,5.01,1.24,7.76,3.46,2.74,2.56,4.15,5.77,4.23,9.62v.77c0,3.59-.6,7.27-1.8,11.03-1.2,3.76-2.43,7.05-3.72,9.88Zm-126.06,36.29c-.09.52-.13.98-.13,1.41,0,1.2.47,1.79,1.41,1.79.86,0,2.18-.55,3.98-1.66v-.38c0-1.45-.64-2.18-1.93-2.18-.77,0-1.88.34-3.33,1.02Zm9.62-28.34c-2.48,1.03-3.72,2.87-3.72,5.52,0,.25.06,1.24.19,2.95.13,1.71.71,3.93,1.73,6.67.26-.6.55-1.2.89-1.8,1.37-2.14,2.31-4.32,2.83-6.54.17-.51.25-1.07.25-1.67,0-1.71-.72-3.42-2.18-5.13Zm.77,21.42c.69-.51,1.03-.94,1.03-1.28,0-.51-1.03-.9-3.08-1.16.34.43.68.81,1.02,1.16l1.03,1.28Zm9.75-39.75c-1.71.34-3.42.73-5.13,1.16.18.94.69,1.54,1.55,1.79.34.08.64.12.89.12.52,0,1.03-.12,1.54-.38.77-.43,1.15-1.2,1.15-2.31v-.38Zm3.33,9.75h-1.02c-1.46,0-2.19.51-2.19,1.54,0,.86.56,2.14,1.67,3.85h.12c1.63,0,2.44-.64,2.44-1.92,0-.85-.34-2.01-1.03-3.46Zm1.55,33.34v3.08c.59,0,.98-.26,1.15-.77.08-.25.12-.51.12-.77s-.06-.58-.19-.96c-.12-.38-.49-.58-1.08-.58Zm3.21,95.93c-.18,2.74-.26,4.7-.26,5.9,0,1.11.22,1.75.64,1.92.17.09.38.13.64.13.42,0,.98-.13,1.67-.39-.18-.51-.56-1.54-1.16-3.08-.43-1.2-.94-2.7-1.53-4.49Zm2.44-7.31h1.02c1.45,0,2.18-.47,2.18-1.41s-.6-2.26-1.8-3.97c-1.63,0-2.44.68-2.44,2.05,0,.85.34,1.97,1.03,3.33Zm11.28-6.15c.51-1.37.77-2.48.77-3.33,0-1.29-.6-1.92-1.79-1.92-.43,0-.98.08-1.67.25-.17,1.03-.25,1.88-.25,2.56,0,1.8.59,2.7,1.79,2.7.34,0,.73-.09,1.15-.25Zm3.59-31.04h6.16c0-.86-.52-1.46-1.54-1.79-.51-.17-1.03-.26-1.54-.26s-1.15.13-1.92.39c-.78.25-1.16.81-1.16,1.66Zm3.85,13.21c.77-.17,1.49-.34,2.18-.51.26-.08.52-.13.77-.13.09-.08.17-.13.25-.13h.13c.51-.17,1.07-.3,1.66-.38-.17-.94-.73-1.54-1.66-1.8-.34-.17-.68-.25-1.03-.25-.43,0-.86.17-1.29.51-.68.34-1.02,1.11-1.02,2.31v.38Zm22.96-43.09v-6.16c-.86,0-1.46.51-1.8,1.54-.08.52-.12,1.03-.12,1.54s.11,1.16.32,1.92c.21.77.75,1.15,1.61,1.15Zm68.48,21.42c5.65.52,9.58,3.26,11.8,8.21,2.22,4.7,3.34,10.3,3.34,16.8,0,.26-.02,2.16-.07,5.71-.04,3.55-.71,8.49-1.99,14.82-1.29,6.33-2.69,11.2-4.23,14.62-3.85,8.64-9.09,15.56-15.72,20.78-6.63,5.21-13.91,7.83-21.86,7.83h-.26c-7.87,0-15.69-3.38-23.47-10.13-5.9-5.64-9.71-12.48-11.41-20.52-1.03-4.53-1.55-9.06-1.55-13.6,0-3.76.52-8.7,1.55-14.82,1.02-6.11,3.24-12.59,6.67-19.43,2.14-4.1,5.16-8.44,9.11-13.02,3.93-4.57,8.12-7.67,12.56-9.3,1.2-.34,3.04-.53,5.51-.58,2.48-.04,4.94,0,7.38.12,2.43.13,4.29.28,5.57.45,3.85.51,6.69,1.45,8.53,2.82,1.84,1.37,3.74,3.33,5.7,5.9.86,1.03,1.8,2.14,2.82,3.33Zm-63.74-11.41c2.48-2.65,5-5.26,7.57-7.82-1.2.25-2.23.43-3.08.51-2.31.26-3.81.77-4.49,1.54-.34.43-.51,1.11-.51,2.05s.16,2.18.51,3.72Zm20.65-42.83v.51c0,.69.34,1.03,1.03,1.03.51,0,1.19-.17,2.06-.51l.12-.64c0-.68-.34-1.03-1.03-1.03-.5,0-1.24.22-2.18.64Zm12.57,98.88c-1.46.69-2.87,1.37-4.23,2.05l-4.36,2.05h5c1.54,0,2.86-.21,3.98-.64,1.11-.43,2.35-1.92,3.71-4.49,1.03-2.14,1.54-4.19,1.54-6.16,0-1.03-.28-2.53-.84-4.49-.56-1.96-2.25-4.01-5.07-6.16,0,2.4-.13,4.49-.39,6.29-.26,1.28-.38,2.61-.38,3.97,0,2.4.33,4.92,1.02,7.57Zm-8.47-10.77v3.08c.6,0,.98-.25,1.16-.77.08-.26.12-.51.12-.77s-.07-.58-.19-.96c-.13-.38-.49-.58-1.1-.58Zm25.02,27.7c.17-.86.25-1.67.25-2.44,0-1.54-.38-3.05-1.15-4.55-.77-1.49-2.56-2.24-5.39-2.24-.17.43-.26.86-.26,1.28,0,.94.49,1.99,1.48,3.14.98,1.15,2.16,2.29,3.52,3.4.68.51,1.2.98,1.54,1.41Z"></path><path class="uuid-0cfa2fdd-66d3-465c-a410-6dc1c118318f" d="m5.35,412.92h-.47c-1.43-.28-2.63-.92-3.6-1.93s-1.39-2.22-1.26-3.65c-.02-.79.3-4.51.95-11.16.66-6.65,2.14-14.9,4.46-24.74,2.69-14.75,5.64-28.36,8.85-40.84,3.21-12.47,6.18-23.27,8.91-32.42,2.73-9.14,5.03-16.3,6.9-21.48,1.87-5.17,2.8-7.84,2.8-8,.44-1.43,1.33-2.44,2.66-3.02,1.33-.58,2.71-.65,4.14-.2,1.28.6,2.24,1.58,2.91,2.9.66,1.33.68,2.63.09,3.91-.16.32-1.54,4.26-4.14,11.82-2.61,7.56-5.66,17.86-9.18,30.89,2.45-3.68,5.1-7.21,7.95-10.6,2.85-3.38,5.98-6.6,9.39-9.68.93-.65,2.1-1.59,3.5-2.8,1.4-1.21,2.99-2.23,4.79-3.06,1.8-.83,3.64-1.34,5.53-1.54,1.9-.2,3.72.31,5.49,1.54,2.73,2,4.06,5.25,4,9.76-.07,4.5-.75,9.18-2.07,14.02-1.32,4.85-2.93,9.39-4.81,13.61-1.88,4.23-3.21,7.14-3.96,8.73-3.18,6.55-6.03,11.47-8.57,14.76-2.54,3.29-4.74,5.6-6.61,6.89-1.87,1.31-3.48,1.93-4.82,1.88-1.35-.05-2.34-.15-2.97-.29-5.24-1.31-8.21-7.33-8.91-18.06-2.88,6.07-5.27,12.16-7.19,18.28-1.93,6.13-3.46,11.96-4.61,17.52-1,5.07-1.91,10.35-2.75,15.82-.83,5.47-1.59,10.97-2.26,16.52-.13,1.26-.7,2.34-1.71,3.23-1.01.89-2.15,1.35-3.41,1.37Zm31.29-90.01c.97,1.25,1.47,2.58,1.5,4-.34,6.17-.36,10.79-.06,13.86.3,3.08.62,5.17.96,6.26,1.24-1.13,3.05-3.46,5.43-6.99,2.37-3.53,4.99-8.64,7.85-15.34,2.7-6.69,4.56-12.26,5.57-16.71,1.01-4.45,1.49-7.62,1.46-9.51-1.1.5-2.96,1.88-5.6,4.15-3.25,3.07-6.31,6.29-9.16,9.67-2.85,3.38-5.51,6.92-7.95,10.6Z"></path><path class="uuid-0cfa2fdd-66d3-465c-a410-6dc1c118318f" d="m81.23,358.23c-.62,0-1.1-.06-1.42-.21-1.27-.29-2.32-1.02-3.13-2.19-.81-1.17-1.08-2.38-.79-3.66,1.39-9.19,2.99-17.36,4.82-24.51,1.83-7.15,3.55-13.23,5.19-18.24,1.63-5.01,3.05-8.83,4.26-11.47,1.21-2.63,1.89-4.03,2.04-4.19.76-1.28,1.85-2.17,3.26-2.67,1.41-.51,2.75-.45,4.03.15,1.27.76,2.17,1.85,2.68,3.26.5,1.42.37,2.76-.39,4.04-.16,0-.88,1.52-2.16,4.54-1.28,3.03-2.89,7.41-4.81,13.14,4.29-6.25,9.1-12.36,14.43-18.31,5.33-5.96,11.26-11.06,17.81-15.31,1.24-.82,2.54-1.04,3.89-.68,1.35.37,2.43,1.17,3.25,2.42.82,1.25,1.08,2.55.79,3.89-.29,1.35-1.06,2.43-2.3,3.25-4.68,2.94-9.07,6.56-13.16,10.82-4.1,4.28-7.88,8.78-11.32,13.51-3.46,4.74-6.56,9.42-9.31,14.06-2.75,4.64-5.07,8.8-6.97,12.47-1.9,3.68-3.9,7.9-6.01,12.69-.75,2.07-2.3,3.13-4.68,3.18Z"></path><path class="uuid-0cfa2fdd-66d3-465c-a410-6dc1c118318f" d="m161.8,357.24c-2.06.04-3.76-.16-5.11-.61-1.35-.44-2.59-1.05-3.71-1.82-.96-.61-1.84-1.46-2.66-2.55-.81-1.08-1.39-2.46-1.75-4.11-.34-1.65-.46-3.67-.36-6.04.11-2.37.68-5.15,1.72-8.33.29-1.27.7-2.54,1.22-3.82.53-1.27,1.09-2.63,1.69-4.06l.45-.96c1.97-4.31,4.36-8.7,7.2-13.19,2.83-4.48,5.78-8.57,8.86-12.28,3.08-3.69,6.1-6.76,9.05-9.19,2.95-2.43,5.62-3.67,7.98-3.72,2.05-.04,3.76.51,5.13,1.67,1.36,1.16,2.23,2.76,2.59,4.8.37,2.36-.2,5.38-1.71,9.04-1.5,3.67-3.68,7.47-6.51,11.4-2.84,3.94-6.36,7.6-10.56,11-4.19,3.41-8.72,5.95-13.58,7.64-.76,1.75-1.39,3.46-1.91,5.13-.52,1.67-.84,3.3-.96,4.88-.42,2.38-.24,3.72.56,4.02.16.15,1.07.29,2.74.42,1.65.12,4.68-.65,9.07-2.32,4.39-1.67,10.41-4.73,18.06-9.15,7.65-4.42,17.61-11.03,29.92-19.82,1.25-.82,2.59-1.13,4.01-.92,1.43.21,2.54.93,3.37,2.18.81,1.25,1.12,2.58.91,4.01-.21,1.43-.93,2.55-2.18,3.37-9.02,6.51-16.93,11.89-23.71,16.14-6.79,4.25-12.72,7.65-17.79,10.21-5.09,2.56-9.43,4.34-13.05,5.37-3.61,1.02-6.6,1.56-8.96,1.61Zm17.59-53.46c-.77,1.12-1.65,2.33-2.65,3.61-1,1.29-2.04,2.57-3.12,3.86,2.48-2.57,4.4-5.07,5.77-7.47Z"></path><path class="uuid-0cfa2fdd-66d3-465c-a410-6dc1c118318f" d="m216.5,355.38c-.47,0-1.19-.13-2.14-.43-1.27-.45-2.2-1.21-2.77-2.31-.58-1.09-.72-2.27-.43-3.55,1.44-6.82,3.04-13.3,4.8-19.42,1.77-6.12,3.47-11.45,5.12-15.98,1.64-4.54,3.03-8.16,4.15-10.87,1.13-2.71,1.77-4.22,1.92-4.55.6-1.28,1.57-2.2,2.9-2.78,1.33-.58,2.71-.57,4.15.03,1.28.76,2.17,1.81,2.67,3.14.5,1.33.45,2.64-.16,3.92,0,.16-.75,2.07-2.24,5.73-1.51,3.67-3.31,8.6-5.38,14.81.77-.97,1.46-1.89,2.07-2.77.61-.88,1.3-1.8,2.08-2.77,5.38-6.9,10.01-12.37,13.87-16.41,3.86-4.03,7.12-6.98,9.77-8.86,2.64-1.87,4.87-2.95,6.68-3.23,1.81-.28,3.43-.19,4.86.25,4.77,1.32,7,6.01,6.7,14.08-.11,2.22-.18,4.39-.22,6.52-.04,2.13-.11,4.15-.23,6.04-.25,3.33-.41,6.65-.51,9.97-.09,3.32-.03,6.01.18,8.05,1.09-.81,2.6-2.15,4.54-4,1.93-1.86,4.44-4.56,7.53-8.1,5.1-5.64,9.3-10.11,12.64-13.42,3.32-3.3,6.11-5.82,8.37-7.52,2.25-1.71,4.13-2.73,5.63-3.08,1.49-.35,2.88-.3,4.15.15,2.39.9,3.8,2.45,4.24,4.65.44,2.2.68,4.17.72,5.91v.47c.04,1.74.29,3.94.74,6.62.45,2.68,1.96,4.86,4.52,6.54,1.12.76,2.91,1.36,5.38,1.78,2.45.42,5.81.35,10.07-.21,4.25-.56,9.56-1.9,15.91-4.01,6.35-2.11,14-5.31,22.91-9.61,1.25-.81,2.59-.96,4.02-.44,1.44.53,2.48,1.49,3.14,2.9.66,1.26.72,2.55.2,3.91-.53,1.36-1.42,2.36-2.66,3.02-15.79,7.76-28.96,12.58-39.51,14.46-10.54,1.88-18.86.99-24.94-2.67-2.24-1.38-4.02-2.96-5.31-4.75-1.31-1.79-2.33-3.63-3.08-5.5-.75-1.89-1.23-3.73-1.42-5.55-.2-1.81-.31-3.35-.34-4.61-1.71,1.31-3.93,3.36-6.63,6.18-2.71,2.83-6.3,6.73-10.77,11.73-5.86,6.76-10.66,11.48-14.4,14.16-3.73,2.69-7.19,3.43-10.38,2.24-3.35-1.35-5.22-4.39-5.64-9.12-.42-4.73-.4-11.69.04-20.86.12-1.74.24-3.68.35-5.82.11-2.13.23-4.31.34-6.52l-.06-2.84c-.79.33-1.8.99-3.04,1.96-1.25.97-2.84,2.43-4.77,4.37-1.94,1.94-4.29,4.47-7.07,7.62-2.78,3.13-6.01,7.12-9.7,11.93-2.62,3.37-5.12,6.67-7.5,9.88-2.38,3.21-4.42,6.1-6.1,8.66l-5.74,8.42c-.91,1.6-2.32,2.42-4.21,2.46Z"></path><path class="uuid-0cfa2fdd-66d3-465c-a410-6dc1c118318f" d="m402.74,342.44c-5.53.12-10.06-1.29-13.59-4.21-3.38-2.93-5.32-6.68-5.81-11.25s-.31-9.16.54-13.76c.85-4.59,1.95-8.69,3.29-12.27,1.35-3.58,2.25-5.77,2.71-6.58.6-1.28,1.57-2.2,2.9-2.78,1.33-.58,2.63-.57,3.91.03,1.44.76,2.41,1.81,2.91,3.14.51,1.34.46,2.64-.15,3.92-1.21,2.55-2.3,5.42-3.26,8.6-.96,3.18-1.68,6.28-2.17,9.29-.49,3.01-.59,5.78-.3,8.3.29,2.53,1.08,4.33,2.36,5.4.64.46,1.95.95,3.94,1.46,1.99.52,5.14.25,9.47-.79,4.32-1.04,10.04-3.21,17.16-6.53,7.12-3.31,16.21-8.48,27.28-15.5,1.24-.82,2.58-1.08,4.01-.79,1.43.28,2.55,1.05,3.37,2.29.81,1.25,1.08,2.58.79,4.01-.29,1.43-1.05,2.55-2.3,3.37-25.42,16.18-44.44,24.4-57.08,24.66Zm-2.61-56.59c-.32,0-.51-.03-.59-.1-.09-.08-.28-.12-.6-.11-1.43-.28-2.55-1.05-3.37-2.29-.81-1.24-1.08-2.59-.79-4.01l.85-4.29c.29-1.42,1.05-2.55,2.3-3.36,1.24-.81,2.58-1.08,4.01-.79,1.43.28,2.55,1.05,3.37,2.3.81,1.25,1.07,2.58.79,4.01l-.86,4.29c-.29,1.27-.9,2.31-1.83,3.12-.93.81-2.03,1.23-3.29,1.26Z"></path><path class="uuid-0cfa2fdd-66d3-465c-a410-6dc1c118318f" d="m495.69,366.79c-1.9.04-3.41-.63-4.54-2.03-.49-.62-.87-1.41-1.11-2.35-.26-.94-.19-2.84.23-5.69.41-2.85,1.3-7.06,2.69-12.62,1.38-5.56,3.47-13.26,6.27-23.12.89-2.86,1.74-5.64,2.55-8.35.81-2.71,1.59-5.33,2.32-7.87-5.57,5.49-10.69,10.22-15.34,14.19-4.66,3.97-8.78,7.34-12.35,10.09-1.87,1.31-3.82,2.57-5.84,3.79-2.03,1.23-4.02,2.22-5.99,2.97-1.96.75-3.92,1.15-5.9,1.19-1.98.04-3.77-.48-5.37-1.55-1.76-1.06-2.94-2.55-3.52-4.43-.59-1.88-.83-3.89-.72-6.03.11-2.14.42-4.36.93-6.66.5-2.3,1.05-4.49,1.64-6.56,1.18-3.81,2.41-7.19,3.69-10.15,1.28-2.95,1.99-4.5,2.15-4.67.6-1.27,1.62-2.17,3.03-2.67,1.41-.5,2.75-.45,4.04.15,1.27.61,2.17,1.62,2.67,3.03.5,1.41.45,2.75-.15,4.03-1.22,2.39-2.27,4.87-3.16,7.41-.9,2.55-1.67,4.98-2.34,7.28-.67,2.31-1.18,4.33-1.53,6.08-.36,1.75-.45,3.09-.27,4.03.78-.17,2.2-.75,4.23-1.75,2.03-.99,5.03-3.07,8.98-6.23,3.96-3.16,9.09-7.62,15.36-13.36,6.28-5.74,13.97-13.37,23.1-22.88.77-.81,1.79-1.34,3.05-1.61,1.25-.26,2.45,0,3.57.75,2.24,1.37,3,3.41,2.26,6.11-2.37,7.63-4.69,15.35-6.98,23.14-2.29,7.79-4.34,15.02-6.18,21.7-1.84,6.67-3.37,12.44-4.61,17.28-1.24,4.85-1.92,8.22-2.05,10.12.34.94.51,1.57.52,1.89.03,1.42-.46,2.66-1.46,3.71-1.01,1.05-2.3,1.59-3.88,1.62Z"></path><path class="uuid-0cfa2fdd-66d3-465c-a410-6dc1c118318f" d="m537.73,348.6c-.47,0-1.19-.13-2.14-.43-1.27-.45-2.2-1.22-2.78-2.31-.58-1.09-.72-2.27-.43-3.55,1.44-6.82,3.04-13.3,4.8-19.41,1.77-6.12,3.47-11.45,5.12-15.99,1.64-4.54,3.03-8.16,4.15-10.87,1.12-2.71,1.76-4.22,1.92-4.55.6-1.27,1.58-2.2,2.9-2.78,1.33-.58,2.71-.56,4.15.03,1.27.76,2.17,1.81,2.67,3.14.5,1.33.44,2.64-.16,3.92,0,.16-.75,2.07-2.24,5.73-1.51,3.67-3.3,8.6-5.38,14.81.77-.96,1.46-1.89,2.07-2.77.62-.88,1.31-1.8,2.08-2.77,5.38-6.91,10.01-12.37,13.87-16.41,3.86-4.03,7.12-6.98,9.77-8.86,2.64-1.87,4.87-2.95,6.68-3.23,1.81-.27,3.44-.19,4.87.25,4.77,1.32,7,6.01,6.7,14.09-.11,2.21-.18,4.38-.21,6.52-.04,2.13-.11,4.15-.23,6.05-.25,3.33-.41,6.65-.5,9.96-.09,3.32-.03,6.01.17,8.05,1.09-.81,2.6-2.14,4.54-4,1.93-1.86,4.44-4.56,7.53-8.1,5.1-5.63,9.31-10.11,12.64-13.42,3.32-3.31,6.11-5.81,8.37-7.52,2.25-1.71,4.13-2.73,5.63-3.08,1.49-.35,2.88-.3,4.15.15,2.39.9,3.81,2.45,4.24,4.65.44,2.2.68,4.17.72,5.91v.47c.05,1.74.29,3.94.74,6.62.45,2.68,1.95,4.86,4.52,6.54,1.12.77,2.91,1.36,5.37,1.78,2.46.43,5.82.35,10.07-.21,4.25-.56,9.56-1.9,15.91-4.01,6.35-2.11,13.99-5.31,22.9-9.61,1.25-.81,2.59-.96,4.02-.44,1.44.53,2.48,1.49,3.14,2.9.66,1.25.72,2.55.2,3.91-.53,1.36-1.41,2.36-2.66,3.02-15.8,7.76-28.96,12.58-39.51,14.46-10.55,1.88-18.86.99-24.94-2.67-2.24-1.37-4.02-2.96-5.31-4.75-1.31-1.79-2.33-3.62-3.08-5.5-.75-1.88-1.23-3.73-1.42-5.55-.2-1.81-.31-3.34-.33-4.61-1.72,1.3-3.93,3.36-6.63,6.18-2.71,2.83-6.3,6.73-10.77,11.72-5.86,6.76-10.66,11.48-14.4,14.16-3.74,2.69-7.19,3.43-10.39,2.24-3.35-1.35-5.22-4.39-5.64-9.12-.42-4.73-.41-11.69.03-20.86.12-1.74.23-3.68.34-5.81.11-2.14.23-4.31.34-6.52l-.06-2.85c-.79.33-1.8.98-3.04,1.96-1.25.97-2.83,2.43-4.77,4.37-1.94,1.94-4.29,4.48-7.07,7.62-2.78,3.14-6.01,7.12-9.7,11.94-2.62,3.37-5.12,6.67-7.5,9.87-2.38,3.21-4.41,6.1-6.09,8.66l-5.75,8.42c-.92,1.59-2.32,2.41-4.21,2.45Z"></path><path class="uuid-0cfa2fdd-66d3-465c-a410-6dc1c118318f" d="m135.35,473.4c.48-2.67,1.94-4.65,4.77-2.33-.6,1.78-3.05,2.83-.52,4.57-1.97.79-1.52,2.52-1.41,4.09-.67-.73-1.34-1.48-1.99-2.22.07-.12.15-.2.23-.35.56-1-1.33-2.36-1.08-3.76Z"></path><path class="uuid-0cfa2fdd-66d3-465c-a410-6dc1c118318f" d="m541.23,492.14c.91-.04,1.44.15,1.71.48-1.82,1.64-3.63,3.25-5.48,4.84-2.1-1.4,2.04-5.28,3.76-5.33Z"></path><path class="uuid-0cfa2fdd-66d3-465c-a410-6dc1c118318f" d="m170.48,509.79c-.97-.76-1.9-1.56-2.85-2.33,1.49-1.31,3.52-2.49,4.4-1.56.97,1.03.02,2.91-1.54,3.89Z"></path><path class="uuid-0cfa2fdd-66d3-465c-a410-6dc1c118318f" d="m148.82,490.7c-2.84-2.76-5.63-5.56-8.33-8.43.87-1.33,1.89-1.31,2.7-2.9-.56-1.23-1.42-1.38-.93-2.68,1.67-4.48,4.33.91,7.31,2.11,1.17.47,2.14.24,3-.08,1.18,1.2,2.36,2.4,3.56,3.58-.81,1.59-2.18,3.25-2.68,4.42-.43,1.04.27,3.15-.34,3.7-.97.9-2.68.34-4.29.28Z"></path><path class="uuid-0cfa2fdd-66d3-465c-a410-6dc1c118318f" d="m184.37,518.33c-.54.31-.92.64-1.27.95-1.48-1.03-2.89-2.15-4.35-3.21.18-.04.35-.09.54-.16,1.88-.59,2.89-2.1,3.95-1.94,1.29.19,3.77,2.15,3.75,2.87,0,1.1-2.79,1.57-2.62,1.49Z"></path><path class="uuid-0cfa2fdd-66d3-465c-a410-6dc1c118318f" d="m634.95,264.31c.08,1.24.16,2.48.22,3.72-.45-.52-.8-1.14-.94-1.95-.1-.43.13-1.09.72-1.77Z"></path><path class="uuid-0cfa2fdd-66d3-465c-a410-6dc1c118318f" d="m621.5,209.13c-1.05.61-1.44,1.68-1.73,1.67-1.87.1-5.31-3.41-6.55-5.99-.49-1.02-.17-2.5-.83-3.27-.06-.05-.22-.08-.4-.1-1.44-4.59-3.03-9.14-4.72-13.66.3.1.65.02.92-.35.38-.51-.17-1.15-.91-1.28-.28-.06-.49-.02-.63.04-12.16-31.93-30.51-62.11-55.25-88.63-26.58-28.5-57.85-49.95-91.52-64.4.87-.81.41-1.9,1.85-1.75,1.46,1.04.09,3.01,1.72,3.12,1.27-1.6,1.91-2.75,1.34-4.26-.64-1.56-2.76-1.69-3.46-2.9-1.04-1.8.16-3.61.58-5.4,1.11.47,2.24.93,3.36,1.4-.37.15-.82.37-1.37.78.18-.13-2.39,1.1-.18,2.53,1.57,1.01,3.05-1.5,2.84-2.76,34.16,15.04,65.9,37.05,92.96,66.07,32.39,34.74,54.32,75.47,66.01,118.31-1.46.2-3.14.34-4.01.84Zm-126.73-164.71c-5.55-7.67-8.52,5.15,0,0h0Zm32.85,28.55c1.14,1.91,4.87-1.86,6.18-2.85-2.17-1.45-7.24,1.12-6.18,2.85Zm34.81,28.64c-.84.42-1.22.93-1.41,1.47,1.41,1.5,3.43-.44,1.41-1.47Zm-23.1-22.84c-.17-2.13-3.36-3.66-4.77-3.4-.63.12-2.22.22-2.02,1.91.11,1.54,7.15,6.05,6.79,1.49Z"></path><path class="uuid-0cfa2fdd-66d3-465c-a410-6dc1c118318f" d="m444.51,15.31c1.86.65,3.71,1.34,5.56,2.01-1.96.07-3.88-.36-5.56-2.01Z"></path><path class="uuid-0cfa2fdd-66d3-465c-a410-6dc1c118318f" d="m423.07,11.73c-.93-1.41,0-1.99.13-2.76,1.29.34,2.61.64,3.92.99-1.15,1.03-3.26,1.64-4.05,1.77Z"></path><path class="uuid-0cfa2fdd-66d3-465c-a410-6dc1c118318f" d="m552.99,478.66c1.46-1.61,4.64-7.65,7.3-3.27-.05.06-.1.1-.14.15-1.17.61-2.12-.07-3.38.99.09.89.57,1.12,1.14,1.45-2.17,2.27-4.41,4.5-6.65,6.72-3.48-2.21.22-4.42,1.73-6.03Z"></path><path class="uuid-0cfa2fdd-66d3-465c-a410-6dc1c118318f" d="m357.57,2.51c.52-.03,1.78-1.11,2.49-2.43,9.56.25,19.07.96,28.56,2.18.28.67.47,1.32.38,1.94-.3,2.1-1.75.73-2.23,3,3.16-2.45,4.68.29,7.32.16,2.92-.12,3.88-3.67,6.74-1.34-2.8.43-6.07,2.21-4.17,4.35.93,1.04,1.39-.78,2.94-.62,2.02.27,2.99,1.87,4.14-.93,1.65,2.66,3.45,3.62,3.74,6.05,2.27-1.66,3.68,1.46,5.9.21-.42-1.92-3.74-5.13-4.09-7.25-.1-.57.63-1.34,1.02-1.86,2.53.53,5.08,1.05,7.59,1.64-.01.02-.08.03-.08.06-2.93,2.66,2,5.66,3.69,8.01-.55,1.02-5.77-2.72-5.7.11.04,3.1,3.76,1.24,4.95,2.32.46.4.68,1.13.92,1.92-5.12-1.34-10.29-2.52-15.47-3.56-.04-.06-.07-.14-.15-.17-.33-.09-.62-.08-.86-.04-2.98-.59-5.96-1.13-8.95-1.61-.7-.96-4.09-5.59-3.66-5.29-2.61-1.87-7.65,1.05-9.79,2.49.68.18,1.31.63,1.93,1.16-6.24-.75-12.49-1.26-18.76-1.58.44-.33.85-.73,1.26-1.24-1.56-1.85-4.27.3-6.64.78-.58.13-1.35.15-2.15.19-2.17-.05-4.36-.08-6.53-.07.59-.28.66-1.44-1.5-1.66.22,1.04.61,1.5.98,1.65-3.57,0-7.14.12-10.71.27.15-.83.36-1.76.18-2.49-.16-.61-2.46-5.32-1.74-4.57-4.07-4.3-8.51,4.96-13.19,2.46-1,2.17,2.44,2.08,3.36,3.41.06.08.3.89.57,1.87-58.85,4.84-116.56,28.72-163.11,72.12-14.2,13.25-26.64,27.69-37.38,42.98-.43-.05-.86.06-1.32.42.18.28.36.51.54.77-.56.78-1.08,1.59-1.63,2.39-1.65-.57-3.6-1.01-4.43-.74.71.88,1.43,2.56,2.29,3.89-1.67,2.57-3.29,5.14-4.87,7.75-1.79-2.09-3.35-4.02-5.77-1.52-2.48,2.55.64,3.43,1.64,5.1.4.7-.15,1.94.44,2.52-2.09,3.62-4.06,7.28-5.95,10.96-.18-.35-.4-.69-.69-.99-1.09-1.11-3.78-.45-5.3-2.09-1.22-1.29.94-2.06-1.81-2.59.12,1.43,1.22,1.86.61,2.95-1.33,2.31-2.56.89-3.73-.38,1.73-3.43,3.57-6.81,5.45-10.18.05.03.12.08.14.14,1.44,1.69.83,3.14,1.64,5.1,4.21-1.95,1.29-5.08-.89-6.87,13.88-24.56,31.7-47.47,53.44-67.74C214.56,24.38,285.11-.71,355.28.02c.88,1.17.94,2.58,2.28,2.49ZM113.42,150.7c.84-.79,1.02-1.69.5-2.74-.37.87-1.29,1.66-.5,2.74ZM297.19,8.95c-.05-.03-1.08-.14-1.17.37-.38,2.04,4.03.15,1.17-.37Zm52.75-4.95c-3.32-1.99-1.85,3.59,0,0h0Z"></path><path class="uuid-0cfa2fdd-66d3-465c-a410-6dc1c118318f" d="m615.94,215.33c1.95.39,2.75,3.54,3.78,3.69,2.57.33,4.57-5.32,6.82-7.12,1.89,7.28,3.4,14.65,4.69,22.03-3.44-.86-9.74,1.77-11.12.18-.49-.6.81-2.47.36-3.63-.41-1.19-.96-1.84-1.56-2.2-.89-4.33-1.88-8.65-2.98-12.95Z"></path><path class="uuid-0cfa2fdd-66d3-465c-a410-6dc1c118318f" d="m197.94,514.13c-2.35.03-1.78-2.94-.51-3.5,3.39-1.51,1.91,3.46.51,3.5Z"></path><path class="uuid-0cfa2fdd-66d3-465c-a410-6dc1c118318f" d="m260.15,540.01c.75.08,1.26,1.11.57,1.52-.95.58-2.27-1.68-.57-1.52Z"></path><path class="uuid-0cfa2fdd-66d3-465c-a410-6dc1c118318f" d="m246.03,544.57c-1.92-4.93-5.98-4.22-6.96-8.62l.96-.67c2.05,2.37,5.02,2.17,6.3,4.25,3.34-2.79,5.26-.12,6.63,2.61,1.61,3.18,5.3,6.13,6.17,8.49-4.36-1.53-8.69-3.15-12.99-4.88.02-.44,0-.85-.12-1.18Z"></path><path class="uuid-0cfa2fdd-66d3-465c-a410-6dc1c118318f" d="m172.31,501.65c-.9-.24-1.02-1.82-2.02-2.53-1.44-1.09-6.33-1.52-4.12-5.64,1,1.39,2.91,2.07,4.55,2.15,1.79,1.53,3.63,3.01,5.49,4.49-1.53.69-2.99,1.77-3.89,1.53Z"></path><path class="uuid-0cfa2fdd-66d3-465c-a410-6dc1c118318f" d="m97.49,167l.98,1.67c1.62-.14,3.39-.14,4.74-.88,1.03-.54,1.67-1.67,2.53-1.92.17-.05.44-.04.71,0-13.23,31.96-20.25,66.1-20.75,100.48-1.08-1.29-3.01-2.56-4.07-2.34-3.82.76-1.55,6.63-6.23,7.29,4.91,2.91,2.12,5.51-.75,4.97-.78-38.61,6.3-77.17,20.94-113.11.57,1.31,1.17,2.62,1.9,3.85Z"></path><path class="uuid-0cfa2fdd-66d3-465c-a410-6dc1c118318f" d="m110.14,143.98c.41-1.06,1.1-1.23,1.7-1.34-1.43,3.14-2.86,6.31-4.17,9.52-1.12-.86-1.85-1.87-1.39-3.41.2-.68,2.83-1.28,4.06-2.8.29-.35-.38-1.52-.2-1.97Z"></path><path class="uuid-0cfa2fdd-66d3-465c-a410-6dc1c118318f" d="m102.92,150.68c-.86-.39-1.09-2.57.98-1.69,1.56.66-.06,2.17-.98,1.69Z"></path><path class="uuid-0cfa2fdd-66d3-465c-a410-6dc1c118318f" d="m103.89,156.14c.2.08,1.11.73,1.61,1.59-.36.94-.76,1.89-1.09,2.83-2.27.17-4.47-6.16-.51-4.42Z"></path><path class="uuid-0cfa2fdd-66d3-465c-a410-6dc1c118318f" d="m91.06,207.84c.1.09.2.25.31.37-.53,2.91-1.02,5.83-1.45,8.75-1.85-2.34-2.08-7.81,1.14-9.12Z"></path><path class="uuid-0cfa2fdd-66d3-465c-a410-6dc1c118318f" d="m88.14,187.53c.97.37,2.29,1.69,1.07,2.66-2.35,1.86-4.22-3.91-1.07-2.66Z"></path><path class="uuid-0cfa2fdd-66d3-465c-a410-6dc1c118318f" d="m92.12,202.97c.08.05.1.12.16.17-.13.64-.22,1.28-.35,1.92-1.44.35-1.57-3.57.19-2.1Z"></path><path class="uuid-0cfa2fdd-66d3-465c-a410-6dc1c118318f" d="m128.36,463.07c-.43-1.11.48-1.17.96-1.24,3-.4.01,3.76-.96,1.24Z"></path><path class="uuid-0cfa2fdd-66d3-465c-a410-6dc1c118318f" d="m189.83,513.52c1.14-.23,2.49-.36,2.8,1.91.07.69.01,1.18-.15,1.52-1.3-.89-2.63-1.73-3.93-2.65.16-.36.54-.65,1.27-.78Z"></path><path class="uuid-0cfa2fdd-66d3-465c-a410-6dc1c118318f" d="m165.42,490.98c-1.57,1.39-3.35,1.75-5.4,2.76-1.93-1.5.6-3.51.45-5.13-.13-1.2-2.84-1.87-1.12-3.13.73.68,1.49,1.33,2.21,2.02.09.43.26.87.88,1.13.19.09.35.09.53.14.82.75,1.63,1.47,2.46,2.21Z"></path><path class="uuid-0cfa2fdd-66d3-465c-a410-6dc1c118318f" d="m97.22,182.63c.32-1.05,1.46-.98,2.46-.55-.16.41-.35.8-.51,1.2-.73.24-1.42.24-1.95-.65Z"></path><path class="uuid-0cfa2fdd-66d3-465c-a410-6dc1c118318f" d="m85.3,188.99c1.62-1.6,4.76,3.15,4.54,3.08,1.24.4,3.56-1.27,5.33-1.31.4,0,.8.05,1.19.13-.62,1.75-1.29,3.47-1.89,5.23-.2-.07-.39-.13-.51-.19-1.36-.67-10.08-5.53-8.67-6.94Z"></path><path class="uuid-0cfa2fdd-66d3-465c-a410-6dc1c118318f" d="m545.09,483.19c-1.42.62-3.43,3.54-5.49,4.77-.51-.12-1.09.08-1.69.51-.53,0-1.06-.15-1.56-.61,1.52-1.49,6.26-5.92,8.75-4.67Z"></path><path class="uuid-0cfa2fdd-66d3-465c-a410-6dc1c118318f" d="m102.55,159.23c-6.69,3.56-4.79-5.25,0,0h0Z"></path><path class="uuid-0cfa2fdd-66d3-465c-a410-6dc1c118318f" d="m96.4,180.79c-2.04,1.17-4.29-.76-4.74-2-1.15-3.17,2.88-5.16,6.42-2.51.03-2.04-3.37-3.01-1.42-4.81,3.19,3.73,5.06,1.46,7.76-.6-1.07,2.37-2.07,4.78-3.06,7.17-2.21-1.38-3.66,2-4.96,2.74Z"></path><path class="uuid-0cfa2fdd-66d3-465c-a410-6dc1c118318f" d="m570.35,460.81c1.32-2.62-.37-10.08-3.95-6.36-.98,1.02,1.21,5.58-2.52,6.08,4.58,5.98-2.61,3.77-5.14,5.02-1.19.57-2.85,3.21-4.98,5.25-1.17-.63-2.87-.57-4.09-.26,14.23-14.96,26.42-31.18,36.61-48.3.43.1,1.05,0,1.91-.45-.38-.49-.72-.8-1.02-1.04,3.01-5.14,5.88-10.33,8.53-15.64,1.72.82,4.06,2.16,4.59,2.74,2.93,3.56-.69,6.09.48,8.29.08.13.58.43,1.29.75-.91,1.68-1.78,3.37-2.72,5.02-.71.08-1.33.42-1.7.99.21.28.48.53.76.73-6.77,11.84-14.47,23.28-23.07,34.23-1.72.15-3.46.91-4.97,2.93Zm17.47-22.92c-6.03-4.3-6.12,6.84,0,0h0Zm-6.49,1.66c-.71-.36-1.4-.72-2.29.15.52,1.12,1.4.57,2.29-.15Z"></path><path class="uuid-0cfa2fdd-66d3-465c-a410-6dc1c118318f" d="m99.45,163.77c1.13-.43,5.44.94,4.23,3.31-1.76,3.47-8.58-1.58-4.23-3.31Z"></path><path class="uuid-0cfa2fdd-66d3-465c-a410-6dc1c118318f" d="m546.55,473.77c0,.08.04.18.05.27-.71.56-1.32,1.14-1.92,1.56.61-.61,1.26-1.21,1.87-1.83Z"></path><path class="uuid-0cfa2fdd-66d3-465c-a410-6dc1c118318f" d="m603.73,405.93c-1.05-.67-1.79-.22-2.11-.96-.62-1.54,1.78-6.28,3.26-7.09,1.75-.92,3.8,1.19,5.14-.2.9-.88,1.14-3.41-1.76-5.98,2.11-1.14.76-4.59,2.07-5.28,2.63-1.35,3.54,2.55,4.02,4.37-2.38,5.78-4.93,11.49-7.71,17.14-.16.06-.36.12-.48.12-2.14-.2-.3-.8-2.44-2.12Z"></path><path class="uuid-0cfa2fdd-66d3-465c-a410-6dc1c118318f" d="m617.4,373.81c3.57-1.06-.38,3.52-.96.68-.1-.64.76-.61.96-.68Z"></path><path class="uuid-0cfa2fdd-66d3-465c-a410-6dc1c118318f" d="m265.02,549.09c-.15-1.36-2.88-1.13-.94-2.71,3.1-.64,4.89,4.54,7.93,3.13,4.78-2.21-2.05-4.82-1.33-6.74,0-.02.04-.03.05-.04,2.2.68,4.36,1.4,6.59,2.04.03.43,0,.77.21.93,1.38.99,3.33.18,4.06,1.01,1.14,1.28.5,4.59,1.55,5.65.25.26,7.35,2.22,7.91,1.7,2.72-2.5-3.97-4.22-4.05-5.85-.03-.35.06-.63.19-.86,76.34,18.76,159.44,4.15,225.93-44.67,1.26.68,4.06.52,2.8-1.79-.03-.08-.07-.09-.09-.16,5.68-4.28,11.23-8.89,16.63-13.68.56.37,1.3.78,1.69,1.81.04.13.02.3-.05.5-.12-.1-.26-.21-.48-.33-.07-.03-.52.44-.64.46-2.4.36-.21.82.87.61-.19.57-.38,1.27-.29,2.06.2,1.63,1.47,1.13.7,2.4-.4.67-1.14.98-1.97,1.19,0-.55-.57-1.13-1.08-1.19-.51.42-.3,1.02.11,1.43-.93.21-1.89.43-2.57.99-.59.44-.69,2.25-1.7,3.11-1.44,1.14-3.01.68-3.68,1.59-1.62,2.17.4,3.29-.35,5.05-.49,1.1-4.49,3.99-4.28,4.88.06.22.15.38.27.52-11.64,8.5-23.77,16-36.28,22.49.18-1.09-.2-2.03-1.72-1.76-.16,0-2.78,2.46-2.15,3.75-67.32,33.63-144.87,38.66-215.04,15.65.48-.94,1.34-1.88,1.19-3.15Zm240.13-40.23c2.97,2.94,4.04-3.08,0,0h0Zm-1.83,2.19c-1.38.71-1.67,1.62-2.14,2.46,1.51,1.04,3.08-.86,2.14-2.46Zm-16.26,18.05c1.02-.41,3.45.02,4.05-.41.57-.43,3.31-7.06,2.89-8.24-4.31,2.11-8.61,5.79-9.97,9.82,1.49,2.04,1.57-.59,3.03-1.16Zm-16.95,6.02c-.46-1.87-1.24-1.84-3.52-.91-6.01,2.45,4.35,4.12,3.52.91Zm-62.31,17.42c-4.21-5.57-6.16,5.24,0,0h0Z"></path><path class="uuid-0cfa2fdd-66d3-465c-a410-6dc1c118318f" d="m606.08,392.75c-.47,1.39-1.64.02-2.5,1.24-.7,1.04,1.44,1.32-.38,2.21-.82.39-1.46-.48-3.11-.3,1.37-3.04,2.67-6.11,3.93-9.2,1.58,0,3.11-.08,4.66-.55-4.88,1.38-2.04,4.92-2.6,6.62Z"></path><path class="uuid-0cfa2fdd-66d3-465c-a410-6dc1c118318f" d="m452.87,27c1.78.32.8,2.75-.43,3.06-.36-.15-.72-.31-1.08-.46-.66-1.02.6-2.78,1.51-2.61Z"></path></g></svg> 